*
*
G04 PADS 9.3 Build Number: 433611 generated Gerber (RS-274-X) file*
G04 PC Version=2.1*
*
%IN "fmc_dac.pcb"*%
*
%MOIN*%
*
%FSLAX35Y35*%
*
*
*
*
G04 PC Standard Apertures*
*
*
G04 Thermal Relief Aperture macro.*
%AMTER*
1,1,$1,0,0*
1,0,$1-$2,0,0*
21,0,$3,$4,0,0,45*
21,0,$3,$4,0,0,135*
%
*
*
G04 Annular Aperture macro.*
%AMANN*
1,1,$1,0,0*
1,0,$2,0,0*
%
*
*
G04 Odd Aperture macro.*
%AMODD*
1,1,$1,0,0*
1,0,$1-0.005,0,0*
%
*
*
G04 PC Custom Aperture Macros*
*
*
*
*
*
*
G04 PC Aperture Table*
*
%ADD010C,0.001*%
%ADD013C,0.008*%
%ADD035C,0.018*%
%ADD043C,0.1*%
%ADD049C,0.006*%
%ADD050C,0.004*%
%ADD051C,0.022*%
%ADD053C,0.002*%
%ADD059C,0.05*%
%ADD060R,0.05X0.05*%
*
*
*
*
G04 PC Circuitry*
G04 Layer Name fmc_dac.pcb - circuitry*
%LPD*%
*
*
G04 PC Custom Flashes*
G04 Layer Name fmc_dac.pcb - flashes*
%LPD*%
*
*
G04 PC Circuitry*
G04 Layer Name fmc_dac.pcb - circuitry*
%LPD*%
*
G54D10*
G54D13*
G01X219064Y97077D02*
X221815Y99828D01*
X225871*
X226884Y100842*
Y124732*
X264000Y97500D02*
X268851D01*
X271100Y99748*
X319002*
X319250Y99500*
X334500*
X149076Y111352D02*
X151352Y109076D01*
Y104541*
X153741Y102152*
X149076Y111352D02*
Y138290D01*
X173224Y162438*
X187804*
X148595Y102336D02*
X146389Y104541D01*
Y139647*
X171937Y165195*
X185722*
X153984Y107157D02*
X156368Y109541D01*
Y120910*
X156654Y124694*
X191775Y159814*
X159071Y107482D02*
X160909Y109320D01*
Y125085*
X193063Y157239*
X164209Y111933D02*
X166488Y114213D01*
Y125834*
X195095Y154440*
Y201777*
X197836Y204518*
X169181Y111933D02*
X171522Y114275D01*
Y126853*
X197314Y152644*
Y200643*
X199408Y202738*
Y204704*
X194311Y102240D02*
X191451Y105101D01*
Y131925*
X196668Y137142*
X199066Y112169D02*
Y112217D01*
X204053Y117204*
X205430*
X209099Y120873*
Y175632*
X204005Y112169D02*
X211226Y119389D01*
Y176838*
X214035Y102145D02*
X216569Y104679D01*
X220803*
X221455Y105330*
Y114597*
X223844Y116986*
Y127628*
X231489Y108969D02*
Y118070D01*
X233674Y120254*
X231489Y108969D02*
X233674Y106784D01*
X259045Y111437D02*
X256583Y108976D01*
Y104326*
X258899Y102010*
X248776Y101886D02*
Y104371D01*
X253026Y108621*
X243776Y101886D02*
X250440Y108550D01*
Y130653*
X285431Y115526D02*
X291226Y109731D01*
Y104336*
X285431Y115526D02*
X285431D01*
X294082Y117192D02*
X294100Y117210D01*
Y124840*
X293736Y101846D02*
X296503Y104613D01*
Y109454*
X288736Y101846D02*
X291226Y104336D01*
X304000Y102500D02*
X306351D01*
X308563Y104711*
X314288*
X316454Y106878*
Y113873*
X318400Y115819*
Y118287*
X308969Y107079D02*
X311476Y109586D01*
X154293Y131560D02*
Y135327D01*
X177727Y158761*
X154844Y127516D02*
X156947Y129619D01*
Y132947*
X180068Y156068*
X199895Y132144D02*
X200985Y133234D01*
Y136578*
X199895Y132144D02*
Y123144D01*
X201519Y121519*
X201522*
X196419Y121568D02*
Y132928D01*
X198994Y135503*
X196419Y121568D02*
Y104597D01*
X198877Y102138*
X213563Y125745D02*
Y137446D01*
X213567Y137450*
Y177755*
X213563Y125745D02*
X216516Y122792D01*
Y117721*
X241900Y132093D02*
X244520Y129473D01*
X247909*
X241900Y132093D02*
Y145354D01*
X244440Y147894*
X233436Y123959D02*
X236523Y120872D01*
Y109098*
X238756Y106866*
X244280Y132400D02*
Y144694D01*
X246165Y146579*
X250499Y134191D02*
X253026Y131664D01*
Y108621*
X247323Y136634D02*
Y133770D01*
X250440Y130653*
X294100Y124840D02*
X294121Y124861D01*
Y127264*
X294100Y124840D02*
Y125344D01*
X314000Y120000D02*
X316687D01*
X318400Y118287*
X192722Y156959D02*
X193063Y157239D01*
X232119Y146388D02*
X232353D01*
X253525Y147500D02*
X255799Y149775D01*
X256143*
X253525Y147500D02*
Y139914D01*
X263716Y129723*
X263716D02*
Y106826D01*
X261775Y155066D02*
Y148622D01*
X279323Y131074*
Y117115*
X281590Y114848*
Y109570*
X284025Y107135*
X256311Y146489D02*
X266016Y136785D01*
Y109249*
X268577Y106688*
X268299Y157333D02*
X280162Y145470D01*
Y133362*
X285431Y128093*
Y115526*
X268941Y144907D02*
X271460Y147425D01*
X294468Y140578D02*
X294491Y140602D01*
Y165529*
X259760Y160692D02*
Y147510D01*
X276468Y130801*
Y109448*
X278903Y107013*
X250920Y161567D02*
Y138824D01*
X261534Y128211*
Y104039*
X263731Y101842*
X248768Y165189D02*
Y138609D01*
X259045Y128333*
Y111437*
X273997Y170132D02*
X287299Y156830D01*
Y137518*
X298894Y125923*
Y117005*
X273697Y170432D02*
X273997Y170132D01*
X272606Y167409D02*
X285557Y154458D01*
Y135828*
X294121Y127264*
X268618Y160440D02*
X282172Y146885D01*
Y134795*
X287530Y129437*
Y118427*
X296503Y109454*
X272391Y171864D02*
X273997Y170259D01*
Y170132*
X207270Y184052D02*
X213567Y177755D01*
X224605Y199281D02*
Y194136D01*
X244440Y174301*
Y147894*
X258078Y185414D02*
X259421Y186758D01*
X263212*
X292011Y157958*
Y139262*
X313893Y117379*
Y107003*
X262960Y184286D02*
X290059Y157187D01*
Y138136*
X311476Y116718*
Y109586*
X275280Y188056D02*
X297738Y165598D01*
Y138089*
X275232Y184789D02*
X294491Y165529D01*
X175988Y213306D02*
X176957Y214275D01*
X185039*
X186123Y213191*
X171514Y212016D02*
X175839Y216341D01*
X186370*
X202558Y205150D02*
Y125126D01*
X206516Y121168*
X200008Y200581D02*
X200955Y201528D01*
Y202600*
X200008Y200581D02*
Y137555D01*
X200985Y136578*
X208857Y202503D02*
Y185925D01*
X215717Y179065*
Y128814*
X221516Y123016*
Y118243*
X204114Y205090D02*
Y180618D01*
X209099Y175632*
X205708Y205130D02*
Y182356D01*
X211226Y176838*
X218306Y200459D02*
Y188102D01*
X232353Y174055*
Y146388*
X219850Y201353D02*
Y189753D01*
X219850D02*
X234357Y175246D01*
Y143110*
X223041Y205457D02*
Y192859D01*
X241458Y174441*
Y162734*
X241458D02*
X241487Y162705D01*
Y159115*
X241495Y155212*
X221456Y205259D02*
Y191592D01*
X237891Y175157*
X239586Y173170*
Y157189*
X210440Y203017D02*
Y188542D01*
X227465Y171516*
Y139511*
X241434Y125542*
Y114633*
X241461*
X243992Y112102*
X212007Y213191D02*
Y190169D01*
X229217Y172959*
Y141329*
X244566Y125980*
X244566D02*
Y121046D01*
X246430Y119181*
Y113760*
X248540Y111650*
X226154Y201443D02*
Y195627D01*
X246165Y175616*
Y146579*
X230905Y202466D02*
Y201109D01*
X277955Y154059*
X281516*
X232480Y205457D02*
Y203211D01*
X279071Y156620*
Y156578*
X229298Y201944D02*
Y199632D01*
X254278Y174653*
Y173202*
X264881Y162599*
Y158064*
X266506Y156439*
Y154143*
X271460Y149189*
Y147425*
X227755Y201347D02*
Y198141D01*
X251542Y174354*
Y172520*
X262614Y161448*
X262614D02*
Y158173D01*
X264629Y156158*
Y153316*
X269512Y148433*
X234054Y216341D02*
X240992D01*
X285065Y172268*
Y172012*
X234054Y213191D02*
X241376D01*
X283000Y171568*
Y170129*
X287187Y165942*
X239500Y235000D02*
X245814Y228686D01*
Y227375*
X266551Y206638*
X267362*
X283500Y190500*
X258645Y229467D02*
X260167Y227945D01*
Y224901*
X250273Y232394D02*
Y228999D01*
X252614Y226657*
Y223262*
X279229Y313457D02*
X280691Y314919D01*
X311024*
X312607Y316502*
Y318573*
X279229Y313457D02*
Y310899D01*
X280935Y309193*
X312486*
X313947Y307731*
X294213Y300422D02*
X295918Y302128D01*
X311998*
X313947Y304077*
Y307731*
X294213Y300422D02*
Y208328D01*
X295553Y206988*
X297502*
X298964Y208450*
Y275084*
X300426Y276546*
X305420*
X307491Y274475*
Y207963*
X310049Y205405*
X313217*
X315287Y207476*
Y276546*
X317480Y278739*
X321510*
X324190Y276059*
Y208085*
X325642Y206633*
X328931*
X331235Y208937*
Y247310*
X333926Y250000*
X340000*
X278133Y323690D02*
X279351Y324908D01*
X309927*
X311389Y326370*
Y328562*
X278133Y323690D02*
Y321131D01*
X279108Y320157*
X311024*
X312607Y318573*
X290000Y340000D02*
X290022Y339978D01*
Y333118*
X293360Y329780*
X310171*
X311389Y328562*
G54D35*
X196259Y213191D03*
Y216341D03*
X199408D03*
X202558Y213191D03*
X199408D03*
X202558Y216341D03*
X208857Y213191D03*
X205708D03*
X208857Y216341D03*
X205708D03*
X212007Y213191D03*
X218306D03*
Y216341D03*
X221456D03*
Y213191D03*
X212007Y216341D03*
X224605Y213191D03*
Y216341D03*
X230905Y213191D03*
X234054Y216341D03*
X230905D03*
X227755D03*
Y213191D03*
X234054D03*
X202558Y222640D03*
X199408D03*
X202558Y238388D03*
X199408D03*
X196259D03*
X193109D03*
X202558Y232089D03*
X199408D03*
X196259D03*
X193109D03*
X187091Y239013D03*
X202558Y219491D03*
X199408D03*
X202558Y225790D03*
Y235239D03*
X199408Y225790D03*
Y235239D03*
X196259Y225790D03*
Y235239D03*
X193109Y225790D03*
Y235239D03*
X227755Y222640D03*
X230905D03*
X227755Y232089D03*
X230905D03*
X227755Y225790D03*
Y235239D03*
Y219491D03*
X230905Y225790D03*
Y235239D03*
Y219491D03*
X227755Y238388D03*
X230905D03*
X234054D03*
X237204D03*
X196259Y241538D03*
Y244687D03*
X193109Y241538D03*
Y244687D03*
X187019Y245413D03*
X199408Y244687D03*
Y241538D03*
X202558D03*
Y244687D03*
Y247837D03*
X199408D03*
X196259D03*
X202558Y250987D03*
X199408D03*
X196259D03*
X193109Y247837D03*
Y250987D03*
X221456Y241538D03*
Y244687D03*
Y247837D03*
Y250987D03*
X208857Y241538D03*
X205708D03*
X208857Y244687D03*
X205708D03*
X208857Y247837D03*
X205708D03*
X208857Y250987D03*
X205708D03*
X224605Y241538D03*
X227755D03*
X224605Y244687D03*
X227755D03*
X224605Y247837D03*
X227755D03*
X224605Y250987D03*
X227755D03*
X230905Y241538D03*
Y244687D03*
X234054Y241538D03*
X230905Y247837D03*
X234054Y244687D03*
Y247837D03*
X230905Y250987D03*
X234054D03*
G54D43*
X146042Y340000D03*
X136042Y330000D03*
Y350000D03*
X156042D03*
Y330000D03*
X220156Y340000D03*
X210156Y330000D03*
Y350000D03*
X230156D03*
Y330000D03*
G54D49*
X207270Y184052D02*
Y205190D01*
X224605Y199281D02*
Y213191D01*
X186123D02*
X196259D01*
X186370Y216341D02*
X196259D01*
X197836Y214768D02*
X199408Y216341D01*
X202558Y205150D02*
Y213191D01*
X199408Y204704D02*
Y213191D01*
X201058Y214841D02*
X202558Y216341D01*
X208857Y202503D02*
Y213191D01*
X204114Y214747D02*
X205708Y216341D01*
X207270Y214754D02*
X208857Y216341D01*
X205708Y205130D02*
Y213191D01*
X218306Y200459D02*
Y213191D01*
X219850Y201353D02*
Y205160D01*
X221456Y205259D02*
Y213191D01*
X210440Y214774D02*
X212007Y216341D01*
X218306D02*
X219850Y214798D01*
X221456Y216341D02*
X223041Y214756D01*
X230905Y202466D02*
Y213191D01*
X227755Y201347D02*
Y213191D01*
X224605Y216341D02*
X226154Y214792D01*
X230905Y216341D02*
X232480Y214766D01*
X227755Y216341D02*
X229298Y214798D01*
X187091Y239013D02*
X190382D01*
X191358Y239989*
X197892Y243171D02*
X199408Y244687D01*
X197860Y239989D02*
X199408Y241538D01*
X187019Y245413D02*
X189080D01*
X191322Y243171*
G54D50*
X197836Y204518D02*
Y214768D01*
X200955Y202600D02*
Y213724D01*
X201058Y213827*
Y214841*
X204114Y205090D02*
Y214747D01*
X207270Y205190D02*
Y214754D01*
X219850Y205160D02*
Y214798D01*
X223041Y205457D02*
Y214756D01*
X210440Y203017D02*
Y214774D01*
X226154Y201443D02*
Y214792D01*
X232480Y205457D02*
Y214766D01*
X229298Y201944D02*
Y214798D01*
X191322Y243171D02*
X197892D01*
X191358Y239989D02*
X197860D01*
G54D51*
X139016Y77126D03*
X134016Y72126D03*
X129016D03*
X139016Y67126D03*
X124016Y77126D03*
Y67126D03*
X159016Y77126D03*
X144016D03*
X154016Y72126D03*
X149016D03*
X159016Y67126D03*
X144016D03*
X179016Y77126D03*
X164016D03*
X174016Y72126D03*
X169016D03*
X179016Y67126D03*
X164016D03*
X199016Y77126D03*
X184016D03*
X194016Y72126D03*
X189016D03*
X199016Y67126D03*
X184016D03*
X219016Y77126D03*
X204016D03*
X214016Y72126D03*
X209016D03*
X219016Y67126D03*
X204016D03*
X229016Y77126D03*
X234016Y72126D03*
X239016D03*
X229016Y67126D03*
X259000Y76500D03*
X244016Y77126D03*
X249016D03*
Y72126D03*
X244016Y67126D03*
X249016D03*
X279000Y76500D03*
X274000D03*
X264016Y67126D03*
X269016D03*
X299000Y76500D03*
X294000D03*
X289000Y78000D03*
X284016Y67126D03*
X289016D03*
X309000Y77728D03*
X318988Y76512D03*
X313988D03*
X303278Y77278D03*
X304016Y67126D03*
X308723Y66833D03*
X324500Y78227D03*
X324016Y67126D03*
X123500Y90500D03*
X139016Y87126D03*
X134016Y97126D03*
Y82126D03*
X129016Y97126D03*
Y82126D03*
X159016Y87126D03*
X149016Y97126D03*
X144016Y87126D03*
X154016Y82126D03*
X149016D03*
X179016Y97126D03*
X174016Y87126D03*
X164016Y97126D03*
X169016Y82126D03*
X189500Y97500D03*
X184000Y98000D03*
X194016Y97126D03*
X189016Y87126D03*
X199016Y82126D03*
X184016D03*
X219016Y87126D03*
X209016Y97126D03*
X204016Y87126D03*
X214016Y82126D03*
X219064Y97077D03*
X228996Y92146D03*
X239016Y87126D03*
X234016Y82126D03*
X244016Y97126D03*
X249016Y87126D03*
X259016Y97126D03*
X249016Y82126D03*
X264000Y97500D03*
X279028Y81528D03*
X269016Y87126D03*
X274016Y97126D03*
X264016Y87126D03*
Y82126D03*
X268723Y82419D03*
X299000Y91500D03*
X284016Y92126D03*
Y97126D03*
X319000Y91500D03*
X314152Y97848D03*
X319086Y81469D03*
X309000Y86500D03*
X304000Y83000D03*
X309000D03*
X313988Y91512D03*
X304000Y97696D03*
X326000Y94500D03*
Y83500D03*
X328000Y81000D03*
X323500Y92208D03*
X324162Y96338D03*
X139016Y102126D03*
X134016Y107126D03*
X139016Y112126D03*
X129016Y102126D03*
X134016Y117126D03*
X129016Y107126D03*
Y117126D03*
Y112126D03*
X151516Y118513D03*
X159016Y102126D03*
X144016D03*
X149016Y107126D03*
X144016Y112126D03*
X148595Y102336D03*
X153741Y102152D03*
X153984Y107157D03*
X159071Y107482D03*
X181516Y117902D03*
X174016Y102126D03*
X169016Y107126D03*
X174016Y112126D03*
X164016Y107126D03*
Y117126D03*
X164209Y111933D03*
X169181D03*
X198877Y102138D03*
X194311Y102240D03*
X199066Y112169D03*
X190006Y102126D03*
X199016Y107126D03*
Y117126D03*
X221516Y118243D03*
X204005Y112169D03*
X216516Y117721D03*
X219016Y102126D03*
X204016D03*
X209016Y107126D03*
X204016D03*
X209016Y112126D03*
X214035Y102145D03*
X233674Y106784D03*
X229016Y117126D03*
Y107126D03*
X224016Y112126D03*
X239016Y102126D03*
Y112126D03*
X238756Y106866D03*
X248540Y111650D03*
X248776Y101886D03*
X243776D03*
X258899Y102010D03*
X256516Y118025D03*
X254500Y107000D03*
X254016Y102126D03*
X244016Y107126D03*
X259016D03*
X244016Y117126D03*
X243992Y112102D03*
X278903Y107013D03*
X263716Y106826D03*
X263731Y101842D03*
X269016Y117126D03*
Y112126D03*
Y102126D03*
X274016Y107126D03*
X279016Y112126D03*
X268577Y106688D03*
X284025Y107135D03*
X294082Y117192D03*
X293736Y101846D03*
X288736D03*
X294000Y108000D03*
X284016Y102126D03*
X298723Y102419D03*
X288602Y106712D03*
X299016Y107126D03*
Y112126D03*
X298894Y117005D03*
X304000Y102500D03*
X319081Y112919D03*
X319152Y102848D03*
X313893Y107003D03*
X316500Y117500D03*
X304016Y107126D03*
X309309Y102419D03*
X313723D03*
X319016Y107926D03*
X308969Y107079D03*
X334500Y99500D03*
X324000Y101500D03*
X323500Y112000D03*
X92352Y137080D03*
X105952D03*
X120595Y133318D03*
X154293Y131560D03*
X154844Y127516D03*
X198994Y135503D03*
X196668Y137142D03*
X201522Y121519D03*
X206516Y121168D03*
X233674Y120254D03*
X233436Y123959D03*
X223844Y127628D03*
X226884Y124732D03*
X247909Y129473D03*
X244280Y132400D03*
X250499Y134191D03*
X247323Y136634D03*
X297738Y138089D03*
X314000Y120000D03*
X318500Y139000D03*
X319000Y131000D03*
X313608Y139226D03*
X326000Y139000D03*
X338610Y139226D03*
X330932D03*
X329746Y134216D03*
X343728Y139226D03*
X92022Y149946D03*
X120595Y156018D03*
X105622Y149946D03*
X177727Y158761D03*
X180068Y156068D03*
X192722Y156959D03*
X232353Y146388D03*
X234357Y143110D03*
X241495Y155212D03*
X239586Y157189D03*
X256143Y149775D03*
X261775Y155066D03*
X256311Y146489D03*
X281516Y154059D03*
X268299Y157333D03*
X279071Y156578D03*
X268941Y144907D03*
X269512Y148433D03*
X300812Y148726D03*
X294468Y140578D03*
X316167Y148726D03*
X341169D03*
X328373D03*
X102708Y168915D03*
X102975Y176276D03*
X94142Y175875D03*
Y168648D03*
X119705Y175607D03*
X111808Y175875D03*
X119705Y169049D03*
X111273Y168915D03*
X127200Y176009D03*
X126932Y168648D03*
X145000Y168609D03*
X185722Y165195D03*
X187804Y162438D03*
X191775Y159814D03*
X259760Y160692D03*
X250920Y161567D03*
X248768Y165189D03*
X272606Y167409D03*
X268618Y160440D03*
X272391Y171864D03*
X285065Y172012D03*
X300812Y161274D03*
X287187Y165942D03*
X318726Y170774D03*
X313608D03*
X316167Y161274D03*
X325814Y170774D03*
X328373Y161274D03*
X330932Y170774D03*
X343728Y161274D03*
X102841Y182700D03*
X94008Y183236D03*
X115245Y192709D03*
X121945Y194678D03*
X115245Y196646D03*
X104760Y194634D03*
X121945Y198615D03*
X119303Y183370D03*
X110738Y183503D03*
X132335Y194678D03*
X139035Y192709D03*
X127140Y195662D03*
X132335Y198300D03*
X127200Y183102D03*
X148200Y193549D03*
X145000Y191309D03*
X258078Y185414D03*
X262960Y184286D03*
X275280Y188056D03*
X275232Y184789D03*
X283500Y190500D03*
X321000Y192500D03*
X326701Y180048D03*
X344065Y192502D03*
X101503Y216427D03*
X93874Y216293D03*
X100566Y209066D03*
X93741Y210538D03*
X121945Y202552D03*
X111139Y216561D03*
X119437Y215892D03*
X115245Y200583D03*
X110604Y209601D03*
X119571Y209468D03*
X132000Y201000D03*
X138200Y211419D03*
X126397Y209468D03*
X126798Y217096D03*
X151800Y211419D03*
X148200Y205100D03*
X175988Y213306D03*
X171514Y212016D03*
X94558Y236561D03*
X101503Y223253D03*
X93741Y222583D03*
X108158Y236561D03*
X119571Y223520D03*
X111541Y223922D03*
X138200Y228951D03*
Y221452D03*
X126397Y223253D03*
X151800Y228951D03*
Y221452D03*
X239500Y235000D03*
X258645Y229467D03*
X260167Y224901D03*
X252614Y223262D03*
X250273Y232394D03*
X94505Y242605D03*
X108105D03*
X123295Y258833D03*
X158309D03*
X202107Y257430D03*
X228601D03*
X256800Y249924D03*
Y244981D03*
Y239981D03*
X126080Y267313D03*
X139044Y270060D03*
X129880Y269282D03*
X147797Y267313D03*
X160116Y273179D03*
X151597Y269282D03*
X182614Y266594D03*
X256968Y266728D03*
X279982Y267166D03*
X270568Y266728D03*
X289982Y270266D03*
X336014Y278470D03*
X182614Y289294D03*
X177489Y296305D03*
X191089D03*
X256180Y283981D03*
X280361Y284374D03*
X269780Y283981D03*
X301375Y291310D03*
Y287010D03*
X290361Y287474D03*
X311070Y283882D03*
X310410Y296748D03*
X324010D03*
X324670Y283882D03*
X136042Y313178D03*
X177489Y310740D03*
X191089D03*
X210156Y306708D03*
X256180Y299519D03*
X281040Y301591D03*
X269780Y299519D03*
X291040Y304691D03*
X336014Y301170D03*
G54D53*
X91285Y226364D02*
Y206446D01*
X124104Y206447*
Y186299*
X91285*
Y166552*
X130298*
Y226365*
X91285Y226364*
X96649Y268349D02*
X106449D01*
Y298149*
X96649*
Y268349*
Y298048D02*
X106449D01*
X96649Y297868D02*
X106449D01*
X96649Y297688D02*
X106449D01*
X96649Y297508D02*
X106449D01*
X96649Y297328D02*
X106449D01*
X96649Y297148D02*
X106449D01*
X96649Y296968D02*
X106449D01*
X96649Y296788D02*
X106449D01*
X96649Y296608D02*
X106449D01*
X96649Y296428D02*
X106449D01*
X96649Y296248D02*
X106449D01*
X96649Y296068D02*
X106449D01*
X96649Y295888D02*
X106449D01*
X96649Y295708D02*
X106449D01*
X96649Y295528D02*
X106449D01*
X96649Y295348D02*
X106449D01*
X96649Y295168D02*
X106449D01*
X96649Y294988D02*
X106449D01*
X96649Y294808D02*
X106449D01*
X96649Y294628D02*
X106449D01*
X96649Y294448D02*
X106449D01*
X96649Y294268D02*
X106449D01*
X96649Y294088D02*
X106449D01*
X96649Y293908D02*
X106449D01*
X96649Y293728D02*
X106449D01*
X96649Y293548D02*
X106449D01*
X96649Y293368D02*
X106449D01*
X96649Y293188D02*
X106449D01*
X96649Y293008D02*
X106449D01*
X96649Y292828D02*
X106449D01*
X96649Y292648D02*
X106449D01*
X96649Y292468D02*
X106449D01*
X96649Y292288D02*
X106449D01*
X96649Y292108D02*
X106449D01*
X96649Y291928D02*
X106449D01*
X96649Y291748D02*
X106449D01*
X96649Y291568D02*
X106449D01*
X96649Y291388D02*
X106449D01*
X96649Y291208D02*
X106449D01*
X96649Y291028D02*
X106449D01*
X96649Y290848D02*
X106449D01*
X96649Y290668D02*
X106449D01*
X96649Y290488D02*
X106449D01*
X96649Y290308D02*
X106449D01*
X96649Y290128D02*
X106449D01*
X96649Y289948D02*
X106449D01*
X96649Y289768D02*
X106449D01*
X96649Y289588D02*
X106449D01*
X96649Y289408D02*
X106449D01*
X96649Y289228D02*
X106449D01*
X96649Y289048D02*
X106449D01*
X96649Y288868D02*
X106449D01*
X96649Y288688D02*
X106449D01*
X96649Y288508D02*
X106449D01*
X96649Y288328D02*
X106449D01*
X96649Y288148D02*
X106449D01*
X96649Y287968D02*
X106449D01*
X96649Y287788D02*
X106449D01*
X96649Y287608D02*
X106449D01*
X96649Y287428D02*
X106449D01*
X96649Y287248D02*
X106449D01*
X96649Y287068D02*
X106449D01*
X96649Y286888D02*
X106449D01*
X96649Y286708D02*
X106449D01*
X96649Y286528D02*
X106449D01*
X96649Y286348D02*
X106449D01*
X96649Y286168D02*
X106449D01*
X96649Y285988D02*
X106449D01*
X96649Y285808D02*
X106449D01*
X96649Y285628D02*
X106449D01*
X96649Y285448D02*
X106449D01*
X96649Y285268D02*
X106449D01*
X96649Y285088D02*
X106449D01*
X96649Y284908D02*
X106449D01*
X96649Y284728D02*
X106449D01*
X96649Y284548D02*
X106449D01*
X96649Y284368D02*
X106449D01*
X96649Y284188D02*
X106449D01*
X96649Y284008D02*
X106449D01*
X96649Y283828D02*
X106449D01*
X96649Y283648D02*
X106449D01*
X96649Y283468D02*
X106449D01*
X96649Y283288D02*
X106449D01*
X96649Y283108D02*
X106449D01*
X96649Y282928D02*
X106449D01*
X96649Y282748D02*
X106449D01*
X96649Y282568D02*
X106449D01*
X96649Y282388D02*
X106449D01*
X96649Y282208D02*
X106449D01*
X96649Y282028D02*
X106449D01*
X96649Y281848D02*
X106449D01*
X96649Y281668D02*
X106449D01*
X96649Y281488D02*
X106449D01*
X96649Y281308D02*
X106449D01*
X96649Y281128D02*
X106449D01*
X96649Y280948D02*
X106449D01*
X96649Y280768D02*
X106449D01*
X96649Y280588D02*
X106449D01*
X96649Y280408D02*
X106449D01*
X96649Y280228D02*
X106449D01*
X96649Y280048D02*
X106449D01*
X96649Y279868D02*
X106449D01*
X96649Y279688D02*
X106449D01*
X96649Y279508D02*
X106449D01*
X96649Y279328D02*
X106449D01*
X96649Y279148D02*
X106449D01*
X96649Y278968D02*
X106449D01*
X96649Y278788D02*
X106449D01*
X96649Y278608D02*
X106449D01*
X96649Y278428D02*
X106449D01*
X96649Y278248D02*
X106449D01*
X96649Y278068D02*
X106449D01*
X96649Y277888D02*
X106449D01*
X96649Y277708D02*
X106449D01*
X96649Y277528D02*
X106449D01*
X96649Y277348D02*
X106449D01*
X96649Y277168D02*
X106449D01*
X96649Y276988D02*
X106449D01*
X96649Y276808D02*
X106449D01*
X96649Y276628D02*
X106449D01*
X96649Y276448D02*
X106449D01*
X96649Y276268D02*
X106449D01*
X96649Y276088D02*
X106449D01*
X96649Y275908D02*
X106449D01*
X96649Y275728D02*
X106449D01*
X96649Y275548D02*
X106449D01*
X96649Y275368D02*
X106449D01*
X96649Y275188D02*
X106449D01*
X96649Y275008D02*
X106449D01*
X96649Y274828D02*
X106449D01*
X96649Y274648D02*
X106449D01*
X96649Y274468D02*
X106449D01*
X96649Y274288D02*
X106449D01*
X96649Y274108D02*
X106449D01*
X96649Y273928D02*
X106449D01*
X96649Y273748D02*
X106449D01*
X96649Y273568D02*
X106449D01*
X96649Y273388D02*
X106449D01*
X96649Y273208D02*
X106449D01*
X96649Y273028D02*
X106449D01*
X96649Y272848D02*
X106449D01*
X96649Y272668D02*
X106449D01*
X96649Y272488D02*
X106449D01*
X96649Y272308D02*
X106449D01*
X96649Y272128D02*
X106449D01*
X96649Y271948D02*
X106449D01*
X96649Y271768D02*
X106449D01*
X96649Y271588D02*
X106449D01*
X96649Y271408D02*
X106449D01*
X96649Y271228D02*
X106449D01*
X96649Y271048D02*
X106449D01*
X96649Y270868D02*
X106449D01*
X96649Y270688D02*
X106449D01*
X96649Y270508D02*
X106449D01*
X96649Y270328D02*
X106449D01*
X96649Y270148D02*
X106449D01*
X96649Y269968D02*
X106449D01*
X96649Y269788D02*
X106449D01*
X96649Y269608D02*
X106449D01*
X96649Y269428D02*
X106449D01*
X96649Y269248D02*
X106449D01*
X96649Y269068D02*
X106449D01*
X96649Y268888D02*
X106449D01*
X96649Y268708D02*
X106449D01*
X96649Y268528D02*
X106449D01*
X91285Y226364D02*
X130298D01*
X91285Y226164D02*
X130298D01*
X91285Y225964D02*
X130298D01*
X91285Y225764D02*
X130298D01*
X91285Y225564D02*
X130298D01*
X91285Y225364D02*
X130298D01*
X91285Y225164D02*
X130298D01*
X91285Y224964D02*
X130298D01*
X91285Y224764D02*
X130298D01*
X91285Y224564D02*
X130298D01*
X91285Y224364D02*
X130298D01*
X91285Y224164D02*
X130298D01*
X91285Y223964D02*
X130298D01*
X91285Y223764D02*
X130298D01*
X91285Y223564D02*
X130298D01*
X91285Y223364D02*
X130298D01*
X91285Y223164D02*
X130298D01*
X91285Y222964D02*
X130298D01*
X91285Y222764D02*
X130298D01*
X91285Y222564D02*
X130298D01*
X91285Y222364D02*
X130298D01*
X91285Y222164D02*
X130298D01*
X91285Y221964D02*
X130298D01*
X91285Y221764D02*
X130298D01*
X91285Y221564D02*
X130298D01*
X91285Y221364D02*
X130298D01*
X91285Y221164D02*
X130298D01*
X91285Y220964D02*
X130298D01*
X91285Y220764D02*
X130298D01*
X91285Y220564D02*
X130298D01*
X91285Y220364D02*
X130298D01*
X91285Y220164D02*
X130298D01*
X91285Y219964D02*
X130298D01*
X91285Y219764D02*
X130298D01*
X91285Y219564D02*
X130298D01*
X91285Y219364D02*
X130298D01*
X91285Y219164D02*
X130298D01*
X91285Y218964D02*
X130298D01*
X91285Y218764D02*
X130298D01*
X91285Y218564D02*
X130298D01*
X91285Y218364D02*
X130298D01*
X91285Y218164D02*
X130298D01*
X91285Y217964D02*
X130298D01*
X91285Y217764D02*
X130298D01*
X91285Y217564D02*
X130298D01*
X91285Y217364D02*
X130298D01*
X91285Y217164D02*
X130298D01*
X91285Y216964D02*
X130298D01*
X91285Y216764D02*
X130298D01*
X91285Y216564D02*
X130298D01*
X91285Y216364D02*
X130298D01*
X91285Y216164D02*
X130298D01*
X91285Y215964D02*
X130298D01*
X91285Y215764D02*
X130298D01*
X91285Y215564D02*
X130298D01*
X91285Y215364D02*
X130298D01*
X91285Y215164D02*
X130298D01*
X91285Y214964D02*
X130298D01*
X91285Y214764D02*
X130298D01*
X91285Y214564D02*
X130298D01*
X91285Y214364D02*
X130298D01*
X91285Y214164D02*
X130298D01*
X91285Y213964D02*
X130298D01*
X91285Y213764D02*
X130298D01*
X91285Y213564D02*
X130298D01*
X91285Y213364D02*
X130298D01*
X91285Y213164D02*
X130298D01*
X91285Y212964D02*
X130298D01*
X91285Y212764D02*
X130298D01*
X91285Y212564D02*
X130298D01*
X91285Y212364D02*
X130298D01*
X91285Y212164D02*
X130298D01*
X91285Y211964D02*
X130298D01*
X91285Y211764D02*
X130298D01*
X91285Y211564D02*
X130298D01*
X91285Y211364D02*
X130298D01*
X91285Y211164D02*
X130298D01*
X91285Y210964D02*
X130298D01*
X91285Y210764D02*
X130298D01*
X91285Y210564D02*
X130298D01*
X91285Y210364D02*
X130298D01*
X91285Y210164D02*
X130298D01*
X91285Y209964D02*
X130298D01*
X91285Y209764D02*
X130298D01*
X91285Y209564D02*
X130298D01*
X91285Y209364D02*
X130298D01*
X91285Y209164D02*
X130298D01*
X91285Y208964D02*
X130298D01*
X91285Y208764D02*
X130298D01*
X91285Y208564D02*
X130298D01*
X91285Y208364D02*
X130298D01*
X91285Y208164D02*
X130298D01*
X91285Y207964D02*
X130298D01*
X91285Y207764D02*
X130298D01*
X91285Y207564D02*
X130298D01*
X91285Y207364D02*
X130298D01*
X91285Y207164D02*
X130298D01*
X91285Y206964D02*
X130298D01*
X91285Y206764D02*
X130298D01*
X91285Y206564D02*
X130298D01*
X124104Y206364D02*
X130298D01*
X124104Y206164D02*
X130298D01*
X124104Y205964D02*
X130298D01*
X124104Y205764D02*
X130298D01*
X124104Y205564D02*
X130298D01*
X124104Y205364D02*
X130298D01*
X124104Y205164D02*
X130298D01*
X124104Y204964D02*
X130298D01*
X124104Y204764D02*
X130298D01*
X124104Y204564D02*
X130298D01*
X124104Y204364D02*
X130298D01*
X124104Y204164D02*
X130298D01*
X124104Y203964D02*
X130298D01*
X124104Y203764D02*
X130298D01*
X124104Y203564D02*
X130298D01*
X124104Y203364D02*
X130298D01*
X124104Y203164D02*
X130298D01*
X124104Y202964D02*
X130298D01*
X124104Y202764D02*
X130298D01*
X124104Y202564D02*
X130298D01*
X124104Y202364D02*
X130298D01*
X124104Y202164D02*
X130298D01*
X124104Y201964D02*
X130298D01*
X124104Y201764D02*
X130298D01*
X124104Y201564D02*
X130298D01*
X124104Y201364D02*
X130298D01*
X124104Y201164D02*
X130298D01*
X124104Y200964D02*
X130298D01*
X124104Y200764D02*
X130298D01*
X124104Y200564D02*
X130298D01*
X124104Y200364D02*
X130298D01*
X124104Y200164D02*
X130298D01*
X124104Y199964D02*
X130298D01*
X124104Y199764D02*
X130298D01*
X124104Y199564D02*
X130298D01*
X124104Y199364D02*
X130298D01*
X124104Y199164D02*
X130298D01*
X124104Y198964D02*
X130298D01*
X124104Y198764D02*
X130298D01*
X124104Y198564D02*
X130298D01*
X124104Y198364D02*
X130298D01*
X124104Y198164D02*
X130298D01*
X124104Y197964D02*
X130298D01*
X124104Y197764D02*
X130298D01*
X124104Y197564D02*
X130298D01*
X124104Y197364D02*
X130298D01*
X124104Y197164D02*
X130298D01*
X124104Y196964D02*
X130298D01*
X124104Y196764D02*
X130298D01*
X124104Y196564D02*
X130298D01*
X124104Y196364D02*
X130298D01*
X124104Y196164D02*
X130298D01*
X124104Y195964D02*
X130298D01*
X124104Y195764D02*
X130298D01*
X124104Y195564D02*
X130298D01*
X124104Y195364D02*
X130298D01*
X124104Y195164D02*
X130298D01*
X124104Y194964D02*
X130298D01*
X124104Y194764D02*
X130298D01*
X124104Y194564D02*
X130298D01*
X124104Y194364D02*
X130298D01*
X124104Y194164D02*
X130298D01*
X124104Y193964D02*
X130298D01*
X124104Y193764D02*
X130298D01*
X124104Y193564D02*
X130298D01*
X124104Y193364D02*
X130298D01*
X124104Y193164D02*
X130298D01*
X124104Y192964D02*
X130298D01*
X124104Y192764D02*
X130298D01*
X124104Y192564D02*
X130298D01*
X124104Y192364D02*
X130298D01*
X124104Y192164D02*
X130298D01*
X124104Y191964D02*
X130298D01*
X124104Y191764D02*
X130298D01*
X124104Y191564D02*
X130298D01*
X124104Y191364D02*
X130298D01*
X124104Y191164D02*
X130298D01*
X124104Y190964D02*
X130298D01*
X124104Y190764D02*
X130298D01*
X124104Y190564D02*
X130298D01*
X124104Y190364D02*
X130298D01*
X124104Y190164D02*
X130298D01*
X124104Y189964D02*
X130298D01*
X124104Y189764D02*
X130298D01*
X124104Y189564D02*
X130298D01*
X124104Y189364D02*
X130298D01*
X124104Y189164D02*
X130298D01*
X124104Y188964D02*
X130298D01*
X124104Y188764D02*
X130298D01*
X124104Y188564D02*
X130298D01*
X124104Y188364D02*
X130298D01*
X124104Y188164D02*
X130298D01*
X124104Y187964D02*
X130298D01*
X124104Y187764D02*
X130298D01*
X124104Y187564D02*
X130298D01*
X124104Y187364D02*
X130298D01*
X124104Y187164D02*
X130298D01*
X124104Y186964D02*
X130298D01*
X124104Y186764D02*
X130298D01*
X124104Y186564D02*
X130298D01*
X124104Y186364D02*
X130298D01*
X91285Y186164D02*
X130298D01*
X91285Y185964D02*
X130298D01*
X91285Y185764D02*
X130298D01*
X91285Y185564D02*
X130298D01*
X91285Y185364D02*
X130298D01*
X91285Y185164D02*
X130298D01*
X91285Y184964D02*
X130298D01*
X91285Y184764D02*
X130298D01*
X91285Y184564D02*
X130298D01*
X91285Y184364D02*
X130298D01*
X91285Y184164D02*
X130298D01*
X91285Y183964D02*
X130298D01*
X91285Y183764D02*
X130298D01*
X91285Y183564D02*
X130298D01*
X91285Y183364D02*
X130298D01*
X91285Y183164D02*
X130298D01*
X91285Y182964D02*
X130298D01*
X91285Y182764D02*
X130298D01*
X91285Y182564D02*
X130298D01*
X91285Y182364D02*
X130298D01*
X91285Y182164D02*
X130298D01*
X91285Y181964D02*
X130298D01*
X91285Y181764D02*
X130298D01*
X91285Y181564D02*
X130298D01*
X91285Y181364D02*
X130298D01*
X91285Y181164D02*
X130298D01*
X91285Y180964D02*
X130298D01*
X91285Y180764D02*
X130298D01*
X91285Y180564D02*
X130298D01*
X91285Y180364D02*
X130298D01*
X91285Y180164D02*
X130298D01*
X91285Y179964D02*
X130298D01*
X91285Y179764D02*
X130298D01*
X91285Y179564D02*
X130298D01*
X91285Y179364D02*
X130298D01*
X91285Y179164D02*
X130298D01*
X91285Y178964D02*
X130298D01*
X91285Y178764D02*
X130298D01*
X91285Y178564D02*
X130298D01*
X91285Y178364D02*
X130298D01*
X91285Y178164D02*
X130298D01*
X91285Y177964D02*
X130298D01*
X91285Y177764D02*
X130298D01*
X91285Y177564D02*
X130298D01*
X91285Y177364D02*
X130298D01*
X91285Y177164D02*
X130298D01*
X91285Y176964D02*
X130298D01*
X91285Y176764D02*
X130298D01*
X91285Y176564D02*
X130298D01*
X91285Y176364D02*
X130298D01*
X91285Y176164D02*
X130298D01*
X91285Y175964D02*
X130298D01*
X91285Y175764D02*
X130298D01*
X91285Y175564D02*
X130298D01*
X91285Y175364D02*
X130298D01*
X91285Y175164D02*
X130298D01*
X91285Y174964D02*
X130298D01*
X91285Y174764D02*
X130298D01*
X91285Y174564D02*
X130298D01*
X91285Y174364D02*
X130298D01*
X91285Y174164D02*
X130298D01*
X91285Y173964D02*
X130298D01*
X91285Y173764D02*
X130298D01*
X91285Y173564D02*
X130298D01*
X91285Y173364D02*
X130298D01*
X91285Y173164D02*
X130298D01*
X91285Y172964D02*
X130298D01*
X91285Y172764D02*
X130298D01*
X91285Y172564D02*
X130298D01*
X91285Y172364D02*
X130298D01*
X91285Y172164D02*
X130298D01*
X91285Y171964D02*
X130298D01*
X91285Y171764D02*
X130298D01*
X91285Y171564D02*
X130298D01*
X91285Y171364D02*
X130298D01*
X91285Y171164D02*
X130298D01*
X91285Y170964D02*
X130298D01*
X91285Y170764D02*
X130298D01*
X91285Y170564D02*
X130298D01*
X91285Y170364D02*
X130298D01*
X91285Y170164D02*
X130298D01*
X91285Y169964D02*
X130298D01*
X91285Y169764D02*
X130298D01*
X91285Y169564D02*
X130298D01*
X91285Y169364D02*
X130298D01*
X91285Y169164D02*
X130298D01*
X91285Y168964D02*
X130298D01*
X91285Y168764D02*
X130298D01*
X91285Y168564D02*
X130298D01*
X91285Y168364D02*
X130298D01*
X91285Y168164D02*
X130298D01*
X91285Y167964D02*
X130298D01*
X91285Y167764D02*
X130298D01*
X91285Y167564D02*
X130298D01*
X91285Y167364D02*
X130298D01*
X91285Y167164D02*
X130298D01*
X91285Y166964D02*
X130298D01*
X91285Y166764D02*
X130298D01*
X91285Y166564D02*
X130298D01*
X91285Y166552D02*
Y186299D01*
Y206446D02*
Y226364D01*
X91485Y166552D02*
Y186299D01*
Y206446D02*
Y226364D01*
X91685Y166552D02*
Y186299D01*
Y206446D02*
Y226364D01*
X91885Y166552D02*
Y186299D01*
Y206446D02*
Y226364D01*
X92085Y166552D02*
Y186299D01*
Y206446D02*
Y226364D01*
X92285Y166552D02*
Y186299D01*
Y206446D02*
Y226364D01*
X92485Y166552D02*
Y186299D01*
Y206446D02*
Y226364D01*
X92685Y166552D02*
Y186299D01*
Y206446D02*
Y226364D01*
X92885Y166552D02*
Y186299D01*
Y206446D02*
Y226364D01*
X93085Y166552D02*
Y186299D01*
Y206446D02*
Y226364D01*
X93285Y166552D02*
Y186299D01*
Y206446D02*
Y226364D01*
X93485Y166552D02*
Y186299D01*
Y206446D02*
Y226364D01*
X93685Y166552D02*
Y186299D01*
Y206446D02*
Y226364D01*
X93885Y166552D02*
Y186299D01*
Y206446D02*
Y226364D01*
X94085Y166552D02*
Y186299D01*
Y206446D02*
Y226364D01*
X94285Y166552D02*
Y186299D01*
Y206446D02*
Y226364D01*
X94485Y166552D02*
Y186299D01*
Y206446D02*
Y226364D01*
X94685Y166552D02*
Y186299D01*
Y206446D02*
Y226364D01*
X94885Y166552D02*
Y186299D01*
Y206446D02*
Y226364D01*
X95085Y166552D02*
Y186299D01*
Y206446D02*
Y226364D01*
X95285Y166552D02*
Y186299D01*
Y206446D02*
Y226364D01*
X95485Y166552D02*
Y186299D01*
Y206446D02*
Y226364D01*
X95685Y166552D02*
Y186299D01*
Y206446D02*
Y226364D01*
X95885Y166552D02*
Y186299D01*
Y206446D02*
Y226364D01*
X96085Y166552D02*
Y186299D01*
Y206446D02*
Y226364D01*
X96285Y166552D02*
Y186299D01*
Y206446D02*
Y226364D01*
X96485Y166552D02*
Y186299D01*
Y206446D02*
Y226364D01*
X96685Y166552D02*
Y186299D01*
Y206446D02*
Y226364D01*
X96885Y166552D02*
Y186299D01*
Y206446D02*
Y226364D01*
X97085Y166552D02*
Y186299D01*
Y206446D02*
Y226364D01*
X97285Y166552D02*
Y186299D01*
Y206446D02*
Y226364D01*
X97485Y166552D02*
Y186299D01*
Y206446D02*
Y226364D01*
X97685Y166552D02*
Y186299D01*
Y206446D02*
Y226364D01*
X97885Y166552D02*
Y186299D01*
Y206446D02*
Y226364D01*
X98085Y166552D02*
Y186299D01*
Y206446D02*
Y226364D01*
X98285Y166552D02*
Y186299D01*
Y206446D02*
Y226364D01*
X98485Y166552D02*
Y186299D01*
Y206446D02*
Y226364D01*
X98685Y166552D02*
Y186299D01*
Y206446D02*
Y226364D01*
X98885Y166552D02*
Y186299D01*
Y206446D02*
Y226364D01*
X99085Y166552D02*
Y186299D01*
Y206446D02*
Y226364D01*
X99285Y166552D02*
Y186299D01*
Y206446D02*
Y226364D01*
X99485Y166552D02*
Y186299D01*
Y206446D02*
Y226364D01*
X99685Y166552D02*
Y186299D01*
Y206446D02*
Y226364D01*
X99885Y166552D02*
Y186299D01*
Y206446D02*
Y226364D01*
X100085Y166552D02*
Y186299D01*
Y206446D02*
Y226364D01*
X100285Y166552D02*
Y186299D01*
Y206446D02*
Y226364D01*
X100485Y166552D02*
Y186299D01*
Y206446D02*
Y226364D01*
X100685Y166552D02*
Y186299D01*
Y206446D02*
Y226364D01*
X100885Y166552D02*
Y186299D01*
Y206446D02*
Y226364D01*
X101085Y166552D02*
Y186299D01*
Y206446D02*
Y226364D01*
X101285Y166552D02*
Y186299D01*
Y206446D02*
Y226364D01*
X101485Y166552D02*
Y186299D01*
Y206446D02*
Y226364D01*
X101685Y166552D02*
Y186299D01*
Y206446D02*
Y226364D01*
X101885Y166552D02*
Y186299D01*
Y206446D02*
Y226364D01*
X102085Y166552D02*
Y186299D01*
Y206446D02*
Y226364D01*
X102285Y166552D02*
Y186299D01*
Y206446D02*
Y226364D01*
X102485Y166552D02*
Y186299D01*
Y206446D02*
Y226364D01*
X102685Y166552D02*
Y186299D01*
Y206446D02*
Y226364D01*
X102885Y166552D02*
Y186299D01*
Y206446D02*
Y226364D01*
X103085Y166552D02*
Y186299D01*
Y206446D02*
Y226364D01*
X103285Y166552D02*
Y186299D01*
Y206446D02*
Y226364D01*
X103485Y166552D02*
Y186299D01*
Y206446D02*
Y226364D01*
X103685Y166552D02*
Y186299D01*
Y206446D02*
Y226364D01*
X103885Y166552D02*
Y186299D01*
Y206446D02*
Y226364D01*
X104085Y166552D02*
Y186299D01*
Y206446D02*
Y226364D01*
X104285Y166552D02*
Y186299D01*
Y206446D02*
Y226364D01*
X104485Y166552D02*
Y186299D01*
Y206446D02*
Y226364D01*
X104685Y166552D02*
Y186299D01*
Y206446D02*
Y226364D01*
X104885Y166552D02*
Y186299D01*
Y206446D02*
Y226364D01*
X105085Y166552D02*
Y186299D01*
Y206446D02*
Y226364D01*
X105285Y166552D02*
Y186299D01*
Y206446D02*
Y226364D01*
X105485Y166552D02*
Y186299D01*
Y206446D02*
Y226364D01*
X105685Y166552D02*
Y186299D01*
Y206446D02*
Y226364D01*
X105885Y166552D02*
Y186299D01*
Y206446D02*
Y226364D01*
X106085Y166552D02*
Y186299D01*
Y206446D02*
Y226364D01*
X106285Y166552D02*
Y186299D01*
Y206446D02*
Y226364D01*
X106485Y166552D02*
Y186299D01*
Y206446D02*
Y226364D01*
X106685Y166552D02*
Y186299D01*
Y206446D02*
Y226364D01*
X106885Y166552D02*
Y186299D01*
Y206446D02*
Y226364D01*
X107085Y166552D02*
Y186299D01*
Y206446D02*
Y226364D01*
X107285Y166552D02*
Y186299D01*
Y206446D02*
Y226364D01*
X107485Y166552D02*
Y186299D01*
Y206446D02*
Y226364D01*
X107685Y166552D02*
Y186299D01*
Y206446D02*
Y226364D01*
X107885Y166552D02*
Y186299D01*
Y206446D02*
Y226364D01*
X108085Y166552D02*
Y186299D01*
Y206446D02*
Y226364D01*
X108285Y166552D02*
Y186299D01*
Y206446D02*
Y226364D01*
X108485Y166552D02*
Y186299D01*
Y206446D02*
Y226364D01*
X108685Y166552D02*
Y186299D01*
Y206446D02*
Y226364D01*
X108885Y166552D02*
Y186299D01*
Y206446D02*
Y226364D01*
X109085Y166552D02*
Y186299D01*
Y206446D02*
Y226364D01*
X109285Y166552D02*
Y186299D01*
Y206446D02*
Y226364D01*
X109485Y166552D02*
Y186299D01*
Y206446D02*
Y226364D01*
X109685Y166552D02*
Y186299D01*
Y206446D02*
Y226364D01*
X109885Y166552D02*
Y186299D01*
Y206446D02*
Y226364D01*
X110085Y166552D02*
Y186299D01*
Y206446D02*
Y226364D01*
X110285Y166552D02*
Y186299D01*
Y206446D02*
Y226364D01*
X110485Y166552D02*
Y186299D01*
Y206446D02*
Y226364D01*
X110685Y166552D02*
Y186299D01*
Y206446D02*
Y226364D01*
X110885Y166552D02*
Y186299D01*
Y206446D02*
Y226364D01*
X111085Y166552D02*
Y186299D01*
Y206446D02*
Y226364D01*
X111285Y166552D02*
Y186299D01*
Y206446D02*
Y226364D01*
X111485Y166552D02*
Y186299D01*
Y206446D02*
Y226364D01*
X111685Y166552D02*
Y186299D01*
Y206446D02*
Y226364D01*
X111885Y166552D02*
Y186299D01*
Y206446D02*
Y226364D01*
X112085Y166552D02*
Y186299D01*
Y206446D02*
Y226364D01*
X112285Y166552D02*
Y186299D01*
Y206446D02*
Y226364D01*
X112485Y166552D02*
Y186299D01*
Y206446D02*
Y226364D01*
X112685Y166552D02*
Y186299D01*
Y206446D02*
Y226364D01*
X112885Y166552D02*
Y186299D01*
Y206446D02*
Y226364D01*
X113085Y166552D02*
Y186299D01*
Y206446D02*
Y226364D01*
X113285Y166552D02*
Y186299D01*
Y206446D02*
Y226364D01*
X113485Y166552D02*
Y186299D01*
Y206446D02*
Y226364D01*
X113685Y166552D02*
Y186299D01*
Y206446D02*
Y226364D01*
X113885Y166552D02*
Y186299D01*
Y206446D02*
Y226364D01*
X114085Y166552D02*
Y186299D01*
Y206446D02*
Y226364D01*
X114285Y166552D02*
Y186299D01*
Y206446D02*
Y226364D01*
X114485Y166552D02*
Y186299D01*
Y206446D02*
Y226364D01*
X114685Y166552D02*
Y186299D01*
Y206446D02*
Y226364D01*
X114885Y166552D02*
Y186299D01*
Y206446D02*
Y226364D01*
X115085Y166552D02*
Y186299D01*
Y206446D02*
Y226364D01*
X115285Y166552D02*
Y186299D01*
Y206446D02*
Y226364D01*
X115485Y166552D02*
Y186299D01*
Y206446D02*
Y226364D01*
X115685Y166552D02*
Y186299D01*
Y206446D02*
Y226364D01*
X115885Y166552D02*
Y186299D01*
Y206446D02*
Y226364D01*
X116085Y166552D02*
Y186299D01*
Y206446D02*
Y226364D01*
X116285Y166552D02*
Y186299D01*
Y206446D02*
Y226364D01*
X116485Y166552D02*
Y186299D01*
Y206446D02*
Y226364D01*
X116685Y166552D02*
Y186299D01*
Y206446D02*
Y226364D01*
X116885Y166552D02*
Y186299D01*
Y206446D02*
Y226364D01*
X117085Y166552D02*
Y186299D01*
Y206446D02*
Y226364D01*
X117285Y166552D02*
Y186299D01*
Y206446D02*
Y226364D01*
X117485Y166552D02*
Y186299D01*
Y206446D02*
Y226364D01*
X117685Y166552D02*
Y186299D01*
Y206446D02*
Y226364D01*
X117885Y166552D02*
Y186299D01*
Y206446D02*
Y226364D01*
X118085Y166552D02*
Y186299D01*
Y206446D02*
Y226364D01*
X118285Y166552D02*
Y186299D01*
Y206446D02*
Y226364D01*
X118485Y166552D02*
Y186299D01*
Y206446D02*
Y226364D01*
X118685Y166552D02*
Y186299D01*
Y206446D02*
Y226364D01*
X118885Y166552D02*
Y186299D01*
Y206446D02*
Y226364D01*
X119085Y166552D02*
Y186299D01*
Y206446D02*
Y226364D01*
X119285Y166552D02*
Y186299D01*
Y206446D02*
Y226364D01*
X119485Y166552D02*
Y186299D01*
Y206446D02*
Y226364D01*
X119685Y166552D02*
Y186299D01*
Y206446D02*
Y226364D01*
X119885Y166552D02*
Y186299D01*
Y206447D02*
Y226364D01*
X120085Y166552D02*
Y186299D01*
Y206447D02*
Y226364D01*
X120285Y166552D02*
Y186299D01*
Y206447D02*
Y226364D01*
X120485Y166552D02*
Y186299D01*
Y206447D02*
Y226364D01*
X120685Y166552D02*
Y186299D01*
Y206447D02*
Y226364D01*
X120885Y166552D02*
Y186299D01*
Y206447D02*
Y226364D01*
X121085Y166552D02*
Y186299D01*
Y206447D02*
Y226364D01*
X121285Y166552D02*
Y186299D01*
Y206447D02*
Y226364D01*
X121485Y166552D02*
Y186299D01*
Y206447D02*
Y226364D01*
X121685Y166552D02*
Y186299D01*
Y206447D02*
Y226364D01*
X121885Y166552D02*
Y186299D01*
Y206447D02*
Y226364D01*
X122085Y166552D02*
Y186299D01*
Y206447D02*
Y226364D01*
X122285Y166552D02*
Y186299D01*
Y206447D02*
Y226364D01*
X122485Y166552D02*
Y186299D01*
Y206447D02*
Y226364D01*
X122685Y166552D02*
Y186299D01*
Y206447D02*
Y226364D01*
X122885Y166552D02*
Y186299D01*
Y206447D02*
Y226364D01*
X123085Y166552D02*
Y186299D01*
Y206447D02*
Y226364D01*
X123285Y166552D02*
Y186299D01*
Y206447D02*
Y226364D01*
X123485Y166552D02*
Y186299D01*
Y206447D02*
Y226364D01*
X123685Y166552D02*
Y186299D01*
Y206447D02*
Y226364D01*
X123885Y166552D02*
Y186299D01*
Y206447D02*
Y226364D01*
X124085Y166552D02*
Y186299D01*
Y206447D02*
Y226364D01*
X124285Y166552D02*
Y226364D01*
X124485Y166552D02*
Y226364D01*
X124685Y166552D02*
Y226364D01*
X124885Y166552D02*
Y226365D01*
X125085Y166552D02*
Y226365D01*
X125285Y166552D02*
Y226365D01*
X125485Y166552D02*
Y226365D01*
X125685Y166552D02*
Y226365D01*
X125885Y166552D02*
Y226365D01*
X126085Y166552D02*
Y226365D01*
X126285Y166552D02*
Y226365D01*
X126485Y166552D02*
Y226365D01*
X126685Y166552D02*
Y226365D01*
X126885Y166552D02*
Y226365D01*
X127085Y166552D02*
Y226365D01*
X127285Y166552D02*
Y226365D01*
X127485Y166552D02*
Y226365D01*
X127685Y166552D02*
Y226365D01*
X127885Y166552D02*
Y226365D01*
X128085Y166552D02*
Y226365D01*
X128285Y166552D02*
Y226365D01*
X128485Y166552D02*
Y226365D01*
X128685Y166552D02*
Y226365D01*
X128885Y166552D02*
Y226365D01*
X129085Y166552D02*
Y226365D01*
X129285Y166552D02*
Y226365D01*
X129485Y166552D02*
Y226365D01*
X129685Y166552D02*
Y226365D01*
X129885Y166552D02*
Y226365D01*
X130085Y166552D02*
Y226365D01*
X130285Y166552D02*
Y226365D01*
G54D59*
X290000Y347500D03*
X300000D03*
X280000Y232500D03*
X290000D03*
X340000Y242500D03*
X350000D03*
X260000Y322500D03*
X270000D03*
G54D60*
X290000Y340000D03*
X340000Y250000D03*
X300000Y340000D03*
X350000Y250000D03*
X270000Y330000D03*
X290000Y240000D03*
X260000Y330000D03*
X280000Y240000D03*
X0Y0D02*
M02*
