%
M48
M72
T01C0.0150
T02C0.0236
T03C0.0280
T04C0.0320
T05C0.0394
T06C0.0400
T07C0.0433
T08C0.1260
T09C0.1417
%
T01
X7189Y6061
X9689Y5111
X10389Y4061
X10389Y3561
X9689Y1511
X12789Y5861
X12789Y6261
X12789Y6661
X12789Y7061
X13239Y8361
X14989Y9711
X14539Y12411
X14539Y13011
X14232Y14322
X14390Y14637
X14547Y14952
X14705Y15267
X14862Y15582
X14272Y15897
X14429Y16212
X14587Y16527
X14744Y16842
X14902Y17157
X14289Y17611
X14705Y18062
X14547Y18377
X14390Y18692
X14232Y19007
X12973Y19676
X12815Y19991
X12643Y20306
X12500Y20621
X12164Y21611
X10914Y21611
X10020Y20936
X9862Y20621
X9705Y20306
X9705Y19361
X9664Y17611
X8789Y17611
X7589Y17611
X9665Y15582
X9823Y15267
X9980Y14952
X10138Y14637
X10295Y14322
X10914Y13611
X12164Y13611
X13169Y15897
X13414Y17611
X15539Y17611
X16739Y17861
X16739Y17261
X16739Y16661
X17789Y17261
X18489Y17661
X18289Y18961
X19039Y19461
X19089Y20061
X19639Y20061
X20039Y20061
X20539Y20061
X20989Y20061
X21389Y20061
X21939Y20061
X22539Y20061
X23089Y19911
X22089Y19461
X22839Y18961
X22589Y17661
X23239Y17261
X24289Y17461
X24289Y16861
X24289Y18061
X24389Y19411
X24389Y20411
X23089Y21211
X22739Y21211
X22389Y21211
X21889Y21211
X21539Y21211
X20939Y21211
X20189Y21211
X19389Y21211
X19039Y21211
X18689Y21211
X18339Y21211
X17939Y21211
X17389Y21211
X16889Y21711
X18445Y22275
X16989Y23261
X16639Y23261
X16289Y23261
X16289Y24061
X16639Y24061
X16989Y24061
X16989Y25061
X16639Y25061
X16289Y25061
X15939Y25711
X15939Y26061
X15939Y26411
X15939Y26761
X15939Y27111
X15939Y27461
X15089Y27311
X15089Y26961
X15089Y27661
X15089Y28011
X15089Y28361
X15739Y28411
X16489Y28411
X16489Y29061
X15739Y29061
X14989Y29061
X14989Y29711
X14989Y30311
X15739Y30311
X15739Y29711
X16489Y29711
X16489Y30311
X15739Y30911
X14989Y30911
X14239Y30911
X13539Y30911
X13539Y30311
X13539Y29711
X14239Y29711
X14239Y30311
X14239Y29061
X13539Y29061
X10689Y28211
X10689Y27461
X9839Y27461
X9189Y28011
X8839Y28011
X8489Y28011
X8139Y28011
X8089Y28711
X6839Y27761
X5439Y27261
X6839Y26111
X8139Y26061
X8489Y26061
X8839Y26061
X9189Y26061
X9189Y26911
X8839Y26911
X8489Y26911
X8139Y26911
X9839Y28211
X9939Y29711
X9939Y30161
X9939Y30611
X10839Y33611
X11839Y33611
X12839Y33611
X13839Y33611
X14839Y33611
X15839Y33611
X16839Y33611
X17839Y33611
X17339Y34811
X16339Y34811
X15339Y34811
X14339Y34811
X13339Y34811
X12339Y34811
X11339Y34811
X10339Y34811
X17239Y29061
X17239Y28411
X17989Y28411
X19839Y27961
X20189Y27961
X20539Y27961
X20539Y26961
X20189Y26961
X19839Y26961
X19839Y26161
X20189Y26161
X20539Y26161
X20539Y25161
X20189Y25161
X19839Y25161
X20889Y24561
X20889Y24211
X20889Y23861
X20889Y23511
X20889Y23161
X22189Y24561
X22039Y25661
X23239Y25661
X24889Y24661
X25689Y25061
X25239Y25961
X26639Y25811
X27089Y25811
X27539Y25811
X27739Y26361
X27539Y24611
X27089Y24611
X26639Y24611
X26589Y23611
X26239Y23611
X26939Y23611
X25439Y21861
X24339Y21861
X27289Y19611
X30889Y19611
X33664Y21361
X33664Y22361
X33664Y22861
X33664Y24361
X33664Y24861
X33664Y25361
X31414Y25361
X31414Y24361
X31414Y23861
X31414Y23361
X31414Y22861
X31414Y22361
X36164Y22361
X36164Y22736
X36164Y23736
X36789Y23861
X37414Y24111
X37414Y25111
X37414Y25861
X36789Y26361
X36164Y26361
X34039Y27361
X38539Y30111
X42139Y30111
X34039Y18361
X36164Y17361
X36789Y17361
X37414Y16861
X37414Y16111
X37414Y15111
X36789Y14861
X36164Y14736
X36164Y13736
X36164Y13361
X33664Y13361
X33664Y13861
X33664Y12361
X31414Y13361
X31414Y13861
X31414Y14361
X31414Y14861
X31414Y15361
X31414Y16361
X33664Y16361
X33664Y15861
X33664Y15361
X27889Y9161
X26889Y7811
X25889Y9161
X24239Y9711
X23089Y8711
X23089Y7711
X22189Y7211
X23064Y6711
X22014Y6011
X22189Y8211
X22189Y9211
X22164Y9711
X19639Y8761
X17039Y6711
X15989Y6011
X8089Y8061
X7689Y8061
X16539Y13011
X17889Y13511
X18289Y13511
X18689Y13511
X19189Y13511
X19539Y13511
X20189Y13511
X20989Y13511
X21689Y13511
X22039Y13511
X22389Y13511
X22739Y13511
X23139Y13511
X22589Y12511
X22539Y11711
X22089Y11711
X22989Y11711
X23439Y11711
X23889Y11711
X24339Y11711
X21239Y12511
X20039Y12511
X20089Y14661
X19689Y14661
X20539Y14661
X21039Y14661
X21439Y14661
X21989Y14661
X22589Y14661
X23139Y14811
X24389Y14311
X24389Y15511
X23239Y16011
X21589Y16461
X20939Y15611
X19489Y16461
X20539Y17511
X20039Y18261
X21039Y18261
X20139Y19111
X18489Y20061
X17939Y19911
X16689Y20411
X16689Y19211
X15650Y19361
X15138Y19952
X14547Y20267
X14390Y20582
X14232Y20897
X14989Y21761
X15139Y22761
X15139Y23111
X15139Y23461
X15139Y23811
X15139Y24161
X15139Y24511
X15139Y24861
X15139Y25211
X15139Y25561
X15139Y25911
X15139Y26261
X8189Y24161
X7589Y23161
X6839Y24111
X5439Y23511
X3439Y23511
X7389Y22311
X3439Y27261
X17789Y16011
X16689Y15311
X16689Y14311
X17989Y14811
X18539Y14661
X19139Y14661
X29789Y6861
X31389Y5361
X32189Y4861
X32189Y6061
X27589Y4511
X26889Y5811
X37239Y8911
X38589Y8911
X46239Y8911
X47589Y8911
X23239Y27161
X23239Y28061
T02
X38789Y28011
X38814Y27111
X40989Y25611
X38789Y25011
X38814Y24111
X38789Y22011
X38814Y21111
X40989Y19611
X38789Y19011
X38814Y18111
X40989Y16611
X38789Y16011
X38814Y15111
X40989Y13611
X38789Y13011
X38814Y12111
X40989Y10711
X43639Y13711
X46439Y13661
X46439Y16561
X43639Y16511
X40989Y22611
X43639Y22711
X46439Y22661
X46439Y25561
X43639Y25511
X43114Y3011
X40864Y3011
X38114Y3011
X45864Y3011
T03
X41552Y32968
X41552Y33755
X40764Y33755
X39977Y33755
X39977Y32968
X40764Y32968
X39189Y32968
X38402Y32968
X38402Y33755
X39189Y33755
X37615Y33755
X36827Y33755
X36827Y32968
X37615Y32968
T04
X17339Y32711
X16339Y32711
X15339Y32711
X14339Y32711
X13339Y32711
X12339Y32711
X11339Y32711
X10339Y32711
X10339Y35711
X11339Y35711
X12339Y35711
X13339Y35711
X14339Y35711
X15339Y35711
X16339Y35711
X17339Y35711
T05
X7810Y30961
X5408Y30961
X6589Y29071
X6789Y12208
X5671Y11659
X6789Y11110
X5671Y10560
X6789Y10011
X5671Y9462
X6789Y8913
X5671Y8364
X6789Y7814
X9060Y7825
X11619Y7825
X11619Y9597
X9060Y9597
X35239Y2261
X36239Y2261
X47789Y2311
X48789Y2311
X49039Y15111
X48039Y15111
X50039Y15111
X50039Y24111
X49039Y24111
X48039Y24111
X49039Y28111
X49039Y29111
X34919Y32175
X34919Y33947
X32360Y33947
X32360Y32175
T06
X30439Y31261
X29439Y31261
X28439Y31261
X27439Y31261
X26439Y31261
X25439Y31261
X23489Y31261
X22489Y31261
X21489Y31261
X20489Y31261
X19489Y31261
X18489Y31261
X30289Y28561
X31289Y28561
X32289Y28561
X43539Y31611
X44539Y31611
X45539Y31611
X46539Y31611
X47539Y31611
X48539Y31611
X24089Y6011
X24089Y5011
X24089Y4011
X24089Y3011
X24089Y2011
X21089Y2011
X21089Y3011
X21089Y4011
X21089Y5011
X21089Y6011
X18089Y6011
X18089Y5011
X18089Y4011
X18089Y3011
X18089Y2011
X15089Y2011
X15089Y3011
X15089Y4011
X15089Y5011
X15089Y6011
X11539Y11161
X10539Y11161
X9539Y11161
X9539Y12161
X10539Y12161
X11539Y12161
X5989Y17461
X4989Y17461
X3989Y17461
X3989Y21561
X4989Y21561
X5989Y21561
X28539Y3011
X28539Y2011
X31939Y2011
X31939Y3011
T07
X34812Y6100
X36151Y6100
X37489Y6100
X38828Y6100
X40167Y6100
X40836Y8100
X39497Y8100
X38159Y8100
X36820Y8100
X35482Y8100
X34143Y8100
X43143Y8100
X44482Y8100
X45820Y8100
X47159Y8100
X48497Y8100
X49836Y8100
X49167Y6100
X47828Y6100
X46489Y6100
X45151Y6100
X43812Y6100
T08
X6230Y5090
X6230Y14933
T09
X4239Y1861
X4239Y34711
X51339Y34711
X51289Y1911
M30
