%
T1C.01F095S3
X009235Y013708
X010595Y013708
X009202Y014995
X010562Y014995
X009414Y016865
X010271Y016892
X011127Y016892
X011181Y017587
X009414Y017587
X010298Y017628
X010284Y01827
X009401Y018324
X011074Y01835
X011524Y019271
X010476Y019463
X011524Y019665
X011524Y020058
X010057Y020907
X01106Y02096
X009374Y021054
X009387Y021629
X01015Y021643
X011114Y021656
X009374Y022258
X01015Y022325
X011154Y022392
X010816Y023656
X009456Y023656
X00945Y02426
X01081Y02426
X013604Y031318
X013904Y027006
X012988Y026928
X012608Y026731
X01233Y025883
X01382Y022895
X011957Y022352
X01264Y022325
X01382Y022145
X01268Y02171
X011944Y021589
X01382Y021142
X011957Y020947
X01264Y020947
X012194Y020255
X0132Y0201
X012194Y019861
X013234Y01983
X012714Y019566
X012194Y019468
X013234Y019468
X013904Y019271
X01193Y018337
X01272Y01831
X01272Y017601
X01197Y017561
X01197Y016905
X012693Y016865
X012059Y015602
X012059Y013332
X013402Y011713
X012902Y011713
X012902Y011213
X013902Y011213
X012902Y010713
X013402Y010713
X012902Y010213
X013902Y010213
X012902Y009713
X013402Y009713
X01235Y00905
X013902Y008713
X012902Y008213
X013402Y008213
X013902Y007713
X012402Y007713
X013402Y007213
X012902Y007213
X013902Y006713
X012402Y006713
X015902Y006713
X014402Y006713
X016402Y006713
X015402Y007213
X014902Y007213
X015902Y007713
X014402Y007713
X016402Y007713
X015402Y008213
X014902Y008213
X015902Y008713
X014402Y008713
X014902Y009713
X016402Y009713
X015902Y010213
X014402Y010213
X015374Y010215
X014859Y010234
X014902Y010713
X016402Y010713
X015398Y010716
X015907Y010748
X016421Y011193
X014402Y011213
X016402Y011713
X015152Y011851
X015484Y012752
X015429Y013156
X0145Y016861
X0145Y019131
X01482Y019355
X01482Y02051
X01518Y021142
X01518Y022145
X01518Y022895
X015831Y025883
X01478Y026731
X01516Y026928
X016012Y027318
X017749Y031074
X019109Y031074
X017749Y02963
X019109Y02963
X018261Y028929
X018261Y026659
X018702Y024541
X018709Y023901
X017599Y021331
X017151Y021202
X018572Y016519
X01878Y016244
X019178Y015981
X017773Y015876
X018007Y015607
X018152Y01179
X017402Y011213
X016918Y011193
X016902Y010713
X019001Y010213
X017402Y010213
X0184Y0098
X01895Y00975
X017902Y009713
X018902Y008713
X017402Y008713
X018402Y008213
X016902Y008213
X018402Y007713
X017902Y007713
X016902Y007213
X018902Y007213
X017402Y007213
X018402Y006713
X017902Y006713
X019902Y006713
X020402Y006713
X019402Y007213
X021402Y007213
X020902Y007213
X019902Y007713
X020402Y007713
X021402Y008213
X019902Y008213
X020402Y008713
X019402Y009713
X020902Y009713
X020402Y010213
X019888Y010214
X021403Y010215
X019431Y010224
X019902Y010713
X020902Y010713
X020402Y010713
X020902Y011213
X019907Y011217
X020401Y011217
X019902Y011713
X021652Y011772
X020652Y012117
X020152Y012152
X019899Y01355
X019667Y013714
X019272Y015696
X021201Y021319
X019941Y021319
X019626Y021319
X020886Y021319
X020571Y021319
X020256Y021319
X019626Y021634
X020571Y021634
X021201Y021634
X020886Y021634
X020256Y021634
X019941Y021634
X020256Y021949
X019941Y021949
X020256Y022264
X019941Y022264
X019941Y022579
X019626Y022579
X019311Y022579
X020256Y022579
X020256Y023209
X019941Y023209
X019626Y023209
X019311Y023209
X019941Y023524
X019311Y023524
X019626Y023524
X020256Y023524
X019626Y023839
X020256Y023839
X019941Y023839
X019311Y023839
X020256Y024154
X020886Y024154
X020571Y024154
X019311Y024154
X019626Y024154
X019941Y024154
X020256Y024469
X020886Y024469
X020571Y024469
X019626Y024469
X019311Y024469
X019941Y024469
X019311Y024784
X020886Y024784
X020571Y024784
X019941Y024784
X019626Y024784
X020256Y024784
X019311Y025099
X019626Y025099
X020886Y025099
X019941Y025099
X020571Y025099
X020256Y025099
X020211Y025743
X021016Y030671
X02286Y025743
X022146Y025099
X022461Y025099
X022775Y025099
X02309Y025099
X023405Y025099
X022146Y024784
X022461Y024784
X022775Y024784
X02309Y024784
X023405Y024784
X022146Y024469
X022461Y024469
X022775Y024469
X02309Y024469
X023405Y024469
X022146Y024154
X022461Y024154
X022775Y024154
X02309Y024154
X023405Y024154
X022775Y023839
X02309Y023839
X023405Y023839
X02372Y023839
X022775Y023524
X02309Y023524
X02395Y0235
X02309Y023209
X022775Y023209
X022775Y022579
X02309Y022579
X022775Y022264
X02309Y022264
X022775Y021949
X02309Y021949
X022461Y021634
X023405Y021634
X021831Y021634
X022146Y021634
X02309Y021634
X022775Y021634
X022775Y021319
X021831Y021319
X023405Y021319
X02309Y021319
X022146Y021319
X022461Y021319
X023959Y015719
X024149Y015521
X023235Y014639
X023436Y014311
X022384Y012763
X022688Y012473
X023344Y012396
X023367Y012025
X022152Y011824
X022902Y011713
X023902Y011213
X022402Y011213
X022902Y010713
X023876Y010687
X023367Y010678
X021902Y010213
X023902Y010213
X021906Y009708
X0229Y009215
X021902Y008713
X023902Y008713
X023402Y008213
X022902Y007713
X021902Y007713
X023902Y007213
X023402Y007213
X021902Y006713
X022902Y006713
X024402Y006713
X026402Y006713
X024902Y006713
X024902Y007213
X0259Y00765
X024902Y007713
X024402Y007713
X026402Y008213
X024902Y008213
X026402Y008713
X024902Y008713
X024402Y009713
X025902Y009713
X0264Y00975
X026373Y010184
X024878Y010189
X024378Y010189
X02589Y010201
X025402Y010213
X026372Y010683
X02545Y0107
X025902Y010713
X024402Y010713
X024854Y011165
X024399Y01121
X024402Y011713
X025652Y011803
X024791Y012947
X024428Y01324
X02505Y013419
X024732Y013663
X025631Y014649
X025614Y014977
X026177Y015507
X025976Y016069
X025092Y016157
X024877Y016519
X026296Y018429
X025808Y018541
X025261Y022326
X026017Y02249
X025864Y022947
X025027Y023239
X02568Y023998
X02568Y024498
X02568Y024992
X025697Y026673
X025618Y028398
X025618Y029952
X029104Y030469
X028104Y030159
X026978Y029952
X029036Y028747
X028036Y028437
X026978Y028398
X028998Y027027
X027998Y026717
X027057Y026673
X02835Y01905
X027528Y018806
X027523Y018479
X028506Y017201
X027239Y017186
X027261Y016741
X028719Y016594
X026862Y016044
X02683Y015733
X027907Y015658
X028152Y015406
X026951Y014843
X026894Y014491
X026902Y011713
X027902Y011213
X026902Y011213
X028402Y010713
X027402Y010713
X02789Y010701
X02886Y010671
X026858Y010669
X028402Y010213
X026902Y010213
X028874Y010185
X028402Y009713
X027402Y009713
X028402Y009213
X026902Y008713
X026872Y008242
X027903Y008153
X0289Y0078
X0279Y00765
X0274Y00765
X028402Y006713
X028902Y006713
X026902Y006713
X030872Y006683
X030402Y006713
X0299Y00765
X0294Y00765
X031399Y007651
X030328Y007728
X0309Y007773
X0304Y0083
X0309Y0083
X0309Y00865
X0299Y00915
X031399Y009151
X0304Y00977
X031415Y009785
X029374Y010185
X030931Y010242
X031372Y010242
X029872Y010242
X0304Y01025
X031389Y0107
X030897Y010708
X030402Y010713
X029902Y010713
X0294Y0108
X029902Y011213
X029889Y0117
X029408Y011719
X03165Y01175
X0314Y012
X029774Y013809
X031361Y013923
X029447Y014058
X030081Y014873
X031617Y014873
X030081Y016127
X031617Y016127
X031361Y017077
X031107Y028388
X030138Y028701
X030138Y029131
X031041Y029675
X033601Y030117
X032401Y029675
X032467Y028388
X033601Y027847
X0321Y01925
X03267Y018005
X031873Y017077
X033093Y017077
X032581Y017077
X032837Y016127
X032837Y014873
X034117Y014873
X033093Y013923
X033861Y013923
X03185Y0139
X0326Y0139
X032975Y013422
X0319Y0131
X031908Y011292
X03235Y0112
X031902Y010793
X031915Y010285
X0324Y01015
X03345Y00995
X032416Y009634
X0326Y00945
X03235Y009221
X0319Y00915
X0326Y00835
X031909Y008147
X0328Y0081
X03245Y007823
X031899Y007651
X032402Y006713
X034373Y013923
X034373Y016127
X034407Y01925
T2C.03F197S55
X026Y03225
X026Y033
X029Y03475
X03Y03475
X029Y034
X03Y034
X027Y033
X027Y03225
X029Y024
X028Y024
X028Y02325
X029Y02325
X034Y02425
X035Y02425
X035Y025
X034Y025
T3C.0535F107S55
X011697Y009213
X033107Y010413
T4C.062F089S55
X014604Y034
X022016Y034
T5C.067F089S55
X013604Y033
X015604Y033
X015604Y035
X013604Y035
X021016Y035
X023016Y035
X021016Y033
X023016Y033
T6C.1259F035S794
X01Y01
X010984Y031496
X033248Y031496
X034803Y01
M30
