G75*
G70*
%OFA0B0*%
%FSLAX24Y24*%
%IPPOS*%
%LPD*%
%AMOC8*
5,1,8,0,0,1.08239X$1,22.5*
%
%ADD10C,0.1497*%
%ADD11C,0.0213*%
%ADD12C,0.0227*%
%ADD13C,0.0231*%
%ADD14C,0.0253*%
%ADD15C,0.0224*%
%ADD16C,0.0215*%
%ADD17C,0.0867*%
%ADD18C,0.0269*%
%ADD19C,0.0680*%
%ADD20C,0.0228*%
%ADD21C,0.0780*%
%ADD22C,0.0674*%
%ADD23C,0.0225*%
%ADD24C,0.0200*%
%ADD25C,0.0740*%
%ADD26C,0.0560*%
%ADD27C,0.0237*%
%ADD28C,0.0199*%
%ADD29C,0.0242*%
%ADD30C,0.1740*%
%ADD31C,0.0600*%
%ADD32C,0.0480*%
%ADD33C,0.0350*%
D10*
X004239Y001861D03*
X004239Y034711D03*
X051339Y034711D03*
X051289Y001911D03*
D11*
X020630Y022586D02*
X020630Y024736D01*
X020630Y022586D02*
X018322Y022586D01*
X018322Y024736D01*
X020630Y024736D01*
X020630Y022798D02*
X018322Y022798D01*
X018322Y023010D02*
X020630Y023010D01*
X020630Y023222D02*
X018322Y023222D01*
X018322Y023434D02*
X020630Y023434D01*
X020630Y023646D02*
X018322Y023646D01*
X018322Y023858D02*
X020630Y023858D01*
X020630Y024070D02*
X018322Y024070D01*
X018322Y024282D02*
X020630Y024282D01*
X020630Y024494D02*
X018322Y024494D01*
X018322Y024706D02*
X020630Y024706D01*
X016198Y025486D02*
X016198Y027636D01*
X018506Y027636D01*
X018506Y025486D01*
X016198Y025486D01*
X016198Y025698D02*
X018506Y025698D01*
X018506Y025910D02*
X016198Y025910D01*
X016198Y026122D02*
X018506Y026122D01*
X018506Y026334D02*
X016198Y026334D01*
X016198Y026546D02*
X018506Y026546D01*
X018506Y026758D02*
X016198Y026758D01*
X016198Y026970D02*
X018506Y026970D01*
X018506Y027182D02*
X016198Y027182D01*
X016198Y027394D02*
X018506Y027394D01*
X018506Y027606D02*
X016198Y027606D01*
D12*
X019662Y027701D02*
X019662Y027217D01*
X019662Y027701D02*
X020696Y027701D01*
X020696Y027217D01*
X019662Y027217D01*
X019662Y027443D02*
X020696Y027443D01*
X020696Y027669D02*
X019662Y027669D01*
X019662Y025906D02*
X019662Y025422D01*
X019662Y025906D02*
X020696Y025906D01*
X020696Y025422D01*
X019662Y025422D01*
X019662Y025648D02*
X020696Y025648D01*
X020696Y025874D02*
X019662Y025874D01*
X017167Y024801D02*
X017167Y024317D01*
X016133Y024317D01*
X016133Y024801D01*
X017167Y024801D01*
X017167Y024543D02*
X016133Y024543D01*
X016133Y024769D02*
X017167Y024769D01*
X017167Y023006D02*
X017167Y022522D01*
X016133Y022522D01*
X016133Y023006D01*
X017167Y023006D01*
X017167Y022748D02*
X016133Y022748D01*
X016133Y022974D02*
X017167Y022974D01*
D13*
X021208Y024840D02*
X021570Y024840D01*
X021570Y024282D01*
X021208Y024282D01*
X021208Y024840D01*
X021208Y024512D02*
X021570Y024512D01*
X021570Y024742D02*
X021208Y024742D01*
X021208Y025940D02*
X021570Y025940D01*
X021570Y025382D01*
X021208Y025382D01*
X021208Y025940D01*
X021208Y025612D02*
X021570Y025612D01*
X021570Y025842D02*
X021208Y025842D01*
X022408Y025940D02*
X022770Y025940D01*
X022770Y025382D01*
X022408Y025382D01*
X022408Y025940D01*
X022408Y025612D02*
X022770Y025612D01*
X022770Y025842D02*
X022408Y025842D01*
X022408Y024840D02*
X022770Y024840D01*
X022770Y024282D01*
X022408Y024282D01*
X022408Y024840D01*
X022408Y024512D02*
X022770Y024512D01*
X022770Y024742D02*
X022408Y024742D01*
X022458Y027440D02*
X022820Y027440D01*
X022820Y026882D01*
X022458Y026882D01*
X022458Y027440D01*
X022458Y027112D02*
X022820Y027112D01*
X022820Y027342D02*
X022458Y027342D01*
X022458Y028340D02*
X022820Y028340D01*
X022820Y027782D01*
X022458Y027782D01*
X022458Y028340D01*
X022458Y028012D02*
X022820Y028012D01*
X022820Y028242D02*
X022458Y028242D01*
X021620Y028340D02*
X021258Y028340D01*
X021620Y028340D02*
X021620Y027782D01*
X021258Y027782D01*
X021258Y028340D01*
X021258Y028012D02*
X021620Y028012D01*
X021620Y028242D02*
X021258Y028242D01*
X021258Y027440D02*
X021620Y027440D01*
X021620Y026882D01*
X021258Y026882D01*
X021258Y027440D01*
X021258Y027112D02*
X021620Y027112D01*
X021620Y027342D02*
X021258Y027342D01*
X031758Y025082D02*
X032120Y025082D01*
X031758Y025082D02*
X031758Y025640D01*
X032120Y025640D01*
X032120Y025082D01*
X032120Y025312D02*
X031758Y025312D01*
X031758Y025542D02*
X032120Y025542D01*
X032958Y025082D02*
X033320Y025082D01*
X032958Y025082D02*
X032958Y025640D01*
X033320Y025640D01*
X033320Y025082D01*
X033320Y025312D02*
X032958Y025312D01*
X032958Y025542D02*
X033320Y025542D01*
X033320Y024082D02*
X032958Y024082D01*
X032958Y024640D01*
X033320Y024640D01*
X033320Y024082D01*
X033320Y024312D02*
X032958Y024312D01*
X032958Y024542D02*
X033320Y024542D01*
X032120Y024082D02*
X031758Y024082D01*
X031758Y024640D01*
X032120Y024640D01*
X032120Y024082D01*
X032120Y024312D02*
X031758Y024312D01*
X031758Y024542D02*
X032120Y024542D01*
X023470Y019240D02*
X023108Y019240D01*
X023470Y019240D02*
X023470Y018682D01*
X023108Y018682D01*
X023108Y019240D01*
X023108Y018912D02*
X023470Y018912D01*
X023470Y019142D02*
X023108Y019142D01*
X022270Y019240D02*
X021908Y019240D01*
X022270Y019240D02*
X022270Y018682D01*
X021908Y018682D01*
X021908Y019240D01*
X021908Y018912D02*
X022270Y018912D01*
X022270Y019142D02*
X021908Y019142D01*
X020260Y018442D02*
X020260Y018080D01*
X020260Y018442D02*
X020818Y018442D01*
X020818Y018080D01*
X020260Y018080D01*
X020260Y018310D02*
X020818Y018310D01*
X021810Y017842D02*
X021810Y017480D01*
X021810Y017842D02*
X022368Y017842D01*
X022368Y017480D01*
X021810Y017480D01*
X021810Y017710D02*
X022368Y017710D01*
X022960Y017842D02*
X022960Y017480D01*
X022960Y017842D02*
X023518Y017842D01*
X023518Y017480D01*
X022960Y017480D01*
X022960Y017710D02*
X023518Y017710D01*
X022960Y016642D02*
X022960Y016280D01*
X022960Y016642D02*
X023518Y016642D01*
X023518Y016280D01*
X022960Y016280D01*
X022960Y016510D02*
X023518Y016510D01*
X021810Y016642D02*
X021810Y016280D01*
X021810Y016642D02*
X022368Y016642D01*
X022368Y016280D01*
X021810Y016280D01*
X021810Y016510D02*
X022368Y016510D01*
X020260Y016880D02*
X020260Y017242D01*
X020818Y017242D01*
X020818Y016880D01*
X020260Y016880D01*
X020260Y017110D02*
X020818Y017110D01*
X018710Y017480D02*
X018710Y017842D01*
X019268Y017842D01*
X019268Y017480D01*
X018710Y017480D01*
X018710Y017710D02*
X019268Y017710D01*
X019220Y018682D02*
X018858Y018682D01*
X018858Y019240D01*
X019220Y019240D01*
X019220Y018682D01*
X019220Y018912D02*
X018858Y018912D01*
X018858Y019142D02*
X019220Y019142D01*
X018020Y018682D02*
X017658Y018682D01*
X017658Y019240D01*
X018020Y019240D01*
X018020Y018682D01*
X018020Y018912D02*
X017658Y018912D01*
X017658Y019142D02*
X018020Y019142D01*
X017510Y017842D02*
X017510Y017480D01*
X017510Y017842D02*
X018068Y017842D01*
X018068Y017480D01*
X017510Y017480D01*
X017510Y017710D02*
X018068Y017710D01*
X017510Y016642D02*
X017510Y016280D01*
X017510Y016642D02*
X018068Y016642D01*
X018068Y016280D01*
X017510Y016280D01*
X017510Y016510D02*
X018068Y016510D01*
X018710Y016642D02*
X018710Y016280D01*
X018710Y016642D02*
X019268Y016642D01*
X019268Y016280D01*
X018710Y016280D01*
X018710Y016510D02*
X019268Y016510D01*
X009170Y022032D02*
X008808Y022032D01*
X008808Y022590D01*
X009170Y022590D01*
X009170Y022032D01*
X009170Y022262D02*
X008808Y022262D01*
X008808Y022492D02*
X009170Y022492D01*
X007970Y022032D02*
X007608Y022032D01*
X007608Y022590D01*
X007970Y022590D01*
X007970Y022032D01*
X007970Y022262D02*
X007608Y022262D01*
X007608Y022492D02*
X007970Y022492D01*
X006560Y024330D02*
X006560Y024692D01*
X007118Y024692D01*
X007118Y024330D01*
X006560Y024330D01*
X006560Y024560D02*
X007118Y024560D01*
X006560Y025530D02*
X006560Y025892D01*
X007118Y025892D01*
X007118Y025530D01*
X006560Y025530D01*
X006560Y025760D02*
X007118Y025760D01*
X031758Y016082D02*
X032120Y016082D01*
X031758Y016082D02*
X031758Y016640D01*
X032120Y016640D01*
X032120Y016082D01*
X032120Y016312D02*
X031758Y016312D01*
X031758Y016542D02*
X032120Y016542D01*
X032958Y016082D02*
X033320Y016082D01*
X032958Y016082D02*
X032958Y016640D01*
X033320Y016640D01*
X033320Y016082D01*
X033320Y016312D02*
X032958Y016312D01*
X032958Y016542D02*
X033320Y016542D01*
X033320Y015082D02*
X032958Y015082D01*
X032958Y015640D01*
X033320Y015640D01*
X033320Y015082D01*
X033320Y015312D02*
X032958Y015312D01*
X032958Y015542D02*
X033320Y015542D01*
X032120Y015082D02*
X031758Y015082D01*
X031758Y015640D01*
X032120Y015640D01*
X032120Y015082D01*
X032120Y015312D02*
X031758Y015312D01*
X031758Y015542D02*
X032120Y015542D01*
X026610Y007592D02*
X026610Y007230D01*
X026610Y007592D02*
X027168Y007592D01*
X027168Y007230D01*
X026610Y007230D01*
X026610Y007460D02*
X027168Y007460D01*
X026610Y006392D02*
X026610Y006030D01*
X026610Y006392D02*
X027168Y006392D01*
X027168Y006030D01*
X026610Y006030D01*
X026610Y006260D02*
X027168Y006260D01*
D14*
X025160Y007282D02*
X025018Y007282D01*
X025160Y007282D02*
X025160Y007140D01*
X025018Y007140D01*
X025018Y007282D01*
X024560Y007282D02*
X024418Y007282D01*
X024560Y007282D02*
X024560Y007140D01*
X024418Y007140D01*
X024418Y007282D01*
X024418Y008282D02*
X024560Y008282D01*
X024560Y008140D01*
X024418Y008140D01*
X024418Y008282D01*
X025018Y008282D02*
X025160Y008282D01*
X025160Y008140D01*
X025018Y008140D01*
X025018Y008282D01*
X025018Y009282D02*
X025160Y009282D01*
X025160Y009140D01*
X025018Y009140D01*
X025018Y009282D01*
X024560Y009282D02*
X024418Y009282D01*
X024560Y009282D02*
X024560Y009140D01*
X024418Y009140D01*
X024418Y009282D01*
X020910Y008640D02*
X020768Y008640D01*
X020768Y008782D01*
X020910Y008782D01*
X020910Y008640D01*
X020310Y008640D02*
X020168Y008640D01*
X020168Y008782D01*
X020310Y008782D01*
X020310Y008640D01*
X020310Y007640D02*
X020168Y007640D01*
X020168Y007782D01*
X020310Y007782D01*
X020310Y007640D01*
X020768Y007640D02*
X020910Y007640D01*
X020768Y007640D02*
X020768Y007782D01*
X020910Y007782D01*
X020910Y007640D01*
X020910Y006640D02*
X020768Y006640D01*
X020768Y006782D01*
X020910Y006782D01*
X020910Y006640D01*
X020310Y006640D02*
X020168Y006640D01*
X020168Y006782D01*
X020310Y006782D01*
X020310Y006640D01*
X022268Y005940D02*
X022410Y005940D01*
X022268Y005940D02*
X022268Y006082D01*
X022410Y006082D01*
X022410Y005940D01*
X022868Y005940D02*
X023010Y005940D01*
X022868Y005940D02*
X022868Y006082D01*
X023010Y006082D01*
X023010Y005940D01*
X016960Y005940D02*
X016818Y005940D01*
X016818Y006082D01*
X016960Y006082D01*
X016960Y005940D01*
X016360Y005940D02*
X016218Y005940D01*
X016218Y006082D01*
X016360Y006082D01*
X016360Y005940D01*
X012460Y005632D02*
X012318Y005632D01*
X012460Y005632D02*
X012460Y005490D01*
X012318Y005490D01*
X012318Y005632D01*
X011860Y005632D02*
X011718Y005632D01*
X011860Y005632D02*
X011860Y005490D01*
X011718Y005490D01*
X011718Y005632D01*
X011768Y004432D02*
X011768Y004290D01*
X011768Y004432D02*
X011910Y004432D01*
X011910Y004290D01*
X011768Y004290D01*
X011768Y003832D02*
X011768Y003690D01*
X011768Y003832D02*
X011910Y003832D01*
X011910Y003690D01*
X011768Y003690D01*
X010310Y002840D02*
X010168Y002840D01*
X010168Y002982D01*
X010310Y002982D01*
X010310Y002840D01*
X009710Y002840D02*
X009568Y002840D01*
X009568Y002982D01*
X009710Y002982D01*
X009710Y002840D01*
X008018Y003690D02*
X008018Y003832D01*
X008160Y003832D01*
X008160Y003690D01*
X008018Y003690D01*
X008018Y004290D02*
X008018Y004432D01*
X008160Y004432D01*
X008160Y004290D01*
X008018Y004290D01*
X008018Y004940D02*
X008018Y005082D01*
X008160Y005082D01*
X008160Y004940D01*
X008018Y004940D01*
X008018Y005540D02*
X008018Y005682D01*
X008160Y005682D01*
X008160Y005540D01*
X008018Y005540D01*
X008018Y005990D02*
X008160Y005990D01*
X008018Y005990D02*
X008018Y006132D01*
X008160Y006132D01*
X008160Y005990D01*
X007560Y005990D02*
X007418Y005990D01*
X007418Y006132D01*
X007560Y006132D01*
X007560Y005990D01*
X011718Y007132D02*
X011860Y007132D01*
X011860Y006990D01*
X011718Y006990D01*
X011718Y007132D01*
X012318Y007132D02*
X012460Y007132D01*
X012460Y006990D01*
X012318Y006990D01*
X012318Y007132D01*
X013868Y012340D02*
X013868Y012482D01*
X014010Y012482D01*
X014010Y012340D01*
X013868Y012340D01*
X013868Y012940D02*
X013868Y013082D01*
X014010Y013082D01*
X014010Y012940D01*
X013868Y012940D01*
X011910Y013682D02*
X011768Y013682D01*
X011910Y013682D02*
X011910Y013540D01*
X011768Y013540D01*
X011768Y013682D01*
X011310Y013682D02*
X011168Y013682D01*
X011310Y013682D02*
X011310Y013540D01*
X011168Y013540D01*
X011168Y013682D01*
X016418Y014440D02*
X016418Y014582D01*
X016560Y014582D01*
X016560Y014440D01*
X016418Y014440D01*
X016418Y015040D02*
X016418Y015182D01*
X016560Y015182D01*
X016560Y015040D01*
X016418Y015040D01*
X017918Y014582D02*
X017918Y014440D01*
X017918Y014582D02*
X018060Y014582D01*
X018060Y014440D01*
X017918Y014440D01*
X017918Y013982D02*
X017918Y013840D01*
X017918Y013982D02*
X018060Y013982D01*
X018060Y013840D01*
X017918Y013840D01*
X018468Y013790D02*
X018610Y013790D01*
X018468Y013790D02*
X018468Y013932D01*
X018610Y013932D01*
X018610Y013790D01*
X019068Y013790D02*
X019210Y013790D01*
X019068Y013790D02*
X019068Y013932D01*
X019210Y013932D01*
X019210Y013790D01*
X019618Y013932D02*
X019760Y013932D01*
X019760Y013790D01*
X019618Y013790D01*
X019618Y013932D01*
X019618Y014432D02*
X019760Y014432D01*
X019760Y014290D01*
X019618Y014290D01*
X019618Y014432D01*
X019210Y014290D02*
X019068Y014290D01*
X019068Y014432D01*
X019210Y014432D01*
X019210Y014290D01*
X018610Y014290D02*
X018468Y014290D01*
X018468Y014432D01*
X018610Y014432D01*
X018610Y014290D01*
X020218Y014432D02*
X020360Y014432D01*
X020360Y014290D01*
X020218Y014290D01*
X020218Y014432D01*
X020768Y014290D02*
X020910Y014290D01*
X020768Y014290D02*
X020768Y014432D01*
X020910Y014432D01*
X020910Y014290D01*
X021368Y014290D02*
X021510Y014290D01*
X021368Y014290D02*
X021368Y014432D01*
X021510Y014432D01*
X021510Y014290D01*
X021918Y014432D02*
X022060Y014432D01*
X022060Y014290D01*
X021918Y014290D01*
X021918Y014432D01*
X022518Y014432D02*
X022660Y014432D01*
X022660Y014290D01*
X022518Y014290D01*
X022518Y014432D01*
X023068Y014440D02*
X023068Y014582D01*
X023210Y014582D01*
X023210Y014440D01*
X023068Y014440D01*
X023068Y013982D02*
X023068Y013840D01*
X023068Y013982D02*
X023210Y013982D01*
X023210Y013840D01*
X023068Y013840D01*
X022660Y013932D02*
X022518Y013932D01*
X022660Y013932D02*
X022660Y013790D01*
X022518Y013790D01*
X022518Y013932D01*
X022060Y013932D02*
X021918Y013932D01*
X022060Y013932D02*
X022060Y013790D01*
X021918Y013790D01*
X021918Y013932D01*
X021510Y013790D02*
X021368Y013790D01*
X021368Y013932D01*
X021510Y013932D01*
X021510Y013790D01*
X020910Y013790D02*
X020768Y013790D01*
X020768Y013932D01*
X020910Y013932D01*
X020910Y013790D01*
X020360Y013932D02*
X020218Y013932D01*
X020360Y013932D02*
X020360Y013790D01*
X020218Y013790D01*
X020218Y013932D01*
X020468Y014940D02*
X020468Y015082D01*
X020610Y015082D01*
X020610Y014940D01*
X020468Y014940D01*
X020468Y015540D02*
X020468Y015682D01*
X020610Y015682D01*
X020610Y015540D01*
X020468Y015540D01*
X016560Y016590D02*
X016560Y016732D01*
X016560Y016590D02*
X016418Y016590D01*
X016418Y016732D01*
X016560Y016732D01*
X016560Y017190D02*
X016560Y017332D01*
X016560Y017190D02*
X016418Y017190D01*
X016418Y017332D01*
X016560Y017332D01*
X015310Y017682D02*
X015168Y017682D01*
X015310Y017682D02*
X015310Y017540D01*
X015168Y017540D01*
X015168Y017682D01*
X014710Y017682D02*
X014568Y017682D01*
X014710Y017682D02*
X014710Y017540D01*
X014568Y017540D01*
X014568Y017682D01*
X016560Y019440D02*
X016560Y019582D01*
X016560Y019440D02*
X016418Y019440D01*
X016418Y019582D01*
X016560Y019582D01*
X016560Y020040D02*
X016560Y020182D01*
X016560Y020040D02*
X016418Y020040D01*
X016418Y020182D01*
X016560Y020182D01*
X018010Y020140D02*
X018010Y020282D01*
X018010Y020140D02*
X017868Y020140D01*
X017868Y020282D01*
X018010Y020282D01*
X018418Y020290D02*
X018560Y020290D01*
X018418Y020290D02*
X018418Y020432D01*
X018560Y020432D01*
X018560Y020290D01*
X019018Y020290D02*
X019160Y020290D01*
X019018Y020290D02*
X019018Y020432D01*
X019160Y020432D01*
X019160Y020290D01*
X019568Y020432D02*
X019710Y020432D01*
X019710Y020290D01*
X019568Y020290D01*
X019568Y020432D01*
X019568Y020932D02*
X019710Y020932D01*
X019710Y020790D01*
X019568Y020790D01*
X019568Y020932D01*
X019160Y020790D02*
X019018Y020790D01*
X019018Y020932D01*
X019160Y020932D01*
X019160Y020790D01*
X018560Y020790D02*
X018418Y020790D01*
X018418Y020932D01*
X018560Y020932D01*
X018560Y020790D01*
X018010Y020740D02*
X018010Y020882D01*
X018010Y020740D02*
X017868Y020740D01*
X017868Y020882D01*
X018010Y020882D01*
X020168Y020932D02*
X020310Y020932D01*
X020310Y020790D01*
X020168Y020790D01*
X020168Y020932D01*
X020168Y020432D02*
X020310Y020432D01*
X020310Y020290D01*
X020168Y020290D01*
X020168Y020432D01*
X020718Y020290D02*
X020860Y020290D01*
X020718Y020290D02*
X020718Y020432D01*
X020860Y020432D01*
X020860Y020290D01*
X021318Y020290D02*
X021460Y020290D01*
X021318Y020290D02*
X021318Y020432D01*
X021460Y020432D01*
X021460Y020290D01*
X021868Y020432D02*
X022010Y020432D01*
X022010Y020290D01*
X021868Y020290D01*
X021868Y020432D01*
X022468Y020432D02*
X022610Y020432D01*
X022610Y020290D01*
X022468Y020290D01*
X022468Y020432D01*
X023160Y020282D02*
X023160Y020140D01*
X023018Y020140D01*
X023018Y020282D01*
X023160Y020282D01*
X023160Y020740D02*
X023160Y020882D01*
X023160Y020740D02*
X023018Y020740D01*
X023018Y020882D01*
X023160Y020882D01*
X022610Y020932D02*
X022468Y020932D01*
X022610Y020932D02*
X022610Y020790D01*
X022468Y020790D01*
X022468Y020932D01*
X022010Y020932D02*
X021868Y020932D01*
X022010Y020932D02*
X022010Y020790D01*
X021868Y020790D01*
X021868Y020932D01*
X021460Y020790D02*
X021318Y020790D01*
X021318Y020932D01*
X021460Y020932D01*
X021460Y020790D01*
X020860Y020790D02*
X020718Y020790D01*
X020718Y020932D01*
X020860Y020932D01*
X020860Y020790D01*
X020610Y019782D02*
X020610Y019640D01*
X020468Y019640D01*
X020468Y019782D01*
X020610Y019782D01*
X020610Y019182D02*
X020610Y019040D01*
X020468Y019040D01*
X020468Y019182D01*
X020610Y019182D01*
X024660Y019540D02*
X024660Y019682D01*
X024660Y019540D02*
X024518Y019540D01*
X024518Y019682D01*
X024660Y019682D01*
X024660Y020140D02*
X024660Y020282D01*
X024660Y020140D02*
X024518Y020140D01*
X024518Y020282D01*
X024660Y020282D01*
X025010Y022090D02*
X025010Y022232D01*
X025010Y022090D02*
X024868Y022090D01*
X024868Y022232D01*
X025010Y022232D01*
X025010Y022690D02*
X025010Y022832D01*
X025010Y022690D02*
X024868Y022690D01*
X024868Y022832D01*
X025010Y022832D01*
X024410Y022832D02*
X024410Y022690D01*
X024268Y022690D01*
X024268Y022832D01*
X024410Y022832D01*
X023818Y022832D02*
X023818Y022690D01*
X023818Y022832D02*
X023960Y022832D01*
X023960Y022690D01*
X023818Y022690D01*
X023510Y022690D02*
X023510Y022832D01*
X023510Y022690D02*
X023368Y022690D01*
X023368Y022832D01*
X023510Y022832D01*
X023510Y022232D02*
X023510Y022090D01*
X023368Y022090D01*
X023368Y022232D01*
X023510Y022232D01*
X023818Y022232D02*
X023818Y022090D01*
X023818Y022232D02*
X023960Y022232D01*
X023960Y022090D01*
X023818Y022090D01*
X024410Y022090D02*
X024410Y022232D01*
X024410Y022090D02*
X024268Y022090D01*
X024268Y022232D01*
X024410Y022232D01*
X022260Y023790D02*
X022118Y023790D01*
X022118Y023932D01*
X022260Y023932D01*
X022260Y023790D01*
X021660Y023790D02*
X021518Y023790D01*
X021518Y023932D01*
X021660Y023932D01*
X021660Y023790D01*
X024810Y024940D02*
X024810Y025082D01*
X024810Y024940D02*
X024668Y024940D01*
X024668Y025082D01*
X024810Y025082D01*
X024810Y025540D02*
X024810Y025682D01*
X024810Y025540D02*
X024668Y025540D01*
X024668Y025682D01*
X024810Y025682D01*
X022410Y026340D02*
X022268Y026340D01*
X022268Y026482D01*
X022410Y026482D01*
X022410Y026340D01*
X021810Y026340D02*
X021668Y026340D01*
X021668Y026482D01*
X021810Y026482D01*
X021810Y026340D01*
X015760Y024032D02*
X015760Y023890D01*
X015618Y023890D01*
X015618Y024032D01*
X015760Y024032D01*
X015760Y023432D02*
X015760Y023290D01*
X015618Y023290D01*
X015618Y023432D01*
X015760Y023432D01*
X011910Y021682D02*
X011768Y021682D01*
X011910Y021682D02*
X011910Y021540D01*
X011768Y021540D01*
X011768Y021682D01*
X011310Y021682D02*
X011168Y021682D01*
X011310Y021682D02*
X011310Y021540D01*
X011168Y021540D01*
X011168Y021682D01*
X008260Y023532D02*
X008118Y023532D01*
X008260Y023532D02*
X008260Y023390D01*
X008118Y023390D01*
X008118Y023532D01*
X007660Y023532D02*
X007518Y023532D01*
X007660Y023532D02*
X007660Y023390D01*
X007518Y023390D01*
X007518Y023532D01*
X007518Y024532D02*
X007660Y024532D01*
X007660Y024390D01*
X007518Y024390D01*
X007518Y024532D01*
X008118Y024532D02*
X008260Y024532D01*
X008260Y024390D01*
X008118Y024390D01*
X008118Y024532D01*
X007960Y017540D02*
X007818Y017540D01*
X007818Y017682D01*
X007960Y017682D01*
X007960Y017540D01*
X008418Y017540D02*
X008560Y017540D01*
X008418Y017540D02*
X008418Y017682D01*
X008560Y017682D01*
X008560Y017540D01*
X024610Y017532D02*
X024610Y017390D01*
X024468Y017390D01*
X024468Y017532D01*
X024610Y017532D01*
X024610Y016932D02*
X024610Y016790D01*
X024468Y016790D01*
X024468Y016932D01*
X024610Y016932D01*
X024518Y015282D02*
X024518Y015140D01*
X024518Y015282D02*
X024660Y015282D01*
X024660Y015140D01*
X024518Y015140D01*
X024518Y014682D02*
X024518Y014540D01*
X024518Y014682D02*
X024660Y014682D01*
X024660Y014540D01*
X024518Y014540D01*
X031668Y014290D02*
X031810Y014290D01*
X031668Y014290D02*
X031668Y014432D01*
X031810Y014432D01*
X031810Y014290D01*
X032268Y014290D02*
X032410Y014290D01*
X032268Y014290D02*
X032268Y014432D01*
X032410Y014432D01*
X032410Y014290D01*
X032410Y013790D02*
X032268Y013790D01*
X032268Y013932D01*
X032410Y013932D01*
X032410Y013790D01*
X031810Y013790D02*
X031668Y013790D01*
X031668Y013932D01*
X031810Y013932D01*
X031810Y013790D01*
X032918Y014432D02*
X033060Y014432D01*
X033060Y014290D01*
X032918Y014290D01*
X032918Y014432D01*
X033518Y014432D02*
X033660Y014432D01*
X033660Y014290D01*
X033518Y014290D01*
X033518Y014432D01*
X038210Y014740D02*
X038210Y014882D01*
X038210Y014740D02*
X038068Y014740D01*
X038068Y014882D01*
X038210Y014882D01*
X038210Y015340D02*
X038210Y015482D01*
X038210Y015340D02*
X038068Y015340D01*
X038068Y015482D01*
X038210Y015482D01*
X038210Y017740D02*
X038210Y017882D01*
X038210Y017740D02*
X038068Y017740D01*
X038068Y017882D01*
X038210Y017882D01*
X038210Y018340D02*
X038210Y018482D01*
X038210Y018340D02*
X038068Y018340D01*
X038068Y018482D01*
X038210Y018482D01*
X038210Y020740D02*
X038210Y020882D01*
X038210Y020740D02*
X038068Y020740D01*
X038068Y020882D01*
X038210Y020882D01*
X038210Y021340D02*
X038210Y021482D01*
X038210Y021340D02*
X038068Y021340D01*
X038068Y021482D01*
X038210Y021482D01*
X038210Y023740D02*
X038210Y023882D01*
X038210Y023740D02*
X038068Y023740D01*
X038068Y023882D01*
X038210Y023882D01*
X038210Y024340D02*
X038210Y024482D01*
X038210Y024340D02*
X038068Y024340D01*
X038068Y024482D01*
X038210Y024482D01*
X038210Y026740D02*
X038210Y026882D01*
X038210Y026740D02*
X038068Y026740D01*
X038068Y026882D01*
X038210Y026882D01*
X038210Y027340D02*
X038210Y027482D01*
X038210Y027340D02*
X038068Y027340D01*
X038068Y027482D01*
X038210Y027482D01*
X040868Y031232D02*
X041010Y031232D01*
X041010Y031090D01*
X040868Y031090D01*
X040868Y031232D01*
X040868Y031832D02*
X041010Y031832D01*
X041010Y031690D01*
X040868Y031690D01*
X040868Y031832D01*
X041468Y031832D02*
X041610Y031832D01*
X041610Y031690D01*
X041468Y031690D01*
X041468Y031832D01*
X041468Y031232D02*
X041610Y031232D01*
X041610Y031090D01*
X041468Y031090D01*
X041468Y031232D01*
X041468Y034882D02*
X041610Y034882D01*
X041610Y034740D01*
X041468Y034740D01*
X041468Y034882D01*
X041010Y034882D02*
X040868Y034882D01*
X041010Y034882D02*
X041010Y034740D01*
X040868Y034740D01*
X040868Y034882D01*
X033660Y023432D02*
X033518Y023432D01*
X033660Y023432D02*
X033660Y023290D01*
X033518Y023290D01*
X033518Y023432D01*
X033060Y023432D02*
X032918Y023432D01*
X033060Y023432D02*
X033060Y023290D01*
X032918Y023290D01*
X032918Y023432D01*
X032410Y023290D02*
X032268Y023290D01*
X032268Y023432D01*
X032410Y023432D01*
X032410Y023290D01*
X032410Y022790D02*
X032268Y022790D01*
X032268Y022932D01*
X032410Y022932D01*
X032410Y022790D01*
X031810Y022790D02*
X031668Y022790D01*
X031668Y022932D01*
X031810Y022932D01*
X031810Y022790D01*
X031810Y023290D02*
X031668Y023290D01*
X031668Y023432D01*
X031810Y023432D01*
X031810Y023290D01*
X017768Y033840D02*
X017768Y033982D01*
X017910Y033982D01*
X017910Y033840D01*
X017768Y033840D01*
X017410Y033840D02*
X017410Y033982D01*
X017410Y033840D02*
X017268Y033840D01*
X017268Y033982D01*
X017410Y033982D01*
X016768Y033982D02*
X016768Y033840D01*
X016768Y033982D02*
X016910Y033982D01*
X016910Y033840D01*
X016768Y033840D01*
X016410Y033840D02*
X016410Y033982D01*
X016410Y033840D02*
X016268Y033840D01*
X016268Y033982D01*
X016410Y033982D01*
X015768Y033982D02*
X015768Y033840D01*
X015768Y033982D02*
X015910Y033982D01*
X015910Y033840D01*
X015768Y033840D01*
X015410Y033840D02*
X015410Y033982D01*
X015410Y033840D02*
X015268Y033840D01*
X015268Y033982D01*
X015410Y033982D01*
X014768Y033982D02*
X014768Y033840D01*
X014768Y033982D02*
X014910Y033982D01*
X014910Y033840D01*
X014768Y033840D01*
X014410Y033840D02*
X014410Y033982D01*
X014410Y033840D02*
X014268Y033840D01*
X014268Y033982D01*
X014410Y033982D01*
X013768Y033982D02*
X013768Y033840D01*
X013768Y033982D02*
X013910Y033982D01*
X013910Y033840D01*
X013768Y033840D01*
X013410Y033840D02*
X013410Y033982D01*
X013410Y033840D02*
X013268Y033840D01*
X013268Y033982D01*
X013410Y033982D01*
X012768Y033982D02*
X012768Y033840D01*
X012768Y033982D02*
X012910Y033982D01*
X012910Y033840D01*
X012768Y033840D01*
X012410Y033840D02*
X012410Y033982D01*
X012410Y033840D02*
X012268Y033840D01*
X012268Y033982D01*
X012410Y033982D01*
X011768Y033982D02*
X011768Y033840D01*
X011768Y033982D02*
X011910Y033982D01*
X011910Y033840D01*
X011768Y033840D01*
X011410Y033840D02*
X011410Y033982D01*
X011410Y033840D02*
X011268Y033840D01*
X011268Y033982D01*
X011410Y033982D01*
X010768Y033982D02*
X010768Y033840D01*
X010768Y033982D02*
X010910Y033982D01*
X010910Y033840D01*
X010768Y033840D01*
X010410Y033840D02*
X010410Y033982D01*
X010410Y033840D02*
X010268Y033840D01*
X010268Y033982D01*
X010410Y033982D01*
X010410Y034440D02*
X010410Y034582D01*
X010410Y034440D02*
X010268Y034440D01*
X010268Y034582D01*
X010410Y034582D01*
X010768Y034582D02*
X010768Y034440D01*
X010768Y034582D02*
X010910Y034582D01*
X010910Y034440D01*
X010768Y034440D01*
X011410Y034440D02*
X011410Y034582D01*
X011410Y034440D02*
X011268Y034440D01*
X011268Y034582D01*
X011410Y034582D01*
X011768Y034582D02*
X011768Y034440D01*
X011768Y034582D02*
X011910Y034582D01*
X011910Y034440D01*
X011768Y034440D01*
X012410Y034440D02*
X012410Y034582D01*
X012410Y034440D02*
X012268Y034440D01*
X012268Y034582D01*
X012410Y034582D01*
X012768Y034582D02*
X012768Y034440D01*
X012768Y034582D02*
X012910Y034582D01*
X012910Y034440D01*
X012768Y034440D01*
X013410Y034440D02*
X013410Y034582D01*
X013410Y034440D02*
X013268Y034440D01*
X013268Y034582D01*
X013410Y034582D01*
X013768Y034582D02*
X013768Y034440D01*
X013768Y034582D02*
X013910Y034582D01*
X013910Y034440D01*
X013768Y034440D01*
X014410Y034440D02*
X014410Y034582D01*
X014410Y034440D02*
X014268Y034440D01*
X014268Y034582D01*
X014410Y034582D01*
X014768Y034582D02*
X014768Y034440D01*
X014768Y034582D02*
X014910Y034582D01*
X014910Y034440D01*
X014768Y034440D01*
X015410Y034440D02*
X015410Y034582D01*
X015410Y034440D02*
X015268Y034440D01*
X015268Y034582D01*
X015410Y034582D01*
X015768Y034582D02*
X015768Y034440D01*
X015768Y034582D02*
X015910Y034582D01*
X015910Y034440D01*
X015768Y034440D01*
X016410Y034440D02*
X016410Y034582D01*
X016410Y034440D02*
X016268Y034440D01*
X016268Y034582D01*
X016410Y034582D01*
X016768Y034582D02*
X016768Y034440D01*
X016768Y034582D02*
X016910Y034582D01*
X016910Y034440D01*
X016768Y034440D01*
X017410Y034440D02*
X017410Y034582D01*
X017410Y034440D02*
X017268Y034440D01*
X017268Y034582D01*
X017410Y034582D01*
X017768Y034582D02*
X017768Y034440D01*
X017768Y034582D02*
X017910Y034582D01*
X017910Y034440D01*
X017768Y034440D01*
X038210Y012482D02*
X038210Y012340D01*
X038068Y012340D01*
X038068Y012482D01*
X038210Y012482D01*
X038210Y011882D02*
X038210Y011740D01*
X038068Y011740D01*
X038068Y011882D01*
X038210Y011882D01*
X041560Y006782D02*
X041560Y006640D01*
X041418Y006640D01*
X041418Y006782D01*
X041560Y006782D01*
X042560Y006782D02*
X042560Y006640D01*
X042418Y006640D01*
X042418Y006782D01*
X042560Y006782D01*
X042560Y006182D02*
X042560Y006040D01*
X042418Y006040D01*
X042418Y006182D01*
X042560Y006182D01*
X041560Y006182D02*
X041560Y006040D01*
X041418Y006040D01*
X041418Y006182D01*
X041560Y006182D01*
X033560Y006182D02*
X033560Y006040D01*
X033418Y006040D01*
X033418Y006182D01*
X033560Y006182D01*
X033560Y006640D02*
X033560Y006782D01*
X033560Y006640D02*
X033418Y006640D01*
X033418Y006782D01*
X033560Y006782D01*
X050560Y006782D02*
X050560Y006640D01*
X050418Y006640D01*
X050418Y006782D01*
X050560Y006782D01*
X050560Y006182D02*
X050560Y006040D01*
X050418Y006040D01*
X050418Y006182D01*
X050560Y006182D01*
D15*
X009367Y023233D02*
X009367Y023689D01*
X009367Y023233D02*
X008611Y023233D01*
X008611Y023689D01*
X009367Y023689D01*
X009367Y023456D02*
X008611Y023456D01*
X008611Y023679D02*
X009367Y023679D01*
X009367Y024233D02*
X009367Y024689D01*
X009367Y024233D02*
X008611Y024233D01*
X008611Y024689D01*
X009367Y024689D01*
X009367Y024456D02*
X008611Y024456D01*
X008611Y024679D02*
X009367Y024679D01*
X009367Y025233D02*
X009367Y025689D01*
X009367Y025233D02*
X008611Y025233D01*
X008611Y025689D01*
X009367Y025689D01*
X009367Y025456D02*
X008611Y025456D01*
X008611Y025679D02*
X009367Y025679D01*
D16*
X011506Y022278D02*
X014872Y022278D01*
X011506Y022278D02*
X011506Y026644D01*
X014872Y026644D01*
X014872Y022278D01*
X014872Y022492D02*
X011506Y022492D01*
X011506Y022706D02*
X014872Y022706D01*
X014872Y022920D02*
X011506Y022920D01*
X011506Y023134D02*
X014872Y023134D01*
X014872Y023348D02*
X011506Y023348D01*
X011506Y023562D02*
X014872Y023562D01*
X014872Y023776D02*
X011506Y023776D01*
X011506Y023990D02*
X014872Y023990D01*
X014872Y024204D02*
X011506Y024204D01*
X011506Y024418D02*
X014872Y024418D01*
X014872Y024632D02*
X011506Y024632D01*
X011506Y024846D02*
X014872Y024846D01*
X014872Y025060D02*
X011506Y025060D01*
X011506Y025274D02*
X014872Y025274D01*
X014872Y025488D02*
X011506Y025488D01*
X011506Y025702D02*
X014872Y025702D01*
X014872Y025916D02*
X011506Y025916D01*
X011506Y026130D02*
X014872Y026130D01*
X014872Y026344D02*
X011506Y026344D01*
X011506Y026558D02*
X014872Y026558D01*
D17*
X007810Y030961D03*
X005408Y030961D03*
X006589Y029071D03*
D18*
X015905Y009735D02*
X015905Y009687D01*
X015227Y009687D01*
X015227Y009735D01*
X015905Y009735D01*
X015905Y009235D02*
X015905Y009187D01*
X015227Y009187D01*
X015227Y009235D01*
X015905Y009235D01*
X015905Y008735D02*
X015905Y008687D01*
X015227Y008687D01*
X015227Y008735D01*
X015905Y008735D01*
X015905Y008235D02*
X015905Y008187D01*
X015227Y008187D01*
X015227Y008235D01*
X015905Y008235D01*
X015905Y007735D02*
X015905Y007687D01*
X015227Y007687D01*
X015227Y007735D01*
X015905Y007735D01*
X015905Y007235D02*
X015905Y007187D01*
X015227Y007187D01*
X015227Y007235D01*
X015905Y007235D01*
X015905Y006735D02*
X015905Y006687D01*
X015227Y006687D01*
X015227Y006735D01*
X015905Y006735D01*
X017952Y006735D02*
X017952Y006687D01*
X017274Y006687D01*
X017274Y006735D01*
X017952Y006735D01*
X017952Y007187D02*
X017952Y007235D01*
X017952Y007187D02*
X017274Y007187D01*
X017274Y007235D01*
X017952Y007235D01*
X017952Y007687D02*
X017952Y007735D01*
X017952Y007687D02*
X017274Y007687D01*
X017274Y007735D01*
X017952Y007735D01*
X017952Y008187D02*
X017952Y008235D01*
X017952Y008187D02*
X017274Y008187D01*
X017274Y008235D01*
X017952Y008235D01*
X017952Y008687D02*
X017952Y008735D01*
X017952Y008687D02*
X017274Y008687D01*
X017274Y008735D01*
X017952Y008735D01*
X017952Y009187D02*
X017952Y009235D01*
X017952Y009187D02*
X017274Y009187D01*
X017274Y009235D01*
X017952Y009235D01*
X017952Y009687D02*
X017952Y009735D01*
X017952Y009687D02*
X017274Y009687D01*
X017274Y009735D01*
X017952Y009735D01*
X021955Y009735D02*
X021955Y009687D01*
X021277Y009687D01*
X021277Y009735D01*
X021955Y009735D01*
X021955Y009235D02*
X021955Y009187D01*
X021277Y009187D01*
X021277Y009235D01*
X021955Y009235D01*
X021955Y008735D02*
X021955Y008687D01*
X021277Y008687D01*
X021277Y008735D01*
X021955Y008735D01*
X021955Y008235D02*
X021955Y008187D01*
X021277Y008187D01*
X021277Y008235D01*
X021955Y008235D01*
X021955Y007735D02*
X021955Y007687D01*
X021277Y007687D01*
X021277Y007735D01*
X021955Y007735D01*
X021955Y007235D02*
X021955Y007187D01*
X021277Y007187D01*
X021277Y007235D01*
X021955Y007235D01*
X021955Y006735D02*
X021955Y006687D01*
X021277Y006687D01*
X021277Y006735D01*
X021955Y006735D01*
X024002Y006735D02*
X024002Y006687D01*
X023324Y006687D01*
X023324Y006735D01*
X024002Y006735D01*
X024002Y007187D02*
X024002Y007235D01*
X024002Y007187D02*
X023324Y007187D01*
X023324Y007235D01*
X024002Y007235D01*
X024002Y007687D02*
X024002Y007735D01*
X024002Y007687D02*
X023324Y007687D01*
X023324Y007735D01*
X024002Y007735D01*
X024002Y008187D02*
X024002Y008235D01*
X024002Y008187D02*
X023324Y008187D01*
X023324Y008235D01*
X024002Y008235D01*
X024002Y008687D02*
X024002Y008735D01*
X024002Y008687D02*
X023324Y008687D01*
X023324Y008735D01*
X024002Y008735D01*
X024002Y009187D02*
X024002Y009235D01*
X024002Y009187D02*
X023324Y009187D01*
X023324Y009235D01*
X024002Y009235D01*
X024002Y009687D02*
X024002Y009735D01*
X024002Y009687D02*
X023324Y009687D01*
X023324Y009735D01*
X024002Y009735D01*
X011302Y007085D02*
X011302Y007037D01*
X010624Y007037D01*
X010624Y007085D01*
X011302Y007085D01*
X011302Y006585D02*
X011302Y006537D01*
X010624Y006537D01*
X010624Y006585D01*
X011302Y006585D01*
X011302Y006085D02*
X011302Y006037D01*
X010624Y006037D01*
X010624Y006085D01*
X011302Y006085D01*
X011302Y005585D02*
X011302Y005537D01*
X010624Y005537D01*
X010624Y005585D01*
X011302Y005585D01*
X011302Y005085D02*
X011302Y005037D01*
X010624Y005037D01*
X010624Y005085D01*
X011302Y005085D01*
X011302Y004585D02*
X011302Y004537D01*
X010624Y004537D01*
X010624Y004585D01*
X011302Y004585D01*
X011302Y004085D02*
X011302Y004037D01*
X010624Y004037D01*
X010624Y004085D01*
X011302Y004085D01*
X011302Y003585D02*
X011302Y003537D01*
X010624Y003537D01*
X010624Y003585D01*
X011302Y003585D01*
X009255Y003585D02*
X009255Y003537D01*
X008577Y003537D01*
X008577Y003585D01*
X009255Y003585D01*
X009255Y004037D02*
X009255Y004085D01*
X009255Y004037D02*
X008577Y004037D01*
X008577Y004085D01*
X009255Y004085D01*
X009255Y004537D02*
X009255Y004585D01*
X009255Y004537D02*
X008577Y004537D01*
X008577Y004585D01*
X009255Y004585D01*
X009255Y005037D02*
X009255Y005085D01*
X009255Y005037D02*
X008577Y005037D01*
X008577Y005085D01*
X009255Y005085D01*
X009255Y005537D02*
X009255Y005585D01*
X009255Y005537D02*
X008577Y005537D01*
X008577Y005585D01*
X009255Y005585D01*
X009255Y006037D02*
X009255Y006085D01*
X009255Y006037D02*
X008577Y006037D01*
X008577Y006085D01*
X009255Y006085D01*
X009255Y006537D02*
X009255Y006585D01*
X009255Y006537D02*
X008577Y006537D01*
X008577Y006585D01*
X009255Y006585D01*
X009255Y007037D02*
X009255Y007085D01*
X009255Y007037D02*
X008577Y007037D01*
X008577Y007085D01*
X009255Y007085D01*
D19*
X009539Y011161D03*
X010539Y011161D03*
X011539Y011161D03*
X011539Y012161D03*
X010539Y012161D03*
X009539Y012161D03*
X015089Y006011D03*
X015089Y005011D03*
X015089Y004011D03*
X015089Y003011D03*
X015089Y002011D03*
X018089Y002011D03*
X018089Y003011D03*
X018089Y004011D03*
X018089Y005011D03*
X018089Y006011D03*
X021089Y006011D03*
X021089Y005011D03*
X021089Y004011D03*
X021089Y003011D03*
X021089Y002011D03*
X024089Y002011D03*
X024089Y003011D03*
X024089Y004011D03*
X024089Y005011D03*
X024089Y006011D03*
X028539Y003011D03*
X028539Y002011D03*
X031939Y002011D03*
X031939Y003011D03*
X030439Y031261D03*
X029439Y031261D03*
X028439Y031261D03*
X027439Y031261D03*
X026439Y031261D03*
X025439Y031261D03*
X023489Y031261D03*
X022489Y031261D03*
X021489Y031261D03*
X020489Y031261D03*
X019489Y031261D03*
X018489Y031261D03*
X043539Y031611D03*
X044539Y031611D03*
X045539Y031611D03*
X046539Y031611D03*
X047539Y031611D03*
X048539Y031611D03*
D20*
X016302Y013680D02*
X016302Y013238D01*
X016302Y013680D02*
X016784Y013680D01*
X016784Y013238D01*
X016302Y013238D01*
X016302Y013465D02*
X016784Y013465D01*
X016784Y012184D02*
X016784Y011742D01*
X016302Y011742D01*
X016302Y012184D01*
X016784Y012184D01*
X016784Y011969D02*
X016302Y011969D01*
X014777Y012184D02*
X014777Y011742D01*
X014295Y011742D01*
X014295Y012184D01*
X014777Y012184D01*
X014777Y011969D02*
X014295Y011969D01*
X014295Y013238D02*
X014295Y013680D01*
X014777Y013680D01*
X014777Y013238D01*
X014295Y013238D01*
X014295Y013465D02*
X014777Y013465D01*
D21*
X005989Y017461D03*
X004989Y017461D03*
X003989Y017461D03*
X003989Y021561D03*
X004989Y021561D03*
X005989Y021561D03*
X030289Y028561D03*
X031289Y028561D03*
X032289Y028561D03*
X034143Y008100D03*
X035482Y008100D03*
X036820Y008100D03*
X038159Y008100D03*
X039497Y008100D03*
X040836Y008100D03*
X043143Y008100D03*
X044482Y008100D03*
X045820Y008100D03*
X047159Y008100D03*
X048497Y008100D03*
X049836Y008100D03*
X049167Y006100D03*
X047828Y006100D03*
X046489Y006100D03*
X045151Y006100D03*
X043812Y006100D03*
X040167Y006100D03*
X038828Y006100D03*
X037489Y006100D03*
X036151Y006100D03*
X034812Y006100D03*
D22*
X035239Y002261D03*
X036239Y002261D03*
X047789Y002311D03*
X048789Y002311D03*
X049039Y015111D03*
X048039Y015111D03*
X050039Y015111D03*
X050039Y024111D03*
X049039Y024111D03*
X048039Y024111D03*
X049039Y028111D03*
X049039Y029111D03*
X006789Y012208D03*
X005671Y011659D03*
X006789Y011110D03*
X005671Y010560D03*
X006789Y010011D03*
X005671Y009462D03*
X006789Y008913D03*
X005671Y008364D03*
X006789Y007814D03*
D23*
X034801Y011522D02*
X034801Y012086D01*
X034801Y011522D02*
X034277Y011522D01*
X034277Y012086D01*
X034801Y012086D01*
X034801Y011746D02*
X034277Y011746D01*
X034277Y011970D02*
X034801Y011970D01*
X035277Y012086D02*
X035277Y011522D01*
X035277Y012086D02*
X035801Y012086D01*
X035801Y011522D01*
X035277Y011522D01*
X035277Y011746D02*
X035801Y011746D01*
X035801Y011970D02*
X035277Y011970D01*
X037051Y012086D02*
X037051Y011522D01*
X036527Y011522D01*
X036527Y012086D01*
X037051Y012086D01*
X037051Y011746D02*
X036527Y011746D01*
X036527Y011970D02*
X037051Y011970D01*
X037051Y013136D02*
X037051Y013700D01*
X037051Y013136D02*
X036527Y013136D01*
X036527Y013700D01*
X037051Y013700D01*
X037051Y013360D02*
X036527Y013360D01*
X036527Y013584D02*
X037051Y013584D01*
X036527Y014022D02*
X036527Y014586D01*
X037051Y014586D01*
X037051Y014022D01*
X036527Y014022D01*
X036527Y014246D02*
X037051Y014246D01*
X037051Y014470D02*
X036527Y014470D01*
X035801Y014586D02*
X035801Y014022D01*
X035277Y014022D01*
X035277Y014586D01*
X035801Y014586D01*
X035801Y014246D02*
X035277Y014246D01*
X035277Y014470D02*
X035801Y014470D01*
X035277Y013700D02*
X035277Y013136D01*
X035277Y013700D02*
X035801Y013700D01*
X035801Y013136D01*
X035277Y013136D01*
X035277Y013360D02*
X035801Y013360D01*
X035801Y013584D02*
X035277Y013584D01*
X034801Y013700D02*
X034801Y013136D01*
X034277Y013136D01*
X034277Y013700D01*
X034801Y013700D01*
X034801Y013360D02*
X034277Y013360D01*
X034277Y013584D02*
X034801Y013584D01*
X034801Y014022D02*
X034801Y014586D01*
X034801Y014022D02*
X034277Y014022D01*
X034277Y014586D01*
X034801Y014586D01*
X034801Y014246D02*
X034277Y014246D01*
X034277Y014470D02*
X034801Y014470D01*
X034801Y015636D02*
X034801Y016200D01*
X034801Y015636D02*
X034277Y015636D01*
X034277Y016200D01*
X034801Y016200D01*
X034801Y015860D02*
X034277Y015860D01*
X034277Y016084D02*
X034801Y016084D01*
X035801Y016200D02*
X035801Y015636D01*
X035277Y015636D01*
X035277Y016200D01*
X035801Y016200D01*
X035801Y015860D02*
X035277Y015860D01*
X035277Y016084D02*
X035801Y016084D01*
X035801Y016522D02*
X035801Y017086D01*
X035801Y016522D02*
X035277Y016522D01*
X035277Y017086D01*
X035801Y017086D01*
X035801Y016746D02*
X035277Y016746D01*
X035277Y016970D02*
X035801Y016970D01*
X036527Y017086D02*
X036527Y016522D01*
X036527Y017086D02*
X037051Y017086D01*
X037051Y016522D01*
X036527Y016522D01*
X036527Y016746D02*
X037051Y016746D01*
X037051Y016970D02*
X036527Y016970D01*
X036527Y016200D02*
X036527Y015636D01*
X036527Y016200D02*
X037051Y016200D01*
X037051Y015636D01*
X036527Y015636D01*
X036527Y015860D02*
X037051Y015860D01*
X037051Y016084D02*
X036527Y016084D01*
X034277Y016522D02*
X034277Y017086D01*
X034801Y017086D01*
X034801Y016522D01*
X034277Y016522D01*
X034277Y016746D02*
X034801Y016746D01*
X034801Y016970D02*
X034277Y016970D01*
X034277Y018136D02*
X034277Y018700D01*
X034801Y018700D01*
X034801Y018136D01*
X034277Y018136D01*
X034277Y018360D02*
X034801Y018360D01*
X034801Y018584D02*
X034277Y018584D01*
X035801Y018700D02*
X035801Y018136D01*
X035277Y018136D01*
X035277Y018700D01*
X035801Y018700D01*
X035801Y018360D02*
X035277Y018360D01*
X035277Y018584D02*
X035801Y018584D01*
X036527Y018700D02*
X036527Y018136D01*
X036527Y018700D02*
X037051Y018700D01*
X037051Y018136D01*
X036527Y018136D01*
X036527Y018360D02*
X037051Y018360D01*
X037051Y018584D02*
X036527Y018584D01*
X037051Y020522D02*
X037051Y021086D01*
X037051Y020522D02*
X036527Y020522D01*
X036527Y021086D01*
X037051Y021086D01*
X037051Y020746D02*
X036527Y020746D01*
X036527Y020970D02*
X037051Y020970D01*
X035277Y021086D02*
X035277Y020522D01*
X035277Y021086D02*
X035801Y021086D01*
X035801Y020522D01*
X035277Y020522D01*
X035277Y020746D02*
X035801Y020746D01*
X035801Y020970D02*
X035277Y020970D01*
X034801Y021086D02*
X034801Y020522D01*
X034277Y020522D01*
X034277Y021086D01*
X034801Y021086D01*
X034801Y020746D02*
X034277Y020746D01*
X034277Y020970D02*
X034801Y020970D01*
X034801Y022136D02*
X034801Y022700D01*
X034801Y022136D02*
X034277Y022136D01*
X034277Y022700D01*
X034801Y022700D01*
X034801Y022360D02*
X034277Y022360D01*
X034277Y022584D02*
X034801Y022584D01*
X035277Y022700D02*
X035277Y022136D01*
X035277Y022700D02*
X035801Y022700D01*
X035801Y022136D01*
X035277Y022136D01*
X035277Y022360D02*
X035801Y022360D01*
X035801Y022584D02*
X035277Y022584D01*
X035801Y023022D02*
X035801Y023586D01*
X035801Y023022D02*
X035277Y023022D01*
X035277Y023586D01*
X035801Y023586D01*
X035801Y023246D02*
X035277Y023246D01*
X035277Y023470D02*
X035801Y023470D01*
X036527Y023586D02*
X036527Y023022D01*
X036527Y023586D02*
X037051Y023586D01*
X037051Y023022D01*
X036527Y023022D01*
X036527Y023246D02*
X037051Y023246D01*
X037051Y023470D02*
X036527Y023470D01*
X037051Y022700D02*
X037051Y022136D01*
X036527Y022136D01*
X036527Y022700D01*
X037051Y022700D01*
X037051Y022360D02*
X036527Y022360D01*
X036527Y022584D02*
X037051Y022584D01*
X034801Y023022D02*
X034801Y023586D01*
X034801Y023022D02*
X034277Y023022D01*
X034277Y023586D01*
X034801Y023586D01*
X034801Y023246D02*
X034277Y023246D01*
X034277Y023470D02*
X034801Y023470D01*
X034801Y024636D02*
X034801Y025200D01*
X034801Y024636D02*
X034277Y024636D01*
X034277Y025200D01*
X034801Y025200D01*
X034801Y024860D02*
X034277Y024860D01*
X034277Y025084D02*
X034801Y025084D01*
X035801Y025200D02*
X035801Y024636D01*
X035277Y024636D01*
X035277Y025200D01*
X035801Y025200D01*
X035801Y024860D02*
X035277Y024860D01*
X035277Y025084D02*
X035801Y025084D01*
X035801Y025522D02*
X035801Y026086D01*
X035801Y025522D02*
X035277Y025522D01*
X035277Y026086D01*
X035801Y026086D01*
X035801Y025746D02*
X035277Y025746D01*
X035277Y025970D02*
X035801Y025970D01*
X036527Y026086D02*
X036527Y025522D01*
X036527Y026086D02*
X037051Y026086D01*
X037051Y025522D01*
X036527Y025522D01*
X036527Y025746D02*
X037051Y025746D01*
X037051Y025970D02*
X036527Y025970D01*
X036527Y025200D02*
X036527Y024636D01*
X036527Y025200D02*
X037051Y025200D01*
X037051Y024636D01*
X036527Y024636D01*
X036527Y024860D02*
X037051Y024860D01*
X037051Y025084D02*
X036527Y025084D01*
X034277Y025522D02*
X034277Y026086D01*
X034801Y026086D01*
X034801Y025522D01*
X034277Y025522D01*
X034277Y025746D02*
X034801Y025746D01*
X034801Y025970D02*
X034277Y025970D01*
X034277Y027136D02*
X034277Y027700D01*
X034801Y027700D01*
X034801Y027136D01*
X034277Y027136D01*
X034277Y027360D02*
X034801Y027360D01*
X034801Y027584D02*
X034277Y027584D01*
X035801Y027700D02*
X035801Y027136D01*
X035277Y027136D01*
X035277Y027700D01*
X035801Y027700D01*
X035801Y027360D02*
X035277Y027360D01*
X035277Y027584D02*
X035801Y027584D01*
X036527Y027700D02*
X036527Y027136D01*
X036527Y027700D02*
X037051Y027700D01*
X037051Y027136D01*
X036527Y027136D01*
X036527Y027360D02*
X037051Y027360D01*
X037051Y027584D02*
X036527Y027584D01*
D24*
X027541Y026495D02*
X027541Y026225D01*
X027285Y026225D02*
X027285Y026495D01*
X027029Y026495D02*
X027029Y026225D01*
X026773Y026225D02*
X026773Y026495D01*
X026517Y026495D02*
X026517Y026225D01*
X026261Y026225D02*
X026261Y026495D01*
X026006Y026495D02*
X026006Y026225D01*
X025750Y026225D02*
X025750Y026495D01*
X025494Y026495D02*
X025494Y026225D01*
X025238Y026225D02*
X025238Y026495D01*
X025238Y024198D02*
X025238Y023928D01*
X025494Y023928D02*
X025494Y024198D01*
X025750Y024198D02*
X025750Y023928D01*
X026006Y023928D02*
X026006Y024198D01*
X026261Y024198D02*
X026261Y023928D01*
X026517Y023928D02*
X026517Y024198D01*
X026773Y024198D02*
X026773Y023928D01*
X027029Y023928D02*
X027029Y024198D01*
X027285Y024198D02*
X027285Y023928D01*
X027541Y023928D02*
X027541Y024198D01*
D25*
X032360Y032175D03*
X032360Y033947D03*
X034919Y033947D03*
X034919Y032175D03*
X011619Y009597D03*
X009060Y009597D03*
X009060Y007825D03*
X011619Y007825D03*
D26*
X036827Y032968D03*
X037615Y032968D03*
X037615Y033755D03*
X036827Y033755D03*
X038402Y033755D03*
X039189Y033755D03*
X039189Y032968D03*
X038402Y032968D03*
X039977Y032968D03*
X040764Y032968D03*
X040764Y033755D03*
X039977Y033755D03*
X041552Y033755D03*
X041552Y032968D03*
D27*
X013981Y020918D02*
X013665Y020918D01*
X013981Y020918D02*
X013981Y020918D01*
X013665Y020918D01*
X013665Y020918D01*
X013665Y020603D02*
X013981Y020603D01*
X013981Y020603D01*
X013665Y020603D01*
X013665Y020603D01*
X013665Y020288D02*
X013981Y020288D01*
X013981Y020288D01*
X013665Y020288D01*
X013665Y020288D01*
X013665Y019973D02*
X013981Y019973D01*
X013981Y019973D01*
X013665Y019973D01*
X013665Y019973D01*
X013665Y019659D02*
X013981Y019659D01*
X013981Y019659D01*
X013665Y019659D01*
X013665Y019659D01*
X013665Y019344D02*
X013981Y019344D01*
X013981Y019344D01*
X013665Y019344D01*
X013665Y019344D01*
X013665Y019029D02*
X013981Y019029D01*
X013981Y019029D01*
X013665Y019029D01*
X013665Y019029D01*
X013665Y018714D02*
X013981Y018714D01*
X013981Y018714D01*
X013665Y018714D01*
X013665Y018714D01*
X013665Y018399D02*
X013981Y018399D01*
X013981Y018399D01*
X013665Y018399D01*
X013665Y018399D01*
X013665Y018084D02*
X013981Y018084D01*
X013981Y018084D01*
X013665Y018084D01*
X013665Y018084D01*
X013665Y017769D02*
X013981Y017769D01*
X013981Y017769D01*
X013665Y017769D01*
X013665Y017769D01*
X013665Y017454D02*
X013981Y017454D01*
X013981Y017454D01*
X013665Y017454D01*
X013665Y017454D01*
X013665Y017139D02*
X013981Y017139D01*
X013981Y017139D01*
X013665Y017139D01*
X013665Y017139D01*
X013665Y016824D02*
X013981Y016824D01*
X013981Y016824D01*
X013665Y016824D01*
X013665Y016824D01*
X013665Y016509D02*
X013981Y016509D01*
X013981Y016509D01*
X013665Y016509D01*
X013665Y016509D01*
X013665Y016194D02*
X013981Y016194D01*
X013981Y016194D01*
X013665Y016194D01*
X013665Y016194D01*
X013665Y015879D02*
X013981Y015879D01*
X013981Y015879D01*
X013665Y015879D01*
X013665Y015879D01*
X013665Y015564D02*
X013981Y015564D01*
X013981Y015564D01*
X013665Y015564D01*
X013665Y015564D01*
X013665Y015249D02*
X013981Y015249D01*
X013981Y015249D01*
X013665Y015249D01*
X013665Y015249D01*
X013665Y014934D02*
X013981Y014934D01*
X013981Y014934D01*
X013665Y014934D01*
X013665Y014934D01*
X013665Y014619D02*
X013981Y014619D01*
X013981Y014619D01*
X013665Y014619D01*
X013665Y014619D01*
X013665Y014304D02*
X013981Y014304D01*
X013981Y014304D01*
X013665Y014304D01*
X013665Y014304D01*
X009414Y014304D02*
X009098Y014304D01*
X009098Y014304D01*
X009414Y014304D01*
X009414Y014304D01*
X009414Y014619D02*
X009098Y014619D01*
X009098Y014619D01*
X009414Y014619D01*
X009414Y014619D01*
X009414Y014934D02*
X009098Y014934D01*
X009098Y014934D01*
X009414Y014934D01*
X009414Y014934D01*
X009414Y015249D02*
X009098Y015249D01*
X009098Y015249D01*
X009414Y015249D01*
X009414Y015249D01*
X009414Y015564D02*
X009098Y015564D01*
X009098Y015564D01*
X009414Y015564D01*
X009414Y015564D01*
X009414Y015879D02*
X009098Y015879D01*
X009098Y015879D01*
X009414Y015879D01*
X009414Y015879D01*
X009414Y016194D02*
X009098Y016194D01*
X009098Y016194D01*
X009414Y016194D01*
X009414Y016194D01*
X009414Y016509D02*
X009098Y016509D01*
X009098Y016509D01*
X009414Y016509D01*
X009414Y016509D01*
X009414Y016824D02*
X009098Y016824D01*
X009098Y016824D01*
X009414Y016824D01*
X009414Y016824D01*
X009414Y017139D02*
X009098Y017139D01*
X009098Y017139D01*
X009414Y017139D01*
X009414Y017139D01*
X009414Y017454D02*
X009098Y017454D01*
X009098Y017454D01*
X009414Y017454D01*
X009414Y017454D01*
X009414Y017769D02*
X009098Y017769D01*
X009098Y017769D01*
X009414Y017769D01*
X009414Y017769D01*
X009414Y018084D02*
X009098Y018084D01*
X009098Y018084D01*
X009414Y018084D01*
X009414Y018084D01*
X009414Y018399D02*
X009098Y018399D01*
X009098Y018399D01*
X009414Y018399D01*
X009414Y018399D01*
X009414Y018714D02*
X009098Y018714D01*
X009098Y018714D01*
X009414Y018714D01*
X009414Y018714D01*
X009414Y019029D02*
X009098Y019029D01*
X009098Y019029D01*
X009414Y019029D01*
X009414Y019029D01*
X009414Y019344D02*
X009098Y019344D01*
X009098Y019344D01*
X009414Y019344D01*
X009414Y019344D01*
X009414Y019659D02*
X009098Y019659D01*
X009098Y019659D01*
X009414Y019659D01*
X009414Y019659D01*
X009414Y019973D02*
X009098Y019973D01*
X009098Y019973D01*
X009414Y019973D01*
X009414Y019973D01*
X009414Y020288D02*
X009098Y020288D01*
X009098Y020288D01*
X009414Y020288D01*
X009414Y020288D01*
X009414Y020603D02*
X009098Y020603D01*
X009098Y020603D01*
X009414Y020603D01*
X009414Y020603D01*
X009414Y020918D02*
X009098Y020918D01*
X009098Y020918D01*
X009414Y020918D01*
X009414Y020918D01*
D28*
X042185Y020107D02*
X042185Y022115D01*
X042185Y020107D02*
X039863Y020107D01*
X039863Y022115D01*
X042185Y022115D01*
X042185Y020305D02*
X039863Y020305D01*
X039863Y020503D02*
X042185Y020503D01*
X042185Y020701D02*
X039863Y020701D01*
X039863Y020899D02*
X042185Y020899D01*
X042185Y021097D02*
X039863Y021097D01*
X039863Y021295D02*
X042185Y021295D01*
X042185Y021493D02*
X039863Y021493D01*
X039863Y021691D02*
X042185Y021691D01*
X042185Y021889D02*
X039863Y021889D01*
X039863Y022087D02*
X042185Y022087D01*
X042185Y023107D02*
X042185Y025115D01*
X042185Y023107D02*
X039863Y023107D01*
X039863Y025115D01*
X042185Y025115D01*
X042185Y023305D02*
X039863Y023305D01*
X039863Y023503D02*
X042185Y023503D01*
X042185Y023701D02*
X039863Y023701D01*
X039863Y023899D02*
X042185Y023899D01*
X042185Y024097D02*
X039863Y024097D01*
X039863Y024295D02*
X042185Y024295D01*
X042185Y024493D02*
X039863Y024493D01*
X039863Y024691D02*
X042185Y024691D01*
X042185Y024889D02*
X039863Y024889D01*
X039863Y025087D02*
X042185Y025087D01*
X042185Y026107D02*
X042185Y028115D01*
X042185Y026107D02*
X039863Y026107D01*
X039863Y028115D01*
X042185Y028115D01*
X042185Y026305D02*
X039863Y026305D01*
X039863Y026503D02*
X042185Y026503D01*
X042185Y026701D02*
X039863Y026701D01*
X039863Y026899D02*
X042185Y026899D01*
X042185Y027097D02*
X039863Y027097D01*
X039863Y027295D02*
X042185Y027295D01*
X042185Y027493D02*
X039863Y027493D01*
X039863Y027691D02*
X042185Y027691D01*
X042185Y027889D02*
X039863Y027889D01*
X039863Y028087D02*
X042185Y028087D01*
X042185Y019115D02*
X042185Y017107D01*
X039863Y017107D01*
X039863Y019115D01*
X042185Y019115D01*
X042185Y017305D02*
X039863Y017305D01*
X039863Y017503D02*
X042185Y017503D01*
X042185Y017701D02*
X039863Y017701D01*
X039863Y017899D02*
X042185Y017899D01*
X042185Y018097D02*
X039863Y018097D01*
X039863Y018295D02*
X042185Y018295D01*
X042185Y018493D02*
X039863Y018493D01*
X039863Y018691D02*
X042185Y018691D01*
X042185Y018889D02*
X039863Y018889D01*
X039863Y019087D02*
X042185Y019087D01*
X042185Y016115D02*
X042185Y014107D01*
X039863Y014107D01*
X039863Y016115D01*
X042185Y016115D01*
X042185Y014305D02*
X039863Y014305D01*
X039863Y014503D02*
X042185Y014503D01*
X042185Y014701D02*
X039863Y014701D01*
X039863Y014899D02*
X042185Y014899D01*
X042185Y015097D02*
X039863Y015097D01*
X039863Y015295D02*
X042185Y015295D01*
X042185Y015493D02*
X039863Y015493D01*
X039863Y015691D02*
X042185Y015691D01*
X042185Y015889D02*
X039863Y015889D01*
X039863Y016087D02*
X042185Y016087D01*
X042185Y013115D02*
X042185Y011107D01*
X039863Y011107D01*
X039863Y013115D01*
X042185Y013115D01*
X042185Y011305D02*
X039863Y011305D01*
X039863Y011503D02*
X042185Y011503D01*
X042185Y011701D02*
X039863Y011701D01*
X039863Y011899D02*
X042185Y011899D01*
X042185Y012097D02*
X039863Y012097D01*
X039863Y012295D02*
X042185Y012295D01*
X042185Y012493D02*
X039863Y012493D01*
X039863Y012691D02*
X042185Y012691D01*
X042185Y012889D02*
X039863Y012889D01*
X039863Y013087D02*
X042185Y013087D01*
D29*
X038384Y013125D02*
X038384Y012893D01*
X037916Y012893D01*
X037916Y013125D01*
X038384Y013125D01*
X038384Y014098D02*
X038384Y014330D01*
X038384Y014098D02*
X037916Y014098D01*
X037916Y014330D01*
X038384Y014330D01*
X038384Y015893D02*
X038384Y016125D01*
X038384Y015893D02*
X037916Y015893D01*
X037916Y016125D01*
X038384Y016125D01*
X038384Y017098D02*
X038384Y017330D01*
X038384Y017098D02*
X037916Y017098D01*
X037916Y017330D01*
X038384Y017330D01*
X038384Y018893D02*
X038384Y019125D01*
X038384Y018893D02*
X037916Y018893D01*
X037916Y019125D01*
X038384Y019125D01*
X038384Y020098D02*
X038384Y020330D01*
X038384Y020098D02*
X037916Y020098D01*
X037916Y020330D01*
X038384Y020330D01*
X038384Y021893D02*
X038384Y022125D01*
X038384Y021893D02*
X037916Y021893D01*
X037916Y022125D01*
X038384Y022125D01*
X038384Y023098D02*
X038384Y023330D01*
X038384Y023098D02*
X037916Y023098D01*
X037916Y023330D01*
X038384Y023330D01*
X038384Y024893D02*
X038384Y025125D01*
X038384Y024893D02*
X037916Y024893D01*
X037916Y025125D01*
X038384Y025125D01*
X038384Y026098D02*
X038384Y026330D01*
X038384Y026098D02*
X037916Y026098D01*
X037916Y026330D01*
X038384Y026330D01*
X038384Y027893D02*
X038384Y028125D01*
X038384Y027893D02*
X037916Y027893D01*
X037916Y028125D01*
X038384Y028125D01*
X038384Y011330D02*
X038384Y011098D01*
X037916Y011098D01*
X037916Y011330D01*
X038384Y011330D01*
D30*
X006230Y014933D03*
X006230Y005090D03*
D31*
X010339Y032711D03*
X011339Y032711D03*
X012339Y032711D03*
X013339Y032711D03*
X014339Y032711D03*
X015339Y032711D03*
X016339Y032711D03*
X017339Y032711D03*
X017339Y035711D03*
X016339Y035711D03*
X015339Y035711D03*
X014339Y035711D03*
X013339Y035711D03*
X012339Y035711D03*
X011339Y035711D03*
X010339Y035711D03*
D32*
X038789Y028011D03*
X038814Y027111D03*
X040989Y025611D03*
X038789Y025011D03*
X038814Y024111D03*
X038789Y022011D03*
X038814Y021111D03*
X040989Y019611D03*
X038789Y019011D03*
X038814Y018111D03*
X040989Y016611D03*
X038789Y016011D03*
X038814Y015111D03*
X040989Y013611D03*
X038789Y013011D03*
X038814Y012111D03*
X040989Y010711D03*
X043639Y013711D03*
X046439Y013661D03*
X046439Y016561D03*
X043639Y016511D03*
X040989Y022611D03*
X043639Y022711D03*
X046439Y022661D03*
X046439Y025561D03*
X043639Y025511D03*
X043114Y003011D03*
X040864Y003011D03*
X038114Y003011D03*
X045864Y003011D03*
D33*
X046239Y008911D03*
X047589Y008911D03*
X038589Y008911D03*
X037239Y008911D03*
X033664Y012361D03*
X033664Y013361D03*
X033664Y013861D03*
X033664Y015361D03*
X033664Y015861D03*
X033664Y016361D03*
X031414Y016361D03*
X031414Y015361D03*
X031414Y014861D03*
X031414Y014361D03*
X031414Y013861D03*
X031414Y013361D03*
X036164Y013361D03*
X036164Y013736D03*
X036164Y014736D03*
X036789Y014861D03*
X037414Y015111D03*
X037414Y016111D03*
X037414Y016861D03*
X036789Y017361D03*
X036164Y017361D03*
X034039Y018361D03*
X030889Y019611D03*
X033664Y021361D03*
X033664Y022361D03*
X033664Y022861D03*
X033664Y024361D03*
X033664Y024861D03*
X033664Y025361D03*
X031414Y025361D03*
X031414Y024361D03*
X031414Y023861D03*
X031414Y023361D03*
X031414Y022861D03*
X031414Y022361D03*
X027539Y024611D03*
X027089Y024611D03*
X026639Y024611D03*
X025689Y025061D03*
X024889Y024661D03*
X025239Y025961D03*
X026639Y025811D03*
X027089Y025811D03*
X027539Y025811D03*
X027739Y026361D03*
X026939Y023611D03*
X026589Y023611D03*
X026239Y023611D03*
X025439Y021861D03*
X024339Y021861D03*
X023089Y021211D03*
X022739Y021211D03*
X022389Y021211D03*
X021889Y021211D03*
X021539Y021211D03*
X020939Y021211D03*
X020189Y021211D03*
X019389Y021211D03*
X019039Y021211D03*
X018689Y021211D03*
X018339Y021211D03*
X017939Y021211D03*
X017389Y021211D03*
X016889Y021711D03*
X018445Y022275D03*
X016989Y023261D03*
X016639Y023261D03*
X016289Y023261D03*
X016289Y024061D03*
X016639Y024061D03*
X016989Y024061D03*
X016989Y025061D03*
X016639Y025061D03*
X016289Y025061D03*
X015939Y025711D03*
X015939Y026061D03*
X015939Y026411D03*
X015939Y026761D03*
X015939Y027111D03*
X015939Y027461D03*
X015089Y027311D03*
X015089Y026961D03*
X015089Y027661D03*
X015089Y028011D03*
X015089Y028361D03*
X015739Y028411D03*
X016489Y028411D03*
X016489Y029061D03*
X015739Y029061D03*
X014989Y029061D03*
X014989Y029711D03*
X014989Y030311D03*
X015739Y030311D03*
X015739Y029711D03*
X016489Y029711D03*
X016489Y030311D03*
X015739Y030911D03*
X014989Y030911D03*
X014239Y030911D03*
X013539Y030911D03*
X013539Y030311D03*
X013539Y029711D03*
X014239Y029711D03*
X014239Y030311D03*
X014239Y029061D03*
X013539Y029061D03*
X010689Y028211D03*
X010689Y027461D03*
X009839Y027461D03*
X009189Y028011D03*
X008839Y028011D03*
X008489Y028011D03*
X008139Y028011D03*
X008089Y028711D03*
X006839Y027761D03*
X005439Y027261D03*
X006839Y026111D03*
X008139Y026061D03*
X008489Y026061D03*
X008839Y026061D03*
X009189Y026061D03*
X009189Y026911D03*
X008839Y026911D03*
X008489Y026911D03*
X008139Y026911D03*
X009839Y028211D03*
X009939Y029711D03*
X009939Y030161D03*
X009939Y030611D03*
X010839Y033611D03*
X011839Y033611D03*
X012839Y033611D03*
X013839Y033611D03*
X014839Y033611D03*
X015839Y033611D03*
X016839Y033611D03*
X017839Y033611D03*
X017339Y034811D03*
X016339Y034811D03*
X015339Y034811D03*
X014339Y034811D03*
X013339Y034811D03*
X012339Y034811D03*
X011339Y034811D03*
X010339Y034811D03*
X017239Y029061D03*
X017239Y028411D03*
X017989Y028411D03*
X019839Y027961D03*
X020189Y027961D03*
X020539Y027961D03*
X020539Y026961D03*
X020189Y026961D03*
X019839Y026961D03*
X019839Y026161D03*
X020189Y026161D03*
X020539Y026161D03*
X020539Y025161D03*
X020189Y025161D03*
X019839Y025161D03*
X020889Y024561D03*
X020889Y024211D03*
X020889Y023861D03*
X020889Y023511D03*
X020889Y023161D03*
X022189Y024561D03*
X022039Y025661D03*
X023239Y025661D03*
X023239Y027161D03*
X023239Y028061D03*
X015139Y026261D03*
X015139Y025911D03*
X015139Y025561D03*
X015139Y025211D03*
X015139Y024861D03*
X015139Y024511D03*
X015139Y024161D03*
X015139Y023811D03*
X015139Y023461D03*
X015139Y023111D03*
X015139Y022761D03*
X014989Y021761D03*
X014232Y020897D03*
X014390Y020582D03*
X014547Y020267D03*
X015138Y019952D03*
X015650Y019361D03*
X016689Y019211D03*
X017939Y019911D03*
X018489Y020061D03*
X019089Y020061D03*
X019639Y020061D03*
X020039Y020061D03*
X020539Y020061D03*
X020989Y020061D03*
X021389Y020061D03*
X021939Y020061D03*
X022539Y020061D03*
X023089Y019911D03*
X022089Y019461D03*
X022839Y018961D03*
X022589Y017661D03*
X023239Y017261D03*
X024289Y017461D03*
X024289Y016861D03*
X024289Y018061D03*
X024389Y019411D03*
X024389Y020411D03*
X027289Y019611D03*
X023239Y016011D03*
X024389Y015511D03*
X023139Y014811D03*
X022589Y014661D03*
X021989Y014661D03*
X021439Y014661D03*
X021039Y014661D03*
X020539Y014661D03*
X020089Y014661D03*
X019689Y014661D03*
X019139Y014661D03*
X018539Y014661D03*
X017989Y014811D03*
X016689Y014311D03*
X016689Y015311D03*
X017789Y016011D03*
X016739Y016661D03*
X016739Y017261D03*
X016739Y017861D03*
X017789Y017261D03*
X018489Y017661D03*
X018289Y018961D03*
X019039Y019461D03*
X020139Y019111D03*
X020039Y018261D03*
X020539Y017511D03*
X021039Y018261D03*
X021589Y016461D03*
X020939Y015611D03*
X019489Y016461D03*
X015539Y017611D03*
X014902Y017157D03*
X014744Y016842D03*
X014587Y016527D03*
X014429Y016212D03*
X014272Y015897D03*
X014862Y015582D03*
X014705Y015267D03*
X014547Y014952D03*
X014390Y014637D03*
X014232Y014322D03*
X014539Y013011D03*
X014539Y012411D03*
X016539Y013011D03*
X017889Y013511D03*
X018289Y013511D03*
X018689Y013511D03*
X019189Y013511D03*
X019539Y013511D03*
X020189Y013511D03*
X020989Y013511D03*
X021689Y013511D03*
X022039Y013511D03*
X022389Y013511D03*
X022739Y013511D03*
X023139Y013511D03*
X022589Y012511D03*
X022539Y011711D03*
X022089Y011711D03*
X022989Y011711D03*
X023439Y011711D03*
X023889Y011711D03*
X024339Y011711D03*
X024239Y009711D03*
X023089Y008711D03*
X023089Y007711D03*
X022189Y007211D03*
X023064Y006711D03*
X022014Y006011D03*
X022189Y008211D03*
X022189Y009211D03*
X022164Y009711D03*
X019639Y008761D03*
X017039Y006711D03*
X015989Y006011D03*
X012789Y005861D03*
X012789Y006261D03*
X012789Y006661D03*
X012789Y007061D03*
X013239Y008361D03*
X014989Y009711D03*
X020039Y012511D03*
X021239Y012511D03*
X024389Y014311D03*
X025889Y009161D03*
X026889Y007811D03*
X027889Y009161D03*
X029789Y006861D03*
X031389Y005361D03*
X032189Y004861D03*
X032189Y006061D03*
X027589Y004511D03*
X026889Y005811D03*
X012164Y013611D03*
X010914Y013611D03*
X010295Y014322D03*
X010138Y014637D03*
X009980Y014952D03*
X009823Y015267D03*
X009665Y015582D03*
X009664Y017611D03*
X008789Y017611D03*
X007589Y017611D03*
X009705Y019361D03*
X009705Y020306D03*
X009862Y020621D03*
X010020Y020936D03*
X010914Y021611D03*
X012164Y021611D03*
X012500Y020621D03*
X012643Y020306D03*
X012815Y019991D03*
X012973Y019676D03*
X014232Y019007D03*
X014390Y018692D03*
X014547Y018377D03*
X014705Y018062D03*
X014289Y017611D03*
X013414Y017611D03*
X013169Y015897D03*
X016689Y020411D03*
X008189Y024161D03*
X007589Y023161D03*
X006839Y024111D03*
X005439Y023511D03*
X003439Y023511D03*
X007389Y022311D03*
X003439Y027261D03*
X007689Y008061D03*
X008089Y008061D03*
X007189Y006061D03*
X009689Y005111D03*
X010389Y004061D03*
X010389Y003561D03*
X009689Y001511D03*
X036164Y022361D03*
X036164Y022736D03*
X036164Y023736D03*
X036789Y023861D03*
X037414Y024111D03*
X037414Y025111D03*
X037414Y025861D03*
X036789Y026361D03*
X036164Y026361D03*
X034039Y027361D03*
X038539Y030111D03*
X042139Y030111D03*
M02*
