G75*
G70*
%OFA0B0*%
%FSLAX24Y24*%
%IPPOS*%
%LPD*%
%AMOC8*
5,1,8,0,0,1.08239X$1,22.5*
%
%ADD10C,0.1497*%
%ADD11C,0.0253*%
%ADD12C,0.0231*%
%ADD13C,0.0232*%
%ADD14C,0.0867*%
%ADD15C,0.0216*%
%ADD16C,0.0215*%
%ADD17C,0.0680*%
%ADD18C,0.0273*%
%ADD19C,0.0780*%
%ADD20C,0.0674*%
%ADD21C,0.0218*%
%ADD22C,0.0269*%
%ADD23C,0.0198*%
%ADD24C,0.0740*%
%ADD25C,0.0560*%
%ADD26C,0.0242*%
%ADD27C,0.0237*%
%ADD28C,0.0199*%
%ADD29C,0.1740*%
%ADD30C,0.0600*%
%ADD31C,0.0480*%
%ADD32C,0.0350*%
D10*
X004239Y001861D03*
X004239Y034711D03*
X051339Y034711D03*
X051289Y001911D03*
D11*
X048560Y008982D02*
X048418Y008982D01*
X048560Y008982D02*
X048560Y008840D01*
X048418Y008840D01*
X048418Y008982D01*
X047960Y008982D02*
X047818Y008982D01*
X047960Y008982D02*
X047960Y008840D01*
X047818Y008840D01*
X047818Y008982D01*
X047210Y008982D02*
X047068Y008982D01*
X047210Y008982D02*
X047210Y008840D01*
X047068Y008840D01*
X047068Y008982D01*
X046610Y008982D02*
X046468Y008982D01*
X046610Y008982D02*
X046610Y008840D01*
X046468Y008840D01*
X046468Y008982D01*
X039560Y008982D02*
X039418Y008982D01*
X039560Y008982D02*
X039560Y008840D01*
X039418Y008840D01*
X039418Y008982D01*
X038960Y008982D02*
X038818Y008982D01*
X038960Y008982D02*
X038960Y008840D01*
X038818Y008840D01*
X038818Y008982D01*
X038210Y008982D02*
X038068Y008982D01*
X038210Y008982D02*
X038210Y008840D01*
X038068Y008840D01*
X038068Y008982D01*
X037610Y008982D02*
X037468Y008982D01*
X037610Y008982D02*
X037610Y008840D01*
X037468Y008840D01*
X037468Y008982D01*
X035718Y012490D02*
X035718Y012632D01*
X035860Y012632D01*
X035860Y012490D01*
X035718Y012490D01*
X035218Y012490D02*
X035218Y012632D01*
X035360Y012632D01*
X035360Y012490D01*
X035218Y012490D01*
X035218Y013090D02*
X035218Y013232D01*
X035360Y013232D01*
X035360Y013090D01*
X035218Y013090D01*
X035718Y013090D02*
X035718Y013232D01*
X035860Y013232D01*
X035860Y013090D01*
X035718Y013090D01*
X036418Y012790D02*
X036560Y012790D01*
X036418Y012790D02*
X036418Y012932D01*
X036560Y012932D01*
X036560Y012790D01*
X037018Y012790D02*
X037160Y012790D01*
X037018Y012790D02*
X037018Y012932D01*
X037160Y012932D01*
X037160Y012790D01*
X035718Y013990D02*
X035718Y014132D01*
X035860Y014132D01*
X035860Y013990D01*
X035718Y013990D01*
X035218Y013990D02*
X035218Y014132D01*
X035360Y014132D01*
X035360Y013990D01*
X035218Y013990D01*
X035218Y014590D02*
X035218Y014732D01*
X035360Y014732D01*
X035360Y014590D01*
X035218Y014590D01*
X035718Y014590D02*
X035718Y014732D01*
X035860Y014732D01*
X035860Y014590D01*
X035718Y014590D01*
X036418Y014290D02*
X036560Y014290D01*
X036418Y014290D02*
X036418Y014432D01*
X036560Y014432D01*
X036560Y014290D01*
X037018Y014290D02*
X037160Y014290D01*
X037018Y014290D02*
X037018Y014432D01*
X037160Y014432D01*
X037160Y014290D01*
X037160Y015040D02*
X037018Y015040D01*
X037018Y015182D01*
X037160Y015182D01*
X037160Y015040D01*
X036560Y015040D02*
X036418Y015040D01*
X036418Y015182D01*
X036560Y015182D01*
X036560Y015040D01*
X036560Y016040D02*
X036418Y016040D01*
X036418Y016182D01*
X036560Y016182D01*
X036560Y016040D01*
X037018Y016040D02*
X037160Y016040D01*
X037018Y016040D02*
X037018Y016182D01*
X037160Y016182D01*
X037160Y016040D01*
X037160Y016790D02*
X037018Y016790D01*
X037018Y016932D01*
X037160Y016932D01*
X037160Y016790D01*
X036560Y016790D02*
X036418Y016790D01*
X036418Y016932D01*
X036560Y016932D01*
X036560Y016790D01*
X035860Y017490D02*
X035860Y017632D01*
X035860Y017490D02*
X035718Y017490D01*
X035718Y017632D01*
X035860Y017632D01*
X035860Y018090D02*
X035860Y018232D01*
X035860Y018090D02*
X035718Y018090D01*
X035718Y018232D01*
X035860Y018232D01*
X035360Y018232D02*
X035360Y018090D01*
X035218Y018090D01*
X035218Y018232D01*
X035360Y018232D01*
X035360Y017632D02*
X035360Y017490D01*
X035218Y017490D01*
X035218Y017632D01*
X035360Y017632D01*
X036418Y017790D02*
X036560Y017790D01*
X036418Y017790D02*
X036418Y017932D01*
X036560Y017932D01*
X036560Y017790D01*
X037018Y017790D02*
X037160Y017790D01*
X037018Y017790D02*
X037018Y017932D01*
X037160Y017932D01*
X037160Y017790D01*
X035718Y021490D02*
X035718Y021632D01*
X035860Y021632D01*
X035860Y021490D01*
X035718Y021490D01*
X035218Y021490D02*
X035218Y021632D01*
X035360Y021632D01*
X035360Y021490D01*
X035218Y021490D01*
X035218Y022090D02*
X035218Y022232D01*
X035360Y022232D01*
X035360Y022090D01*
X035218Y022090D01*
X035718Y022090D02*
X035718Y022232D01*
X035860Y022232D01*
X035860Y022090D01*
X035718Y022090D01*
X036418Y021790D02*
X036560Y021790D01*
X036418Y021790D02*
X036418Y021932D01*
X036560Y021932D01*
X036560Y021790D01*
X037018Y021790D02*
X037160Y021790D01*
X037018Y021790D02*
X037018Y021932D01*
X037160Y021932D01*
X037160Y021790D01*
X037160Y023290D02*
X037018Y023290D01*
X037018Y023432D01*
X037160Y023432D01*
X037160Y023290D01*
X036560Y023290D02*
X036418Y023290D01*
X036418Y023432D01*
X036560Y023432D01*
X036560Y023290D01*
X035718Y023132D02*
X035718Y022990D01*
X035718Y023132D02*
X035860Y023132D01*
X035860Y022990D01*
X035718Y022990D01*
X035218Y022990D02*
X035218Y023132D01*
X035360Y023132D01*
X035360Y022990D01*
X035218Y022990D01*
X035218Y023590D02*
X035218Y023732D01*
X035360Y023732D01*
X035360Y023590D01*
X035218Y023590D01*
X035718Y023590D02*
X035718Y023732D01*
X035860Y023732D01*
X035860Y023590D01*
X035718Y023590D01*
X036418Y024040D02*
X036560Y024040D01*
X036418Y024040D02*
X036418Y024182D01*
X036560Y024182D01*
X036560Y024040D01*
X037018Y024040D02*
X037160Y024040D01*
X037018Y024040D02*
X037018Y024182D01*
X037160Y024182D01*
X037160Y024040D01*
X037160Y025040D02*
X037018Y025040D01*
X037018Y025182D01*
X037160Y025182D01*
X037160Y025040D01*
X036560Y025040D02*
X036418Y025040D01*
X036418Y025182D01*
X036560Y025182D01*
X036560Y025040D01*
X036560Y025790D02*
X036418Y025790D01*
X036418Y025932D01*
X036560Y025932D01*
X036560Y025790D01*
X037018Y025790D02*
X037160Y025790D01*
X037018Y025790D02*
X037018Y025932D01*
X037160Y025932D01*
X037160Y025790D01*
X035860Y026490D02*
X035860Y026632D01*
X035860Y026490D02*
X035718Y026490D01*
X035718Y026632D01*
X035860Y026632D01*
X035360Y026632D02*
X035360Y026490D01*
X035218Y026490D01*
X035218Y026632D01*
X035360Y026632D01*
X035360Y027090D02*
X035360Y027232D01*
X035360Y027090D02*
X035218Y027090D01*
X035218Y027232D01*
X035360Y027232D01*
X035860Y027232D02*
X035860Y027090D01*
X035718Y027090D01*
X035718Y027232D01*
X035860Y027232D01*
X036418Y026790D02*
X036560Y026790D01*
X036418Y026790D02*
X036418Y026932D01*
X036560Y026932D01*
X036560Y026790D01*
X037018Y026790D02*
X037160Y026790D01*
X037018Y026790D02*
X037018Y026932D01*
X037160Y026932D01*
X037160Y026790D01*
X034010Y030282D02*
X033868Y030282D01*
X034010Y030282D02*
X034010Y030140D01*
X033868Y030140D01*
X033868Y030282D01*
X033410Y030282D02*
X033268Y030282D01*
X033410Y030282D02*
X033410Y030140D01*
X033268Y030140D01*
X033268Y030282D01*
X027610Y025582D02*
X027610Y025440D01*
X027468Y025440D01*
X027468Y025582D01*
X027610Y025582D01*
X027160Y025582D02*
X027160Y025440D01*
X027018Y025440D01*
X027018Y025582D01*
X027160Y025582D01*
X026710Y025582D02*
X026710Y025440D01*
X026568Y025440D01*
X026568Y025582D01*
X026710Y025582D01*
X026710Y024982D02*
X026710Y024840D01*
X026568Y024840D01*
X026568Y024982D01*
X026710Y024982D01*
X027160Y024982D02*
X027160Y024840D01*
X027018Y024840D01*
X027018Y024982D01*
X027160Y024982D01*
X027610Y024982D02*
X027610Y024840D01*
X027468Y024840D01*
X027468Y024982D01*
X027610Y024982D01*
X025960Y022832D02*
X025960Y022690D01*
X025818Y022690D01*
X025818Y022832D01*
X025960Y022832D01*
X025368Y022832D02*
X025368Y022690D01*
X025368Y022832D02*
X025510Y022832D01*
X025510Y022690D01*
X025368Y022690D01*
X025368Y022232D02*
X025368Y022090D01*
X025368Y022232D02*
X025510Y022232D01*
X025510Y022090D01*
X025368Y022090D01*
X025960Y022090D02*
X025960Y022232D01*
X025960Y022090D02*
X025818Y022090D01*
X025818Y022232D01*
X025960Y022232D01*
X015310Y017682D02*
X015168Y017682D01*
X015310Y017682D02*
X015310Y017540D01*
X015168Y017540D01*
X015168Y017682D01*
X014710Y017682D02*
X014568Y017682D01*
X014710Y017682D02*
X014710Y017540D01*
X014568Y017540D01*
X014568Y017682D01*
X011910Y021682D02*
X011768Y021682D01*
X011910Y021682D02*
X011910Y021540D01*
X011768Y021540D01*
X011768Y021682D01*
X011310Y021682D02*
X011168Y021682D01*
X011310Y021682D02*
X011310Y021540D01*
X011168Y021540D01*
X011168Y021682D01*
X008560Y017540D02*
X008418Y017540D01*
X008418Y017682D01*
X008560Y017682D01*
X008560Y017540D01*
X007960Y017540D02*
X007818Y017540D01*
X007818Y017682D01*
X007960Y017682D01*
X007960Y017540D01*
X011168Y013682D02*
X011310Y013682D01*
X011310Y013540D01*
X011168Y013540D01*
X011168Y013682D01*
X011768Y013682D02*
X011910Y013682D01*
X011910Y013540D01*
X011768Y013540D01*
X011768Y013682D01*
X018210Y010782D02*
X018210Y010640D01*
X018068Y010640D01*
X018068Y010782D01*
X018210Y010782D01*
X018710Y010782D02*
X018710Y010640D01*
X018568Y010640D01*
X018568Y010782D01*
X018710Y010782D01*
X019210Y010782D02*
X019210Y010640D01*
X019068Y010640D01*
X019068Y010782D01*
X019210Y010782D01*
X019710Y010782D02*
X019710Y010640D01*
X019568Y010640D01*
X019568Y010782D01*
X019710Y010782D01*
X020210Y010782D02*
X020210Y010640D01*
X020068Y010640D01*
X020068Y010782D01*
X020210Y010782D01*
X020710Y010782D02*
X020710Y010640D01*
X020568Y010640D01*
X020568Y010782D01*
X020710Y010782D01*
X021210Y010782D02*
X021210Y010640D01*
X021068Y010640D01*
X021068Y010782D01*
X021210Y010782D01*
X021710Y010782D02*
X021710Y010640D01*
X021568Y010640D01*
X021568Y010782D01*
X021710Y010782D01*
X021710Y010182D02*
X021710Y010040D01*
X021568Y010040D01*
X021568Y010182D01*
X021710Y010182D01*
X021568Y009732D02*
X021568Y009590D01*
X021568Y009732D02*
X021710Y009732D01*
X021710Y009590D01*
X021568Y009590D01*
X021068Y009590D02*
X021068Y009732D01*
X021210Y009732D01*
X021210Y009590D01*
X021068Y009590D01*
X020568Y009590D02*
X020568Y009732D01*
X020710Y009732D01*
X020710Y009590D01*
X020568Y009590D01*
X020068Y009590D02*
X020068Y009732D01*
X020210Y009732D01*
X020210Y009590D01*
X020068Y009590D01*
X019568Y009590D02*
X019568Y009732D01*
X019710Y009732D01*
X019710Y009590D01*
X019568Y009590D01*
X019068Y009590D02*
X019068Y009732D01*
X019210Y009732D01*
X019210Y009590D01*
X019068Y009590D01*
X018568Y009590D02*
X018568Y009732D01*
X018710Y009732D01*
X018710Y009590D01*
X018568Y009590D01*
X018068Y009590D02*
X018068Y009732D01*
X018210Y009732D01*
X018210Y009590D01*
X018068Y009590D01*
X018210Y010040D02*
X018210Y010182D01*
X018210Y010040D02*
X018068Y010040D01*
X018068Y010182D01*
X018210Y010182D01*
X018710Y010182D02*
X018710Y010040D01*
X018568Y010040D01*
X018568Y010182D01*
X018710Y010182D01*
X019210Y010182D02*
X019210Y010040D01*
X019068Y010040D01*
X019068Y010182D01*
X019210Y010182D01*
X019710Y010182D02*
X019710Y010040D01*
X019568Y010040D01*
X019568Y010182D01*
X019710Y010182D01*
X020210Y010182D02*
X020210Y010040D01*
X020068Y010040D01*
X020068Y010182D01*
X020210Y010182D01*
X020710Y010182D02*
X020710Y010040D01*
X020568Y010040D01*
X020568Y010182D01*
X020710Y010182D01*
X021210Y010182D02*
X021210Y010040D01*
X021068Y010040D01*
X021068Y010182D01*
X021210Y010182D01*
X021068Y009132D02*
X021068Y008990D01*
X021068Y009132D02*
X021210Y009132D01*
X021210Y008990D01*
X021068Y008990D01*
X020568Y008990D02*
X020568Y009132D01*
X020710Y009132D01*
X020710Y008990D01*
X020568Y008990D01*
X020068Y008990D02*
X020068Y009132D01*
X020210Y009132D01*
X020210Y008990D01*
X020068Y008990D01*
X019568Y008990D02*
X019568Y009132D01*
X019710Y009132D01*
X019710Y008990D01*
X019568Y008990D01*
X019068Y008990D02*
X019068Y009132D01*
X019210Y009132D01*
X019210Y008990D01*
X019068Y008990D01*
X018568Y008990D02*
X018568Y009132D01*
X018710Y009132D01*
X018710Y008990D01*
X018568Y008990D01*
X018068Y008990D02*
X018068Y009132D01*
X018210Y009132D01*
X018210Y008990D01*
X018068Y008990D01*
X021568Y008990D02*
X021568Y009132D01*
X021710Y009132D01*
X021710Y008990D01*
X021568Y008990D01*
X027868Y006632D02*
X027868Y006490D01*
X027868Y006632D02*
X028010Y006632D01*
X028010Y006490D01*
X027868Y006490D01*
X027868Y006032D02*
X027868Y005890D01*
X027868Y006032D02*
X028010Y006032D01*
X028010Y005890D01*
X027868Y005890D01*
X028868Y005890D02*
X028868Y006032D01*
X029010Y006032D01*
X029010Y005890D01*
X028868Y005890D01*
X028868Y006490D02*
X028868Y006632D01*
X029010Y006632D01*
X029010Y006490D01*
X028868Y006490D01*
X029718Y006490D02*
X029718Y006632D01*
X029860Y006632D01*
X029860Y006490D01*
X029718Y006490D01*
X029718Y006032D02*
X029718Y005890D01*
X029718Y006032D02*
X029860Y006032D01*
X029860Y005890D01*
X029718Y005890D01*
X029718Y005282D02*
X029718Y005140D01*
X029718Y005282D02*
X029860Y005282D01*
X029860Y005140D01*
X029718Y005140D01*
X029718Y004682D02*
X029718Y004540D01*
X029718Y004682D02*
X029860Y004682D01*
X029860Y004540D01*
X029718Y004540D01*
X032118Y005090D02*
X032118Y005232D01*
X032260Y005232D01*
X032260Y005090D01*
X032118Y005090D01*
X032118Y005690D02*
X032118Y005832D01*
X032260Y005832D01*
X032260Y005690D01*
X032118Y005690D01*
X013010Y008432D02*
X012868Y008432D01*
X013010Y008432D02*
X013010Y008290D01*
X012868Y008290D01*
X012868Y008432D01*
X012410Y008432D02*
X012268Y008432D01*
X012410Y008432D02*
X012410Y008290D01*
X012268Y008290D01*
X012268Y008432D01*
X012268Y008940D02*
X012410Y008940D01*
X012268Y008940D02*
X012268Y009082D01*
X012410Y009082D01*
X012410Y008940D01*
X012868Y008940D02*
X013010Y008940D01*
X012868Y008940D02*
X012868Y009082D01*
X013010Y009082D01*
X013010Y008940D01*
X006768Y026790D02*
X006768Y026932D01*
X006910Y026932D01*
X006910Y026790D01*
X006768Y026790D01*
X006768Y027390D02*
X006768Y027532D01*
X006910Y027532D01*
X006910Y027390D01*
X006768Y027390D01*
X008318Y028782D02*
X008460Y028782D01*
X008460Y028640D01*
X008318Y028640D01*
X008318Y028782D01*
X008918Y028782D02*
X009060Y028782D01*
X009060Y028640D01*
X008918Y028640D01*
X008918Y028782D01*
X010168Y029640D02*
X010310Y029640D01*
X010168Y029640D02*
X010168Y029782D01*
X010310Y029782D01*
X010310Y029640D01*
X010768Y029640D02*
X010910Y029640D01*
X010768Y029640D02*
X010768Y029782D01*
X010910Y029782D01*
X010910Y029640D01*
X011318Y029640D02*
X011460Y029640D01*
X011318Y029640D02*
X011318Y029782D01*
X011460Y029782D01*
X011460Y029640D01*
X011918Y029640D02*
X012060Y029640D01*
X011918Y029640D02*
X011918Y029782D01*
X012060Y029782D01*
X012060Y029640D01*
X012060Y030090D02*
X011918Y030090D01*
X011918Y030232D01*
X012060Y030232D01*
X012060Y030090D01*
X012060Y030540D02*
X011918Y030540D01*
X011918Y030682D01*
X012060Y030682D01*
X012060Y030540D01*
X011460Y030540D02*
X011318Y030540D01*
X011318Y030682D01*
X011460Y030682D01*
X011460Y030540D01*
X011460Y030090D02*
X011318Y030090D01*
X011318Y030232D01*
X011460Y030232D01*
X011460Y030090D01*
X010910Y030090D02*
X010768Y030090D01*
X010768Y030232D01*
X010910Y030232D01*
X010910Y030090D01*
X010910Y030540D02*
X010768Y030540D01*
X010768Y030682D01*
X010910Y030682D01*
X010910Y030540D01*
X010310Y030540D02*
X010168Y030540D01*
X010168Y030682D01*
X010310Y030682D01*
X010310Y030540D01*
X010310Y030090D02*
X010168Y030090D01*
X010168Y030232D01*
X010310Y030232D01*
X010310Y030090D01*
D12*
X006560Y025892D02*
X006560Y025530D01*
X006560Y025892D02*
X007118Y025892D01*
X007118Y025530D01*
X006560Y025530D01*
X006560Y025760D02*
X007118Y025760D01*
X006560Y024692D02*
X006560Y024330D01*
X006560Y024692D02*
X007118Y024692D01*
X007118Y024330D01*
X006560Y024330D01*
X006560Y024560D02*
X007118Y024560D01*
D13*
X006013Y023737D02*
X004865Y023737D01*
X004865Y024085D01*
X006013Y024085D01*
X006013Y023737D01*
X006013Y023968D02*
X004865Y023968D01*
X004013Y023737D02*
X002865Y023737D01*
X002865Y024085D01*
X004013Y024085D01*
X004013Y023737D01*
X004013Y023968D02*
X002865Y023968D01*
X002865Y026687D02*
X004013Y026687D01*
X002865Y026687D02*
X002865Y027035D01*
X004013Y027035D01*
X004013Y026687D01*
X004013Y026918D02*
X002865Y026918D01*
X004865Y026687D02*
X006013Y026687D01*
X004865Y026687D02*
X004865Y027035D01*
X006013Y027035D01*
X006013Y026687D01*
X006013Y026918D02*
X004865Y026918D01*
X027515Y019785D02*
X028663Y019785D01*
X028663Y019437D01*
X027515Y019437D01*
X027515Y019785D01*
X027515Y019668D02*
X028663Y019668D01*
X029515Y019785D02*
X030663Y019785D01*
X030663Y019437D01*
X029515Y019437D01*
X029515Y019785D01*
X029515Y019668D02*
X030663Y019668D01*
X028463Y009387D02*
X027315Y009387D01*
X027315Y009735D01*
X028463Y009735D01*
X028463Y009387D01*
X028463Y009618D02*
X027315Y009618D01*
X026463Y009387D02*
X025315Y009387D01*
X025315Y009735D01*
X026463Y009735D01*
X026463Y009387D01*
X026463Y009618D02*
X025315Y009618D01*
X009515Y004885D02*
X009515Y003737D01*
X009515Y004885D02*
X009863Y004885D01*
X009863Y003737D01*
X009515Y003737D01*
X009515Y003968D02*
X009863Y003968D01*
X009863Y004199D02*
X009515Y004199D01*
X009515Y004430D02*
X009863Y004430D01*
X009863Y004661D02*
X009515Y004661D01*
X009515Y002885D02*
X009515Y001737D01*
X009515Y002885D02*
X009863Y002885D01*
X009863Y001737D01*
X009515Y001737D01*
X009515Y001968D02*
X009863Y001968D01*
X009863Y002199D02*
X009515Y002199D01*
X009515Y002430D02*
X009863Y002430D01*
X009863Y002661D02*
X009515Y002661D01*
X038765Y029937D02*
X039913Y029937D01*
X038765Y029937D02*
X038765Y030285D01*
X039913Y030285D01*
X039913Y029937D01*
X039913Y030168D02*
X038765Y030168D01*
X040765Y029937D02*
X041913Y029937D01*
X040765Y029937D02*
X040765Y030285D01*
X041913Y030285D01*
X041913Y029937D01*
X041913Y030168D02*
X040765Y030168D01*
D14*
X007810Y030961D03*
X005408Y030961D03*
X006589Y029071D03*
D15*
X007957Y027803D02*
X007957Y027119D01*
X007957Y027803D02*
X009321Y027803D01*
X009321Y027119D01*
X007957Y027119D01*
X007957Y027334D02*
X009321Y027334D01*
X009321Y027549D02*
X007957Y027549D01*
X007957Y027764D02*
X009321Y027764D01*
X007957Y025803D02*
X007957Y025119D01*
X007957Y025803D02*
X009321Y025803D01*
X009321Y025119D01*
X007957Y025119D01*
X007957Y025334D02*
X009321Y025334D01*
X009321Y025549D02*
X007957Y025549D01*
X007957Y025764D02*
X009321Y025764D01*
D16*
X011456Y024278D02*
X011456Y028644D01*
X014822Y028644D01*
X014822Y024278D01*
X011456Y024278D01*
X011456Y024492D02*
X014822Y024492D01*
X014822Y024706D02*
X011456Y024706D01*
X011456Y024920D02*
X014822Y024920D01*
X014822Y025134D02*
X011456Y025134D01*
X011456Y025348D02*
X014822Y025348D01*
X014822Y025562D02*
X011456Y025562D01*
X011456Y025776D02*
X014822Y025776D01*
X014822Y025990D02*
X011456Y025990D01*
X011456Y026204D02*
X014822Y026204D01*
X014822Y026418D02*
X011456Y026418D01*
X011456Y026632D02*
X014822Y026632D01*
X014822Y026846D02*
X011456Y026846D01*
X011456Y027060D02*
X014822Y027060D01*
X014822Y027274D02*
X011456Y027274D01*
X011456Y027488D02*
X014822Y027488D01*
X014822Y027702D02*
X011456Y027702D01*
X011456Y027916D02*
X014822Y027916D01*
X014822Y028130D02*
X011456Y028130D01*
X011456Y028344D02*
X014822Y028344D01*
X014822Y028558D02*
X011456Y028558D01*
D17*
X018489Y031261D03*
X019489Y031261D03*
X020489Y031261D03*
X021489Y031261D03*
X022489Y031261D03*
X023489Y031261D03*
X025439Y031261D03*
X026439Y031261D03*
X027439Y031261D03*
X028439Y031261D03*
X029439Y031261D03*
X030439Y031261D03*
X043539Y031611D03*
X044539Y031611D03*
X045539Y031611D03*
X046539Y031611D03*
X047539Y031611D03*
X048539Y031611D03*
X024089Y006011D03*
X024089Y005011D03*
X024089Y004011D03*
X024089Y003011D03*
X024089Y002011D03*
X021089Y002011D03*
X021089Y003011D03*
X021089Y004011D03*
X021089Y005011D03*
X021089Y006011D03*
X018089Y006011D03*
X018089Y005011D03*
X018089Y004011D03*
X018089Y003011D03*
X018089Y002011D03*
X015089Y002011D03*
X015089Y003011D03*
X015089Y004011D03*
X015089Y005011D03*
X015089Y006011D03*
X011539Y011161D03*
X010539Y011161D03*
X009539Y011161D03*
X009539Y012161D03*
X010539Y012161D03*
X011539Y012161D03*
X028539Y003011D03*
X028539Y002011D03*
X031939Y002011D03*
X031939Y003011D03*
D18*
X031775Y004809D02*
X031751Y004809D01*
X031751Y005089D01*
X031775Y005089D01*
X031775Y004809D01*
X031775Y005081D02*
X031751Y005081D01*
X031401Y004809D02*
X031377Y004809D01*
X031377Y005089D01*
X031401Y005089D01*
X031401Y004809D01*
X031401Y005081D02*
X031377Y005081D01*
X031027Y004809D02*
X031003Y004809D01*
X031003Y005089D01*
X031027Y005089D01*
X031027Y004809D01*
X031027Y005081D02*
X031003Y005081D01*
X031027Y005833D02*
X031003Y005833D01*
X031003Y006113D01*
X031027Y006113D01*
X031027Y005833D01*
X031027Y006105D02*
X031003Y006105D01*
X031377Y005833D02*
X031401Y005833D01*
X031377Y005833D02*
X031377Y006113D01*
X031401Y006113D01*
X031401Y005833D01*
X031401Y006105D02*
X031377Y006105D01*
X031751Y005833D02*
X031775Y005833D01*
X031751Y005833D02*
X031751Y006113D01*
X031775Y006113D01*
X031775Y005833D01*
X031775Y006105D02*
X031751Y006105D01*
D19*
X034812Y006100D03*
X036151Y006100D03*
X037489Y006100D03*
X038828Y006100D03*
X040167Y006100D03*
X040836Y008100D03*
X039497Y008100D03*
X038159Y008100D03*
X036820Y008100D03*
X035482Y008100D03*
X034143Y008100D03*
X043143Y008100D03*
X044482Y008100D03*
X045820Y008100D03*
X047159Y008100D03*
X048497Y008100D03*
X049836Y008100D03*
X049167Y006100D03*
X047828Y006100D03*
X046489Y006100D03*
X045151Y006100D03*
X043812Y006100D03*
X032289Y028561D03*
X031289Y028561D03*
X030289Y028561D03*
X005989Y021561D03*
X004989Y021561D03*
X003989Y021561D03*
X003989Y017461D03*
X004989Y017461D03*
X005989Y017461D03*
D20*
X006789Y012208D03*
X005671Y011659D03*
X006789Y011110D03*
X005671Y010560D03*
X006789Y010011D03*
X005671Y009462D03*
X006789Y008913D03*
X005671Y008364D03*
X006789Y007814D03*
X035239Y002261D03*
X036239Y002261D03*
X047789Y002311D03*
X048789Y002311D03*
X049039Y015111D03*
X048039Y015111D03*
X050039Y015111D03*
X050039Y024111D03*
X049039Y024111D03*
X048039Y024111D03*
X049039Y028111D03*
X049039Y029111D03*
D21*
X047220Y025800D02*
X045658Y025800D01*
X045658Y026422D01*
X047220Y026422D01*
X047220Y025800D01*
X047220Y026017D02*
X045658Y026017D01*
X045658Y026234D02*
X047220Y026234D01*
X044420Y025800D02*
X042858Y025800D01*
X042858Y026422D01*
X044420Y026422D01*
X044420Y025800D01*
X044420Y026017D02*
X042858Y026017D01*
X042858Y026234D02*
X044420Y026234D01*
X044420Y021800D02*
X042858Y021800D01*
X042858Y022422D01*
X044420Y022422D01*
X044420Y021800D01*
X044420Y022017D02*
X042858Y022017D01*
X042858Y022234D02*
X044420Y022234D01*
X045658Y021800D02*
X047220Y021800D01*
X045658Y021800D02*
X045658Y022422D01*
X047220Y022422D01*
X047220Y021800D01*
X047220Y022017D02*
X045658Y022017D01*
X045658Y022234D02*
X047220Y022234D01*
X047220Y016800D02*
X045658Y016800D01*
X045658Y017422D01*
X047220Y017422D01*
X047220Y016800D01*
X047220Y017017D02*
X045658Y017017D01*
X045658Y017234D02*
X047220Y017234D01*
X044420Y016800D02*
X042858Y016800D01*
X042858Y017422D01*
X044420Y017422D01*
X044420Y016800D01*
X044420Y017017D02*
X042858Y017017D01*
X042858Y017234D02*
X044420Y017234D01*
X044420Y012800D02*
X042858Y012800D01*
X042858Y013422D01*
X044420Y013422D01*
X044420Y012800D01*
X044420Y013017D02*
X042858Y013017D01*
X042858Y013234D02*
X044420Y013234D01*
X045658Y012800D02*
X047220Y012800D01*
X045658Y012800D02*
X045658Y013422D01*
X047220Y013422D01*
X047220Y012800D01*
X047220Y013017D02*
X045658Y013017D01*
X045658Y013234D02*
X047220Y013234D01*
X046670Y002722D02*
X045108Y002722D01*
X046670Y002722D02*
X046670Y002100D01*
X045108Y002100D01*
X045108Y002722D01*
X045108Y002317D02*
X046670Y002317D01*
X046670Y002534D02*
X045108Y002534D01*
X043870Y002722D02*
X042308Y002722D01*
X043870Y002722D02*
X043870Y002100D01*
X042308Y002100D01*
X042308Y002722D01*
X042308Y002317D02*
X043870Y002317D01*
X043870Y002534D02*
X042308Y002534D01*
X041670Y002100D02*
X040108Y002100D01*
X040108Y002722D01*
X041670Y002722D01*
X041670Y002100D01*
X041670Y002317D02*
X040108Y002317D01*
X040108Y002534D02*
X041670Y002534D01*
X038870Y002100D02*
X037308Y002100D01*
X037308Y002722D01*
X038870Y002722D01*
X038870Y002100D01*
X038870Y002317D02*
X037308Y002317D01*
X037308Y002534D02*
X038870Y002534D01*
D22*
X034011Y012337D02*
X034011Y012385D01*
X034689Y012385D01*
X034689Y012337D01*
X034011Y012337D01*
X034011Y012837D02*
X034011Y012885D01*
X034689Y012885D01*
X034689Y012837D01*
X034011Y012837D01*
X034011Y013337D02*
X034011Y013385D01*
X034689Y013385D01*
X034689Y013337D01*
X034011Y013337D01*
X034011Y013837D02*
X034011Y013885D01*
X034689Y013885D01*
X034689Y013837D01*
X034011Y013837D01*
X034011Y014337D02*
X034011Y014385D01*
X034689Y014385D01*
X034689Y014337D01*
X034011Y014337D01*
X034011Y014837D02*
X034011Y014885D01*
X034689Y014885D01*
X034689Y014837D01*
X034011Y014837D01*
X034011Y015337D02*
X034011Y015385D01*
X034689Y015385D01*
X034689Y015337D01*
X034011Y015337D01*
X034011Y015837D02*
X034011Y015885D01*
X034689Y015885D01*
X034689Y015837D01*
X034011Y015837D01*
X034011Y016337D02*
X034011Y016385D01*
X034689Y016385D01*
X034689Y016337D01*
X034011Y016337D01*
X034011Y016837D02*
X034011Y016885D01*
X034689Y016885D01*
X034689Y016837D01*
X034011Y016837D01*
X034011Y017337D02*
X034011Y017385D01*
X034689Y017385D01*
X034689Y017337D01*
X034011Y017337D01*
X034011Y017837D02*
X034011Y017885D01*
X034689Y017885D01*
X034689Y017837D01*
X034011Y017837D01*
X030389Y017837D02*
X030389Y017885D01*
X031067Y017885D01*
X031067Y017837D01*
X030389Y017837D01*
X030389Y017385D02*
X030389Y017337D01*
X030389Y017385D02*
X031067Y017385D01*
X031067Y017337D01*
X030389Y017337D01*
X030389Y016885D02*
X030389Y016837D01*
X030389Y016885D02*
X031067Y016885D01*
X031067Y016837D01*
X030389Y016837D01*
X030389Y016385D02*
X030389Y016337D01*
X030389Y016385D02*
X031067Y016385D01*
X031067Y016337D01*
X030389Y016337D01*
X030389Y015885D02*
X030389Y015837D01*
X030389Y015885D02*
X031067Y015885D01*
X031067Y015837D01*
X030389Y015837D01*
X030389Y015385D02*
X030389Y015337D01*
X030389Y015385D02*
X031067Y015385D01*
X031067Y015337D01*
X030389Y015337D01*
X030389Y014885D02*
X030389Y014837D01*
X030389Y014885D02*
X031067Y014885D01*
X031067Y014837D01*
X030389Y014837D01*
X030389Y014385D02*
X030389Y014337D01*
X030389Y014385D02*
X031067Y014385D01*
X031067Y014337D01*
X030389Y014337D01*
X030389Y013885D02*
X030389Y013837D01*
X030389Y013885D02*
X031067Y013885D01*
X031067Y013837D01*
X030389Y013837D01*
X030389Y013385D02*
X030389Y013337D01*
X030389Y013385D02*
X031067Y013385D01*
X031067Y013337D01*
X030389Y013337D01*
X030389Y012885D02*
X030389Y012837D01*
X030389Y012885D02*
X031067Y012885D01*
X031067Y012837D01*
X030389Y012837D01*
X030389Y012385D02*
X030389Y012337D01*
X030389Y012385D02*
X031067Y012385D01*
X031067Y012337D01*
X030389Y012337D01*
X030389Y021337D02*
X030389Y021385D01*
X031067Y021385D01*
X031067Y021337D01*
X030389Y021337D01*
X030389Y021837D02*
X030389Y021885D01*
X031067Y021885D01*
X031067Y021837D01*
X030389Y021837D01*
X030389Y022337D02*
X030389Y022385D01*
X031067Y022385D01*
X031067Y022337D01*
X030389Y022337D01*
X030389Y022837D02*
X030389Y022885D01*
X031067Y022885D01*
X031067Y022837D01*
X030389Y022837D01*
X030389Y023337D02*
X030389Y023385D01*
X031067Y023385D01*
X031067Y023337D01*
X030389Y023337D01*
X030389Y023837D02*
X030389Y023885D01*
X031067Y023885D01*
X031067Y023837D01*
X030389Y023837D01*
X030389Y024337D02*
X030389Y024385D01*
X031067Y024385D01*
X031067Y024337D01*
X030389Y024337D01*
X030389Y024837D02*
X030389Y024885D01*
X031067Y024885D01*
X031067Y024837D01*
X030389Y024837D01*
X030389Y025337D02*
X030389Y025385D01*
X031067Y025385D01*
X031067Y025337D01*
X030389Y025337D01*
X030389Y025837D02*
X030389Y025885D01*
X031067Y025885D01*
X031067Y025837D01*
X030389Y025837D01*
X030389Y026337D02*
X030389Y026385D01*
X031067Y026385D01*
X031067Y026337D01*
X030389Y026337D01*
X030389Y026837D02*
X030389Y026885D01*
X031067Y026885D01*
X031067Y026837D01*
X030389Y026837D01*
X034011Y026837D02*
X034011Y026885D01*
X034689Y026885D01*
X034689Y026837D01*
X034011Y026837D01*
X034011Y026385D02*
X034011Y026337D01*
X034011Y026385D02*
X034689Y026385D01*
X034689Y026337D01*
X034011Y026337D01*
X034011Y025885D02*
X034011Y025837D01*
X034011Y025885D02*
X034689Y025885D01*
X034689Y025837D01*
X034011Y025837D01*
X034011Y025385D02*
X034011Y025337D01*
X034011Y025385D02*
X034689Y025385D01*
X034689Y025337D01*
X034011Y025337D01*
X034011Y024885D02*
X034011Y024837D01*
X034011Y024885D02*
X034689Y024885D01*
X034689Y024837D01*
X034011Y024837D01*
X034011Y024385D02*
X034011Y024337D01*
X034011Y024385D02*
X034689Y024385D01*
X034689Y024337D01*
X034011Y024337D01*
X034011Y023885D02*
X034011Y023837D01*
X034011Y023885D02*
X034689Y023885D01*
X034689Y023837D01*
X034011Y023837D01*
X034011Y023385D02*
X034011Y023337D01*
X034011Y023385D02*
X034689Y023385D01*
X034689Y023337D01*
X034011Y023337D01*
X034011Y022885D02*
X034011Y022837D01*
X034011Y022885D02*
X034689Y022885D01*
X034689Y022837D01*
X034011Y022837D01*
X034011Y022385D02*
X034011Y022337D01*
X034011Y022385D02*
X034689Y022385D01*
X034689Y022337D01*
X034011Y022337D01*
X034011Y021885D02*
X034011Y021837D01*
X034011Y021885D02*
X034689Y021885D01*
X034689Y021837D01*
X034011Y021837D01*
X034011Y021385D02*
X034011Y021337D01*
X034011Y021385D02*
X034689Y021385D01*
X034689Y021337D01*
X034011Y021337D01*
D23*
X025166Y020806D02*
X024654Y020806D01*
X024654Y020609D02*
X025166Y020609D01*
X025166Y020412D02*
X024654Y020412D01*
X024654Y020216D02*
X025166Y020216D01*
X025166Y020019D02*
X024654Y020019D01*
X024654Y019822D02*
X025166Y019822D01*
X025166Y019625D02*
X024654Y019625D01*
X024654Y019428D02*
X025166Y019428D01*
X025166Y019231D02*
X024654Y019231D01*
X024654Y019034D02*
X025166Y019034D01*
X025166Y018838D02*
X024654Y018838D01*
X024654Y018641D02*
X025166Y018641D01*
X025166Y018444D02*
X024654Y018444D01*
X024654Y018247D02*
X025166Y018247D01*
X025166Y018050D02*
X024654Y018050D01*
X024654Y017853D02*
X025166Y017853D01*
X025166Y017657D02*
X024654Y017657D01*
X024654Y017460D02*
X025166Y017460D01*
X025166Y017263D02*
X024654Y017263D01*
X024654Y017066D02*
X025166Y017066D01*
X025166Y016869D02*
X024654Y016869D01*
X024654Y016672D02*
X025166Y016672D01*
X025166Y016475D02*
X024654Y016475D01*
X024654Y016279D02*
X025166Y016279D01*
X025166Y016082D02*
X024654Y016082D01*
X024654Y015885D02*
X025166Y015885D01*
X025166Y015688D02*
X024654Y015688D01*
X024654Y015491D02*
X025166Y015491D01*
X025166Y015294D02*
X024654Y015294D01*
X024654Y015097D02*
X025166Y015097D01*
X025166Y014901D02*
X024654Y014901D01*
X024654Y014704D02*
X025166Y014704D01*
X025166Y014507D02*
X024654Y014507D01*
X024654Y014310D02*
X025166Y014310D01*
X025166Y014113D02*
X024654Y014113D01*
X024654Y013916D02*
X025166Y013916D01*
X023984Y013247D02*
X023984Y012735D01*
X023787Y012735D02*
X023787Y013247D01*
X023591Y013247D02*
X023591Y012735D01*
X023394Y012735D02*
X023394Y013247D01*
X023197Y013247D02*
X023197Y012735D01*
X023000Y012735D02*
X023000Y013247D01*
X022803Y013247D02*
X022803Y012735D01*
X022606Y012735D02*
X022606Y013247D01*
X022410Y013247D02*
X022410Y012735D01*
X022213Y012735D02*
X022213Y013247D01*
X022016Y013247D02*
X022016Y012735D01*
X021819Y012735D02*
X021819Y013247D01*
X021622Y013247D02*
X021622Y012735D01*
X021425Y012735D02*
X021425Y013247D01*
X021228Y013247D02*
X021228Y012735D01*
X021032Y012735D02*
X021032Y013247D01*
X020835Y013247D02*
X020835Y012735D01*
X020638Y012735D02*
X020638Y013247D01*
X020441Y013247D02*
X020441Y012735D01*
X020244Y012735D02*
X020244Y013247D01*
X020047Y013247D02*
X020047Y012735D01*
X019850Y012735D02*
X019850Y013247D01*
X019654Y013247D02*
X019654Y012735D01*
X019457Y012735D02*
X019457Y013247D01*
X019260Y013247D02*
X019260Y012735D01*
X019063Y012735D02*
X019063Y013247D01*
X018866Y013247D02*
X018866Y012735D01*
X018669Y012735D02*
X018669Y013247D01*
X018473Y013247D02*
X018473Y012735D01*
X018276Y012735D02*
X018276Y013247D01*
X018079Y013247D02*
X018079Y012735D01*
X017882Y012735D02*
X017882Y013247D01*
X017685Y013247D02*
X017685Y012735D01*
X017488Y012735D02*
X017488Y013247D01*
X017291Y013247D02*
X017291Y012735D01*
X017095Y012735D02*
X017095Y013247D01*
X016425Y013916D02*
X015913Y013916D01*
X015913Y014113D02*
X016425Y014113D01*
X016425Y014310D02*
X015913Y014310D01*
X015913Y014507D02*
X016425Y014507D01*
X016425Y014704D02*
X015913Y014704D01*
X015913Y014901D02*
X016425Y014901D01*
X016425Y015097D02*
X015913Y015097D01*
X015913Y015294D02*
X016425Y015294D01*
X016425Y015491D02*
X015913Y015491D01*
X015913Y015688D02*
X016425Y015688D01*
X016425Y015885D02*
X015913Y015885D01*
X015913Y016082D02*
X016425Y016082D01*
X016425Y016279D02*
X015913Y016279D01*
X015913Y016475D02*
X016425Y016475D01*
X016425Y016672D02*
X015913Y016672D01*
X015913Y016869D02*
X016425Y016869D01*
X016425Y017066D02*
X015913Y017066D01*
X015913Y017263D02*
X016425Y017263D01*
X016425Y017460D02*
X015913Y017460D01*
X015913Y017657D02*
X016425Y017657D01*
X016425Y017853D02*
X015913Y017853D01*
X015913Y018050D02*
X016425Y018050D01*
X016425Y018247D02*
X015913Y018247D01*
X015913Y018444D02*
X016425Y018444D01*
X016425Y018641D02*
X015913Y018641D01*
X015913Y018838D02*
X016425Y018838D01*
X016425Y019034D02*
X015913Y019034D01*
X015913Y019231D02*
X016425Y019231D01*
X016425Y019428D02*
X015913Y019428D01*
X015913Y019625D02*
X016425Y019625D01*
X016425Y019822D02*
X015913Y019822D01*
X015913Y020019D02*
X016425Y020019D01*
X016425Y020216D02*
X015913Y020216D01*
X015913Y020412D02*
X016425Y020412D01*
X016425Y020609D02*
X015913Y020609D01*
X015913Y020806D02*
X016425Y020806D01*
X017095Y021475D02*
X017095Y021987D01*
X017291Y021987D02*
X017291Y021475D01*
X017488Y021475D02*
X017488Y021987D01*
X017685Y021987D02*
X017685Y021475D01*
X017882Y021475D02*
X017882Y021987D01*
X018079Y021987D02*
X018079Y021475D01*
X018276Y021475D02*
X018276Y021987D01*
X018473Y021987D02*
X018473Y021475D01*
X018669Y021475D02*
X018669Y021987D01*
X018866Y021987D02*
X018866Y021475D01*
X019063Y021475D02*
X019063Y021987D01*
X019260Y021987D02*
X019260Y021475D01*
X019457Y021475D02*
X019457Y021987D01*
X019654Y021987D02*
X019654Y021475D01*
X019850Y021475D02*
X019850Y021987D01*
X020047Y021987D02*
X020047Y021475D01*
X020244Y021475D02*
X020244Y021987D01*
X020441Y021987D02*
X020441Y021475D01*
X020638Y021475D02*
X020638Y021987D01*
X020835Y021987D02*
X020835Y021475D01*
X021032Y021475D02*
X021032Y021987D01*
X021228Y021987D02*
X021228Y021475D01*
X021425Y021475D02*
X021425Y021987D01*
X021622Y021987D02*
X021622Y021475D01*
X021819Y021475D02*
X021819Y021987D01*
X022016Y021987D02*
X022016Y021475D01*
X022213Y021475D02*
X022213Y021987D01*
X022410Y021987D02*
X022410Y021475D01*
X022606Y021475D02*
X022606Y021987D01*
X022803Y021987D02*
X022803Y021475D01*
X023000Y021475D02*
X023000Y021987D01*
X023197Y021987D02*
X023197Y021475D01*
X023394Y021475D02*
X023394Y021987D01*
X023591Y021987D02*
X023591Y021475D01*
X023787Y021475D02*
X023787Y021987D01*
X023984Y021987D02*
X023984Y021475D01*
D24*
X032360Y032175D03*
X032360Y033947D03*
X034919Y033947D03*
X034919Y032175D03*
X011619Y009597D03*
X009060Y009597D03*
X009060Y007825D03*
X011619Y007825D03*
D25*
X036827Y032968D03*
X037615Y032968D03*
X037615Y033755D03*
X036827Y033755D03*
X038402Y033755D03*
X039189Y033755D03*
X039189Y032968D03*
X038402Y032968D03*
X039977Y032968D03*
X040764Y032968D03*
X040764Y033755D03*
X039977Y033755D03*
X041552Y033755D03*
X041552Y032968D03*
D26*
X037916Y028125D02*
X037916Y027893D01*
X037916Y028125D02*
X038384Y028125D01*
X038384Y027893D01*
X037916Y027893D01*
X037916Y026330D02*
X037916Y026098D01*
X037916Y026330D02*
X038384Y026330D01*
X038384Y026098D01*
X037916Y026098D01*
X037916Y025125D02*
X037916Y024893D01*
X037916Y025125D02*
X038384Y025125D01*
X038384Y024893D01*
X037916Y024893D01*
X037916Y023330D02*
X037916Y023098D01*
X037916Y023330D02*
X038384Y023330D01*
X038384Y023098D01*
X037916Y023098D01*
X037916Y022125D02*
X037916Y021893D01*
X037916Y022125D02*
X038384Y022125D01*
X038384Y021893D01*
X037916Y021893D01*
X037916Y020330D02*
X037916Y020098D01*
X037916Y020330D02*
X038384Y020330D01*
X038384Y020098D01*
X037916Y020098D01*
X037916Y019125D02*
X037916Y018893D01*
X037916Y019125D02*
X038384Y019125D01*
X038384Y018893D01*
X037916Y018893D01*
X037916Y017330D02*
X037916Y017098D01*
X037916Y017330D02*
X038384Y017330D01*
X038384Y017098D01*
X037916Y017098D01*
X037916Y016125D02*
X037916Y015893D01*
X037916Y016125D02*
X038384Y016125D01*
X038384Y015893D01*
X037916Y015893D01*
X037916Y014330D02*
X037916Y014098D01*
X037916Y014330D02*
X038384Y014330D01*
X038384Y014098D01*
X037916Y014098D01*
X037916Y013125D02*
X037916Y012893D01*
X037916Y013125D02*
X038384Y013125D01*
X038384Y012893D01*
X037916Y012893D01*
X037916Y011330D02*
X037916Y011098D01*
X037916Y011330D02*
X038384Y011330D01*
X038384Y011098D01*
X037916Y011098D01*
X028679Y005027D02*
X028679Y004795D01*
X028679Y005027D02*
X029067Y005027D01*
X029067Y004795D01*
X028679Y004795D01*
X027812Y004653D02*
X027812Y004421D01*
X027812Y004653D02*
X028200Y004653D01*
X028200Y004421D01*
X027812Y004421D01*
X027812Y005169D02*
X027812Y005401D01*
X028200Y005401D01*
X028200Y005169D01*
X027812Y005169D01*
D27*
X013981Y014304D02*
X013665Y014304D01*
X013981Y014304D02*
X013981Y014304D01*
X013665Y014304D01*
X013665Y014304D01*
X013665Y014619D02*
X013981Y014619D01*
X013981Y014619D01*
X013665Y014619D01*
X013665Y014619D01*
X013665Y014934D02*
X013981Y014934D01*
X013981Y014934D01*
X013665Y014934D01*
X013665Y014934D01*
X013665Y015249D02*
X013981Y015249D01*
X013981Y015249D01*
X013665Y015249D01*
X013665Y015249D01*
X013665Y015564D02*
X013981Y015564D01*
X013981Y015564D01*
X013665Y015564D01*
X013665Y015564D01*
X013665Y015879D02*
X013981Y015879D01*
X013981Y015879D01*
X013665Y015879D01*
X013665Y015879D01*
X013665Y016194D02*
X013981Y016194D01*
X013981Y016194D01*
X013665Y016194D01*
X013665Y016194D01*
X013665Y016509D02*
X013981Y016509D01*
X013981Y016509D01*
X013665Y016509D01*
X013665Y016509D01*
X013665Y016824D02*
X013981Y016824D01*
X013981Y016824D01*
X013665Y016824D01*
X013665Y016824D01*
X013665Y017139D02*
X013981Y017139D01*
X013981Y017139D01*
X013665Y017139D01*
X013665Y017139D01*
X013665Y017454D02*
X013981Y017454D01*
X013981Y017454D01*
X013665Y017454D01*
X013665Y017454D01*
X013665Y017769D02*
X013981Y017769D01*
X013981Y017769D01*
X013665Y017769D01*
X013665Y017769D01*
X013665Y018084D02*
X013981Y018084D01*
X013981Y018084D01*
X013665Y018084D01*
X013665Y018084D01*
X013665Y018399D02*
X013981Y018399D01*
X013981Y018399D01*
X013665Y018399D01*
X013665Y018399D01*
X013665Y018714D02*
X013981Y018714D01*
X013981Y018714D01*
X013665Y018714D01*
X013665Y018714D01*
X013665Y019029D02*
X013981Y019029D01*
X013981Y019029D01*
X013665Y019029D01*
X013665Y019029D01*
X013665Y019344D02*
X013981Y019344D01*
X013981Y019344D01*
X013665Y019344D01*
X013665Y019344D01*
X013665Y019659D02*
X013981Y019659D01*
X013981Y019659D01*
X013665Y019659D01*
X013665Y019659D01*
X013665Y019973D02*
X013981Y019973D01*
X013981Y019973D01*
X013665Y019973D01*
X013665Y019973D01*
X013665Y020288D02*
X013981Y020288D01*
X013981Y020288D01*
X013665Y020288D01*
X013665Y020288D01*
X013665Y020603D02*
X013981Y020603D01*
X013981Y020603D01*
X013665Y020603D01*
X013665Y020603D01*
X013665Y020918D02*
X013981Y020918D01*
X013981Y020918D01*
X013665Y020918D01*
X013665Y020918D01*
X009414Y020918D02*
X009098Y020918D01*
X009098Y020918D01*
X009414Y020918D01*
X009414Y020918D01*
X009414Y020603D02*
X009098Y020603D01*
X009098Y020603D01*
X009414Y020603D01*
X009414Y020603D01*
X009414Y020288D02*
X009098Y020288D01*
X009098Y020288D01*
X009414Y020288D01*
X009414Y020288D01*
X009414Y019973D02*
X009098Y019973D01*
X009098Y019973D01*
X009414Y019973D01*
X009414Y019973D01*
X009414Y019659D02*
X009098Y019659D01*
X009098Y019659D01*
X009414Y019659D01*
X009414Y019659D01*
X009414Y019344D02*
X009098Y019344D01*
X009098Y019344D01*
X009414Y019344D01*
X009414Y019344D01*
X009414Y019029D02*
X009098Y019029D01*
X009098Y019029D01*
X009414Y019029D01*
X009414Y019029D01*
X009414Y018714D02*
X009098Y018714D01*
X009098Y018714D01*
X009414Y018714D01*
X009414Y018714D01*
X009414Y018399D02*
X009098Y018399D01*
X009098Y018399D01*
X009414Y018399D01*
X009414Y018399D01*
X009414Y018084D02*
X009098Y018084D01*
X009098Y018084D01*
X009414Y018084D01*
X009414Y018084D01*
X009414Y017769D02*
X009098Y017769D01*
X009098Y017769D01*
X009414Y017769D01*
X009414Y017769D01*
X009414Y017454D02*
X009098Y017454D01*
X009098Y017454D01*
X009414Y017454D01*
X009414Y017454D01*
X009414Y017139D02*
X009098Y017139D01*
X009098Y017139D01*
X009414Y017139D01*
X009414Y017139D01*
X009414Y016824D02*
X009098Y016824D01*
X009098Y016824D01*
X009414Y016824D01*
X009414Y016824D01*
X009414Y016509D02*
X009098Y016509D01*
X009098Y016509D01*
X009414Y016509D01*
X009414Y016509D01*
X009414Y016194D02*
X009098Y016194D01*
X009098Y016194D01*
X009414Y016194D01*
X009414Y016194D01*
X009414Y015879D02*
X009098Y015879D01*
X009098Y015879D01*
X009414Y015879D01*
X009414Y015879D01*
X009414Y015564D02*
X009098Y015564D01*
X009098Y015564D01*
X009414Y015564D01*
X009414Y015564D01*
X009414Y015249D02*
X009098Y015249D01*
X009098Y015249D01*
X009414Y015249D01*
X009414Y015249D01*
X009414Y014934D02*
X009098Y014934D01*
X009098Y014934D01*
X009414Y014934D01*
X009414Y014934D01*
X009414Y014619D02*
X009098Y014619D01*
X009098Y014619D01*
X009414Y014619D01*
X009414Y014619D01*
X009414Y014304D02*
X009098Y014304D01*
X009098Y014304D01*
X009414Y014304D01*
X009414Y014304D01*
D28*
X039863Y014107D02*
X039863Y016115D01*
X042185Y016115D01*
X042185Y014107D01*
X039863Y014107D01*
X039863Y014305D02*
X042185Y014305D01*
X042185Y014503D02*
X039863Y014503D01*
X039863Y014701D02*
X042185Y014701D01*
X042185Y014899D02*
X039863Y014899D01*
X039863Y015097D02*
X042185Y015097D01*
X042185Y015295D02*
X039863Y015295D01*
X039863Y015493D02*
X042185Y015493D01*
X042185Y015691D02*
X039863Y015691D01*
X039863Y015889D02*
X042185Y015889D01*
X042185Y016087D02*
X039863Y016087D01*
X039863Y017107D02*
X039863Y019115D01*
X042185Y019115D01*
X042185Y017107D01*
X039863Y017107D01*
X039863Y017305D02*
X042185Y017305D01*
X042185Y017503D02*
X039863Y017503D01*
X039863Y017701D02*
X042185Y017701D01*
X042185Y017899D02*
X039863Y017899D01*
X039863Y018097D02*
X042185Y018097D01*
X042185Y018295D02*
X039863Y018295D01*
X039863Y018493D02*
X042185Y018493D01*
X042185Y018691D02*
X039863Y018691D01*
X039863Y018889D02*
X042185Y018889D01*
X042185Y019087D02*
X039863Y019087D01*
X039863Y020107D02*
X039863Y022115D01*
X042185Y022115D01*
X042185Y020107D01*
X039863Y020107D01*
X039863Y020305D02*
X042185Y020305D01*
X042185Y020503D02*
X039863Y020503D01*
X039863Y020701D02*
X042185Y020701D01*
X042185Y020899D02*
X039863Y020899D01*
X039863Y021097D02*
X042185Y021097D01*
X042185Y021295D02*
X039863Y021295D01*
X039863Y021493D02*
X042185Y021493D01*
X042185Y021691D02*
X039863Y021691D01*
X039863Y021889D02*
X042185Y021889D01*
X042185Y022087D02*
X039863Y022087D01*
X039863Y023107D02*
X039863Y025115D01*
X042185Y025115D01*
X042185Y023107D01*
X039863Y023107D01*
X039863Y023305D02*
X042185Y023305D01*
X042185Y023503D02*
X039863Y023503D01*
X039863Y023701D02*
X042185Y023701D01*
X042185Y023899D02*
X039863Y023899D01*
X039863Y024097D02*
X042185Y024097D01*
X042185Y024295D02*
X039863Y024295D01*
X039863Y024493D02*
X042185Y024493D01*
X042185Y024691D02*
X039863Y024691D01*
X039863Y024889D02*
X042185Y024889D01*
X042185Y025087D02*
X039863Y025087D01*
X039863Y026107D02*
X039863Y028115D01*
X042185Y028115D01*
X042185Y026107D01*
X039863Y026107D01*
X039863Y026305D02*
X042185Y026305D01*
X042185Y026503D02*
X039863Y026503D01*
X039863Y026701D02*
X042185Y026701D01*
X042185Y026899D02*
X039863Y026899D01*
X039863Y027097D02*
X042185Y027097D01*
X042185Y027295D02*
X039863Y027295D01*
X039863Y027493D02*
X042185Y027493D01*
X042185Y027691D02*
X039863Y027691D01*
X039863Y027889D02*
X042185Y027889D01*
X042185Y028087D02*
X039863Y028087D01*
X039863Y013115D02*
X039863Y011107D01*
X039863Y013115D02*
X042185Y013115D01*
X042185Y011107D01*
X039863Y011107D01*
X039863Y011305D02*
X042185Y011305D01*
X042185Y011503D02*
X039863Y011503D01*
X039863Y011701D02*
X042185Y011701D01*
X042185Y011899D02*
X039863Y011899D01*
X039863Y012097D02*
X042185Y012097D01*
X042185Y012295D02*
X039863Y012295D01*
X039863Y012493D02*
X042185Y012493D01*
X042185Y012691D02*
X039863Y012691D01*
X039863Y012889D02*
X042185Y012889D01*
X042185Y013087D02*
X039863Y013087D01*
D29*
X006230Y014933D03*
X006230Y005090D03*
D30*
X010339Y032711D03*
X011339Y032711D03*
X012339Y032711D03*
X013339Y032711D03*
X014339Y032711D03*
X015339Y032711D03*
X016339Y032711D03*
X017339Y032711D03*
X017339Y035711D03*
X016339Y035711D03*
X015339Y035711D03*
X014339Y035711D03*
X013339Y035711D03*
X012339Y035711D03*
X011339Y035711D03*
X010339Y035711D03*
D31*
X038789Y028011D03*
X038814Y027111D03*
X040989Y025611D03*
X038789Y025011D03*
X038814Y024111D03*
X038789Y022011D03*
X038814Y021111D03*
X040989Y019611D03*
X038789Y019011D03*
X038814Y018111D03*
X040989Y016611D03*
X038789Y016011D03*
X038814Y015111D03*
X040989Y013611D03*
X038789Y013011D03*
X038814Y012111D03*
X040989Y010711D03*
X043639Y013711D03*
X046439Y013661D03*
X046439Y016561D03*
X043639Y016511D03*
X040989Y022611D03*
X043639Y022711D03*
X046439Y022661D03*
X046439Y025561D03*
X043639Y025511D03*
X043114Y003011D03*
X040864Y003011D03*
X038114Y003011D03*
X045864Y003011D03*
D32*
X046239Y008911D03*
X047589Y008911D03*
X038589Y008911D03*
X037239Y008911D03*
X033664Y012361D03*
X033664Y013361D03*
X033664Y013861D03*
X033664Y015361D03*
X033664Y015861D03*
X033664Y016361D03*
X031414Y016361D03*
X031414Y015361D03*
X031414Y014861D03*
X031414Y014361D03*
X031414Y013861D03*
X031414Y013361D03*
X036164Y013361D03*
X036164Y013736D03*
X036164Y014736D03*
X036789Y014861D03*
X037414Y015111D03*
X037414Y016111D03*
X037414Y016861D03*
X036789Y017361D03*
X036164Y017361D03*
X034039Y018361D03*
X030889Y019611D03*
X033664Y021361D03*
X033664Y022361D03*
X033664Y022861D03*
X033664Y024361D03*
X033664Y024861D03*
X033664Y025361D03*
X031414Y025361D03*
X031414Y024361D03*
X031414Y023861D03*
X031414Y023361D03*
X031414Y022861D03*
X031414Y022361D03*
X027539Y024611D03*
X027089Y024611D03*
X026639Y024611D03*
X025689Y025061D03*
X024889Y024661D03*
X025239Y025961D03*
X026639Y025811D03*
X027089Y025811D03*
X027539Y025811D03*
X027739Y026361D03*
X026939Y023611D03*
X026589Y023611D03*
X026239Y023611D03*
X025439Y021861D03*
X024339Y021861D03*
X023089Y021211D03*
X022739Y021211D03*
X022389Y021211D03*
X021889Y021211D03*
X021539Y021211D03*
X020939Y021211D03*
X020189Y021211D03*
X019389Y021211D03*
X019039Y021211D03*
X018689Y021211D03*
X018339Y021211D03*
X017939Y021211D03*
X017389Y021211D03*
X016889Y021711D03*
X018445Y022275D03*
X016989Y023261D03*
X016639Y023261D03*
X016289Y023261D03*
X016289Y024061D03*
X016639Y024061D03*
X016989Y024061D03*
X016989Y025061D03*
X016639Y025061D03*
X016289Y025061D03*
X015939Y025711D03*
X015939Y026061D03*
X015939Y026411D03*
X015939Y026761D03*
X015939Y027111D03*
X015939Y027461D03*
X015089Y027311D03*
X015089Y026961D03*
X015089Y027661D03*
X015089Y028011D03*
X015089Y028361D03*
X015739Y028411D03*
X016489Y028411D03*
X016489Y029061D03*
X015739Y029061D03*
X014989Y029061D03*
X014989Y029711D03*
X014989Y030311D03*
X015739Y030311D03*
X015739Y029711D03*
X016489Y029711D03*
X016489Y030311D03*
X015739Y030911D03*
X014989Y030911D03*
X014239Y030911D03*
X013539Y030911D03*
X013539Y030311D03*
X013539Y029711D03*
X014239Y029711D03*
X014239Y030311D03*
X014239Y029061D03*
X013539Y029061D03*
X010689Y028211D03*
X010689Y027461D03*
X009839Y027461D03*
X009189Y028011D03*
X008839Y028011D03*
X008489Y028011D03*
X008139Y028011D03*
X008089Y028711D03*
X006839Y027761D03*
X005439Y027261D03*
X006839Y026111D03*
X008139Y026061D03*
X008489Y026061D03*
X008839Y026061D03*
X009189Y026061D03*
X009189Y026911D03*
X008839Y026911D03*
X008489Y026911D03*
X008139Y026911D03*
X009839Y028211D03*
X009939Y029711D03*
X009939Y030161D03*
X009939Y030611D03*
X010839Y033611D03*
X011839Y033611D03*
X012839Y033611D03*
X013839Y033611D03*
X014839Y033611D03*
X015839Y033611D03*
X016839Y033611D03*
X017839Y033611D03*
X017339Y034811D03*
X016339Y034811D03*
X015339Y034811D03*
X014339Y034811D03*
X013339Y034811D03*
X012339Y034811D03*
X011339Y034811D03*
X010339Y034811D03*
X017239Y029061D03*
X017239Y028411D03*
X017989Y028411D03*
X019839Y027961D03*
X020189Y027961D03*
X020539Y027961D03*
X020539Y026961D03*
X020189Y026961D03*
X019839Y026961D03*
X019839Y026161D03*
X020189Y026161D03*
X020539Y026161D03*
X020539Y025161D03*
X020189Y025161D03*
X019839Y025161D03*
X020889Y024561D03*
X020889Y024211D03*
X020889Y023861D03*
X020889Y023511D03*
X020889Y023161D03*
X022189Y024561D03*
X022039Y025661D03*
X023239Y025661D03*
X023239Y027161D03*
X023239Y028061D03*
X015139Y026261D03*
X015139Y025911D03*
X015139Y025561D03*
X015139Y025211D03*
X015139Y024861D03*
X015139Y024511D03*
X015139Y024161D03*
X015139Y023811D03*
X015139Y023461D03*
X015139Y023111D03*
X015139Y022761D03*
X014989Y021761D03*
X014232Y020897D03*
X014390Y020582D03*
X014547Y020267D03*
X015138Y019952D03*
X015650Y019361D03*
X016689Y019211D03*
X017939Y019911D03*
X018489Y020061D03*
X019089Y020061D03*
X019639Y020061D03*
X020039Y020061D03*
X020539Y020061D03*
X020989Y020061D03*
X021389Y020061D03*
X021939Y020061D03*
X022539Y020061D03*
X023089Y019911D03*
X022089Y019461D03*
X022839Y018961D03*
X022589Y017661D03*
X023239Y017261D03*
X024289Y017461D03*
X024289Y016861D03*
X024289Y018061D03*
X024389Y019411D03*
X024389Y020411D03*
X027289Y019611D03*
X023239Y016011D03*
X024389Y015511D03*
X023139Y014811D03*
X022589Y014661D03*
X021989Y014661D03*
X021439Y014661D03*
X021039Y014661D03*
X020539Y014661D03*
X020089Y014661D03*
X019689Y014661D03*
X019139Y014661D03*
X018539Y014661D03*
X017989Y014811D03*
X016689Y014311D03*
X016689Y015311D03*
X017789Y016011D03*
X016739Y016661D03*
X016739Y017261D03*
X016739Y017861D03*
X017789Y017261D03*
X018489Y017661D03*
X018289Y018961D03*
X019039Y019461D03*
X020139Y019111D03*
X020039Y018261D03*
X020539Y017511D03*
X021039Y018261D03*
X021589Y016461D03*
X020939Y015611D03*
X019489Y016461D03*
X015539Y017611D03*
X014902Y017157D03*
X014744Y016842D03*
X014587Y016527D03*
X014429Y016212D03*
X014272Y015897D03*
X014862Y015582D03*
X014705Y015267D03*
X014547Y014952D03*
X014390Y014637D03*
X014232Y014322D03*
X014539Y013011D03*
X014539Y012411D03*
X016539Y013011D03*
X017889Y013511D03*
X018289Y013511D03*
X018689Y013511D03*
X019189Y013511D03*
X019539Y013511D03*
X020189Y013511D03*
X020989Y013511D03*
X021689Y013511D03*
X022039Y013511D03*
X022389Y013511D03*
X022739Y013511D03*
X023139Y013511D03*
X022589Y012511D03*
X022539Y011711D03*
X022089Y011711D03*
X022989Y011711D03*
X023439Y011711D03*
X023889Y011711D03*
X024339Y011711D03*
X024239Y009711D03*
X023089Y008711D03*
X023089Y007711D03*
X022189Y007211D03*
X023064Y006711D03*
X022014Y006011D03*
X022189Y008211D03*
X022189Y009211D03*
X022164Y009711D03*
X019639Y008761D03*
X017039Y006711D03*
X015989Y006011D03*
X012789Y005861D03*
X012789Y006261D03*
X012789Y006661D03*
X012789Y007061D03*
X013239Y008361D03*
X014989Y009711D03*
X020039Y012511D03*
X021239Y012511D03*
X024389Y014311D03*
X025889Y009161D03*
X026889Y007811D03*
X027889Y009161D03*
X029789Y006861D03*
X031389Y005361D03*
X032189Y004861D03*
X032189Y006061D03*
X027589Y004511D03*
X026889Y005811D03*
X012164Y013611D03*
X010914Y013611D03*
X010295Y014322D03*
X010138Y014637D03*
X009980Y014952D03*
X009823Y015267D03*
X009665Y015582D03*
X009664Y017611D03*
X008789Y017611D03*
X007589Y017611D03*
X009705Y019361D03*
X009705Y020306D03*
X009862Y020621D03*
X010020Y020936D03*
X010914Y021611D03*
X012164Y021611D03*
X012500Y020621D03*
X012643Y020306D03*
X012815Y019991D03*
X012973Y019676D03*
X014232Y019007D03*
X014390Y018692D03*
X014547Y018377D03*
X014705Y018062D03*
X014289Y017611D03*
X013414Y017611D03*
X013169Y015897D03*
X016689Y020411D03*
X008189Y024161D03*
X007589Y023161D03*
X006839Y024111D03*
X005439Y023511D03*
X003439Y023511D03*
X007389Y022311D03*
X003439Y027261D03*
X007689Y008061D03*
X008089Y008061D03*
X007189Y006061D03*
X009689Y005111D03*
X010389Y004061D03*
X010389Y003561D03*
X009689Y001511D03*
X036164Y022361D03*
X036164Y022736D03*
X036164Y023736D03*
X036789Y023861D03*
X037414Y024111D03*
X037414Y025111D03*
X037414Y025861D03*
X036789Y026361D03*
X036164Y026361D03*
X034039Y027361D03*
X038539Y030111D03*
X042139Y030111D03*
M02*
