G75*
G70*
%OFA0B0*%
%FSLAX24Y24*%
%IPPOS*%
%LPD*%
%AMOC8*
5,1,8,0,0,1.08239X$1,22.5*
%
%ADD10C,0.0050*%
%ADD11C,0.0060*%
%ADD12C,0.0080*%
%ADD13R,0.0709X0.0197*%
%ADD14R,0.0197X0.0709*%
%ADD15R,0.0827X0.0118*%
%ADD16C,0.0100*%
%ADD17R,0.0300X0.0200*%
%ADD18R,0.0300X0.0400*%
%ADD19C,0.0300*%
%ADD20R,0.0300X0.0340*%
%ADD21C,0.0279*%
%ADD22C,0.0250*%
%ADD23R,0.1050X0.0500*%
%ADD24C,0.0200*%
D10*
X007614Y003703D02*
X007614Y003786D01*
X007656Y003828D01*
X007656Y003937D02*
X007614Y003937D01*
X007656Y003937D02*
X007823Y004104D01*
X007865Y004104D01*
X007865Y003937D01*
X007823Y003828D02*
X007865Y003786D01*
X007865Y003703D01*
X007823Y003661D01*
X007656Y003661D01*
X007614Y003703D01*
X007656Y004214D02*
X007614Y004255D01*
X007614Y004339D01*
X007656Y004380D01*
X007698Y004380D01*
X007740Y004339D01*
X007740Y004297D01*
X007740Y004339D02*
X007781Y004380D01*
X007823Y004380D01*
X007865Y004339D01*
X007865Y004255D01*
X007823Y004214D01*
X007823Y004961D02*
X007656Y004961D01*
X007614Y005003D01*
X007614Y005086D01*
X007656Y005128D01*
X007656Y005237D02*
X007614Y005237D01*
X007656Y005237D02*
X007823Y005404D01*
X007865Y005404D01*
X007865Y005237D01*
X007823Y005128D02*
X007865Y005086D01*
X007865Y005003D01*
X007823Y004961D01*
X007740Y005514D02*
X007740Y005680D01*
X007865Y005639D02*
X007740Y005514D01*
X007865Y005639D02*
X007614Y005639D01*
X007545Y006286D02*
X007462Y006286D01*
X007420Y006328D01*
X007420Y006370D01*
X007462Y006411D01*
X007587Y006411D01*
X007587Y006328D01*
X007545Y006286D01*
X007587Y006411D02*
X007504Y006495D01*
X007420Y006536D01*
X007696Y006536D02*
X007696Y006495D01*
X007863Y006328D01*
X007863Y006286D01*
X007973Y006328D02*
X008014Y006286D01*
X008098Y006286D01*
X008139Y006328D01*
X008139Y006495D01*
X008098Y006536D01*
X008014Y006536D01*
X007973Y006495D01*
X007863Y006536D02*
X007696Y006536D01*
X009574Y007436D02*
X009741Y007436D01*
X009574Y007603D01*
X009574Y007645D01*
X009616Y007686D01*
X009699Y007686D01*
X009741Y007645D01*
X009934Y007686D02*
X009934Y007436D01*
X010017Y007436D02*
X009850Y007436D01*
X010017Y007603D02*
X009934Y007686D01*
X010126Y007686D02*
X010126Y007478D01*
X010168Y007436D01*
X010251Y007436D01*
X010293Y007478D01*
X010293Y007686D01*
X011720Y006786D02*
X011804Y006745D01*
X011887Y006661D01*
X011762Y006661D01*
X011720Y006620D01*
X011720Y006578D01*
X011762Y006536D01*
X011845Y006536D01*
X011887Y006578D01*
X011887Y006661D01*
X011996Y006745D02*
X012163Y006578D01*
X012163Y006536D01*
X012273Y006536D02*
X012356Y006620D01*
X012314Y006620D02*
X012439Y006620D01*
X012439Y006536D02*
X012439Y006786D01*
X012314Y006786D01*
X012273Y006745D01*
X012273Y006661D01*
X012314Y006620D01*
X012163Y006786D02*
X011996Y006786D01*
X011996Y006745D01*
X011946Y006036D02*
X011946Y005995D01*
X012113Y005828D01*
X012113Y005786D01*
X012223Y005786D02*
X012306Y005870D01*
X012264Y005870D02*
X012389Y005870D01*
X012389Y005786D02*
X012389Y006036D01*
X012264Y006036D01*
X012223Y005995D01*
X012223Y005911D01*
X012264Y005870D01*
X012113Y006036D02*
X011946Y006036D01*
X011837Y006036D02*
X011837Y005911D01*
X011754Y005953D01*
X011712Y005953D01*
X011670Y005911D01*
X011670Y005828D01*
X011712Y005786D01*
X011795Y005786D01*
X011837Y005828D01*
X011837Y006036D02*
X011670Y006036D01*
X012273Y004430D02*
X012106Y004264D01*
X012064Y004264D01*
X012273Y004154D02*
X012106Y003987D01*
X012064Y003987D01*
X012106Y003878D02*
X012064Y003836D01*
X012064Y003753D01*
X012106Y003711D01*
X012273Y003711D01*
X012315Y003753D01*
X012315Y003836D01*
X012273Y003878D01*
X012315Y003987D02*
X012315Y004154D01*
X012273Y004154D01*
X012315Y004264D02*
X012315Y004430D01*
X012273Y004430D01*
X010339Y002595D02*
X010339Y002428D01*
X010298Y002386D01*
X010214Y002386D01*
X010173Y002428D01*
X010063Y002428D02*
X009896Y002595D01*
X009896Y002636D01*
X010063Y002636D01*
X010173Y002595D02*
X010214Y002636D01*
X010298Y002636D01*
X010339Y002595D01*
X010063Y002428D02*
X010063Y002386D01*
X009787Y002428D02*
X009745Y002386D01*
X009662Y002386D01*
X009620Y002428D01*
X009620Y002511D01*
X009662Y002553D01*
X009704Y002553D01*
X009787Y002511D01*
X009787Y002636D01*
X009620Y002636D01*
X016220Y005528D02*
X016262Y005486D01*
X016345Y005486D01*
X016387Y005528D01*
X016345Y005611D02*
X016220Y005611D01*
X016220Y005528D02*
X016220Y005695D01*
X016262Y005736D01*
X016345Y005736D01*
X016387Y005695D01*
X016387Y005653D01*
X016345Y005611D01*
X016496Y005611D02*
X016663Y005611D01*
X016538Y005736D01*
X016538Y005486D01*
X016773Y005528D02*
X016814Y005486D01*
X016898Y005486D01*
X016939Y005528D01*
X016939Y005695D01*
X016898Y005736D01*
X016814Y005736D01*
X016773Y005695D01*
X020120Y006978D02*
X020162Y006936D01*
X020245Y006936D01*
X020287Y006978D01*
X020120Y007145D01*
X020120Y006978D01*
X020120Y007145D02*
X020162Y007186D01*
X020245Y007186D01*
X020287Y007145D01*
X020287Y006978D01*
X020396Y007061D02*
X020563Y007061D01*
X020438Y007186D01*
X020438Y006936D01*
X020673Y006936D02*
X020756Y007020D01*
X020714Y007020D02*
X020839Y007020D01*
X020839Y006936D02*
X020839Y007186D01*
X020714Y007186D01*
X020673Y007145D01*
X020673Y007061D01*
X020714Y007020D01*
X020673Y007936D02*
X020756Y008020D01*
X020714Y008020D02*
X020839Y008020D01*
X020839Y007936D02*
X020839Y008186D01*
X020714Y008186D01*
X020673Y008145D01*
X020673Y008061D01*
X020714Y008020D01*
X020563Y008061D02*
X020396Y008061D01*
X020287Y008103D02*
X020204Y008186D01*
X020204Y007936D01*
X020287Y007936D02*
X020120Y007936D01*
X020438Y007936D02*
X020438Y008186D01*
X020563Y008061D01*
X020673Y008936D02*
X020756Y009020D01*
X020714Y009020D02*
X020839Y009020D01*
X020839Y008936D02*
X020839Y009186D01*
X020714Y009186D01*
X020673Y009145D01*
X020673Y009061D01*
X020714Y009020D01*
X020563Y009061D02*
X020396Y009061D01*
X020438Y008936D02*
X020438Y009186D01*
X020563Y009061D01*
X020287Y009145D02*
X020245Y009186D01*
X020162Y009186D01*
X020120Y009145D01*
X020120Y009103D01*
X020287Y008936D01*
X020120Y008936D01*
X022421Y010345D02*
X022588Y010178D01*
X022588Y010136D01*
X022698Y010178D02*
X022698Y010386D01*
X022588Y010386D02*
X022421Y010386D01*
X022421Y010345D01*
X022698Y010178D02*
X022739Y010136D01*
X022823Y010136D01*
X022864Y010178D01*
X022864Y010386D01*
X024420Y009645D02*
X024420Y009478D01*
X024462Y009436D01*
X024545Y009436D01*
X024587Y009478D01*
X024545Y009561D02*
X024420Y009561D01*
X024420Y009645D02*
X024462Y009686D01*
X024545Y009686D01*
X024587Y009645D01*
X024587Y009603D01*
X024545Y009561D01*
X024696Y009520D02*
X024696Y009478D01*
X024738Y009436D01*
X024822Y009436D01*
X024863Y009478D01*
X024973Y009436D02*
X025056Y009520D01*
X025014Y009520D02*
X025139Y009520D01*
X025139Y009436D02*
X025139Y009686D01*
X025014Y009686D01*
X024973Y009645D01*
X024973Y009561D01*
X025014Y009520D01*
X024863Y009645D02*
X024822Y009686D01*
X024738Y009686D01*
X024696Y009645D01*
X024696Y009603D01*
X024738Y009561D01*
X024696Y009520D01*
X024738Y009561D02*
X024780Y009561D01*
X024738Y008686D02*
X024696Y008645D01*
X024696Y008603D01*
X024738Y008561D01*
X024696Y008520D01*
X024696Y008478D01*
X024738Y008436D01*
X024822Y008436D01*
X024863Y008478D01*
X024973Y008436D02*
X025056Y008520D01*
X025014Y008520D02*
X025139Y008520D01*
X025139Y008436D02*
X025139Y008686D01*
X025014Y008686D01*
X024973Y008645D01*
X024973Y008561D01*
X025014Y008520D01*
X024863Y008645D02*
X024822Y008686D01*
X024738Y008686D01*
X024738Y008561D02*
X024780Y008561D01*
X024587Y008520D02*
X024545Y008561D01*
X024462Y008561D01*
X024420Y008520D01*
X024420Y008478D01*
X024462Y008436D01*
X024545Y008436D01*
X024587Y008478D01*
X024587Y008520D01*
X024545Y008561D02*
X024587Y008603D01*
X024587Y008645D01*
X024545Y008686D01*
X024462Y008686D01*
X024420Y008645D01*
X024420Y008603D01*
X024462Y008561D01*
X024420Y007686D02*
X024420Y007645D01*
X024587Y007478D01*
X024587Y007436D01*
X024696Y007478D02*
X024738Y007436D01*
X024822Y007436D01*
X024863Y007478D01*
X024973Y007436D02*
X025056Y007520D01*
X025014Y007520D02*
X025139Y007520D01*
X025139Y007436D02*
X025139Y007686D01*
X025014Y007686D01*
X024973Y007645D01*
X024973Y007561D01*
X025014Y007520D01*
X024863Y007645D02*
X024822Y007686D01*
X024738Y007686D01*
X024696Y007645D01*
X024696Y007603D01*
X024738Y007561D01*
X024696Y007520D01*
X024696Y007478D01*
X024738Y007561D02*
X024780Y007561D01*
X024587Y007686D02*
X024420Y007686D01*
X022948Y005736D02*
X022864Y005736D01*
X022823Y005695D01*
X022713Y005736D02*
X022713Y005611D01*
X022630Y005653D01*
X022588Y005653D01*
X022546Y005611D01*
X022546Y005528D01*
X022588Y005486D01*
X022672Y005486D01*
X022713Y005528D01*
X022823Y005528D02*
X022864Y005486D01*
X022948Y005486D01*
X022989Y005528D01*
X022989Y005695D01*
X022948Y005736D01*
X022713Y005736D02*
X022546Y005736D01*
X022437Y005695D02*
X022395Y005736D01*
X022312Y005736D01*
X022270Y005695D01*
X022437Y005528D01*
X022395Y005486D01*
X022312Y005486D01*
X022270Y005528D01*
X022270Y005695D01*
X022437Y005695D02*
X022437Y005528D01*
X027364Y006503D02*
X027364Y006586D01*
X027406Y006628D01*
X027406Y006737D02*
X027448Y006737D01*
X027490Y006779D01*
X027490Y006863D01*
X027448Y006904D01*
X027406Y006904D01*
X027364Y006863D01*
X027364Y006779D01*
X027406Y006737D01*
X027490Y006779D02*
X027531Y006737D01*
X027573Y006737D01*
X027615Y006779D01*
X027615Y006863D01*
X027573Y006904D01*
X027531Y006904D01*
X027490Y006863D01*
X027406Y007014D02*
X027364Y007014D01*
X027406Y007014D02*
X027573Y007180D01*
X027615Y007180D01*
X027615Y007014D01*
X027573Y006628D02*
X027615Y006586D01*
X027615Y006503D01*
X027573Y006461D01*
X027406Y006461D01*
X027364Y006503D01*
X032964Y006463D02*
X033006Y006504D01*
X033048Y006504D01*
X033090Y006463D01*
X033090Y006337D01*
X033006Y006337D01*
X032964Y006379D01*
X032964Y006463D01*
X033090Y006337D02*
X033173Y006421D01*
X033215Y006504D01*
X033090Y006614D02*
X033090Y006780D01*
X033215Y006739D02*
X033090Y006614D01*
X033215Y006739D02*
X032964Y006739D01*
X033006Y006228D02*
X032964Y006186D01*
X032964Y006103D01*
X033006Y006061D01*
X033173Y006061D01*
X033215Y006103D01*
X033215Y006186D01*
X033173Y006228D01*
X034403Y011143D02*
X034361Y011184D01*
X034361Y011226D01*
X034403Y011268D01*
X034528Y011268D01*
X034528Y011184D01*
X034486Y011143D01*
X034403Y011143D01*
X034528Y011268D02*
X034444Y011351D01*
X034361Y011393D01*
X034637Y011351D02*
X034637Y011184D01*
X034679Y011143D01*
X034804Y011143D01*
X034804Y011393D01*
X034679Y011393D01*
X034637Y011351D01*
X035210Y011351D02*
X035210Y011309D01*
X035251Y011268D01*
X035335Y011268D01*
X035376Y011309D01*
X035376Y011351D01*
X035335Y011393D01*
X035251Y011393D01*
X035210Y011351D01*
X035251Y011268D02*
X035210Y011226D01*
X035210Y011184D01*
X035251Y011143D01*
X035335Y011143D01*
X035376Y011184D01*
X035376Y011226D01*
X035335Y011268D01*
X035486Y011143D02*
X035653Y011143D01*
X035569Y011143D02*
X035569Y011393D01*
X035653Y011309D01*
X035762Y011351D02*
X035762Y011184D01*
X035804Y011143D01*
X035929Y011143D01*
X035929Y011393D01*
X035804Y011393D01*
X035762Y011351D01*
X036460Y011351D02*
X036460Y011309D01*
X036626Y011143D01*
X036460Y011143D01*
X036460Y011351D02*
X036501Y011393D01*
X036585Y011393D01*
X036626Y011351D01*
X036819Y011393D02*
X036819Y011143D01*
X036736Y011143D02*
X036903Y011143D01*
X037012Y011184D02*
X037012Y011351D01*
X037054Y011393D01*
X037179Y011393D01*
X037179Y011143D01*
X037054Y011143D01*
X037012Y011184D01*
X036903Y011309D02*
X036819Y011393D01*
X037664Y011761D02*
X037915Y011761D01*
X037915Y011886D01*
X037873Y011928D01*
X037790Y011928D01*
X037748Y011886D01*
X037748Y011761D01*
X037748Y011845D02*
X037664Y011928D01*
X037664Y012037D02*
X037706Y012037D01*
X037873Y012204D01*
X037915Y012204D01*
X037915Y012037D01*
X037873Y012314D02*
X037706Y012314D01*
X037873Y012480D01*
X037706Y012480D01*
X037664Y012439D01*
X037664Y012355D01*
X037706Y012314D01*
X037873Y012314D02*
X037915Y012355D01*
X037915Y012439D01*
X037873Y012480D01*
X037446Y013972D02*
X037196Y013972D01*
X037196Y014097D01*
X037237Y014139D01*
X037404Y014139D01*
X037446Y014097D01*
X037446Y013972D01*
X037404Y014248D02*
X037363Y014248D01*
X037321Y014290D01*
X037321Y014373D01*
X037279Y014415D01*
X037237Y014415D01*
X037196Y014373D01*
X037196Y014290D01*
X037237Y014248D01*
X037279Y014248D01*
X037321Y014290D01*
X037321Y014373D02*
X037363Y014415D01*
X037404Y014415D01*
X037446Y014373D01*
X037446Y014290D01*
X037404Y014248D01*
X037664Y014761D02*
X037915Y014761D01*
X037915Y014886D01*
X037873Y014928D01*
X037790Y014928D01*
X037748Y014886D01*
X037748Y014761D01*
X037748Y014845D02*
X037664Y014928D01*
X037706Y015037D02*
X037664Y015079D01*
X037664Y015163D01*
X037706Y015204D01*
X037748Y015204D01*
X037790Y015163D01*
X037790Y015037D01*
X037706Y015037D01*
X037790Y015037D02*
X037873Y015121D01*
X037915Y015204D01*
X037873Y015314D02*
X037831Y015314D01*
X037790Y015355D01*
X037790Y015439D01*
X037748Y015480D01*
X037706Y015480D01*
X037664Y015439D01*
X037664Y015355D01*
X037706Y015314D01*
X037748Y015314D01*
X037790Y015355D01*
X037790Y015439D02*
X037831Y015480D01*
X037873Y015480D01*
X037915Y015439D01*
X037915Y015355D01*
X037873Y015314D01*
X036296Y015522D02*
X036296Y015647D01*
X036254Y015689D01*
X036087Y015689D01*
X036046Y015647D01*
X036046Y015522D01*
X036296Y015522D01*
X036213Y015798D02*
X036296Y015881D01*
X036046Y015881D01*
X036046Y015798D02*
X036046Y015965D01*
X036171Y016074D02*
X036171Y016241D01*
X036046Y016199D02*
X036296Y016199D01*
X036171Y016074D01*
X034071Y014498D02*
X033946Y014373D01*
X033946Y014540D01*
X033821Y014498D02*
X034071Y014498D01*
X034029Y014264D02*
X034071Y014222D01*
X034071Y014097D01*
X033821Y014097D01*
X033821Y014222D01*
X033862Y014264D01*
X034029Y014264D01*
X033639Y014636D02*
X033639Y014886D01*
X033514Y014886D01*
X033473Y014845D01*
X033473Y014761D01*
X033514Y014720D01*
X033639Y014720D01*
X033556Y014720D02*
X033473Y014636D01*
X033363Y014761D02*
X033196Y014761D01*
X033087Y014761D02*
X033004Y014803D01*
X032962Y014803D01*
X032920Y014761D01*
X032920Y014678D01*
X032962Y014636D01*
X033045Y014636D01*
X033087Y014678D01*
X033087Y014761D02*
X033087Y014886D01*
X032920Y014886D01*
X033238Y014886D02*
X033238Y014636D01*
X033363Y014761D02*
X033238Y014886D01*
X032389Y013636D02*
X032264Y013636D01*
X032223Y013595D01*
X032223Y013511D01*
X032264Y013470D01*
X032389Y013470D01*
X032306Y013470D02*
X032223Y013386D01*
X032264Y013261D02*
X032348Y013261D01*
X032389Y013220D01*
X032389Y013053D01*
X032348Y013011D01*
X032264Y013011D01*
X032223Y013053D01*
X032113Y013053D02*
X032072Y013011D01*
X031988Y013011D01*
X031946Y013053D01*
X031946Y013136D01*
X031988Y013178D01*
X032030Y013178D01*
X032113Y013136D01*
X032113Y013261D01*
X031946Y013261D01*
X031988Y013386D02*
X031988Y013636D01*
X032113Y013511D01*
X031946Y013511D01*
X031837Y013511D02*
X031754Y013595D01*
X031670Y013636D01*
X031712Y013511D02*
X031837Y013511D01*
X031837Y013428D01*
X031795Y013386D01*
X031712Y013386D01*
X031670Y013428D01*
X031670Y013470D01*
X031712Y013511D01*
X031670Y013261D02*
X031754Y013220D01*
X031837Y013136D01*
X031712Y013136D01*
X031670Y013095D01*
X031670Y013053D01*
X031712Y013011D01*
X031795Y013011D01*
X031837Y013053D01*
X031837Y013136D01*
X032223Y013220D02*
X032264Y013261D01*
X032389Y013386D02*
X032389Y013636D01*
X030564Y013586D02*
X030564Y013336D01*
X030439Y013336D01*
X030398Y013378D01*
X030398Y013545D01*
X030439Y013586D01*
X030564Y013586D01*
X030564Y013686D02*
X030439Y013686D01*
X030398Y013728D01*
X030398Y013895D01*
X030439Y013936D01*
X030564Y013936D01*
X030564Y013686D01*
X030288Y013686D02*
X030288Y013853D01*
X030205Y013936D01*
X030121Y013853D01*
X030121Y013686D01*
X030121Y013811D02*
X030288Y013811D01*
X030288Y014036D02*
X030288Y014203D01*
X030205Y014286D01*
X030121Y014203D01*
X030121Y014036D01*
X030121Y014161D02*
X030288Y014161D01*
X030398Y014078D02*
X030398Y014245D01*
X030439Y014286D01*
X030564Y014286D01*
X030564Y014036D01*
X030439Y014036D01*
X030398Y014078D01*
X030439Y014386D02*
X030398Y014428D01*
X030398Y014595D01*
X030439Y014636D01*
X030564Y014636D01*
X030564Y014386D01*
X030439Y014386D01*
X030288Y014386D02*
X030288Y014553D01*
X030205Y014636D01*
X030121Y014553D01*
X030121Y014386D01*
X030121Y014511D02*
X030288Y014511D01*
X030288Y014736D02*
X030288Y014903D01*
X030205Y014986D01*
X030121Y014903D01*
X030121Y014736D01*
X030121Y014861D02*
X030288Y014861D01*
X030398Y014778D02*
X030398Y014945D01*
X030439Y014986D01*
X030564Y014986D01*
X030564Y014736D01*
X030439Y014736D01*
X030398Y014778D01*
X030439Y015086D02*
X030398Y015128D01*
X030398Y015295D01*
X030439Y015336D01*
X030564Y015336D01*
X030564Y015086D01*
X030439Y015086D01*
X030288Y015086D02*
X030288Y015253D01*
X030205Y015336D01*
X030121Y015253D01*
X030121Y015086D01*
X030121Y015211D02*
X030288Y015211D01*
X030288Y015436D02*
X030288Y015603D01*
X030205Y015686D01*
X030121Y015603D01*
X030121Y015436D01*
X030121Y015561D02*
X030288Y015561D01*
X030398Y015478D02*
X030398Y015645D01*
X030439Y015686D01*
X030564Y015686D01*
X030564Y015436D01*
X030439Y015436D01*
X030398Y015478D01*
X030439Y015786D02*
X030398Y015828D01*
X030398Y015995D01*
X030439Y016036D01*
X030564Y016036D01*
X030564Y015786D01*
X030439Y015786D01*
X030288Y015786D02*
X030288Y015953D01*
X030205Y016036D01*
X030121Y015953D01*
X030121Y015786D01*
X030121Y015911D02*
X030288Y015911D01*
X030288Y016136D02*
X030163Y016136D01*
X030121Y016178D01*
X030121Y016345D01*
X030163Y016386D01*
X030288Y016386D01*
X030288Y016136D01*
X030398Y016136D02*
X030398Y016303D01*
X030481Y016386D01*
X030564Y016303D01*
X030564Y016136D01*
X030564Y016261D02*
X030398Y016261D01*
X030398Y016486D02*
X030398Y016653D01*
X030481Y016736D01*
X030564Y016653D01*
X030564Y016486D01*
X030564Y016611D02*
X030398Y016611D01*
X030288Y016486D02*
X030163Y016486D01*
X030121Y016528D01*
X030121Y016695D01*
X030163Y016736D01*
X030288Y016736D01*
X030288Y016486D01*
X030012Y016486D02*
X029887Y016486D01*
X029845Y016528D01*
X029845Y016695D01*
X029887Y016736D01*
X030012Y016736D01*
X030012Y016486D01*
X030012Y016386D02*
X029887Y016386D01*
X029845Y016345D01*
X029845Y016178D01*
X029887Y016136D01*
X030012Y016136D01*
X030012Y016386D01*
X029736Y016386D02*
X029611Y016386D01*
X029569Y016345D01*
X029569Y016261D01*
X029611Y016220D01*
X029736Y016220D01*
X029652Y016220D02*
X029569Y016136D01*
X029460Y016178D02*
X029293Y016345D01*
X029293Y016178D01*
X029334Y016136D01*
X029418Y016136D01*
X029460Y016178D01*
X029460Y016345D01*
X029418Y016386D01*
X029334Y016386D01*
X029293Y016345D01*
X029293Y016486D02*
X029460Y016486D01*
X029376Y016486D02*
X029376Y016736D01*
X029460Y016653D01*
X029569Y016611D02*
X029611Y016570D01*
X029736Y016570D01*
X029652Y016570D02*
X029569Y016486D01*
X029569Y016611D02*
X029569Y016695D01*
X029611Y016736D01*
X029736Y016736D01*
X029736Y016486D01*
X029736Y016386D02*
X029736Y016136D01*
X029652Y016036D02*
X029569Y015953D01*
X029569Y015786D01*
X029460Y015786D02*
X029460Y015828D01*
X029293Y015995D01*
X029293Y016036D01*
X029460Y016036D01*
X029569Y015911D02*
X029736Y015911D01*
X029736Y015953D02*
X029652Y016036D01*
X029736Y015953D02*
X029736Y015786D01*
X029652Y015686D02*
X029569Y015603D01*
X029569Y015436D01*
X029460Y015478D02*
X029418Y015436D01*
X029334Y015436D01*
X029293Y015478D01*
X029293Y015520D01*
X029334Y015561D01*
X029460Y015561D01*
X029460Y015478D01*
X029460Y015561D02*
X029376Y015645D01*
X029293Y015686D01*
X029569Y015561D02*
X029736Y015561D01*
X029736Y015603D02*
X029652Y015686D01*
X029736Y015603D02*
X029736Y015436D01*
X029652Y015336D02*
X029569Y015253D01*
X029569Y015086D01*
X029460Y015128D02*
X029418Y015086D01*
X029334Y015086D01*
X029293Y015128D01*
X029293Y015211D01*
X029334Y015253D01*
X029376Y015253D01*
X029460Y015211D01*
X029460Y015336D01*
X029293Y015336D01*
X029569Y015211D02*
X029736Y015211D01*
X029736Y015253D02*
X029652Y015336D01*
X029736Y015253D02*
X029736Y015086D01*
X029652Y014986D02*
X029569Y014903D01*
X029569Y014736D01*
X029569Y014861D02*
X029736Y014861D01*
X029736Y014903D02*
X029652Y014986D01*
X029736Y014903D02*
X029736Y014736D01*
X029652Y014636D02*
X029569Y014553D01*
X029569Y014386D01*
X029460Y014428D02*
X029418Y014386D01*
X029334Y014386D01*
X029293Y014428D01*
X029293Y014470D01*
X029334Y014511D01*
X029376Y014511D01*
X029334Y014511D02*
X029293Y014553D01*
X029293Y014595D01*
X029334Y014636D01*
X029418Y014636D01*
X029460Y014595D01*
X029569Y014511D02*
X029736Y014511D01*
X029736Y014553D02*
X029652Y014636D01*
X029736Y014553D02*
X029736Y014386D01*
X029652Y014286D02*
X029569Y014203D01*
X029569Y014036D01*
X029460Y014036D02*
X029293Y014203D01*
X029293Y014245D01*
X029334Y014286D01*
X029418Y014286D01*
X029460Y014245D01*
X029569Y014161D02*
X029736Y014161D01*
X029736Y014203D02*
X029652Y014286D01*
X029736Y014203D02*
X029736Y014036D01*
X029652Y013936D02*
X029569Y013853D01*
X029569Y013686D01*
X029460Y013686D02*
X029293Y013686D01*
X029376Y013686D02*
X029376Y013936D01*
X029460Y013853D01*
X029569Y013811D02*
X029736Y013811D01*
X029736Y013853D02*
X029652Y013936D01*
X029736Y013853D02*
X029736Y013686D01*
X029652Y013586D02*
X029569Y013503D01*
X029569Y013336D01*
X029460Y013378D02*
X029293Y013545D01*
X029293Y013378D01*
X029334Y013336D01*
X029418Y013336D01*
X029460Y013378D01*
X029460Y013545D01*
X029418Y013586D01*
X029334Y013586D01*
X029293Y013545D01*
X029569Y013461D02*
X029736Y013461D01*
X029736Y013503D02*
X029652Y013586D01*
X029736Y013503D02*
X029736Y013336D01*
X029845Y013195D02*
X030012Y013028D01*
X029970Y012986D01*
X029887Y012986D01*
X029845Y013028D01*
X029845Y013195D01*
X029887Y013236D01*
X029970Y013236D01*
X030012Y013195D01*
X030012Y013028D01*
X030121Y012986D02*
X030288Y012986D01*
X030288Y013236D01*
X030121Y013236D01*
X030121Y013336D02*
X030121Y013503D01*
X030205Y013586D01*
X030288Y013503D01*
X030288Y013336D01*
X030288Y013461D02*
X030121Y013461D01*
X030012Y013586D02*
X029845Y013586D01*
X029929Y013586D02*
X029929Y013336D01*
X029929Y013686D02*
X029929Y013936D01*
X030012Y013936D02*
X029845Y013936D01*
X029929Y014036D02*
X029929Y014286D01*
X030012Y014286D02*
X029845Y014286D01*
X029929Y014386D02*
X029929Y014636D01*
X030012Y014636D02*
X029845Y014636D01*
X029929Y014736D02*
X029929Y014986D01*
X030012Y014986D02*
X029845Y014986D01*
X029929Y015086D02*
X029929Y015336D01*
X030012Y015336D02*
X029845Y015336D01*
X029929Y015436D02*
X029929Y015686D01*
X030012Y015686D02*
X029845Y015686D01*
X029929Y015786D02*
X029929Y016036D01*
X030012Y016036D02*
X029845Y016036D01*
X028907Y015953D02*
X028824Y016036D01*
X028824Y016136D02*
X028907Y016220D01*
X028907Y016303D01*
X028824Y016386D01*
X028824Y016486D02*
X028907Y016570D01*
X028907Y016653D01*
X028824Y016736D01*
X028824Y016836D02*
X028907Y016920D01*
X028907Y017003D01*
X028824Y017086D01*
X028824Y017186D02*
X028907Y017270D01*
X028907Y017353D01*
X028824Y017436D01*
X028824Y017536D02*
X028907Y017620D01*
X028907Y017703D01*
X028824Y017786D01*
X028824Y017886D02*
X028907Y017970D01*
X028907Y018053D01*
X028824Y018136D01*
X028824Y018236D02*
X028907Y018320D01*
X028907Y018403D01*
X028824Y018486D01*
X028824Y018586D02*
X028907Y018670D01*
X028907Y018753D01*
X028824Y018836D01*
X028824Y018936D02*
X028907Y019020D01*
X028907Y019103D01*
X028824Y019186D01*
X028824Y019286D02*
X028907Y019370D01*
X028907Y019453D01*
X028824Y019536D01*
X028723Y019536D02*
X028723Y019286D01*
X028723Y019370D02*
X028598Y019370D01*
X028556Y019411D01*
X028556Y019495D01*
X028598Y019536D01*
X028723Y019536D01*
X028548Y019636D02*
X028631Y019720D01*
X028631Y019803D01*
X028548Y019886D01*
X028548Y019986D02*
X028631Y020070D01*
X028631Y020153D01*
X028548Y020236D01*
X028548Y020336D02*
X028631Y020420D01*
X028631Y020503D01*
X028548Y020586D01*
X028548Y020686D02*
X028631Y020770D01*
X028631Y020853D01*
X028548Y020936D01*
X028548Y021036D02*
X028631Y021120D01*
X028631Y021203D01*
X028548Y021286D01*
X028548Y021386D02*
X028631Y021470D01*
X028631Y021553D01*
X028548Y021636D01*
X028548Y021736D02*
X028631Y021820D01*
X028631Y021903D01*
X028548Y021986D01*
X028548Y022086D02*
X028631Y022170D01*
X028631Y022253D01*
X028548Y022336D01*
X028447Y022336D02*
X028322Y022336D01*
X028280Y022295D01*
X028280Y022211D01*
X028322Y022170D01*
X028447Y022170D01*
X028447Y022086D02*
X028447Y022336D01*
X028355Y022436D02*
X028271Y022436D01*
X028313Y022436D02*
X028313Y022686D01*
X028355Y022686D02*
X028271Y022686D01*
X028171Y022686D02*
X028004Y022436D01*
X028004Y022686D01*
X027894Y022645D02*
X027894Y022603D01*
X027853Y022561D01*
X027769Y022561D01*
X027728Y022520D01*
X027728Y022478D01*
X027769Y022436D01*
X027853Y022436D01*
X027894Y022478D01*
X027894Y022336D02*
X027811Y022253D01*
X027811Y022170D01*
X027894Y022086D01*
X027894Y021986D02*
X027811Y021903D01*
X027811Y021820D01*
X027894Y021736D01*
X027894Y021636D02*
X027811Y021553D01*
X027811Y021470D01*
X027894Y021386D01*
X027894Y021286D02*
X027894Y021161D01*
X027811Y021203D01*
X027769Y021203D01*
X027728Y021161D01*
X027728Y021078D01*
X027769Y021036D01*
X027853Y021036D01*
X027894Y021078D01*
X028004Y021036D02*
X028171Y021036D01*
X028004Y021203D01*
X028004Y021245D01*
X028045Y021286D01*
X028129Y021286D01*
X028171Y021245D01*
X028280Y021245D02*
X028280Y021161D01*
X028322Y021120D01*
X028447Y021120D01*
X028447Y021036D02*
X028447Y021286D01*
X028322Y021286D01*
X028280Y021245D01*
X028129Y021386D02*
X028045Y021386D01*
X028004Y021428D01*
X028004Y021470D01*
X028045Y021511D01*
X028171Y021511D01*
X028171Y021428D01*
X028129Y021386D01*
X028171Y021511D02*
X028087Y021595D01*
X028004Y021636D01*
X028045Y021736D02*
X028129Y021736D01*
X028171Y021778D01*
X028171Y021861D02*
X028087Y021903D01*
X028045Y021903D01*
X028004Y021861D01*
X028004Y021778D01*
X028045Y021736D01*
X028171Y021861D02*
X028171Y021986D01*
X028004Y021986D01*
X028045Y022086D02*
X028045Y022336D01*
X028171Y022211D01*
X028004Y022211D01*
X028171Y022436D02*
X028171Y022686D01*
X027894Y022645D02*
X027853Y022686D01*
X027769Y022686D01*
X027728Y022645D01*
X028464Y022645D02*
X028464Y022561D01*
X028506Y022520D01*
X028631Y022520D01*
X028631Y022436D02*
X028631Y022686D01*
X028506Y022686D01*
X028464Y022645D01*
X029017Y022645D02*
X029017Y022686D01*
X029017Y022645D02*
X029100Y022561D01*
X029100Y022436D01*
X029100Y022561D02*
X029183Y022645D01*
X029183Y022686D01*
X029293Y022645D02*
X029293Y022561D01*
X029334Y022520D01*
X029460Y022520D01*
X029460Y022436D02*
X029460Y022686D01*
X029334Y022686D01*
X029293Y022645D01*
X029376Y022520D02*
X029293Y022436D01*
X029376Y022336D02*
X029376Y022086D01*
X029293Y022086D02*
X029460Y022086D01*
X029569Y022086D02*
X029652Y022170D01*
X029611Y022170D02*
X029736Y022170D01*
X029736Y022086D02*
X029736Y022336D01*
X029611Y022336D01*
X029569Y022295D01*
X029569Y022211D01*
X029611Y022170D01*
X029460Y022253D02*
X029376Y022336D01*
X029183Y022336D02*
X029017Y022336D01*
X029017Y022295D01*
X029183Y022128D01*
X029183Y022086D01*
X029100Y021945D02*
X029017Y021986D01*
X029100Y021945D02*
X029183Y021861D01*
X029058Y021861D01*
X029017Y021820D01*
X029017Y021778D01*
X029058Y021736D01*
X029142Y021736D01*
X029183Y021778D01*
X029183Y021861D01*
X029293Y021736D02*
X029460Y021736D01*
X029376Y021736D02*
X029376Y021986D01*
X029460Y021903D01*
X029569Y021861D02*
X029611Y021820D01*
X029736Y021820D01*
X029652Y021820D02*
X029569Y021736D01*
X029611Y021636D02*
X029569Y021595D01*
X029569Y021511D01*
X029611Y021470D01*
X029736Y021470D01*
X029652Y021470D02*
X029569Y021386D01*
X029611Y021286D02*
X029569Y021245D01*
X029569Y021161D01*
X029611Y021120D01*
X029736Y021120D01*
X029652Y021120D02*
X029569Y021036D01*
X029611Y020936D02*
X029569Y020895D01*
X029569Y020811D01*
X029611Y020770D01*
X029736Y020770D01*
X029652Y020770D02*
X029569Y020686D01*
X029611Y020586D02*
X029569Y020545D01*
X029569Y020461D01*
X029611Y020420D01*
X029736Y020420D01*
X029652Y020420D02*
X029569Y020336D01*
X029611Y020236D02*
X029569Y020195D01*
X029569Y020111D01*
X029611Y020070D01*
X029736Y020070D01*
X029652Y020070D02*
X029569Y019986D01*
X029611Y019886D02*
X029569Y019845D01*
X029569Y019761D01*
X029611Y019720D01*
X029736Y019720D01*
X029652Y019720D02*
X029569Y019636D01*
X029611Y019536D02*
X029569Y019495D01*
X029569Y019411D01*
X029611Y019370D01*
X029736Y019370D01*
X029652Y019370D02*
X029569Y019286D01*
X029611Y019186D02*
X029569Y019145D01*
X029569Y019061D01*
X029611Y019020D01*
X029736Y019020D01*
X029652Y019020D02*
X029569Y018936D01*
X029611Y018836D02*
X029569Y018795D01*
X029569Y018711D01*
X029611Y018670D01*
X029736Y018670D01*
X029652Y018670D02*
X029569Y018586D01*
X029611Y018486D02*
X029569Y018445D01*
X029569Y018361D01*
X029611Y018320D01*
X029736Y018320D01*
X029652Y018320D02*
X029569Y018236D01*
X029611Y018136D02*
X029569Y018095D01*
X029569Y018011D01*
X029611Y017970D01*
X029736Y017970D01*
X029652Y017970D02*
X029569Y017886D01*
X029611Y017786D02*
X029569Y017745D01*
X029569Y017661D01*
X029611Y017620D01*
X029736Y017620D01*
X029652Y017620D02*
X029569Y017536D01*
X029611Y017436D02*
X029569Y017395D01*
X029569Y017311D01*
X029611Y017270D01*
X029736Y017270D01*
X029652Y017270D02*
X029569Y017186D01*
X029611Y017086D02*
X029569Y017045D01*
X029569Y016961D01*
X029611Y016920D01*
X029736Y016920D01*
X029652Y016920D02*
X029569Y016836D01*
X029460Y016836D02*
X029293Y017003D01*
X029293Y017045D01*
X029334Y017086D01*
X029418Y017086D01*
X029460Y017045D01*
X029418Y017186D02*
X029460Y017228D01*
X029418Y017186D02*
X029334Y017186D01*
X029293Y017228D01*
X029293Y017270D01*
X029334Y017311D01*
X029376Y017311D01*
X029334Y017311D02*
X029293Y017353D01*
X029293Y017395D01*
X029334Y017436D01*
X029418Y017436D01*
X029460Y017395D01*
X029611Y017436D02*
X029736Y017436D01*
X029736Y017186D01*
X029736Y017086D02*
X029611Y017086D01*
X029736Y017086D02*
X029736Y016836D01*
X029845Y016878D02*
X029845Y017045D01*
X029887Y017086D01*
X030012Y017086D01*
X030012Y016836D01*
X029887Y016836D01*
X029845Y016878D01*
X030121Y016878D02*
X030121Y017045D01*
X030163Y017086D01*
X030288Y017086D01*
X030288Y016836D01*
X030163Y016836D01*
X030121Y016878D01*
X030398Y016836D02*
X030398Y017003D01*
X030481Y017086D01*
X030564Y017003D01*
X030564Y016836D01*
X030564Y016961D02*
X030398Y016961D01*
X030398Y017186D02*
X030398Y017353D01*
X030481Y017436D01*
X030564Y017353D01*
X030564Y017186D01*
X030564Y017311D02*
X030398Y017311D01*
X030288Y017186D02*
X030163Y017186D01*
X030121Y017228D01*
X030121Y017395D01*
X030163Y017436D01*
X030288Y017436D01*
X030288Y017186D01*
X030012Y017186D02*
X029887Y017186D01*
X029845Y017228D01*
X029845Y017395D01*
X029887Y017436D01*
X030012Y017436D01*
X030012Y017186D01*
X030012Y017536D02*
X029887Y017536D01*
X029845Y017578D01*
X029845Y017745D01*
X029887Y017786D01*
X030012Y017786D01*
X030012Y017536D01*
X030121Y017578D02*
X030163Y017536D01*
X030288Y017536D01*
X030288Y017786D01*
X030163Y017786D01*
X030121Y017745D01*
X030121Y017578D01*
X030398Y017536D02*
X030398Y017703D01*
X030481Y017786D01*
X030564Y017703D01*
X030564Y017536D01*
X030564Y017661D02*
X030398Y017661D01*
X030398Y017886D02*
X030398Y018053D01*
X030481Y018136D01*
X030564Y018053D01*
X030564Y017886D01*
X030564Y018011D02*
X030398Y018011D01*
X030288Y017886D02*
X030163Y017886D01*
X030121Y017928D01*
X030121Y018095D01*
X030163Y018136D01*
X030288Y018136D01*
X030288Y017886D01*
X030012Y017886D02*
X029887Y017886D01*
X029845Y017928D01*
X029845Y018095D01*
X029887Y018136D01*
X030012Y018136D01*
X030012Y017886D01*
X029736Y017886D02*
X029736Y018136D01*
X029611Y018136D01*
X029460Y018136D02*
X029460Y018011D01*
X029376Y018053D01*
X029334Y018053D01*
X029293Y018011D01*
X029293Y017928D01*
X029334Y017886D01*
X029418Y017886D01*
X029460Y017928D01*
X029334Y017786D02*
X029460Y017661D01*
X029293Y017661D01*
X029334Y017536D02*
X029334Y017786D01*
X029611Y017786D02*
X029736Y017786D01*
X029736Y017536D01*
X029460Y016836D02*
X029293Y016836D01*
X028723Y016836D02*
X028723Y017086D01*
X028598Y017086D01*
X028556Y017045D01*
X028556Y016961D01*
X028598Y016920D01*
X028723Y016920D01*
X028723Y016736D02*
X028598Y016736D01*
X028556Y016695D01*
X028556Y016611D01*
X028598Y016570D01*
X028723Y016570D01*
X028723Y016486D02*
X028723Y016736D01*
X028447Y016653D02*
X028363Y016736D01*
X028363Y016486D01*
X028280Y016486D02*
X028447Y016486D01*
X028363Y016386D02*
X028363Y016136D01*
X028280Y016136D02*
X028447Y016136D01*
X028405Y016036D02*
X028447Y015995D01*
X028405Y016036D02*
X028322Y016036D01*
X028280Y015995D01*
X028280Y015953D01*
X028447Y015786D01*
X028280Y015786D01*
X028322Y015686D02*
X028405Y015686D01*
X028447Y015645D01*
X028556Y015645D02*
X028556Y015561D01*
X028598Y015520D01*
X028723Y015520D01*
X028723Y015436D02*
X028723Y015686D01*
X028598Y015686D01*
X028556Y015645D01*
X028723Y015786D02*
X028723Y016036D01*
X028598Y016036D01*
X028556Y015995D01*
X028556Y015911D01*
X028598Y015870D01*
X028723Y015870D01*
X028824Y015786D02*
X028907Y015870D01*
X028907Y015953D01*
X028723Y016136D02*
X028723Y016386D01*
X028598Y016386D01*
X028556Y016345D01*
X028556Y016261D01*
X028598Y016220D01*
X028723Y016220D01*
X028447Y016303D02*
X028363Y016386D01*
X028171Y016486D02*
X028087Y016570D01*
X028087Y016653D01*
X028171Y016736D01*
X028171Y016836D02*
X028087Y016920D01*
X028087Y017003D01*
X028171Y017086D01*
X028171Y017186D02*
X028087Y017270D01*
X028087Y017353D01*
X028171Y017436D01*
X028171Y017536D02*
X028087Y017620D01*
X028087Y017703D01*
X028171Y017786D01*
X028171Y017886D02*
X028004Y017886D01*
X028087Y017886D02*
X028087Y018136D01*
X028171Y018053D01*
X028280Y018053D02*
X028322Y018011D01*
X028280Y017970D01*
X028280Y017928D01*
X028322Y017886D01*
X028405Y017886D01*
X028447Y017928D01*
X028363Y018011D02*
X028322Y018011D01*
X028280Y018053D02*
X028280Y018095D01*
X028322Y018136D01*
X028405Y018136D01*
X028447Y018095D01*
X028556Y018095D02*
X028556Y018011D01*
X028598Y017970D01*
X028723Y017970D01*
X028723Y017886D02*
X028723Y018136D01*
X028598Y018136D01*
X028556Y018095D01*
X028405Y018236D02*
X028447Y018278D01*
X028405Y018236D02*
X028322Y018236D01*
X028280Y018278D01*
X028280Y018320D01*
X028322Y018361D01*
X028363Y018361D01*
X028322Y018361D02*
X028280Y018403D01*
X028280Y018445D01*
X028322Y018486D01*
X028405Y018486D01*
X028447Y018445D01*
X028556Y018445D02*
X028556Y018361D01*
X028598Y018320D01*
X028723Y018320D01*
X028723Y018236D02*
X028723Y018486D01*
X028598Y018486D01*
X028556Y018445D01*
X028405Y018586D02*
X028447Y018628D01*
X028405Y018586D02*
X028322Y018586D01*
X028280Y018628D01*
X028280Y018670D01*
X028322Y018711D01*
X028363Y018711D01*
X028322Y018711D02*
X028280Y018753D01*
X028280Y018795D01*
X028322Y018836D01*
X028405Y018836D01*
X028447Y018795D01*
X028556Y018795D02*
X028556Y018711D01*
X028598Y018670D01*
X028723Y018670D01*
X028723Y018586D02*
X028723Y018836D01*
X028598Y018836D01*
X028556Y018795D01*
X028405Y018936D02*
X028447Y018978D01*
X028405Y018936D02*
X028322Y018936D01*
X028280Y018978D01*
X028280Y019020D01*
X028322Y019061D01*
X028363Y019061D01*
X028322Y019061D02*
X028280Y019103D01*
X028280Y019145D01*
X028322Y019186D01*
X028405Y019186D01*
X028447Y019145D01*
X028556Y019145D02*
X028556Y019061D01*
X028598Y019020D01*
X028723Y019020D01*
X028723Y018936D02*
X028723Y019186D01*
X028598Y019186D01*
X028556Y019145D01*
X028405Y019286D02*
X028447Y019328D01*
X028405Y019286D02*
X028322Y019286D01*
X028280Y019328D01*
X028280Y019370D01*
X028322Y019411D01*
X028363Y019411D01*
X028322Y019411D02*
X028280Y019453D01*
X028280Y019495D01*
X028322Y019536D01*
X028405Y019536D01*
X028447Y019495D01*
X028447Y019636D02*
X028447Y019886D01*
X028322Y019886D01*
X028280Y019845D01*
X028280Y019761D01*
X028322Y019720D01*
X028447Y019720D01*
X028447Y019986D02*
X028447Y020236D01*
X028322Y020236D01*
X028280Y020195D01*
X028280Y020111D01*
X028322Y020070D01*
X028447Y020070D01*
X028447Y020336D02*
X028447Y020586D01*
X028322Y020586D01*
X028280Y020545D01*
X028280Y020461D01*
X028322Y020420D01*
X028447Y020420D01*
X028447Y020686D02*
X028447Y020936D01*
X028322Y020936D01*
X028280Y020895D01*
X028280Y020811D01*
X028322Y020770D01*
X028447Y020770D01*
X028171Y020686D02*
X028004Y020853D01*
X028004Y020895D01*
X028045Y020936D01*
X028129Y020936D01*
X028171Y020895D01*
X028171Y020686D02*
X028004Y020686D01*
X028045Y020586D02*
X028129Y020586D01*
X028171Y020545D01*
X028045Y020586D02*
X028004Y020545D01*
X028004Y020503D01*
X028171Y020336D01*
X028004Y020336D01*
X028045Y020236D02*
X028129Y020236D01*
X028171Y020195D01*
X028045Y020236D02*
X028004Y020195D01*
X028004Y020153D01*
X028171Y019986D01*
X028004Y019986D01*
X028045Y019886D02*
X028004Y019845D01*
X028004Y019803D01*
X028045Y019761D01*
X028004Y019720D01*
X028004Y019678D01*
X028045Y019636D01*
X028129Y019636D01*
X028171Y019678D01*
X028087Y019761D02*
X028045Y019761D01*
X028045Y019886D02*
X028129Y019886D01*
X028171Y019845D01*
X027894Y019845D02*
X027853Y019886D01*
X027769Y019886D01*
X027728Y019845D01*
X027894Y019678D01*
X027853Y019636D01*
X027769Y019636D01*
X027728Y019678D01*
X027728Y019845D01*
X027618Y019886D02*
X027535Y019803D01*
X027535Y019720D01*
X027618Y019636D01*
X027811Y019453D02*
X027811Y019370D01*
X027894Y019286D01*
X027894Y019186D02*
X027811Y019103D01*
X027811Y019020D01*
X027894Y018936D01*
X027894Y018836D02*
X027811Y018753D01*
X027811Y018670D01*
X027894Y018586D01*
X027894Y018486D02*
X027811Y018403D01*
X027811Y018320D01*
X027894Y018236D01*
X027894Y018136D02*
X027811Y018053D01*
X027811Y017970D01*
X027894Y017886D01*
X028004Y018236D02*
X028171Y018236D01*
X028004Y018403D01*
X028004Y018445D01*
X028045Y018486D01*
X028129Y018486D01*
X028171Y018445D01*
X028129Y018586D02*
X028171Y018628D01*
X028129Y018586D02*
X028045Y018586D01*
X028004Y018628D01*
X028004Y018670D01*
X028045Y018711D01*
X028087Y018711D01*
X028045Y018711D02*
X028004Y018753D01*
X028004Y018795D01*
X028045Y018836D01*
X028129Y018836D01*
X028171Y018795D01*
X028129Y018936D02*
X028171Y018978D01*
X028129Y018936D02*
X028045Y018936D01*
X028004Y018978D01*
X028004Y019061D01*
X028045Y019103D01*
X028087Y019103D01*
X028171Y019061D01*
X028171Y019186D01*
X028004Y019186D01*
X028045Y019286D02*
X028004Y019328D01*
X028004Y019370D01*
X028045Y019411D01*
X028171Y019411D01*
X028171Y019328D01*
X028129Y019286D01*
X028045Y019286D01*
X028171Y019411D02*
X028087Y019495D01*
X028004Y019536D01*
X027894Y019536D02*
X027811Y019453D01*
X027894Y019678D02*
X027894Y019845D01*
X027853Y019986D02*
X027894Y020028D01*
X027894Y020070D01*
X027853Y020111D01*
X027769Y020111D01*
X027728Y020070D01*
X027728Y020028D01*
X027769Y019986D01*
X027853Y019986D01*
X027853Y020111D02*
X027894Y020153D01*
X027894Y020195D01*
X027853Y020236D01*
X027769Y020236D01*
X027728Y020195D01*
X027728Y020153D01*
X027769Y020111D01*
X027618Y019986D02*
X027535Y020070D01*
X027535Y020153D01*
X027618Y020236D01*
X027618Y020336D02*
X027535Y020420D01*
X027535Y020503D01*
X027618Y020586D01*
X027618Y020686D02*
X027535Y020770D01*
X027535Y020853D01*
X027618Y020936D01*
X027618Y021036D02*
X027535Y021120D01*
X027535Y021203D01*
X027618Y021286D01*
X027728Y021286D02*
X027894Y021286D01*
X027728Y020936D02*
X027811Y020895D01*
X027894Y020811D01*
X027769Y020811D01*
X027728Y020770D01*
X027728Y020728D01*
X027769Y020686D01*
X027853Y020686D01*
X027894Y020728D01*
X027894Y020811D01*
X027894Y020586D02*
X027728Y020586D01*
X027728Y020545D01*
X027894Y020378D01*
X027894Y020336D01*
X029017Y020336D02*
X029183Y020336D01*
X029017Y020503D01*
X029017Y020545D01*
X029058Y020586D01*
X029142Y020586D01*
X029183Y020545D01*
X029142Y020686D02*
X029183Y020728D01*
X029142Y020686D02*
X029058Y020686D01*
X029017Y020728D01*
X029017Y020770D01*
X029058Y020811D01*
X029100Y020811D01*
X029058Y020811D02*
X029017Y020853D01*
X029017Y020895D01*
X029058Y020936D01*
X029142Y020936D01*
X029183Y020895D01*
X029293Y021036D02*
X029460Y021036D01*
X029376Y021036D02*
X029376Y021286D01*
X029460Y021203D01*
X029611Y021286D02*
X029736Y021286D01*
X029736Y021036D01*
X029736Y020936D02*
X029611Y020936D01*
X029736Y020936D02*
X029736Y020686D01*
X029736Y020586D02*
X029611Y020586D01*
X029736Y020586D02*
X029736Y020336D01*
X029736Y020236D02*
X029611Y020236D01*
X029736Y020236D02*
X029736Y019986D01*
X029736Y019886D02*
X029611Y019886D01*
X029736Y019886D02*
X029736Y019636D01*
X029736Y019536D02*
X029611Y019536D01*
X029736Y019536D02*
X029736Y019286D01*
X029736Y019186D02*
X029611Y019186D01*
X029736Y019186D02*
X029736Y018936D01*
X029736Y018836D02*
X029611Y018836D01*
X029736Y018836D02*
X029736Y018586D01*
X029736Y018486D02*
X029611Y018486D01*
X029736Y018486D02*
X029736Y018236D01*
X029845Y018278D02*
X029845Y018445D01*
X029887Y018486D01*
X030012Y018486D01*
X030012Y018236D01*
X029887Y018236D01*
X029845Y018278D01*
X030121Y018278D02*
X030121Y018445D01*
X030163Y018486D01*
X030288Y018486D01*
X030288Y018236D01*
X030163Y018236D01*
X030121Y018278D01*
X030398Y018236D02*
X030398Y018403D01*
X030481Y018486D01*
X030564Y018403D01*
X030564Y018236D01*
X030564Y018361D02*
X030398Y018361D01*
X030398Y018586D02*
X030398Y018753D01*
X030481Y018836D01*
X030564Y018753D01*
X030564Y018586D01*
X030564Y018711D02*
X030398Y018711D01*
X030288Y018586D02*
X030163Y018586D01*
X030121Y018628D01*
X030121Y018795D01*
X030163Y018836D01*
X030288Y018836D01*
X030288Y018586D01*
X030012Y018586D02*
X029887Y018586D01*
X029845Y018628D01*
X029845Y018795D01*
X029887Y018836D01*
X030012Y018836D01*
X030012Y018586D01*
X030012Y018936D02*
X029887Y018936D01*
X029845Y018978D01*
X029845Y019145D01*
X029887Y019186D01*
X030012Y019186D01*
X030012Y018936D01*
X030121Y018978D02*
X030121Y019145D01*
X030163Y019186D01*
X030288Y019186D01*
X030288Y018936D01*
X030163Y018936D01*
X030121Y018978D01*
X030398Y018936D02*
X030398Y019103D01*
X030481Y019186D01*
X030564Y019103D01*
X030564Y018936D01*
X030564Y019061D02*
X030398Y019061D01*
X030398Y019286D02*
X030398Y019453D01*
X030481Y019536D01*
X030564Y019453D01*
X030564Y019286D01*
X030564Y019411D02*
X030398Y019411D01*
X030288Y019286D02*
X030163Y019286D01*
X030121Y019328D01*
X030121Y019495D01*
X030163Y019536D01*
X030288Y019536D01*
X030288Y019286D01*
X030012Y019286D02*
X029887Y019286D01*
X029845Y019328D01*
X029845Y019495D01*
X029887Y019536D01*
X030012Y019536D01*
X030012Y019286D01*
X030012Y019636D02*
X029887Y019636D01*
X029845Y019678D01*
X029845Y019845D01*
X029887Y019886D01*
X030012Y019886D01*
X030012Y019636D01*
X030121Y019678D02*
X030121Y019845D01*
X030163Y019886D01*
X030288Y019886D01*
X030288Y019636D01*
X030163Y019636D01*
X030121Y019678D01*
X030398Y019636D02*
X030398Y019803D01*
X030481Y019886D01*
X030564Y019803D01*
X030564Y019636D01*
X030564Y019761D02*
X030398Y019761D01*
X030398Y019986D02*
X030398Y020153D01*
X030481Y020236D01*
X030564Y020153D01*
X030564Y019986D01*
X030564Y020111D02*
X030398Y020111D01*
X030288Y020236D02*
X030288Y019986D01*
X030163Y019986D01*
X030121Y020028D01*
X030121Y020195D01*
X030163Y020236D01*
X030288Y020236D01*
X030288Y020336D02*
X030163Y020336D01*
X030121Y020378D01*
X030121Y020545D01*
X030163Y020586D01*
X030288Y020586D01*
X030288Y020336D01*
X030398Y020336D02*
X030398Y020503D01*
X030481Y020586D01*
X030564Y020503D01*
X030564Y020336D01*
X030564Y020461D02*
X030398Y020461D01*
X030398Y020686D02*
X030398Y020853D01*
X030481Y020936D01*
X030564Y020853D01*
X030564Y020686D01*
X030564Y020811D02*
X030398Y020811D01*
X030288Y020936D02*
X030288Y020686D01*
X030163Y020686D01*
X030121Y020728D01*
X030121Y020895D01*
X030163Y020936D01*
X030288Y020936D01*
X030288Y021036D02*
X030163Y021036D01*
X030121Y021078D01*
X030121Y021245D01*
X030163Y021286D01*
X030288Y021286D01*
X030288Y021036D01*
X030398Y021036D02*
X030398Y021203D01*
X030481Y021286D01*
X030564Y021203D01*
X030564Y021036D01*
X030564Y021161D02*
X030398Y021161D01*
X030398Y021386D02*
X030398Y021553D01*
X030481Y021636D01*
X030564Y021553D01*
X030564Y021386D01*
X030564Y021511D02*
X030398Y021511D01*
X030288Y021636D02*
X030288Y021386D01*
X030163Y021386D01*
X030121Y021428D01*
X030121Y021595D01*
X030163Y021636D01*
X030288Y021636D01*
X030288Y021736D02*
X030163Y021736D01*
X030121Y021778D01*
X030121Y021945D01*
X030163Y021986D01*
X030288Y021986D01*
X030288Y021736D01*
X030398Y021736D02*
X030398Y021903D01*
X030481Y021986D01*
X030564Y021903D01*
X030564Y021736D01*
X030564Y021861D02*
X030398Y021861D01*
X030398Y022086D02*
X030398Y022253D01*
X030481Y022336D01*
X030564Y022253D01*
X030564Y022086D01*
X030564Y022211D02*
X030398Y022211D01*
X030288Y022336D02*
X030288Y022086D01*
X030163Y022086D01*
X030121Y022128D01*
X030121Y022295D01*
X030163Y022336D01*
X030288Y022336D01*
X030288Y022436D02*
X030121Y022436D01*
X030012Y022436D02*
X030012Y022686D01*
X029929Y022603D01*
X029845Y022686D01*
X029845Y022436D01*
X029887Y022336D02*
X030012Y022336D01*
X030012Y022086D01*
X029887Y022086D01*
X029845Y022128D01*
X029845Y022295D01*
X029887Y022336D01*
X029736Y022478D02*
X029694Y022436D01*
X029611Y022436D01*
X029569Y022478D01*
X029569Y022645D01*
X029611Y022686D01*
X029694Y022686D01*
X029736Y022645D01*
X029736Y022478D01*
X030121Y022686D02*
X030288Y022686D01*
X030288Y022436D01*
X030398Y022436D02*
X030398Y022686D01*
X030481Y022603D01*
X030564Y022686D01*
X030564Y022436D01*
X030288Y022561D02*
X030205Y022561D01*
X030012Y021986D02*
X029887Y021986D01*
X029845Y021945D01*
X029845Y021778D01*
X029887Y021736D01*
X030012Y021736D01*
X030012Y021986D01*
X029736Y021986D02*
X029736Y021736D01*
X029736Y021636D02*
X029611Y021636D01*
X029736Y021636D02*
X029736Y021386D01*
X029845Y021428D02*
X029845Y021595D01*
X029887Y021636D01*
X030012Y021636D01*
X030012Y021386D01*
X029887Y021386D01*
X029845Y021428D01*
X029887Y021286D02*
X030012Y021286D01*
X030012Y021036D01*
X029887Y021036D01*
X029845Y021078D01*
X029845Y021245D01*
X029887Y021286D01*
X029887Y020936D02*
X030012Y020936D01*
X030012Y020686D01*
X029887Y020686D01*
X029845Y020728D01*
X029845Y020895D01*
X029887Y020936D01*
X029887Y020586D02*
X030012Y020586D01*
X030012Y020336D01*
X029887Y020336D01*
X029845Y020378D01*
X029845Y020545D01*
X029887Y020586D01*
X029887Y020236D02*
X030012Y020236D01*
X030012Y019986D01*
X029887Y019986D01*
X029845Y020028D01*
X029845Y020195D01*
X029887Y020236D01*
X029460Y020153D02*
X029376Y020236D01*
X029376Y019986D01*
X029293Y019986D02*
X029460Y019986D01*
X029376Y019886D02*
X029376Y019636D01*
X029293Y019636D02*
X029460Y019636D01*
X029418Y019536D02*
X029460Y019495D01*
X029460Y019453D01*
X029418Y019411D01*
X029293Y019411D01*
X029293Y019328D02*
X029293Y019495D01*
X029334Y019536D01*
X029418Y019536D01*
X029460Y019328D02*
X029418Y019286D01*
X029334Y019286D01*
X029293Y019328D01*
X029334Y019186D02*
X029293Y019145D01*
X029293Y019103D01*
X029334Y019061D01*
X029418Y019061D01*
X029460Y019103D01*
X029460Y019145D01*
X029418Y019186D01*
X029334Y019186D01*
X029334Y019061D02*
X029293Y019020D01*
X029293Y018978D01*
X029334Y018936D01*
X029418Y018936D01*
X029460Y018978D01*
X029460Y019020D01*
X029418Y019061D01*
X029460Y018836D02*
X029293Y018836D01*
X029293Y018795D01*
X029460Y018628D01*
X029460Y018586D01*
X029376Y018445D02*
X029460Y018361D01*
X029334Y018361D01*
X029293Y018320D01*
X029293Y018278D01*
X029334Y018236D01*
X029418Y018236D01*
X029460Y018278D01*
X029460Y018361D01*
X029376Y018445D02*
X029293Y018486D01*
X029293Y018136D02*
X029460Y018136D01*
X028723Y017786D02*
X028723Y017536D01*
X028723Y017620D02*
X028598Y017620D01*
X028556Y017661D01*
X028556Y017745D01*
X028598Y017786D01*
X028723Y017786D01*
X028447Y017745D02*
X028447Y017703D01*
X028405Y017661D01*
X028322Y017661D01*
X028280Y017620D01*
X028280Y017578D01*
X028322Y017536D01*
X028405Y017536D01*
X028447Y017578D01*
X028447Y017620D01*
X028405Y017661D01*
X028322Y017661D02*
X028280Y017703D01*
X028280Y017745D01*
X028322Y017786D01*
X028405Y017786D01*
X028447Y017745D01*
X028447Y017436D02*
X028280Y017436D01*
X028280Y017395D01*
X028447Y017228D01*
X028447Y017186D01*
X028405Y017086D02*
X028447Y017045D01*
X028405Y017086D02*
X028322Y017086D01*
X028280Y017045D01*
X028280Y017003D01*
X028447Y016836D01*
X028280Y016836D01*
X028598Y017270D02*
X028723Y017270D01*
X028723Y017186D02*
X028723Y017436D01*
X028598Y017436D01*
X028556Y017395D01*
X028556Y017311D01*
X028598Y017270D01*
X028045Y016386D02*
X028171Y016261D01*
X028004Y016261D01*
X027894Y016303D02*
X027811Y016386D01*
X027811Y016136D01*
X027894Y016136D02*
X027728Y016136D01*
X027618Y016136D02*
X027535Y016220D01*
X027535Y016303D01*
X027618Y016386D01*
X028045Y016386D02*
X028045Y016136D01*
X028045Y016036D02*
X028004Y015995D01*
X028004Y015953D01*
X028045Y015911D01*
X028004Y015870D01*
X028004Y015828D01*
X028045Y015786D01*
X028129Y015786D01*
X028171Y015828D01*
X028087Y015911D02*
X028045Y015911D01*
X028045Y016036D02*
X028129Y016036D01*
X028171Y015995D01*
X027894Y016036D02*
X027811Y015953D01*
X027811Y015870D01*
X027894Y015786D01*
X027894Y015686D02*
X027811Y015603D01*
X027811Y015520D01*
X027894Y015436D01*
X027894Y015336D02*
X027811Y015253D01*
X027811Y015170D01*
X027894Y015086D01*
X027894Y014986D02*
X027811Y014903D01*
X027811Y014820D01*
X027894Y014736D01*
X027894Y014636D02*
X027811Y014553D01*
X027811Y014470D01*
X027894Y014386D01*
X027894Y014286D02*
X027811Y014203D01*
X027811Y014120D01*
X027894Y014036D01*
X027894Y013936D02*
X027811Y013853D01*
X027811Y013770D01*
X027894Y013686D01*
X027894Y013586D02*
X027811Y013503D01*
X027811Y013420D01*
X027894Y013336D01*
X027853Y013236D02*
X027769Y013236D01*
X027728Y013195D01*
X027894Y013028D01*
X027853Y012986D01*
X027769Y012986D01*
X027728Y013028D01*
X027728Y013195D01*
X027618Y013236D02*
X027535Y013153D01*
X027535Y013070D01*
X027618Y012986D01*
X027618Y012886D02*
X027535Y012803D01*
X027535Y012720D01*
X027618Y012636D01*
X027728Y012845D02*
X027894Y012678D01*
X027894Y012636D01*
X028004Y012678D02*
X028045Y012636D01*
X028129Y012636D01*
X028171Y012678D01*
X028280Y012636D02*
X028447Y012636D01*
X028363Y012636D02*
X028363Y012886D01*
X028447Y012803D01*
X028556Y012761D02*
X028598Y012720D01*
X028723Y012720D01*
X028723Y012636D02*
X028723Y012886D01*
X028598Y012886D01*
X028556Y012845D01*
X028556Y012761D01*
X028640Y012536D02*
X028640Y012286D01*
X028723Y012286D02*
X028556Y012286D01*
X028447Y012286D02*
X028280Y012453D01*
X028280Y012495D01*
X028322Y012536D01*
X028405Y012536D01*
X028447Y012495D01*
X028640Y012536D02*
X028723Y012453D01*
X028832Y012411D02*
X028874Y012370D01*
X028999Y012370D01*
X028999Y012286D02*
X028999Y012536D01*
X028874Y012536D01*
X028832Y012495D01*
X028832Y012411D01*
X028824Y012636D02*
X028907Y012720D01*
X028907Y012803D01*
X028824Y012886D01*
X028824Y012986D02*
X028907Y013070D01*
X028907Y013153D01*
X028824Y013236D01*
X028824Y013336D02*
X028907Y013420D01*
X028907Y013503D01*
X028824Y013586D01*
X028824Y013686D02*
X028907Y013770D01*
X028907Y013853D01*
X028824Y013936D01*
X028824Y014036D02*
X028907Y014120D01*
X028907Y014203D01*
X028824Y014286D01*
X028824Y014386D02*
X028907Y014470D01*
X028907Y014553D01*
X028824Y014636D01*
X028824Y014736D02*
X028907Y014820D01*
X028907Y014903D01*
X028824Y014986D01*
X028824Y015086D02*
X028907Y015170D01*
X028907Y015253D01*
X028824Y015336D01*
X028824Y015436D02*
X028907Y015520D01*
X028907Y015603D01*
X028824Y015686D01*
X028723Y015336D02*
X028598Y015336D01*
X028556Y015295D01*
X028556Y015211D01*
X028598Y015170D01*
X028723Y015170D01*
X028723Y015086D02*
X028723Y015336D01*
X028447Y015295D02*
X028405Y015336D01*
X028322Y015336D01*
X028280Y015295D01*
X028280Y015253D01*
X028447Y015086D01*
X028280Y015086D01*
X028171Y015128D02*
X028004Y015295D01*
X028004Y015128D01*
X028045Y015086D01*
X028129Y015086D01*
X028171Y015128D01*
X028171Y015295D01*
X028129Y015336D01*
X028045Y015336D01*
X028004Y015295D01*
X028004Y015436D02*
X028171Y015436D01*
X028087Y015436D02*
X028087Y015686D01*
X028171Y015603D01*
X028280Y015603D02*
X028280Y015645D01*
X028322Y015686D01*
X028280Y015603D02*
X028447Y015436D01*
X028280Y015436D01*
X028363Y014986D02*
X028363Y014736D01*
X028280Y014736D02*
X028447Y014736D01*
X028363Y014636D02*
X028363Y014386D01*
X028280Y014386D02*
X028447Y014386D01*
X028363Y014286D02*
X028363Y014036D01*
X028280Y014036D02*
X028447Y014036D01*
X028363Y013936D02*
X028363Y013686D01*
X028280Y013686D02*
X028447Y013686D01*
X028363Y013586D02*
X028363Y013336D01*
X028280Y013336D02*
X028447Y013336D01*
X028363Y013236D02*
X028363Y012986D01*
X028280Y012986D02*
X028447Y012986D01*
X028556Y013111D02*
X028598Y013070D01*
X028723Y013070D01*
X028723Y012986D02*
X028723Y013236D01*
X028598Y013236D01*
X028556Y013195D01*
X028556Y013111D01*
X028447Y013153D02*
X028363Y013236D01*
X028171Y013111D02*
X028004Y013111D01*
X028045Y012986D02*
X028045Y013236D01*
X028171Y013111D01*
X028129Y012886D02*
X028045Y012886D01*
X028004Y012845D01*
X028004Y012803D01*
X028045Y012761D01*
X028004Y012720D01*
X028004Y012678D01*
X028045Y012761D02*
X028087Y012761D01*
X028171Y012845D02*
X028129Y012886D01*
X027894Y012886D02*
X027728Y012886D01*
X027728Y012845D01*
X027894Y013028D02*
X027894Y013195D01*
X027853Y013236D01*
X028004Y013378D02*
X028045Y013336D01*
X028129Y013336D01*
X028171Y013378D01*
X028087Y013461D02*
X028045Y013461D01*
X028004Y013420D01*
X028004Y013378D01*
X028045Y013461D02*
X028004Y013503D01*
X028004Y013545D01*
X028045Y013586D01*
X028129Y013586D01*
X028171Y013545D01*
X028045Y013686D02*
X028045Y013936D01*
X028171Y013811D01*
X028004Y013811D01*
X028045Y014036D02*
X028129Y014036D01*
X028171Y014078D01*
X028171Y014161D02*
X028087Y014203D01*
X028045Y014203D01*
X028004Y014161D01*
X028004Y014078D01*
X028045Y014036D01*
X028171Y014161D02*
X028171Y014286D01*
X028004Y014286D01*
X028171Y014386D02*
X028171Y014428D01*
X028004Y014595D01*
X028004Y014636D01*
X028171Y014636D01*
X028129Y014736D02*
X028171Y014778D01*
X028171Y014820D01*
X028129Y014861D01*
X028045Y014861D01*
X028004Y014820D01*
X028004Y014778D01*
X028045Y014736D01*
X028129Y014736D01*
X028129Y014861D02*
X028171Y014903D01*
X028171Y014945D01*
X028129Y014986D01*
X028045Y014986D01*
X028004Y014945D01*
X028004Y014903D01*
X028045Y014861D01*
X028363Y014986D02*
X028447Y014903D01*
X028556Y014861D02*
X028598Y014820D01*
X028723Y014820D01*
X028723Y014736D02*
X028723Y014986D01*
X028598Y014986D01*
X028556Y014945D01*
X028556Y014861D01*
X028598Y014636D02*
X028556Y014595D01*
X028556Y014511D01*
X028598Y014470D01*
X028723Y014470D01*
X028723Y014386D02*
X028723Y014636D01*
X028598Y014636D01*
X028447Y014553D02*
X028363Y014636D01*
X028363Y014286D02*
X028447Y014203D01*
X028556Y014161D02*
X028598Y014120D01*
X028723Y014120D01*
X028723Y014036D02*
X028723Y014286D01*
X028598Y014286D01*
X028556Y014245D01*
X028556Y014161D01*
X028598Y013936D02*
X028556Y013895D01*
X028556Y013811D01*
X028598Y013770D01*
X028723Y013770D01*
X028723Y013686D02*
X028723Y013936D01*
X028598Y013936D01*
X028447Y013853D02*
X028363Y013936D01*
X028363Y013586D02*
X028447Y013503D01*
X028556Y013461D02*
X028598Y013420D01*
X028723Y013420D01*
X028723Y013336D02*
X028723Y013586D01*
X028598Y013586D01*
X028556Y013545D01*
X028556Y013461D01*
X029293Y013236D02*
X029293Y012986D01*
X029460Y013236D01*
X029460Y012986D01*
X029460Y012886D02*
X029293Y012636D01*
X029293Y012886D01*
X029460Y012886D02*
X029460Y012636D01*
X029569Y012595D02*
X029736Y012595D01*
X029736Y012536D02*
X029569Y012286D01*
X029569Y012536D01*
X029736Y012536D02*
X029736Y012286D01*
X029736Y012186D02*
X029569Y011936D01*
X029569Y012186D01*
X029736Y012186D02*
X029736Y011936D01*
X029736Y011836D02*
X029569Y011586D01*
X029569Y011836D01*
X029736Y011836D02*
X029736Y011586D01*
X029736Y011486D02*
X029569Y011236D01*
X029569Y011486D01*
X029736Y011486D02*
X029736Y011236D01*
X029845Y011195D02*
X030012Y011195D01*
X030121Y011236D02*
X030288Y011236D01*
X030288Y011486D01*
X030121Y011486D01*
X030121Y011586D02*
X030288Y011586D01*
X030288Y011836D01*
X030121Y011836D01*
X030163Y011936D02*
X030288Y011936D01*
X030288Y012186D01*
X030163Y012186D01*
X030121Y012145D01*
X030121Y012103D01*
X030163Y012061D01*
X030288Y012061D01*
X030163Y012061D02*
X030121Y012020D01*
X030121Y011978D01*
X030163Y011936D01*
X030012Y011895D02*
X029845Y011895D01*
X029845Y012245D02*
X030012Y012245D01*
X030121Y012328D02*
X030163Y012286D01*
X030288Y012286D01*
X030288Y012536D01*
X030163Y012536D01*
X030121Y012495D01*
X030121Y012453D01*
X030163Y012411D01*
X030288Y012411D01*
X030163Y012411D02*
X030121Y012370D01*
X030121Y012328D01*
X030398Y012286D02*
X030564Y012286D01*
X030564Y012536D01*
X030523Y012636D02*
X030439Y012636D01*
X030398Y012678D01*
X030288Y012636D02*
X030288Y012886D01*
X030121Y012886D01*
X030012Y012803D02*
X029929Y012886D01*
X029929Y012636D01*
X030012Y012636D02*
X029845Y012636D01*
X030121Y012636D02*
X030288Y012636D01*
X030288Y012761D02*
X030205Y012761D01*
X030398Y012845D02*
X030439Y012886D01*
X030523Y012886D01*
X030564Y012845D01*
X030564Y012678D01*
X030523Y012636D01*
X030523Y012986D02*
X030439Y012986D01*
X030398Y013028D01*
X030523Y012986D02*
X030564Y013028D01*
X030564Y013195D01*
X030523Y013236D01*
X030439Y013236D01*
X030398Y013195D01*
X030288Y013111D02*
X030205Y013111D01*
X029736Y012945D02*
X029569Y012945D01*
X029100Y012536D02*
X029183Y012453D01*
X029183Y012370D01*
X029100Y012286D01*
X029100Y012186D02*
X029183Y012103D01*
X029183Y012020D01*
X029100Y011936D01*
X029100Y011836D02*
X029183Y011753D01*
X029183Y011670D01*
X029100Y011586D01*
X029100Y011486D02*
X029183Y011403D01*
X029183Y011320D01*
X029100Y011236D01*
X028999Y011236D02*
X028999Y011486D01*
X028874Y011486D01*
X028832Y011445D01*
X028832Y011361D01*
X028874Y011320D01*
X028999Y011320D01*
X028999Y011586D02*
X028999Y011836D01*
X028874Y011836D01*
X028832Y011795D01*
X028832Y011711D01*
X028874Y011670D01*
X028999Y011670D01*
X028999Y011936D02*
X028999Y012186D01*
X028874Y012186D01*
X028832Y012145D01*
X028832Y012061D01*
X028874Y012020D01*
X028999Y012020D01*
X028723Y012103D02*
X028640Y012186D01*
X028640Y011936D01*
X028723Y011936D02*
X028556Y011936D01*
X028447Y011936D02*
X028280Y011936D01*
X028363Y011936D02*
X028363Y012186D01*
X028447Y012103D01*
X028447Y012286D02*
X028280Y012286D01*
X028171Y012286D02*
X028087Y012370D01*
X028087Y012453D01*
X028171Y012536D01*
X028171Y012186D02*
X028087Y012103D01*
X028087Y012020D01*
X028171Y011936D01*
X028171Y011836D02*
X028087Y011753D01*
X028087Y011670D01*
X028171Y011586D01*
X028171Y011486D02*
X028087Y011403D01*
X028087Y011320D01*
X028171Y011236D01*
X028322Y011236D02*
X028322Y011486D01*
X028447Y011361D01*
X028280Y011361D01*
X028322Y011586D02*
X028405Y011586D01*
X028447Y011628D01*
X028280Y011795D01*
X028280Y011628D01*
X028322Y011586D01*
X028447Y011628D02*
X028447Y011795D01*
X028405Y011836D01*
X028322Y011836D01*
X028280Y011795D01*
X028556Y011586D02*
X028723Y011586D01*
X028640Y011586D02*
X028640Y011836D01*
X028723Y011753D01*
X028681Y011486D02*
X028723Y011445D01*
X028681Y011486D02*
X028598Y011486D01*
X028556Y011445D01*
X028556Y011403D01*
X028723Y011236D01*
X028556Y011236D01*
X029845Y011545D02*
X030012Y011545D01*
X030205Y011711D02*
X030288Y011711D01*
X030398Y011628D02*
X030398Y011795D01*
X030439Y011836D01*
X030523Y011836D01*
X030564Y011795D01*
X030564Y011628D01*
X030523Y011586D01*
X030439Y011586D01*
X030398Y011628D01*
X030398Y011486D02*
X030398Y011236D01*
X030481Y011320D01*
X030564Y011236D01*
X030564Y011486D01*
X030288Y011361D02*
X030205Y011361D01*
X030439Y011936D02*
X030398Y011978D01*
X030398Y012186D01*
X030564Y012186D02*
X030564Y011978D01*
X030523Y011936D01*
X030439Y011936D01*
X029460Y014036D02*
X029293Y014036D01*
X029334Y014736D02*
X029334Y014986D01*
X029460Y014861D01*
X029293Y014861D01*
X031837Y016886D02*
X031837Y017136D01*
X031962Y017011D01*
X031795Y017011D01*
X031795Y017261D02*
X031962Y017261D01*
X031795Y017428D01*
X031795Y017470D01*
X031837Y017511D01*
X031920Y017511D01*
X031962Y017470D01*
X032071Y017511D02*
X032238Y017511D01*
X032238Y017386D01*
X032155Y017428D01*
X032113Y017428D01*
X032071Y017386D01*
X032071Y017303D01*
X032113Y017261D01*
X032197Y017261D01*
X032238Y017303D01*
X032348Y017303D02*
X032389Y017261D01*
X032473Y017261D01*
X032514Y017303D01*
X032514Y017470D01*
X032473Y017511D01*
X032389Y017511D01*
X032348Y017470D01*
X032389Y017136D02*
X032473Y017136D01*
X032514Y017095D01*
X032514Y016928D01*
X032473Y016886D01*
X032389Y016886D01*
X032348Y016928D01*
X032238Y016928D02*
X032197Y016886D01*
X032113Y016886D01*
X032071Y016928D01*
X032071Y017011D01*
X032113Y017053D01*
X032155Y017053D01*
X032238Y017011D01*
X032238Y017136D01*
X032071Y017136D01*
X032348Y017095D02*
X032389Y017136D01*
X034236Y018934D02*
X034278Y018893D01*
X034361Y018893D01*
X034403Y018934D01*
X034403Y019018D02*
X034319Y019059D01*
X034278Y019059D01*
X034236Y019018D01*
X034236Y018934D01*
X034403Y019018D02*
X034403Y019143D01*
X034236Y019143D01*
X034512Y019101D02*
X034554Y019143D01*
X034679Y019143D01*
X034679Y018893D01*
X034554Y018893D01*
X034512Y018934D01*
X034512Y019101D01*
X035210Y019143D02*
X035293Y019101D01*
X035376Y019018D01*
X035251Y019018D01*
X035210Y018976D01*
X035210Y018934D01*
X035251Y018893D01*
X035335Y018893D01*
X035376Y018934D01*
X035376Y019018D01*
X035486Y018893D02*
X035653Y018893D01*
X035569Y018893D02*
X035569Y019143D01*
X035653Y019059D01*
X035762Y019101D02*
X035804Y019143D01*
X035929Y019143D01*
X035929Y018893D01*
X035804Y018893D01*
X035762Y018934D01*
X035762Y019101D01*
X036335Y019101D02*
X036501Y018934D01*
X036460Y018893D01*
X036376Y018893D01*
X036335Y018934D01*
X036335Y019101D01*
X036376Y019143D01*
X036460Y019143D01*
X036501Y019101D01*
X036501Y018934D01*
X036611Y018893D02*
X036778Y018893D01*
X036694Y018893D02*
X036694Y019143D01*
X036778Y019059D01*
X036887Y019101D02*
X036929Y019143D01*
X037054Y019143D01*
X037054Y018893D01*
X036929Y018893D01*
X036887Y018934D01*
X036887Y019101D01*
X037664Y018439D02*
X037706Y018480D01*
X037873Y018480D01*
X037915Y018439D01*
X037915Y018355D01*
X037873Y018314D01*
X037831Y018314D01*
X037790Y018355D01*
X037790Y018480D01*
X037664Y018439D02*
X037664Y018355D01*
X037706Y018314D01*
X037706Y018204D02*
X037748Y018204D01*
X037790Y018163D01*
X037790Y018037D01*
X037706Y018037D01*
X037664Y018079D01*
X037664Y018163D01*
X037706Y018204D01*
X037873Y018121D02*
X037790Y018037D01*
X037790Y017928D02*
X037748Y017886D01*
X037748Y017761D01*
X037664Y017761D02*
X037915Y017761D01*
X037915Y017886D01*
X037873Y017928D01*
X037790Y017928D01*
X037748Y017845D02*
X037664Y017928D01*
X037873Y018121D02*
X037915Y018204D01*
X037179Y020143D02*
X037054Y020143D01*
X037012Y020184D01*
X037012Y020351D01*
X037054Y020393D01*
X037179Y020393D01*
X037179Y020143D01*
X036903Y020143D02*
X036736Y020143D01*
X036819Y020143D02*
X036819Y020393D01*
X036903Y020309D01*
X036626Y020309D02*
X036543Y020393D01*
X036543Y020143D01*
X036626Y020143D02*
X036460Y020143D01*
X035929Y020143D02*
X035804Y020143D01*
X035762Y020184D01*
X035762Y020351D01*
X035804Y020393D01*
X035929Y020393D01*
X035929Y020143D01*
X035653Y020143D02*
X035486Y020143D01*
X035569Y020143D02*
X035569Y020393D01*
X035653Y020309D01*
X035376Y020393D02*
X035210Y020393D01*
X035210Y020351D01*
X035376Y020184D01*
X035376Y020143D01*
X034804Y020143D02*
X034679Y020143D01*
X034637Y020184D01*
X034637Y020351D01*
X034679Y020393D01*
X034804Y020393D01*
X034804Y020143D01*
X034528Y020184D02*
X034486Y020143D01*
X034403Y020143D01*
X034361Y020184D01*
X034361Y020226D01*
X034403Y020268D01*
X034444Y020268D01*
X034403Y020268D02*
X034361Y020309D01*
X034361Y020351D01*
X034403Y020393D01*
X034486Y020393D01*
X034528Y020351D01*
X032389Y022053D02*
X032348Y022011D01*
X032264Y022011D01*
X032223Y022053D01*
X032113Y022053D02*
X032072Y022011D01*
X031988Y022011D01*
X031946Y022053D01*
X031946Y022136D01*
X031988Y022178D01*
X032030Y022178D01*
X032113Y022136D01*
X032113Y022261D01*
X031946Y022261D01*
X031837Y022261D02*
X031837Y022136D01*
X031754Y022178D01*
X031712Y022178D01*
X031670Y022136D01*
X031670Y022053D01*
X031712Y022011D01*
X031795Y022011D01*
X031837Y022053D01*
X031837Y022261D02*
X031670Y022261D01*
X031712Y022386D02*
X031712Y022636D01*
X031837Y022511D01*
X031670Y022511D01*
X031946Y022511D02*
X032113Y022511D01*
X031988Y022636D01*
X031988Y022386D01*
X032223Y022386D02*
X032306Y022470D01*
X032264Y022470D02*
X032389Y022470D01*
X032389Y022386D02*
X032389Y022636D01*
X032264Y022636D01*
X032223Y022595D01*
X032223Y022511D01*
X032264Y022470D01*
X032264Y022261D02*
X032348Y022261D01*
X032389Y022220D01*
X032389Y022053D01*
X032223Y022220D02*
X032264Y022261D01*
X033821Y023097D02*
X033821Y023222D01*
X033862Y023264D01*
X034029Y023264D01*
X034071Y023222D01*
X034071Y023097D01*
X033821Y023097D01*
X033821Y023373D02*
X033821Y023540D01*
X033821Y023456D02*
X034071Y023456D01*
X033988Y023373D01*
X033639Y023636D02*
X033639Y023886D01*
X033514Y023886D01*
X033473Y023845D01*
X033473Y023761D01*
X033514Y023720D01*
X033639Y023720D01*
X033556Y023720D02*
X033473Y023636D01*
X033363Y023761D02*
X033196Y023761D01*
X033238Y023636D02*
X033238Y023886D01*
X033363Y023761D01*
X033087Y023678D02*
X033045Y023636D01*
X032962Y023636D01*
X032920Y023678D01*
X032920Y023720D01*
X032962Y023761D01*
X033004Y023761D01*
X032962Y023761D02*
X032920Y023803D01*
X032920Y023845D01*
X032962Y023886D01*
X033045Y023886D01*
X033087Y023845D01*
X032473Y025886D02*
X032389Y025886D01*
X032348Y025928D01*
X032238Y025928D02*
X032197Y025886D01*
X032113Y025886D01*
X032071Y025928D01*
X032071Y026011D01*
X032113Y026053D01*
X032155Y026053D01*
X032238Y026011D01*
X032238Y026136D01*
X032071Y026136D01*
X031962Y026095D02*
X031920Y026136D01*
X031837Y026136D01*
X031795Y026095D01*
X031795Y026053D01*
X031837Y026011D01*
X031795Y025970D01*
X031795Y025928D01*
X031837Y025886D01*
X031920Y025886D01*
X031962Y025928D01*
X031879Y026011D02*
X031837Y026011D01*
X031795Y026261D02*
X031962Y026261D01*
X031879Y026261D02*
X031879Y026511D01*
X031962Y026428D01*
X032071Y026386D02*
X032071Y026303D01*
X032113Y026261D01*
X032197Y026261D01*
X032238Y026303D01*
X032238Y026386D02*
X032155Y026428D01*
X032113Y026428D01*
X032071Y026386D01*
X032071Y026511D02*
X032238Y026511D01*
X032238Y026386D01*
X032348Y026303D02*
X032389Y026261D01*
X032473Y026261D01*
X032514Y026303D01*
X032514Y026470D01*
X032473Y026511D01*
X032389Y026511D01*
X032348Y026470D01*
X032389Y026136D02*
X032473Y026136D01*
X032514Y026095D01*
X032514Y025928D01*
X032473Y025886D01*
X032348Y026095D02*
X032389Y026136D01*
X034236Y027893D02*
X034403Y027893D01*
X034236Y028059D01*
X034236Y028101D01*
X034278Y028143D01*
X034361Y028143D01*
X034403Y028101D01*
X034512Y028101D02*
X034554Y028143D01*
X034679Y028143D01*
X034679Y027893D01*
X034554Y027893D01*
X034512Y027934D01*
X034512Y028101D01*
X035210Y028143D02*
X035376Y028143D01*
X035376Y028018D01*
X035293Y028059D01*
X035251Y028059D01*
X035210Y028018D01*
X035210Y027934D01*
X035251Y027893D01*
X035335Y027893D01*
X035376Y027934D01*
X035486Y027893D02*
X035653Y027893D01*
X035569Y027893D02*
X035569Y028143D01*
X035653Y028059D01*
X035762Y028101D02*
X035804Y028143D01*
X035929Y028143D01*
X035929Y027893D01*
X035804Y027893D01*
X035762Y027934D01*
X035762Y028101D01*
X036611Y028101D02*
X036653Y028143D01*
X036736Y028143D01*
X036778Y028101D01*
X036778Y028059D01*
X036736Y028018D01*
X036611Y028018D01*
X036611Y028101D02*
X036611Y027934D01*
X036653Y027893D01*
X036736Y027893D01*
X036778Y027934D01*
X036887Y027934D02*
X036887Y028101D01*
X036929Y028143D01*
X037054Y028143D01*
X037054Y027893D01*
X036929Y027893D01*
X036887Y027934D01*
X037664Y027439D02*
X037706Y027480D01*
X037748Y027480D01*
X037790Y027439D01*
X037790Y027314D01*
X037706Y027314D01*
X037664Y027355D01*
X037664Y027439D01*
X037790Y027314D02*
X037873Y027397D01*
X037915Y027480D01*
X037915Y027204D02*
X037873Y027121D01*
X037790Y027037D01*
X037790Y027163D01*
X037748Y027204D01*
X037706Y027204D01*
X037664Y027163D01*
X037664Y027079D01*
X037706Y027037D01*
X037790Y027037D01*
X037790Y026928D02*
X037748Y026886D01*
X037748Y026761D01*
X037664Y026761D02*
X037915Y026761D01*
X037915Y026886D01*
X037873Y026928D01*
X037790Y026928D01*
X037748Y026845D02*
X037664Y026928D01*
X036254Y025141D02*
X036213Y025141D01*
X036171Y025099D01*
X036129Y025141D01*
X036087Y025141D01*
X036046Y025099D01*
X036046Y025016D01*
X036087Y024974D01*
X036046Y024865D02*
X036046Y024698D01*
X036046Y024781D02*
X036296Y024781D01*
X036213Y024698D01*
X036254Y024589D02*
X036296Y024547D01*
X036296Y024422D01*
X036046Y024422D01*
X036046Y024547D01*
X036087Y024589D01*
X036254Y024589D01*
X036254Y024974D02*
X036296Y025016D01*
X036296Y025099D01*
X036254Y025141D01*
X036171Y025099D02*
X036171Y025058D01*
X037664Y024439D02*
X037664Y024355D01*
X037706Y024314D01*
X037790Y024314D02*
X037831Y024397D01*
X037831Y024439D01*
X037790Y024480D01*
X037706Y024480D01*
X037664Y024439D01*
X037790Y024314D02*
X037915Y024314D01*
X037915Y024480D01*
X037915Y024204D02*
X037873Y024121D01*
X037790Y024037D01*
X037790Y024163D01*
X037748Y024204D01*
X037706Y024204D01*
X037664Y024163D01*
X037664Y024079D01*
X037706Y024037D01*
X037790Y024037D01*
X037790Y023928D02*
X037748Y023886D01*
X037748Y023761D01*
X037664Y023761D02*
X037915Y023761D01*
X037915Y023886D01*
X037873Y023928D01*
X037790Y023928D01*
X037748Y023845D02*
X037664Y023928D01*
X037446Y023415D02*
X037404Y023415D01*
X037237Y023248D01*
X037196Y023248D01*
X037237Y023139D02*
X037196Y023097D01*
X037196Y022972D01*
X037446Y022972D01*
X037446Y023097D01*
X037404Y023139D01*
X037237Y023139D01*
X037446Y023248D02*
X037446Y023415D01*
X037873Y021480D02*
X037706Y021314D01*
X037664Y021314D01*
X037706Y021204D02*
X037748Y021204D01*
X037790Y021163D01*
X037790Y021037D01*
X037706Y021037D01*
X037664Y021079D01*
X037664Y021163D01*
X037706Y021204D01*
X037873Y021121D02*
X037790Y021037D01*
X037790Y020928D02*
X037748Y020886D01*
X037748Y020761D01*
X037664Y020761D02*
X037915Y020761D01*
X037915Y020886D01*
X037873Y020928D01*
X037790Y020928D01*
X037748Y020845D02*
X037664Y020928D01*
X037873Y021121D02*
X037915Y021204D01*
X037915Y021314D02*
X037915Y021480D01*
X037873Y021480D01*
X041671Y022353D02*
X041713Y022311D01*
X041797Y022311D01*
X041838Y022353D01*
X041838Y022436D01*
X041713Y022436D01*
X041671Y022395D01*
X041671Y022353D01*
X041755Y022520D02*
X041838Y022436D01*
X041755Y022520D02*
X041671Y022561D01*
X041948Y022520D02*
X041948Y022353D01*
X041989Y022311D01*
X042073Y022311D01*
X042114Y022353D01*
X042114Y022520D01*
X042073Y022561D01*
X041989Y022561D01*
X041948Y022520D01*
X042031Y022395D02*
X041948Y022311D01*
X042055Y019561D02*
X042055Y019311D01*
X042138Y019311D02*
X041971Y019311D01*
X041862Y019311D02*
X041695Y019311D01*
X041779Y019311D02*
X041779Y019561D01*
X041862Y019478D01*
X042055Y019561D02*
X042138Y019478D01*
X042248Y019520D02*
X042248Y019353D01*
X042289Y019311D01*
X042373Y019311D01*
X042414Y019353D01*
X042414Y019520D01*
X042373Y019561D01*
X042289Y019561D01*
X042248Y019520D01*
X042331Y019395D02*
X042248Y019311D01*
X042289Y016561D02*
X042248Y016520D01*
X042248Y016353D01*
X042289Y016311D01*
X042373Y016311D01*
X042414Y016353D01*
X042414Y016520D01*
X042373Y016561D01*
X042289Y016561D01*
X042331Y016395D02*
X042248Y016311D01*
X042138Y016311D02*
X041971Y016311D01*
X042055Y016311D02*
X042055Y016561D01*
X042138Y016478D01*
X041862Y016520D02*
X041862Y016353D01*
X041695Y016520D01*
X041695Y016353D01*
X041737Y016311D01*
X041820Y016311D01*
X041862Y016353D01*
X041862Y016520D02*
X041820Y016561D01*
X041737Y016561D01*
X041695Y016520D01*
X041737Y013561D02*
X041820Y013561D01*
X041862Y013520D01*
X041737Y013561D02*
X041695Y013520D01*
X041695Y013478D01*
X041862Y013311D01*
X041695Y013311D01*
X041971Y013311D02*
X042138Y013311D01*
X042055Y013311D02*
X042055Y013561D01*
X042138Y013478D01*
X042248Y013520D02*
X042248Y013353D01*
X042289Y013311D01*
X042373Y013311D01*
X042414Y013353D01*
X042414Y013520D01*
X042373Y013561D01*
X042289Y013561D01*
X042248Y013520D01*
X042331Y013395D02*
X042248Y013311D01*
X042806Y006980D02*
X042848Y006980D01*
X042890Y006939D01*
X042890Y006814D01*
X042806Y006814D01*
X042764Y006855D01*
X042764Y006939D01*
X042806Y006980D01*
X042973Y006897D02*
X042890Y006814D01*
X042973Y006897D02*
X043015Y006980D01*
X043015Y006704D02*
X042973Y006621D01*
X042890Y006537D01*
X042890Y006663D01*
X042848Y006704D01*
X042806Y006704D01*
X042764Y006663D01*
X042764Y006579D01*
X042806Y006537D01*
X042890Y006537D01*
X042973Y006428D02*
X043015Y006386D01*
X043015Y006303D01*
X042973Y006261D01*
X042806Y006261D01*
X042764Y006303D01*
X042764Y006386D01*
X042806Y006428D01*
X041215Y006386D02*
X041215Y006303D01*
X041173Y006261D01*
X041006Y006261D01*
X040964Y006303D01*
X040964Y006386D01*
X041006Y006428D01*
X041006Y006537D02*
X040964Y006579D01*
X040964Y006663D01*
X041006Y006704D01*
X041048Y006704D01*
X041090Y006663D01*
X041090Y006537D01*
X041006Y006537D01*
X041090Y006537D02*
X041173Y006621D01*
X041215Y006704D01*
X041173Y006814D02*
X041215Y006855D01*
X041215Y006939D01*
X041173Y006980D01*
X041131Y006980D01*
X041090Y006939D01*
X041048Y006980D01*
X041006Y006980D01*
X040964Y006939D01*
X040964Y006855D01*
X041006Y006814D01*
X041090Y006897D02*
X041090Y006939D01*
X041173Y006428D02*
X041215Y006386D01*
X050764Y006379D02*
X050764Y006463D01*
X050806Y006504D01*
X050848Y006504D01*
X050890Y006463D01*
X050890Y006337D01*
X050806Y006337D01*
X050764Y006379D01*
X050890Y006337D02*
X050973Y006421D01*
X051015Y006504D01*
X051015Y006614D02*
X050890Y006614D01*
X050931Y006697D01*
X050931Y006739D01*
X050890Y006780D01*
X050806Y006780D01*
X050764Y006739D01*
X050764Y006655D01*
X050806Y006614D01*
X051015Y006614D02*
X051015Y006780D01*
X050973Y006228D02*
X051015Y006186D01*
X051015Y006103D01*
X050973Y006061D01*
X050806Y006061D01*
X050764Y006103D01*
X050764Y006186D01*
X050806Y006228D01*
X029460Y019803D02*
X029376Y019886D01*
X029183Y019845D02*
X029183Y019678D01*
X029017Y019845D01*
X029017Y019678D01*
X029058Y019636D01*
X029142Y019636D01*
X029183Y019678D01*
X029183Y019845D02*
X029142Y019886D01*
X029058Y019886D01*
X029017Y019845D01*
X029017Y019986D02*
X029183Y019986D01*
X029100Y019986D02*
X029100Y020236D01*
X029183Y020153D01*
X029293Y020336D02*
X029460Y020336D01*
X029376Y020336D02*
X029376Y020586D01*
X029460Y020503D01*
X029460Y020686D02*
X029293Y020686D01*
X029376Y020686D02*
X029376Y020936D01*
X029460Y020853D01*
X029183Y021161D02*
X029017Y021161D01*
X029058Y021036D02*
X029058Y021286D01*
X029183Y021161D01*
X029142Y021386D02*
X029183Y021428D01*
X029142Y021386D02*
X029058Y021386D01*
X029017Y021428D01*
X029017Y021511D01*
X029058Y021553D01*
X029100Y021553D01*
X029183Y021511D01*
X029183Y021636D01*
X029017Y021636D01*
X029376Y021636D02*
X029376Y021386D01*
X029293Y021386D02*
X029460Y021386D01*
X029460Y021553D02*
X029376Y021636D01*
X029569Y021861D02*
X029569Y021945D01*
X029611Y021986D01*
X029736Y021986D01*
X028447Y021986D02*
X028447Y021736D01*
X028447Y021820D02*
X028322Y021820D01*
X028280Y021861D01*
X028280Y021945D01*
X028322Y021986D01*
X028447Y021986D01*
X028447Y021636D02*
X028322Y021636D01*
X028280Y021595D01*
X028280Y021511D01*
X028322Y021470D01*
X028447Y021470D01*
X028447Y021386D02*
X028447Y021636D01*
X025115Y020113D02*
X024990Y019987D01*
X024990Y020154D01*
X025115Y020113D02*
X024864Y020113D01*
X024906Y019878D02*
X024864Y019836D01*
X024864Y019753D01*
X024906Y019711D01*
X025073Y019711D01*
X025115Y019753D01*
X025115Y019836D01*
X025073Y019878D01*
X023865Y019239D02*
X023823Y019280D01*
X023781Y019280D01*
X023740Y019239D01*
X023698Y019280D01*
X023656Y019280D01*
X023614Y019239D01*
X023614Y019155D01*
X023656Y019114D01*
X023656Y019004D02*
X023614Y018963D01*
X023614Y018879D01*
X023656Y018837D01*
X023656Y018728D02*
X023614Y018686D01*
X023614Y018603D01*
X023656Y018561D01*
X023823Y018561D01*
X023865Y018603D01*
X023865Y018686D01*
X023823Y018728D01*
X023823Y018837D02*
X023865Y018879D01*
X023865Y018963D01*
X023823Y019004D01*
X023781Y019004D01*
X023740Y018963D01*
X023698Y019004D01*
X023656Y019004D01*
X023740Y018963D02*
X023740Y018921D01*
X023823Y019114D02*
X023865Y019155D01*
X023865Y019239D01*
X023740Y019239D02*
X023740Y019197D01*
X022618Y019678D02*
X022618Y019845D01*
X022576Y019886D01*
X022493Y019886D01*
X022451Y019845D01*
X022342Y019803D02*
X022259Y019886D01*
X022259Y019636D01*
X022342Y019636D02*
X022175Y019636D01*
X022066Y019678D02*
X022024Y019636D01*
X021941Y019636D01*
X021899Y019678D01*
X021899Y019720D01*
X021941Y019761D01*
X022066Y019761D01*
X022066Y019678D01*
X022066Y019761D02*
X021982Y019845D01*
X021899Y019886D01*
X021468Y019845D02*
X021468Y019678D01*
X021426Y019636D01*
X021343Y019636D01*
X021301Y019678D01*
X021192Y019636D02*
X021025Y019803D01*
X021025Y019845D01*
X021067Y019886D01*
X021150Y019886D01*
X021192Y019845D01*
X021301Y019845D02*
X021343Y019886D01*
X021426Y019886D01*
X021468Y019845D01*
X021192Y019636D02*
X021025Y019636D01*
X020916Y019761D02*
X020749Y019761D01*
X020791Y019636D02*
X020791Y019886D01*
X020916Y019761D01*
X020268Y019845D02*
X020268Y019678D01*
X020226Y019636D01*
X020143Y019636D01*
X020101Y019678D01*
X019992Y019636D02*
X019825Y019803D01*
X019825Y019845D01*
X019867Y019886D01*
X019950Y019886D01*
X019992Y019845D01*
X020101Y019845D02*
X020143Y019886D01*
X020226Y019886D01*
X020268Y019845D01*
X019992Y019636D02*
X019825Y019636D01*
X019716Y019636D02*
X019549Y019803D01*
X019549Y019845D01*
X019591Y019886D01*
X019674Y019886D01*
X019716Y019845D01*
X019716Y019636D02*
X019549Y019636D01*
X019118Y019678D02*
X019118Y019845D01*
X019076Y019886D01*
X018993Y019886D01*
X018951Y019845D01*
X018842Y019803D02*
X018759Y019886D01*
X018759Y019636D01*
X018842Y019636D02*
X018675Y019636D01*
X018566Y019761D02*
X018399Y019761D01*
X018441Y019636D02*
X018441Y019886D01*
X018566Y019761D01*
X018951Y019678D02*
X018993Y019636D01*
X019076Y019636D01*
X019118Y019678D01*
X017715Y020203D02*
X017673Y020161D01*
X017506Y020161D01*
X017464Y020203D01*
X017464Y020286D01*
X017506Y020328D01*
X017464Y020437D02*
X017464Y020604D01*
X017464Y020521D02*
X017715Y020521D01*
X017631Y020437D01*
X017673Y020328D02*
X017715Y020286D01*
X017715Y020203D01*
X017473Y019230D02*
X017515Y019189D01*
X017515Y019105D01*
X017473Y019064D01*
X017473Y018954D02*
X017431Y018954D01*
X017390Y018913D01*
X017348Y018954D01*
X017306Y018954D01*
X017264Y018913D01*
X017264Y018829D01*
X017306Y018787D01*
X017306Y018678D02*
X017264Y018636D01*
X017264Y018553D01*
X017306Y018511D01*
X017473Y018511D01*
X017515Y018553D01*
X017515Y018636D01*
X017473Y018678D01*
X017473Y018787D02*
X017515Y018829D01*
X017515Y018913D01*
X017473Y018954D01*
X017390Y018913D02*
X017390Y018871D01*
X017264Y019064D02*
X017431Y019230D01*
X017473Y019230D01*
X017264Y019230D02*
X017264Y019064D01*
X016265Y019503D02*
X016223Y019461D01*
X016056Y019461D01*
X016014Y019503D01*
X016014Y019586D01*
X016056Y019628D01*
X016014Y019737D02*
X016014Y019904D01*
X016014Y019821D02*
X016265Y019821D01*
X016181Y019737D01*
X016223Y019628D02*
X016265Y019586D01*
X016265Y019503D01*
X016223Y020014D02*
X016265Y020055D01*
X016265Y020139D01*
X016223Y020180D01*
X016181Y020180D01*
X016014Y020014D01*
X016014Y020180D01*
X018399Y021428D02*
X018441Y021386D01*
X018524Y021386D01*
X018566Y021428D01*
X018675Y021386D02*
X018842Y021386D01*
X018759Y021386D02*
X018759Y021636D01*
X018842Y021553D01*
X018951Y021595D02*
X018993Y021636D01*
X019076Y021636D01*
X019118Y021595D01*
X019118Y021428D01*
X019076Y021386D01*
X018993Y021386D01*
X018951Y021428D01*
X018566Y021595D02*
X018524Y021636D01*
X018441Y021636D01*
X018399Y021595D01*
X018399Y021553D01*
X018441Y021511D01*
X018399Y021470D01*
X018399Y021428D01*
X018441Y021511D02*
X018482Y021511D01*
X019295Y022028D02*
X019295Y022070D01*
X019337Y022111D01*
X019462Y022111D01*
X019462Y022028D01*
X019420Y021986D01*
X019337Y021986D01*
X019295Y022028D01*
X019379Y022195D02*
X019462Y022111D01*
X019379Y022195D02*
X019295Y022236D01*
X019655Y022236D02*
X019655Y021986D01*
X019738Y021986D02*
X019571Y021986D01*
X019738Y022153D02*
X019655Y022236D01*
X019848Y022236D02*
X019848Y022028D01*
X019889Y021986D01*
X019973Y021986D01*
X020014Y022028D01*
X020014Y022236D01*
X019950Y021636D02*
X019992Y021595D01*
X019950Y021636D02*
X019867Y021636D01*
X019825Y021595D01*
X019825Y021553D01*
X019992Y021386D01*
X019825Y021386D01*
X019716Y021386D02*
X019549Y021386D01*
X019632Y021386D02*
X019632Y021636D01*
X019716Y021553D01*
X020101Y021595D02*
X020143Y021636D01*
X020226Y021636D01*
X020268Y021595D01*
X020268Y021428D01*
X020226Y021386D01*
X020143Y021386D01*
X020101Y021428D01*
X020699Y021428D02*
X020741Y021386D01*
X020824Y021386D01*
X020866Y021428D01*
X020975Y021386D02*
X021142Y021386D01*
X020975Y021553D01*
X020975Y021595D01*
X021017Y021636D01*
X021100Y021636D01*
X021142Y021595D01*
X021251Y021595D02*
X021293Y021636D01*
X021376Y021636D01*
X021418Y021595D01*
X021418Y021428D01*
X021376Y021386D01*
X021293Y021386D01*
X021251Y021428D01*
X020866Y021595D02*
X020824Y021636D01*
X020741Y021636D01*
X020699Y021595D01*
X020699Y021553D01*
X020741Y021511D01*
X020699Y021470D01*
X020699Y021428D01*
X020741Y021511D02*
X020782Y021511D01*
X021849Y021511D02*
X021849Y021428D01*
X021891Y021386D01*
X021974Y021386D01*
X022016Y021428D01*
X022016Y021511D02*
X021932Y021553D01*
X021891Y021553D01*
X021849Y021511D01*
X021849Y021636D02*
X022016Y021636D01*
X022016Y021511D01*
X022125Y021386D02*
X022292Y021386D01*
X022209Y021386D02*
X022209Y021636D01*
X022292Y021553D01*
X022401Y021595D02*
X022443Y021636D01*
X022526Y021636D01*
X022568Y021595D01*
X022568Y021428D01*
X022526Y021386D01*
X022443Y021386D01*
X022401Y021428D01*
X023314Y020563D02*
X023314Y020479D01*
X023356Y020437D01*
X023356Y020328D02*
X023314Y020286D01*
X023314Y020203D01*
X023356Y020161D01*
X023523Y020161D01*
X023565Y020203D01*
X023565Y020286D01*
X023523Y020328D01*
X023523Y020437D02*
X023565Y020479D01*
X023565Y020563D01*
X023523Y020604D01*
X023481Y020604D01*
X023440Y020563D01*
X023398Y020604D01*
X023356Y020604D01*
X023314Y020563D01*
X023440Y020563D02*
X023440Y020521D01*
X022618Y019678D02*
X022576Y019636D01*
X022493Y019636D01*
X022451Y019678D01*
X020839Y018845D02*
X020839Y018678D01*
X020798Y018636D01*
X020714Y018636D01*
X020673Y018678D01*
X020563Y018636D02*
X020396Y018803D01*
X020396Y018845D01*
X020438Y018886D01*
X020522Y018886D01*
X020563Y018845D01*
X020673Y018845D02*
X020714Y018886D01*
X020798Y018886D01*
X020839Y018845D01*
X020563Y018636D02*
X020396Y018636D01*
X020488Y016436D02*
X020446Y016395D01*
X020446Y016353D01*
X020488Y016311D01*
X020446Y016270D01*
X020446Y016228D01*
X020488Y016186D01*
X020572Y016186D01*
X020613Y016228D01*
X020723Y016228D02*
X020764Y016186D01*
X020848Y016186D01*
X020889Y016228D01*
X020889Y016395D01*
X020848Y016436D01*
X020764Y016436D01*
X020723Y016395D01*
X020613Y016395D02*
X020572Y016436D01*
X020488Y016436D01*
X020488Y016311D02*
X020530Y016311D01*
X020337Y016228D02*
X020170Y016395D01*
X020170Y016228D01*
X020212Y016186D01*
X020295Y016186D01*
X020337Y016228D01*
X020337Y016395D01*
X020295Y016436D01*
X020212Y016436D01*
X020170Y016395D01*
X020388Y016036D02*
X020346Y015995D01*
X020346Y015953D01*
X020388Y015911D01*
X020472Y015911D01*
X020513Y015953D01*
X020513Y015995D01*
X020472Y016036D01*
X020388Y016036D01*
X020388Y015911D02*
X020346Y015870D01*
X020346Y015828D01*
X020388Y015786D01*
X020472Y015786D01*
X020513Y015828D01*
X020513Y015870D01*
X020472Y015911D01*
X020623Y015828D02*
X020664Y015786D01*
X020748Y015786D01*
X020789Y015828D01*
X020789Y015995D01*
X020748Y016036D01*
X020664Y016036D01*
X020623Y015995D01*
X020849Y015086D02*
X021016Y015086D01*
X021016Y014961D01*
X020932Y015003D01*
X020891Y015003D01*
X020849Y014961D01*
X020849Y014878D01*
X020891Y014836D01*
X020974Y014836D01*
X021016Y014878D01*
X021125Y014836D02*
X021292Y014836D01*
X021125Y015003D01*
X021125Y015045D01*
X021167Y015086D01*
X021250Y015086D01*
X021292Y015045D01*
X021401Y015045D02*
X021443Y015086D01*
X021526Y015086D01*
X021568Y015045D01*
X021568Y014878D01*
X021526Y014836D01*
X021443Y014836D01*
X021401Y014878D01*
X021949Y015045D02*
X022116Y014878D01*
X022116Y014836D01*
X022225Y014836D02*
X022392Y014836D01*
X022309Y014836D02*
X022309Y015086D01*
X022392Y015003D01*
X022501Y015045D02*
X022543Y015086D01*
X022626Y015086D01*
X022668Y015045D01*
X022668Y014878D01*
X022626Y014836D01*
X022543Y014836D01*
X022501Y014878D01*
X022116Y015086D02*
X021949Y015086D01*
X021949Y015045D01*
X022017Y015586D02*
X022100Y015586D01*
X022142Y015628D01*
X022251Y015628D02*
X022293Y015586D01*
X022376Y015586D01*
X022418Y015628D01*
X022418Y015795D01*
X022376Y015836D01*
X022293Y015836D01*
X022251Y015795D01*
X022142Y015795D02*
X022100Y015836D01*
X022017Y015836D01*
X021975Y015795D01*
X021975Y015753D01*
X022017Y015711D01*
X021975Y015670D01*
X021975Y015628D01*
X022017Y015586D01*
X022017Y015711D02*
X022059Y015711D01*
X021866Y015711D02*
X021782Y015753D01*
X021741Y015753D01*
X021699Y015711D01*
X021699Y015628D01*
X021741Y015586D01*
X021824Y015586D01*
X021866Y015628D01*
X021866Y015711D02*
X021866Y015836D01*
X021699Y015836D01*
X022849Y015586D02*
X023016Y015586D01*
X022932Y015586D02*
X022932Y015836D01*
X023016Y015753D01*
X023125Y015753D02*
X023167Y015711D01*
X023125Y015670D01*
X023125Y015628D01*
X023167Y015586D01*
X023250Y015586D01*
X023292Y015628D01*
X023401Y015628D02*
X023443Y015586D01*
X023526Y015586D01*
X023568Y015628D01*
X023568Y015795D01*
X023526Y015836D01*
X023443Y015836D01*
X023401Y015795D01*
X023292Y015795D02*
X023250Y015836D01*
X023167Y015836D01*
X023125Y015795D01*
X023125Y015753D01*
X023167Y015711D02*
X023209Y015711D01*
X023573Y014304D02*
X023406Y014137D01*
X023364Y014137D01*
X023406Y014028D02*
X023364Y013986D01*
X023364Y013903D01*
X023406Y013861D01*
X023573Y013861D01*
X023615Y013903D01*
X023615Y013986D01*
X023573Y014028D01*
X023615Y014137D02*
X023615Y014304D01*
X023573Y014304D01*
X024864Y014803D02*
X024864Y014886D01*
X024906Y014928D01*
X024906Y015037D02*
X024864Y015079D01*
X024864Y015163D01*
X024906Y015204D01*
X024948Y015204D01*
X024990Y015163D01*
X024990Y015037D01*
X024906Y015037D01*
X024990Y015037D02*
X025073Y015121D01*
X025115Y015204D01*
X025073Y014928D02*
X025115Y014886D01*
X025115Y014803D01*
X025073Y014761D01*
X024906Y014761D01*
X024864Y014803D01*
X022618Y013295D02*
X022618Y013128D01*
X022576Y013086D01*
X022493Y013086D01*
X022451Y013128D01*
X022342Y013086D02*
X022175Y013086D01*
X022259Y013086D02*
X022259Y013336D01*
X022342Y013253D01*
X022451Y013295D02*
X022493Y013336D01*
X022576Y013336D01*
X022618Y013295D01*
X022066Y013295D02*
X022066Y013253D01*
X022024Y013211D01*
X021941Y013211D01*
X021899Y013170D01*
X021899Y013128D01*
X021941Y013086D01*
X022024Y013086D01*
X022066Y013128D01*
X022066Y013170D01*
X022024Y013211D01*
X021941Y013211D02*
X021899Y013253D01*
X021899Y013295D01*
X021941Y013336D01*
X022024Y013336D01*
X022066Y013295D01*
X021518Y013295D02*
X021518Y013128D01*
X021476Y013086D01*
X021393Y013086D01*
X021351Y013128D01*
X021242Y013086D02*
X021075Y013253D01*
X021075Y013295D01*
X021117Y013336D01*
X021200Y013336D01*
X021242Y013295D01*
X021351Y013295D02*
X021393Y013336D01*
X021476Y013336D01*
X021518Y013295D01*
X021242Y013086D02*
X021075Y013086D01*
X020966Y013128D02*
X020924Y013086D01*
X020841Y013086D01*
X020799Y013128D01*
X020799Y013170D01*
X020841Y013211D01*
X020966Y013211D01*
X020966Y013128D01*
X020966Y013211D02*
X020882Y013295D01*
X020799Y013336D01*
X020268Y013295D02*
X020268Y013128D01*
X020226Y013086D01*
X020143Y013086D01*
X020101Y013128D01*
X019992Y013086D02*
X019825Y013253D01*
X019825Y013295D01*
X019867Y013336D01*
X019950Y013336D01*
X019992Y013295D01*
X020101Y013295D02*
X020143Y013336D01*
X020226Y013336D01*
X020268Y013295D01*
X019992Y013086D02*
X019825Y013086D01*
X019716Y013128D02*
X019716Y013170D01*
X019674Y013211D01*
X019591Y013211D01*
X019549Y013170D01*
X019549Y013128D01*
X019591Y013086D01*
X019674Y013086D01*
X019716Y013128D01*
X019674Y013211D02*
X019716Y013253D01*
X019716Y013295D01*
X019674Y013336D01*
X019591Y013336D01*
X019549Y013295D01*
X019549Y013253D01*
X019591Y013211D01*
X019268Y013295D02*
X019268Y013128D01*
X019226Y013086D01*
X019143Y013086D01*
X019101Y013128D01*
X018992Y013086D02*
X018825Y013253D01*
X018825Y013295D01*
X018867Y013336D01*
X018950Y013336D01*
X018992Y013295D01*
X019101Y013295D02*
X019143Y013336D01*
X019226Y013336D01*
X019268Y013295D01*
X018992Y013086D02*
X018825Y013086D01*
X018716Y013128D02*
X018549Y013295D01*
X018549Y013128D01*
X018591Y013086D01*
X018674Y013086D01*
X018716Y013128D01*
X018716Y013295D01*
X018674Y013336D01*
X018591Y013336D01*
X018549Y013295D01*
X017765Y013853D02*
X017723Y013811D01*
X017556Y013811D01*
X017514Y013853D01*
X017514Y013936D01*
X017556Y013978D01*
X017556Y014087D02*
X017514Y014129D01*
X017514Y014213D01*
X017556Y014254D01*
X017723Y014254D01*
X017765Y014213D01*
X017765Y014129D01*
X017723Y014087D01*
X017681Y014087D01*
X017640Y014129D01*
X017640Y014254D01*
X017723Y013978D02*
X017765Y013936D01*
X017765Y013853D01*
X017265Y012896D02*
X017014Y012896D01*
X017014Y012979D02*
X017014Y012812D01*
X017014Y012703D02*
X017265Y012536D01*
X017265Y012703D02*
X017014Y012536D01*
X017181Y012812D02*
X017265Y012896D01*
X016523Y011436D02*
X016439Y011436D01*
X016398Y011395D01*
X016288Y011436D02*
X016288Y011186D01*
X016121Y011186D01*
X016012Y011186D02*
X016012Y011436D01*
X015970Y011311D02*
X015845Y011186D01*
X015863Y011036D02*
X015821Y010995D01*
X015988Y010828D01*
X015947Y010786D01*
X015863Y010786D01*
X015821Y010828D01*
X015821Y010995D01*
X015863Y011036D02*
X015947Y011036D01*
X015988Y010995D01*
X015988Y010828D01*
X016098Y010828D02*
X016139Y010786D01*
X016223Y010786D01*
X016264Y010828D01*
X016264Y010911D02*
X016181Y010953D01*
X016139Y010953D01*
X016098Y010911D01*
X016098Y010828D01*
X016264Y010911D02*
X016264Y011036D01*
X016098Y011036D01*
X016012Y011270D02*
X015845Y011436D01*
X015460Y011353D02*
X015376Y011436D01*
X015275Y011436D02*
X015150Y011436D01*
X015109Y011395D01*
X015109Y011311D01*
X015150Y011270D01*
X015275Y011270D01*
X015275Y011186D02*
X015275Y011436D01*
X015460Y011353D02*
X015460Y011270D01*
X015376Y011186D01*
X015436Y011036D02*
X015352Y010953D01*
X015269Y011036D01*
X015269Y010786D01*
X015160Y010786D02*
X015160Y011036D01*
X015160Y010911D02*
X014993Y010911D01*
X014883Y010953D02*
X014717Y010953D01*
X014883Y010786D01*
X014717Y010786D01*
X014993Y010786D02*
X014993Y011036D01*
X014958Y011186D02*
X014999Y011228D01*
X014958Y011186D02*
X014874Y011186D01*
X014832Y011228D01*
X014832Y011311D01*
X014874Y011353D01*
X014916Y011353D01*
X014999Y011311D01*
X014999Y011436D01*
X014832Y011436D01*
X014723Y011395D02*
X014681Y011436D01*
X014598Y011436D01*
X014556Y011395D01*
X014556Y011353D01*
X014723Y011186D01*
X014556Y011186D01*
X014447Y011186D02*
X014363Y011270D01*
X014363Y011353D01*
X014447Y011436D01*
X015436Y011036D02*
X015436Y010786D01*
X016321Y010386D02*
X016405Y010345D01*
X016488Y010261D01*
X016363Y010261D01*
X016321Y010220D01*
X016321Y010178D01*
X016363Y010136D01*
X016447Y010136D01*
X016488Y010178D01*
X016488Y010261D01*
X016598Y010178D02*
X016598Y010386D01*
X016764Y010386D02*
X016764Y010178D01*
X016723Y010136D01*
X016639Y010136D01*
X016598Y010178D01*
X016523Y011186D02*
X016439Y011186D01*
X016398Y011228D01*
X016523Y011186D02*
X016564Y011228D01*
X016564Y011395D01*
X016523Y011436D01*
X013715Y012403D02*
X013673Y012361D01*
X013506Y012361D01*
X013464Y012403D01*
X013464Y012486D01*
X013506Y012528D01*
X013590Y012637D02*
X013590Y012804D01*
X013590Y012914D02*
X013590Y013080D01*
X013715Y013039D02*
X013590Y012914D01*
X013715Y013039D02*
X013464Y013039D01*
X013464Y012763D02*
X013715Y012763D01*
X013590Y012637D01*
X013673Y012528D02*
X013715Y012486D01*
X013715Y012403D01*
X011889Y013178D02*
X011848Y013136D01*
X011764Y013136D01*
X011723Y013178D01*
X011613Y013261D02*
X011446Y013261D01*
X011488Y013136D02*
X011488Y013386D01*
X011613Y013261D01*
X011723Y013345D02*
X011764Y013386D01*
X011848Y013386D01*
X011889Y013345D01*
X011889Y013178D01*
X011337Y013178D02*
X011295Y013136D01*
X011212Y013136D01*
X011170Y013178D01*
X011170Y013220D01*
X011212Y013261D01*
X011254Y013261D01*
X011212Y013261D02*
X011170Y013303D01*
X011170Y013345D01*
X011212Y013386D01*
X011295Y013386D01*
X011337Y013345D01*
X016014Y014503D02*
X016014Y014586D01*
X016056Y014628D01*
X016014Y014737D02*
X016014Y014904D01*
X016014Y014821D02*
X016265Y014821D01*
X016181Y014737D01*
X016223Y014628D02*
X016265Y014586D01*
X016265Y014503D01*
X016223Y014461D01*
X016056Y014461D01*
X016014Y014503D01*
X016056Y015014D02*
X016223Y015180D01*
X016056Y015180D01*
X016014Y015139D01*
X016014Y015055D01*
X016056Y015014D01*
X016223Y015014D01*
X016265Y015055D01*
X016265Y015139D01*
X016223Y015180D01*
X017399Y015628D02*
X017399Y015795D01*
X017441Y015836D01*
X017524Y015836D01*
X017566Y015795D01*
X017566Y015753D01*
X017524Y015711D01*
X017399Y015711D01*
X017399Y015628D02*
X017441Y015586D01*
X017524Y015586D01*
X017566Y015628D01*
X017675Y015586D02*
X017842Y015586D01*
X017675Y015753D01*
X017675Y015795D01*
X017717Y015836D01*
X017800Y015836D01*
X017842Y015795D01*
X017951Y015795D02*
X017993Y015836D01*
X018076Y015836D01*
X018118Y015795D01*
X018118Y015628D01*
X018076Y015586D01*
X017993Y015586D01*
X017951Y015628D01*
X018599Y015711D02*
X018766Y015711D01*
X018641Y015836D01*
X018641Y015586D01*
X018875Y015628D02*
X018917Y015586D01*
X019000Y015586D01*
X019042Y015628D01*
X019151Y015628D02*
X019193Y015586D01*
X019276Y015586D01*
X019318Y015628D01*
X019318Y015795D01*
X019276Y015836D01*
X019193Y015836D01*
X019151Y015795D01*
X019042Y015795D02*
X019000Y015836D01*
X018917Y015836D01*
X018875Y015795D01*
X018875Y015753D01*
X018917Y015711D01*
X018875Y015670D01*
X018875Y015628D01*
X018917Y015711D02*
X018959Y015711D01*
X019043Y015086D02*
X019126Y015086D01*
X019168Y015045D01*
X019168Y014878D01*
X019126Y014836D01*
X019043Y014836D01*
X019001Y014878D01*
X018892Y014836D02*
X018725Y014836D01*
X018809Y014836D02*
X018809Y015086D01*
X018892Y015003D01*
X019001Y015045D02*
X019043Y015086D01*
X018616Y015045D02*
X018616Y015003D01*
X018574Y014961D01*
X018449Y014961D01*
X018449Y014878D02*
X018449Y015045D01*
X018491Y015086D01*
X018574Y015086D01*
X018616Y015045D01*
X018616Y014878D02*
X018574Y014836D01*
X018491Y014836D01*
X018449Y014878D01*
X019549Y015045D02*
X019716Y014878D01*
X019716Y014836D01*
X019825Y014836D02*
X019992Y014836D01*
X019825Y015003D01*
X019825Y015045D01*
X019867Y015086D01*
X019950Y015086D01*
X019992Y015045D01*
X020101Y015045D02*
X020143Y015086D01*
X020226Y015086D01*
X020268Y015045D01*
X020268Y014878D01*
X020226Y014836D01*
X020143Y014836D01*
X020101Y014878D01*
X019716Y015086D02*
X019549Y015086D01*
X019549Y015045D01*
X016265Y016653D02*
X016223Y016611D01*
X016056Y016611D01*
X016014Y016653D01*
X016014Y016736D01*
X016056Y016778D01*
X016014Y016887D02*
X016014Y017054D01*
X016014Y016971D02*
X016265Y016971D01*
X016181Y016887D01*
X016223Y016778D02*
X016265Y016736D01*
X016265Y016653D01*
X016181Y017164D02*
X016265Y017247D01*
X016014Y017247D01*
X016014Y017164D02*
X016014Y017330D01*
X015648Y017836D02*
X015564Y017836D01*
X015523Y017878D01*
X015413Y017878D02*
X015372Y017836D01*
X015288Y017836D01*
X015246Y017878D01*
X015246Y017920D01*
X015288Y017961D01*
X015330Y017961D01*
X015288Y017961D02*
X015246Y018003D01*
X015246Y018045D01*
X015288Y018086D01*
X015372Y018086D01*
X015413Y018045D01*
X015523Y018045D02*
X015564Y018086D01*
X015648Y018086D01*
X015689Y018045D01*
X015689Y017878D01*
X015648Y017836D01*
X015137Y017878D02*
X015137Y017920D01*
X015095Y017961D01*
X015012Y017961D01*
X014970Y017920D01*
X014970Y017878D01*
X015012Y017836D01*
X015095Y017836D01*
X015137Y017878D01*
X015095Y017961D02*
X015137Y018003D01*
X015137Y018045D01*
X015095Y018086D01*
X015012Y018086D01*
X014970Y018045D01*
X014970Y018003D01*
X015012Y017961D01*
X013361Y021395D02*
X013278Y021395D01*
X013236Y021436D01*
X013236Y021645D01*
X013127Y021603D02*
X013085Y021645D01*
X013002Y021645D01*
X012960Y021603D01*
X012960Y021561D01*
X013002Y021520D01*
X012960Y021478D01*
X012960Y021436D01*
X013002Y021395D01*
X013085Y021395D01*
X013127Y021436D01*
X013043Y021520D02*
X013002Y021520D01*
X013361Y021395D02*
X013403Y021436D01*
X013403Y021645D01*
X011889Y021928D02*
X011848Y021886D01*
X011764Y021886D01*
X011723Y021928D01*
X011613Y022011D02*
X011446Y022011D01*
X011488Y021886D02*
X011488Y022136D01*
X011613Y022011D01*
X011723Y022095D02*
X011764Y022136D01*
X011848Y022136D01*
X011889Y022095D01*
X011889Y021928D01*
X011337Y021928D02*
X011337Y022095D01*
X011295Y022136D01*
X011212Y022136D01*
X011170Y022095D01*
X011337Y021928D01*
X011295Y021886D01*
X011212Y021886D01*
X011170Y021928D01*
X011170Y022095D01*
X008689Y021795D02*
X008689Y021628D01*
X008648Y021586D01*
X008564Y021586D01*
X008523Y021628D01*
X008413Y021628D02*
X008372Y021586D01*
X008288Y021586D01*
X008246Y021628D01*
X008246Y021670D01*
X008288Y021711D01*
X008372Y021711D01*
X008413Y021753D01*
X008413Y021795D01*
X008372Y021836D01*
X008288Y021836D01*
X008246Y021795D01*
X008246Y021753D01*
X008288Y021711D01*
X008372Y021711D02*
X008413Y021670D01*
X008413Y021628D01*
X008523Y021795D02*
X008564Y021836D01*
X008648Y021836D01*
X008689Y021795D01*
X008137Y021711D02*
X008012Y021711D01*
X007970Y021670D01*
X007970Y021628D01*
X008012Y021586D01*
X008095Y021586D01*
X008137Y021628D01*
X008137Y021711D01*
X008054Y021795D01*
X007970Y021836D01*
X007922Y023686D02*
X007963Y023728D01*
X007963Y023770D01*
X007922Y023811D01*
X007838Y023811D01*
X007796Y023770D01*
X007796Y023728D01*
X007838Y023686D01*
X007922Y023686D01*
X007922Y023811D02*
X007963Y023853D01*
X007963Y023895D01*
X007922Y023936D01*
X007838Y023936D01*
X007796Y023895D01*
X007796Y023853D01*
X007838Y023811D01*
X007687Y023728D02*
X007645Y023686D01*
X007562Y023686D01*
X007520Y023728D01*
X007520Y023770D01*
X007562Y023811D01*
X007604Y023811D01*
X007562Y023811D02*
X007520Y023853D01*
X007520Y023895D01*
X007562Y023936D01*
X007645Y023936D01*
X007687Y023895D01*
X008073Y023895D02*
X008073Y023811D01*
X008114Y023770D01*
X008239Y023770D01*
X008156Y023770D02*
X008073Y023686D01*
X008239Y023686D02*
X008239Y023936D01*
X008114Y023936D01*
X008073Y023895D01*
X008073Y024686D02*
X008156Y024770D01*
X008114Y024770D02*
X008239Y024770D01*
X008239Y024686D02*
X008239Y024936D01*
X008114Y024936D01*
X008073Y024895D01*
X008073Y024811D01*
X008114Y024770D01*
X007963Y024770D02*
X007922Y024811D01*
X007838Y024811D01*
X007796Y024770D01*
X007796Y024728D01*
X007838Y024686D01*
X007922Y024686D01*
X007963Y024728D01*
X007963Y024770D01*
X007922Y024811D02*
X007963Y024853D01*
X007963Y024895D01*
X007922Y024936D01*
X007838Y024936D01*
X007796Y024895D01*
X007796Y024853D01*
X007838Y024811D01*
X007687Y024895D02*
X007645Y024936D01*
X007562Y024936D01*
X007520Y024895D01*
X007520Y024853D01*
X007687Y024686D01*
X007520Y024686D01*
X006365Y024774D02*
X006323Y024733D01*
X006156Y024733D01*
X006114Y024774D01*
X006114Y024858D01*
X006156Y024899D01*
X006156Y025009D02*
X006198Y025009D01*
X006240Y025050D01*
X006240Y025134D01*
X006198Y025176D01*
X006156Y025176D01*
X006114Y025134D01*
X006114Y025050D01*
X006156Y025009D01*
X006240Y025050D02*
X006281Y025009D01*
X006323Y025009D01*
X006365Y025050D01*
X006365Y025134D01*
X006323Y025176D01*
X006281Y025176D01*
X006240Y025134D01*
X006240Y025285D02*
X006281Y025368D01*
X006281Y025410D01*
X006240Y025452D01*
X006156Y025452D01*
X006114Y025410D01*
X006114Y025327D01*
X006156Y025285D01*
X006240Y025285D02*
X006365Y025285D01*
X006365Y025452D01*
X006323Y024899D02*
X006365Y024858D01*
X006365Y024774D01*
X010537Y026686D02*
X010537Y026936D01*
X010662Y026811D01*
X010495Y026811D01*
X010771Y026686D02*
X010938Y026686D01*
X010855Y026686D02*
X010855Y026936D01*
X010938Y026853D01*
X011048Y026936D02*
X011048Y026728D01*
X011089Y026686D01*
X011173Y026686D01*
X011214Y026728D01*
X011214Y026936D01*
X015564Y023089D02*
X015815Y023089D01*
X015690Y022964D01*
X015690Y023130D01*
X015690Y022854D02*
X015690Y022729D01*
X015731Y022687D01*
X015773Y022687D01*
X015815Y022729D01*
X015815Y022813D01*
X015773Y022854D01*
X015606Y022854D01*
X015564Y022813D01*
X015564Y022729D01*
X015606Y022687D01*
X015606Y022578D02*
X015564Y022536D01*
X015564Y022453D01*
X015606Y022411D01*
X015773Y022411D01*
X015815Y022453D01*
X015815Y022536D01*
X015773Y022578D01*
X021499Y023595D02*
X021666Y023428D01*
X021666Y023386D01*
X021775Y023428D02*
X021817Y023386D01*
X021900Y023386D01*
X021942Y023428D01*
X021942Y023470D01*
X021900Y023511D01*
X021817Y023511D01*
X021775Y023470D01*
X021775Y023428D01*
X021817Y023511D02*
X021775Y023553D01*
X021775Y023595D01*
X021817Y023636D01*
X021900Y023636D01*
X021942Y023595D01*
X021942Y023553D01*
X021900Y023511D01*
X022051Y023511D02*
X022093Y023470D01*
X022218Y023470D01*
X022135Y023470D02*
X022051Y023386D01*
X022051Y023511D02*
X022051Y023595D01*
X022093Y023636D01*
X022218Y023636D01*
X022218Y023386D01*
X021666Y023636D02*
X021499Y023636D01*
X021499Y023595D01*
X022964Y024303D02*
X022964Y024386D01*
X023006Y024428D01*
X023006Y024537D02*
X022964Y024579D01*
X022964Y024663D01*
X023006Y024704D01*
X023173Y024704D01*
X023215Y024663D01*
X023215Y024579D01*
X023173Y024537D01*
X023131Y024537D01*
X023090Y024579D01*
X023090Y024704D01*
X023173Y024814D02*
X023215Y024855D01*
X023215Y024939D01*
X023173Y024980D01*
X023131Y024980D01*
X023090Y024939D01*
X023048Y024980D01*
X023006Y024980D01*
X022964Y024939D01*
X022964Y024855D01*
X023006Y024814D01*
X023090Y024897D02*
X023090Y024939D01*
X023173Y025311D02*
X023006Y025311D01*
X022964Y025353D01*
X022964Y025436D01*
X023006Y025478D01*
X023006Y025587D02*
X022964Y025629D01*
X022964Y025713D01*
X023006Y025754D01*
X023173Y025754D01*
X023215Y025713D01*
X023215Y025629D01*
X023173Y025587D01*
X023131Y025587D01*
X023090Y025629D01*
X023090Y025754D01*
X023173Y025864D02*
X023215Y025905D01*
X023215Y025989D01*
X023173Y026030D01*
X023131Y026030D01*
X022964Y025864D01*
X022964Y026030D01*
X022922Y026286D02*
X022963Y026328D01*
X022963Y026370D01*
X022922Y026411D01*
X022838Y026411D01*
X022796Y026370D01*
X022796Y026328D01*
X022838Y026286D01*
X022922Y026286D01*
X022922Y026411D02*
X022963Y026453D01*
X022963Y026495D01*
X022922Y026536D01*
X022838Y026536D01*
X022796Y026495D01*
X022796Y026453D01*
X022838Y026411D01*
X022687Y026411D02*
X022604Y026453D01*
X022562Y026453D01*
X022520Y026411D01*
X022520Y026328D01*
X022562Y026286D01*
X022645Y026286D01*
X022687Y026328D01*
X022687Y026411D02*
X022687Y026536D01*
X022520Y026536D01*
X023073Y026495D02*
X023073Y026411D01*
X023114Y026370D01*
X023239Y026370D01*
X023156Y026370D02*
X023073Y026286D01*
X023239Y026286D02*
X023239Y026536D01*
X023114Y026536D01*
X023073Y026495D01*
X023054Y027386D02*
X023054Y027636D01*
X023137Y027553D01*
X023246Y027511D02*
X023372Y027511D01*
X023413Y027553D01*
X023413Y027595D01*
X023372Y027636D01*
X023288Y027636D01*
X023246Y027595D01*
X023246Y027428D01*
X023288Y027386D01*
X023372Y027386D01*
X023413Y027428D01*
X023523Y027428D02*
X023564Y027386D01*
X023648Y027386D01*
X023689Y027428D01*
X023689Y027595D01*
X023648Y027636D01*
X023564Y027636D01*
X023523Y027595D01*
X023137Y027386D02*
X022970Y027386D01*
X023012Y028286D02*
X023095Y028286D01*
X023137Y028328D01*
X022970Y028495D01*
X022970Y028328D01*
X023012Y028286D01*
X023137Y028328D02*
X023137Y028495D01*
X023095Y028536D01*
X023012Y028536D01*
X022970Y028495D01*
X023246Y028495D02*
X023288Y028536D01*
X023372Y028536D01*
X023413Y028495D01*
X023413Y028453D01*
X023372Y028411D01*
X023246Y028411D01*
X023246Y028328D02*
X023246Y028495D01*
X023246Y028328D02*
X023288Y028286D01*
X023372Y028286D01*
X023413Y028328D01*
X023523Y028328D02*
X023564Y028286D01*
X023648Y028286D01*
X023689Y028328D01*
X023689Y028495D01*
X023648Y028536D01*
X023564Y028536D01*
X023523Y028495D01*
X024306Y025830D02*
X024264Y025789D01*
X024264Y025705D01*
X024306Y025664D01*
X024473Y025830D01*
X024306Y025830D01*
X024306Y025664D02*
X024473Y025664D01*
X024515Y025705D01*
X024515Y025789D01*
X024473Y025830D01*
X024473Y025554D02*
X024431Y025554D01*
X024390Y025513D01*
X024348Y025554D01*
X024306Y025554D01*
X024264Y025513D01*
X024264Y025429D01*
X024306Y025387D01*
X024264Y025278D02*
X024348Y025195D01*
X024348Y025236D02*
X024348Y025111D01*
X024264Y025111D02*
X024515Y025111D01*
X024515Y025236D01*
X024473Y025278D01*
X024390Y025278D01*
X024348Y025236D01*
X024473Y025387D02*
X024515Y025429D01*
X024515Y025513D01*
X024473Y025554D01*
X024390Y025513D02*
X024390Y025471D01*
X023215Y025436D02*
X023215Y025353D01*
X023173Y025311D01*
X023215Y025436D02*
X023173Y025478D01*
X023173Y024428D02*
X023215Y024386D01*
X023215Y024303D01*
X023173Y024261D01*
X023006Y024261D01*
X022964Y024303D01*
X023356Y023730D02*
X023314Y023689D01*
X023314Y023605D01*
X023356Y023564D01*
X023398Y023564D01*
X023440Y023605D01*
X023440Y023689D01*
X023398Y023730D01*
X023356Y023730D01*
X023440Y023689D02*
X023481Y023730D01*
X023523Y023730D01*
X023565Y023689D01*
X023565Y023605D01*
X023523Y023564D01*
X023481Y023564D01*
X023440Y023605D01*
X023481Y023454D02*
X023523Y023454D01*
X023565Y023413D01*
X023565Y023329D01*
X023523Y023287D01*
X023523Y023178D02*
X023440Y023178D01*
X023398Y023136D01*
X023398Y023011D01*
X023314Y023011D02*
X023565Y023011D01*
X023565Y023136D01*
X023523Y023178D01*
X023398Y023095D02*
X023314Y023178D01*
X023314Y023287D02*
X023481Y023454D01*
X023314Y023454D02*
X023314Y023287D01*
X023764Y023287D02*
X023931Y023454D01*
X023973Y023454D01*
X024015Y023413D01*
X024015Y023329D01*
X023973Y023287D01*
X023973Y023178D02*
X023890Y023178D01*
X023848Y023136D01*
X023848Y023011D01*
X023764Y023011D02*
X024015Y023011D01*
X024015Y023136D01*
X023973Y023178D01*
X023848Y023095D02*
X023764Y023178D01*
X023764Y023287D02*
X023764Y023454D01*
X023764Y023564D02*
X023806Y023564D01*
X023973Y023730D01*
X024015Y023730D01*
X024015Y023564D01*
X024214Y023564D02*
X024381Y023730D01*
X024423Y023730D01*
X024465Y023689D01*
X024465Y023605D01*
X024423Y023564D01*
X024423Y023454D02*
X024381Y023454D01*
X024340Y023413D01*
X024298Y023454D01*
X024256Y023454D01*
X024214Y023413D01*
X024214Y023329D01*
X024256Y023287D01*
X024214Y023178D02*
X024298Y023095D01*
X024298Y023136D02*
X024298Y023011D01*
X024214Y023011D02*
X024465Y023011D01*
X024465Y023136D01*
X024423Y023178D01*
X024340Y023178D01*
X024298Y023136D01*
X024423Y023287D02*
X024465Y023329D01*
X024465Y023413D01*
X024423Y023454D01*
X024340Y023413D02*
X024340Y023371D01*
X024214Y023564D02*
X024214Y023730D01*
X024814Y023697D02*
X025065Y023697D01*
X024981Y023614D01*
X024981Y023504D02*
X024940Y023463D01*
X024898Y023504D01*
X024856Y023504D01*
X024814Y023463D01*
X024814Y023379D01*
X024856Y023337D01*
X024814Y023228D02*
X024898Y023145D01*
X024898Y023186D02*
X024898Y023061D01*
X024814Y023061D02*
X025065Y023061D01*
X025065Y023186D01*
X025023Y023228D01*
X024940Y023228D01*
X024898Y023186D01*
X025023Y023337D02*
X025065Y023379D01*
X025065Y023463D01*
X025023Y023504D01*
X024981Y023504D01*
X024940Y023463D02*
X024940Y023421D01*
X024814Y023614D02*
X024814Y023780D01*
X027764Y024428D02*
X027764Y024511D01*
X027806Y024553D01*
X028015Y024553D01*
X027890Y024662D02*
X027890Y024829D01*
X028015Y024788D02*
X027890Y024662D01*
X028015Y024788D02*
X027764Y024788D01*
X027764Y024428D02*
X027806Y024386D01*
X028015Y024386D01*
X019064Y028078D02*
X019023Y028036D01*
X018939Y028036D01*
X018898Y028078D01*
X018898Y028286D01*
X018788Y028203D02*
X018705Y028286D01*
X018705Y028036D01*
X018788Y028036D02*
X018621Y028036D01*
X018512Y028078D02*
X018470Y028036D01*
X018387Y028036D01*
X018345Y028078D01*
X018345Y028161D01*
X018387Y028203D01*
X018429Y028203D01*
X018512Y028161D01*
X018512Y028286D01*
X018345Y028286D01*
X019064Y028286D02*
X019064Y028078D01*
X024114Y032326D02*
X024114Y032367D01*
X024156Y032409D01*
X024365Y032409D01*
X024365Y032367D02*
X024365Y032451D01*
X024323Y032560D02*
X024365Y032602D01*
X024365Y032685D01*
X024323Y032727D01*
X024281Y032727D01*
X024114Y032560D01*
X024114Y032727D01*
X024114Y032326D02*
X024156Y032284D01*
X017965Y032961D02*
X017965Y033086D01*
X017923Y033128D01*
X017840Y033128D01*
X017798Y033086D01*
X017798Y032961D01*
X017714Y032961D02*
X017965Y032961D01*
X017798Y033045D02*
X017714Y033128D01*
X017714Y033237D02*
X017714Y033404D01*
X017714Y033321D02*
X017965Y033321D01*
X017881Y033237D01*
X017840Y033514D02*
X017840Y033639D01*
X017798Y033680D01*
X017756Y033680D01*
X017714Y033639D01*
X017714Y033555D01*
X017756Y033514D01*
X017840Y033514D01*
X017923Y033597D01*
X017965Y033680D01*
X017465Y033363D02*
X017423Y033404D01*
X017381Y033404D01*
X017340Y033363D01*
X017340Y033279D01*
X017381Y033237D01*
X017423Y033237D01*
X017465Y033279D01*
X017465Y033363D01*
X017340Y033363D02*
X017298Y033404D01*
X017256Y033404D01*
X017214Y033363D01*
X017214Y033279D01*
X017256Y033237D01*
X017298Y033237D01*
X017340Y033279D01*
X017340Y033128D02*
X017298Y033086D01*
X017298Y032961D01*
X017214Y032961D02*
X017465Y032961D01*
X017465Y033086D01*
X017423Y033128D01*
X017340Y033128D01*
X017298Y033045D02*
X017214Y033128D01*
X016915Y033086D02*
X016873Y033128D01*
X016790Y033128D01*
X016748Y033086D01*
X016748Y032961D01*
X016664Y032961D02*
X016915Y032961D01*
X016915Y033086D01*
X016748Y033045D02*
X016664Y033128D01*
X016664Y033237D02*
X016664Y033404D01*
X016664Y033321D02*
X016915Y033321D01*
X016831Y033237D01*
X016790Y033514D02*
X016831Y033597D01*
X016831Y033639D01*
X016790Y033680D01*
X016706Y033680D01*
X016664Y033639D01*
X016664Y033555D01*
X016706Y033514D01*
X016790Y033514D02*
X016915Y033514D01*
X016915Y033680D01*
X016465Y033404D02*
X016423Y033404D01*
X016256Y033237D01*
X016214Y033237D01*
X016214Y033128D02*
X016298Y033045D01*
X016298Y033086D02*
X016298Y032961D01*
X016214Y032961D02*
X016465Y032961D01*
X016465Y033086D01*
X016423Y033128D01*
X016340Y033128D01*
X016298Y033086D01*
X016465Y033237D02*
X016465Y033404D01*
X015965Y033321D02*
X015714Y033321D01*
X015714Y033404D02*
X015714Y033237D01*
X015714Y033128D02*
X015798Y033045D01*
X015798Y033086D02*
X015798Y032961D01*
X015714Y032961D02*
X015965Y032961D01*
X015965Y033086D01*
X015923Y033128D01*
X015840Y033128D01*
X015798Y033086D01*
X015881Y033237D02*
X015965Y033321D01*
X015840Y033514D02*
X015965Y033639D01*
X015714Y033639D01*
X015840Y033680D02*
X015840Y033514D01*
X015465Y033404D02*
X015423Y033321D01*
X015340Y033237D01*
X015340Y033363D01*
X015298Y033404D01*
X015256Y033404D01*
X015214Y033363D01*
X015214Y033279D01*
X015256Y033237D01*
X015340Y033237D01*
X015340Y033128D02*
X015298Y033086D01*
X015298Y032961D01*
X015214Y032961D02*
X015465Y032961D01*
X015465Y033086D01*
X015423Y033128D01*
X015340Y033128D01*
X015298Y033045D02*
X015214Y033128D01*
X014965Y033086D02*
X014923Y033128D01*
X014840Y033128D01*
X014798Y033086D01*
X014798Y032961D01*
X014714Y032961D02*
X014965Y032961D01*
X014965Y033086D01*
X014798Y033045D02*
X014714Y033128D01*
X014714Y033237D02*
X014714Y033404D01*
X014714Y033321D02*
X014965Y033321D01*
X014881Y033237D01*
X014923Y033514D02*
X014965Y033555D01*
X014965Y033639D01*
X014923Y033680D01*
X014881Y033680D01*
X014840Y033639D01*
X014798Y033680D01*
X014756Y033680D01*
X014714Y033639D01*
X014714Y033555D01*
X014756Y033514D01*
X014840Y033597D02*
X014840Y033639D01*
X014465Y033404D02*
X014465Y033237D01*
X014340Y033237D01*
X014381Y033321D01*
X014381Y033363D01*
X014340Y033404D01*
X014256Y033404D01*
X014214Y033363D01*
X014214Y033279D01*
X014256Y033237D01*
X014214Y033128D02*
X014298Y033045D01*
X014298Y033086D02*
X014298Y032961D01*
X014214Y032961D02*
X014465Y032961D01*
X014465Y033086D01*
X014423Y033128D01*
X014340Y033128D01*
X014298Y033086D01*
X013965Y033086D02*
X013923Y033128D01*
X013840Y033128D01*
X013798Y033086D01*
X013798Y032961D01*
X013714Y032961D02*
X013965Y032961D01*
X013965Y033086D01*
X013798Y033045D02*
X013714Y033128D01*
X013714Y033237D02*
X013714Y033404D01*
X013714Y033321D02*
X013965Y033321D01*
X013881Y033237D01*
X013923Y033514D02*
X013965Y033555D01*
X013965Y033639D01*
X013923Y033680D01*
X013881Y033680D01*
X013714Y033514D01*
X013714Y033680D01*
X013465Y033363D02*
X013214Y033363D01*
X013340Y033404D02*
X013340Y033237D01*
X013465Y033363D01*
X013423Y033128D02*
X013340Y033128D01*
X013298Y033086D01*
X013298Y032961D01*
X013214Y032961D02*
X013465Y032961D01*
X013465Y033086D01*
X013423Y033128D01*
X013298Y033045D02*
X013214Y033128D01*
X012915Y033086D02*
X012873Y033128D01*
X012790Y033128D01*
X012748Y033086D01*
X012748Y032961D01*
X012664Y032961D02*
X012915Y032961D01*
X012915Y033086D01*
X012748Y033045D02*
X012664Y033128D01*
X012664Y033237D02*
X012664Y033404D01*
X012664Y033321D02*
X012915Y033321D01*
X012831Y033237D01*
X012831Y033514D02*
X012915Y033597D01*
X012664Y033597D01*
X012664Y033514D02*
X012664Y033680D01*
X012423Y033404D02*
X012381Y033404D01*
X012340Y033363D01*
X012298Y033404D01*
X012256Y033404D01*
X012214Y033363D01*
X012214Y033279D01*
X012256Y033237D01*
X012214Y033128D02*
X012298Y033045D01*
X012298Y033086D02*
X012298Y032961D01*
X012214Y032961D02*
X012465Y032961D01*
X012465Y033086D01*
X012423Y033128D01*
X012340Y033128D01*
X012298Y033086D01*
X012423Y033237D02*
X012465Y033279D01*
X012465Y033363D01*
X012423Y033404D01*
X012340Y033363D02*
X012340Y033321D01*
X011965Y033321D02*
X011881Y033237D01*
X011840Y033128D02*
X011798Y033086D01*
X011798Y032961D01*
X011714Y032961D02*
X011965Y032961D01*
X011965Y033086D01*
X011923Y033128D01*
X011840Y033128D01*
X011798Y033045D02*
X011714Y033128D01*
X011714Y033237D02*
X011714Y033404D01*
X011714Y033321D02*
X011965Y033321D01*
X011923Y033514D02*
X011965Y033555D01*
X011965Y033639D01*
X011923Y033680D01*
X011756Y033514D01*
X011714Y033555D01*
X011714Y033639D01*
X011756Y033680D01*
X011923Y033680D01*
X011923Y033514D02*
X011756Y033514D01*
X011465Y033363D02*
X011465Y033279D01*
X011423Y033237D01*
X011423Y033128D02*
X011340Y033128D01*
X011298Y033086D01*
X011298Y032961D01*
X011214Y032961D02*
X011465Y032961D01*
X011465Y033086D01*
X011423Y033128D01*
X011298Y033045D02*
X011214Y033128D01*
X011214Y033237D02*
X011381Y033404D01*
X011423Y033404D01*
X011465Y033363D01*
X011214Y033404D02*
X011214Y033237D01*
X010965Y033329D02*
X010923Y033287D01*
X010881Y033287D01*
X010840Y033329D01*
X010840Y033454D01*
X010923Y033454D02*
X010965Y033413D01*
X010965Y033329D01*
X010923Y033454D02*
X010756Y033454D01*
X010714Y033413D01*
X010714Y033329D01*
X010756Y033287D01*
X010714Y033178D02*
X010798Y033095D01*
X010798Y033136D02*
X010798Y033011D01*
X010714Y033011D02*
X010965Y033011D01*
X010965Y033136D01*
X010923Y033178D01*
X010840Y033178D01*
X010798Y033136D01*
X010465Y033086D02*
X010423Y033128D01*
X010340Y033128D01*
X010298Y033086D01*
X010298Y032961D01*
X010214Y032961D02*
X010465Y032961D01*
X010465Y033086D01*
X010298Y033045D02*
X010214Y033128D01*
X010214Y033237D02*
X010214Y033404D01*
X010214Y033321D02*
X010465Y033321D01*
X010381Y033237D01*
X031114Y032779D02*
X031114Y032612D01*
X031114Y032696D02*
X031365Y032696D01*
X031281Y032612D01*
X031365Y032503D02*
X031365Y032420D01*
X031365Y032461D02*
X031156Y032461D01*
X031114Y032420D01*
X031114Y032378D01*
X031156Y032336D01*
X040870Y032286D02*
X040954Y032245D01*
X041037Y032161D01*
X040912Y032161D01*
X040870Y032120D01*
X040870Y032078D01*
X040912Y032036D01*
X040995Y032036D01*
X041037Y032078D01*
X041037Y032161D01*
X041146Y032120D02*
X041146Y032078D01*
X041188Y032036D01*
X041272Y032036D01*
X041313Y032078D01*
X041423Y032036D02*
X041506Y032120D01*
X041464Y032120D02*
X041589Y032120D01*
X041589Y032036D02*
X041589Y032286D01*
X041464Y032286D01*
X041423Y032245D01*
X041423Y032161D01*
X041464Y032120D01*
X041313Y032245D02*
X041272Y032286D01*
X041188Y032286D01*
X041146Y032245D01*
X041146Y032203D01*
X041188Y032161D01*
X041146Y032120D01*
X041188Y032161D02*
X041230Y032161D01*
X041188Y030836D02*
X041146Y030795D01*
X041146Y030753D01*
X041188Y030711D01*
X041146Y030670D01*
X041146Y030628D01*
X041188Y030586D01*
X041272Y030586D01*
X041313Y030628D01*
X041423Y030586D02*
X041506Y030670D01*
X041464Y030670D02*
X041589Y030670D01*
X041589Y030586D02*
X041589Y030836D01*
X041464Y030836D01*
X041423Y030795D01*
X041423Y030711D01*
X041464Y030670D01*
X041313Y030795D02*
X041272Y030836D01*
X041188Y030836D01*
X041188Y030711D02*
X041230Y030711D01*
X041037Y030711D02*
X040870Y030711D01*
X040912Y030586D02*
X040912Y030836D01*
X041037Y030711D01*
X041721Y028561D02*
X041888Y028561D01*
X041888Y028436D01*
X041805Y028478D01*
X041763Y028478D01*
X041721Y028436D01*
X041721Y028353D01*
X041763Y028311D01*
X041847Y028311D01*
X041888Y028353D01*
X041998Y028353D02*
X042039Y028311D01*
X042123Y028311D01*
X042164Y028353D01*
X042164Y028520D01*
X042123Y028561D01*
X042039Y028561D01*
X041998Y028520D01*
X041998Y028353D01*
X041998Y028311D02*
X042081Y028395D01*
X042039Y025561D02*
X041998Y025520D01*
X041998Y025353D01*
X042039Y025311D01*
X042123Y025311D01*
X042164Y025353D01*
X042164Y025520D01*
X042123Y025561D01*
X042039Y025561D01*
X042081Y025395D02*
X041998Y025311D01*
X041888Y025436D02*
X041721Y025436D01*
X041763Y025311D02*
X041763Y025561D01*
X041888Y025436D01*
X041589Y035086D02*
X041589Y035336D01*
X041464Y035336D01*
X041423Y035295D01*
X041423Y035211D01*
X041464Y035170D01*
X041589Y035170D01*
X041506Y035170D02*
X041423Y035086D01*
X041313Y035128D02*
X041272Y035086D01*
X041188Y035086D01*
X041146Y035128D01*
X041146Y035170D01*
X041188Y035211D01*
X041230Y035211D01*
X041188Y035211D02*
X041146Y035253D01*
X041146Y035295D01*
X041188Y035336D01*
X041272Y035336D01*
X041313Y035295D01*
X041037Y035336D02*
X041037Y035211D01*
X040954Y035253D01*
X040912Y035253D01*
X040870Y035211D01*
X040870Y035128D01*
X040912Y035086D01*
X040995Y035086D01*
X041037Y035128D01*
X041037Y035336D02*
X040870Y035336D01*
X025065Y017404D02*
X025065Y017237D01*
X024940Y017237D01*
X024981Y017321D01*
X024981Y017363D01*
X024940Y017404D01*
X024856Y017404D01*
X024814Y017363D01*
X024814Y017279D01*
X024856Y017237D01*
X024856Y017128D02*
X024814Y017086D01*
X024814Y017003D01*
X024856Y016961D01*
X025023Y016961D01*
X025065Y017003D01*
X025065Y017086D01*
X025023Y017128D01*
X008039Y017128D02*
X007998Y017086D01*
X007914Y017086D01*
X007873Y017128D01*
X007763Y017128D02*
X007722Y017086D01*
X007638Y017086D01*
X007596Y017128D01*
X007596Y017170D01*
X007638Y017211D01*
X007680Y017211D01*
X007638Y017211D02*
X007596Y017253D01*
X007596Y017295D01*
X007638Y017336D01*
X007722Y017336D01*
X007763Y017295D01*
X007873Y017295D02*
X007914Y017336D01*
X007998Y017336D01*
X008039Y017295D01*
X008039Y017128D01*
X007487Y017128D02*
X007487Y017211D01*
X007362Y017211D01*
X007320Y017170D01*
X007320Y017128D01*
X007362Y017086D01*
X007445Y017086D01*
X007487Y017128D01*
X007487Y017211D02*
X007404Y017295D01*
X007320Y017336D01*
D11*
X009571Y013989D02*
X009571Y021233D01*
X009728Y021233D01*
X009728Y013989D01*
X009571Y013989D01*
X009728Y013989D02*
X013350Y013989D01*
X013350Y021233D01*
X013508Y021233D01*
X013508Y013989D01*
X013350Y013989D01*
X013035Y020918D02*
X013037Y020936D01*
X013043Y020952D01*
X013052Y020967D01*
X013065Y020980D01*
X013080Y020989D01*
X013096Y020995D01*
X013114Y020997D01*
X013132Y020995D01*
X013148Y020989D01*
X013163Y020980D01*
X013176Y020967D01*
X013185Y020952D01*
X013191Y020936D01*
X013193Y020918D01*
X013191Y020900D01*
X013185Y020884D01*
X013176Y020869D01*
X013163Y020856D01*
X013148Y020847D01*
X013132Y020841D01*
X013114Y020839D01*
X013096Y020841D01*
X013080Y020847D01*
X013065Y020856D01*
X013052Y020869D01*
X013043Y020884D01*
X013037Y020900D01*
X013035Y020918D01*
X013350Y021233D02*
X009728Y021233D01*
X017989Y032011D02*
X017989Y033011D01*
X018989Y033011D01*
X019989Y033011D01*
X020989Y033011D01*
X021989Y033011D01*
X022989Y033011D01*
X023989Y033011D01*
X023989Y032011D01*
X022989Y032011D01*
X021989Y032011D01*
X020989Y032011D01*
X019989Y032011D01*
X018989Y032011D01*
X017989Y032011D01*
X018989Y032011D02*
X018989Y033011D01*
X019989Y033011D02*
X019989Y032011D01*
X020989Y032011D02*
X020989Y033011D01*
X021989Y033011D02*
X021989Y032011D01*
X022989Y032011D02*
X022989Y033011D01*
X024939Y033011D02*
X024939Y032011D01*
X025939Y032011D01*
X025939Y033011D01*
X024939Y033011D01*
X025939Y033011D02*
X026939Y033011D01*
X027939Y033011D01*
X028939Y033011D01*
X029939Y033011D01*
X030939Y033011D01*
X030939Y032011D01*
X029939Y032011D01*
X028939Y032011D01*
X027939Y032011D01*
X026939Y032011D01*
X025939Y032011D01*
X026939Y032011D02*
X026939Y033011D01*
X027939Y033011D02*
X027939Y032011D01*
X028939Y032011D02*
X028939Y033011D01*
X029939Y033011D02*
X029939Y032011D01*
X030939Y023011D02*
X027289Y023011D01*
X027289Y010911D01*
X030939Y010911D01*
X030939Y023011D01*
D12*
X032039Y022961D02*
X032039Y022761D01*
X032039Y023261D02*
X032039Y023461D01*
X032289Y024033D02*
X032789Y024033D01*
X033289Y023461D02*
X033289Y023261D01*
X032789Y024690D02*
X032289Y024690D01*
X032289Y025033D02*
X032789Y025033D01*
X032789Y025690D02*
X032289Y025690D01*
X027635Y026071D02*
X027635Y024352D01*
X025144Y024352D01*
X025144Y026071D01*
X027635Y026071D01*
X024839Y025311D02*
X024639Y025311D01*
X022239Y025333D02*
X021739Y025333D01*
X021739Y024890D02*
X022239Y024890D01*
X022239Y024233D02*
X021739Y024233D01*
X021889Y023961D02*
X021889Y023761D01*
X023339Y022461D02*
X023539Y022461D01*
X023789Y022461D02*
X023989Y022461D01*
X024239Y022461D02*
X024439Y022461D01*
X024839Y022461D02*
X025039Y022461D01*
X023189Y020511D02*
X022989Y020511D01*
X022239Y020461D02*
X022239Y020261D01*
X022239Y020761D02*
X022239Y020961D01*
X021089Y020961D02*
X021089Y020761D01*
X021089Y020461D02*
X021089Y020261D01*
X020639Y019411D02*
X020439Y019411D01*
X019939Y020261D02*
X019939Y020461D01*
X019939Y020761D02*
X019939Y020961D01*
X018789Y020961D02*
X018789Y020761D01*
X018789Y020461D02*
X018789Y020261D01*
X018039Y020511D02*
X017839Y020511D01*
X016589Y019811D02*
X016389Y019811D01*
X018189Y019290D02*
X018689Y019290D01*
X018689Y018633D02*
X018189Y018633D01*
X018118Y017311D02*
X018118Y016811D01*
X018661Y016811D02*
X018661Y017311D01*
X019318Y017311D02*
X019318Y016811D01*
X020211Y017411D02*
X020211Y017911D01*
X020868Y017911D02*
X020868Y017411D01*
X021761Y017311D02*
X021761Y016811D01*
X022418Y016811D02*
X022418Y017311D01*
X022911Y017311D02*
X022911Y016811D01*
X023568Y016811D02*
X023568Y017311D01*
X024439Y017161D02*
X024639Y017161D01*
X022939Y018633D02*
X022439Y018633D01*
X022439Y019290D02*
X022939Y019290D01*
X024489Y019911D02*
X024689Y019911D01*
X020049Y022371D02*
X017689Y022371D01*
X017689Y024951D01*
X020049Y024951D01*
X019139Y025271D02*
X019139Y027851D01*
X016779Y027851D01*
X016779Y025271D02*
X019139Y025271D01*
X021739Y025990D02*
X022239Y025990D01*
X022039Y026311D02*
X022039Y026511D01*
X022289Y026833D02*
X021789Y026833D01*
X021789Y027490D02*
X022289Y027490D01*
X022289Y027733D02*
X021789Y027733D01*
X021789Y028390D02*
X022289Y028390D01*
X015789Y023661D02*
X015589Y023661D01*
X011539Y021711D02*
X011539Y021511D01*
X008639Y021983D02*
X008139Y021983D01*
X008139Y022640D02*
X008639Y022640D01*
X007889Y023361D02*
X007889Y023561D01*
X007889Y024361D02*
X007889Y024561D01*
X007168Y024861D02*
X007168Y025361D01*
X006511Y025361D02*
X006511Y024861D01*
X008189Y017711D02*
X008189Y017511D01*
X011539Y013711D02*
X011539Y013511D01*
X013839Y012711D02*
X014039Y012711D01*
X014201Y012366D02*
X014201Y013056D01*
X015001Y013656D02*
X016078Y013656D01*
X016878Y013056D02*
X016878Y012366D01*
X016078Y011766D02*
X015001Y011766D01*
X015841Y009985D02*
X017337Y009985D01*
X020539Y008811D02*
X020539Y008611D01*
X020539Y007811D02*
X020539Y007611D01*
X020539Y006811D02*
X020539Y006611D01*
X021891Y006438D02*
X023387Y006438D01*
X022639Y006111D02*
X022639Y005911D01*
X024789Y007111D02*
X024789Y007311D01*
X024789Y008111D02*
X024789Y008311D01*
X024789Y009111D02*
X024789Y009311D01*
X023387Y009985D02*
X021891Y009985D01*
X026561Y007061D02*
X026561Y006561D01*
X027218Y006561D02*
X027218Y007061D01*
X033389Y006411D02*
X033589Y006411D01*
X039189Y010821D02*
X041549Y010821D01*
X039189Y010821D02*
X039189Y013401D01*
X041549Y013401D01*
X041549Y013821D02*
X039189Y013821D01*
X039189Y016401D01*
X041549Y016401D01*
X041549Y016821D02*
X039189Y016821D01*
X039189Y019401D01*
X041549Y019401D01*
X041549Y019821D02*
X039189Y019821D01*
X039189Y022401D01*
X041549Y022401D01*
X041549Y022821D02*
X039189Y022821D01*
X039189Y025401D01*
X041549Y025401D01*
X041549Y025821D02*
X039189Y025821D01*
X039189Y028401D01*
X041549Y028401D01*
X041239Y031061D02*
X041239Y031261D01*
X041239Y031661D02*
X041239Y031861D01*
X041239Y034711D02*
X041239Y034911D01*
X038239Y027111D02*
X038039Y027111D01*
X038039Y024111D02*
X038239Y024111D01*
X038239Y021111D02*
X038039Y021111D01*
X038039Y018111D02*
X038239Y018111D01*
X038239Y015111D02*
X038039Y015111D01*
X038039Y012111D02*
X038239Y012111D01*
X033289Y014261D02*
X033289Y014461D01*
X032789Y015033D02*
X032289Y015033D01*
X032289Y015690D02*
X032789Y015690D01*
X032789Y016033D02*
X032289Y016033D01*
X032289Y016690D02*
X032789Y016690D01*
X032039Y014461D02*
X032039Y014261D01*
X032039Y013961D02*
X032039Y013761D01*
X024689Y014911D02*
X024489Y014911D01*
X023239Y014211D02*
X023039Y014211D01*
X022289Y014261D02*
X022289Y014461D01*
X022289Y013961D02*
X022289Y013761D01*
X021139Y013761D02*
X021139Y013961D01*
X021139Y014261D02*
X021139Y014461D01*
X020639Y015311D02*
X020439Y015311D01*
X019989Y014461D02*
X019989Y014261D01*
X019989Y013961D02*
X019989Y013761D01*
X018839Y013761D02*
X018839Y013961D01*
X018839Y014261D02*
X018839Y014461D01*
X018089Y014211D02*
X017889Y014211D01*
X016589Y014811D02*
X016389Y014811D01*
X017461Y016811D02*
X017461Y017311D01*
X016589Y016961D02*
X016389Y016961D01*
X014939Y017511D02*
X014939Y017711D01*
X010687Y007335D02*
X009191Y007335D01*
X007789Y006161D02*
X007789Y005961D01*
X007989Y005311D02*
X008189Y005311D01*
X008189Y004061D02*
X007989Y004061D01*
X009191Y003288D02*
X010687Y003288D01*
X009939Y003011D02*
X009939Y002811D01*
X011739Y004061D02*
X011939Y004061D01*
X012089Y005461D02*
X012089Y005661D01*
X012089Y006961D02*
X012089Y007161D01*
X015841Y006438D02*
X017337Y006438D01*
X016589Y006111D02*
X016589Y005911D01*
X041389Y006411D02*
X041589Y006411D01*
X042389Y006411D02*
X042589Y006411D01*
X050389Y006411D02*
X050589Y006411D01*
X017939Y034211D02*
X017739Y034211D01*
X017439Y034211D02*
X017239Y034211D01*
X016939Y034211D02*
X016739Y034211D01*
X016439Y034211D02*
X016239Y034211D01*
X015939Y034211D02*
X015739Y034211D01*
X015439Y034211D02*
X015239Y034211D01*
X014939Y034211D02*
X014739Y034211D01*
X014439Y034211D02*
X014239Y034211D01*
X013939Y034211D02*
X013739Y034211D01*
X013439Y034211D02*
X013239Y034211D01*
X012939Y034211D02*
X012739Y034211D01*
X012439Y034211D02*
X012239Y034211D01*
X011939Y034211D02*
X011739Y034211D01*
X011439Y034211D02*
X011239Y034211D01*
X010939Y034211D02*
X010739Y034211D01*
X010439Y034211D02*
X010239Y034211D01*
D13*
X006839Y024088D03*
X017789Y016038D03*
X018989Y016038D03*
X020539Y016638D03*
X022089Y016038D03*
X023239Y016038D03*
X026889Y005788D03*
D14*
X033563Y015361D03*
X033563Y016361D03*
X033563Y024361D03*
X033563Y025361D03*
X021666Y018961D03*
X019463Y018961D03*
X020966Y024561D03*
X020966Y025661D03*
X021016Y027161D03*
X021016Y028061D03*
X009413Y022311D03*
D15*
X034539Y021402D03*
X035539Y021821D03*
X036789Y021402D03*
X035539Y023902D03*
X034539Y023902D03*
X036789Y024321D03*
X035539Y026402D03*
X034539Y026821D03*
X036789Y026821D03*
X036789Y017821D03*
X035539Y017402D03*
X034539Y017821D03*
X036789Y015321D03*
X035539Y014902D03*
X034539Y014902D03*
X035539Y012821D03*
X034539Y012402D03*
X036789Y012402D03*
D16*
X036789Y012421D02*
X036514Y012835D01*
X037085Y012835D01*
X036789Y012421D01*
X035815Y012388D02*
X035539Y012801D01*
X035244Y012388D01*
X035815Y012388D01*
X034835Y012835D02*
X034264Y012835D01*
X034539Y012421D01*
X034835Y012835D01*
X034539Y014921D02*
X034264Y015335D01*
X034835Y015335D01*
X034539Y014921D01*
X035264Y015335D02*
X035539Y014921D01*
X035835Y015335D01*
X035264Y015335D01*
X036494Y014888D02*
X037065Y014888D01*
X036789Y015301D01*
X036494Y014888D01*
X036494Y017388D02*
X037065Y017388D01*
X036789Y017801D01*
X036494Y017388D01*
X035835Y017835D02*
X035264Y017835D01*
X035539Y017421D01*
X035835Y017835D01*
X034815Y017388D02*
X034539Y017801D01*
X034244Y017388D01*
X034815Y017388D01*
X035244Y021388D02*
X035815Y021388D01*
X035539Y021801D01*
X035244Y021388D01*
X034835Y021835D02*
X034264Y021835D01*
X034539Y021421D01*
X034835Y021835D01*
X036514Y021835D02*
X036789Y021421D01*
X037085Y021835D01*
X036514Y021835D01*
X036494Y023888D02*
X037065Y023888D01*
X036789Y024301D01*
X036494Y023888D01*
X035835Y024335D02*
X035264Y024335D01*
X035539Y023921D01*
X035835Y024335D01*
X034835Y024335D02*
X034264Y024335D01*
X034539Y023921D01*
X034835Y024335D01*
X034815Y026388D02*
X034244Y026388D01*
X034539Y026801D01*
X034815Y026388D01*
X035264Y026835D02*
X035539Y026421D01*
X035835Y026835D01*
X035264Y026835D01*
X036494Y026388D02*
X037065Y026388D01*
X036789Y026801D01*
X036494Y026388D01*
X011489Y026461D02*
X010489Y026461D01*
X010489Y022461D01*
X011489Y022461D01*
D17*
X018489Y033111D03*
X019489Y033111D03*
X020489Y033111D03*
X021489Y033111D03*
X022489Y033111D03*
X023489Y033111D03*
X025439Y033111D03*
X026439Y033111D03*
X027439Y033111D03*
X028439Y033111D03*
X029439Y033111D03*
X030439Y033111D03*
D18*
X030439Y031811D03*
X029439Y031811D03*
X028439Y031811D03*
X027439Y031811D03*
X026439Y031811D03*
X025439Y031811D03*
X023489Y031811D03*
X022489Y031811D03*
X021489Y031811D03*
X020489Y031811D03*
X019489Y031811D03*
X018489Y031811D03*
D19*
X018489Y033261D02*
X018489Y035511D01*
X019489Y035511D02*
X019489Y033261D01*
X020489Y033261D02*
X020489Y035511D01*
X021489Y035511D02*
X021489Y033261D01*
X022489Y033261D02*
X022489Y035511D01*
X023489Y035511D02*
X023489Y033261D01*
X025439Y033261D02*
X025439Y035511D01*
X026439Y035511D02*
X026439Y033261D01*
X027439Y033261D02*
X027439Y035511D01*
X028439Y035511D02*
X028439Y033261D01*
X029439Y033261D02*
X029439Y035511D01*
X030439Y035511D02*
X030439Y033261D01*
D20*
X038999Y027111D03*
X038999Y024111D03*
X038999Y021111D03*
X038999Y018111D03*
X038999Y015111D03*
X038999Y012111D03*
X019329Y026561D03*
X017499Y023661D03*
D21*
X027327Y024649D03*
D22*
X022264Y006711D03*
X016214Y006711D03*
X009564Y003561D03*
D23*
X009964Y023461D03*
X009964Y024461D03*
X009964Y025461D03*
D24*
X014439Y013011D03*
M02*
